<svg xmlns="http://www.w3.org/2000/svg" viewBox="0 0 640.8 113.32"><defs><style>.cls-1{fill:#7be9c2;}.cls-2{fill:#e6b3b6;}.cls-3{fill:#facc7a;}.cls-4{fill:#7aa8fa;}.cls-5{fill:#cba6e8;}.cls-6{fill:#eef4f3;}.cls-7{fill:#333;}.cls-8{fill:#2c2e2e;}</style></defs><title>Artboard 52final</title><g id="Information"><rect class="cls-1" x="12.03" y="21.33" width="71.05" height="70.65" rx="35.32" ry="35.32" transform="translate(-9.11 104.21) rotate(-90)"/><rect class="cls-2" x="102.97" y="21.33" width="71.05" height="70.65" rx="35.32" ry="35.32" transform="translate(81.84 195.16) rotate(-90)"/><rect class="cls-3" x="193.92" y="21.33" width="71.05" height="70.65" rx="35.32" ry="35.32" transform="translate(172.79 286.11) rotate(-90)"/><rect class="cls-4" x="284.87" y="21.33" width="71.05" height="70.65" rx="35.32" ry="35.32" transform="translate(263.74 377.06) rotate(-90)"/><rect class="cls-5" x="375.82" y="21.33" width="71.05" height="70.65" rx="35.32" ry="35.32" transform="translate(354.69 468.01) rotate(-90)"/><path class="cls-6" d="M502.3,91.68a34.86,34.86,0,0,1-34.83-34.82v-.4a34.83,34.83,0,1,1,69.65,0v.4A34.86,34.86,0,0,1,502.3,91.68Z"/><path class="cls-7" d="M502.3,22.13a34.37,34.37,0,0,1,34.32,34.33v.4a34.33,34.33,0,0,1-68.65,0v-.4A34.37,34.37,0,0,1,502.3,22.13m0-1A35.33,35.33,0,0,0,467,56.46v.4a35.33,35.33,0,0,0,70.65,0v-.4A35.32,35.32,0,0,0,502.3,21.13Z"/><rect class="cls-8" x="557.72" y="21.33" width="71.05" height="70.65" rx="35.32" ry="35.32" transform="translate(536.59 649.91) rotate(-90)"/></g></svg>