<svg xmlns="http://www.w3.org/2000/svg" viewBox="0 0 1920 1080"><defs><style>.cls-1,.cls-35{fill:#eef4f3;}.cls-2{font-size:40.26px;}.cls-2,.cls-3,.cls-34{fill:#2c2e2e;}.cls-2,.cls-34{font-family:Moon-Bold, Moon;}.cls-18,.cls-19,.cls-2,.cls-32,.cls-34,.cls-4,.cls-5,.cls-6{font-weight:700;}.cls-3{font-size:20.64px;}.cls-18,.cls-19,.cls-3,.cls-32{font-family:PTSerif-Bold, PT Serif;}.cls-4{letter-spacing:-0.04em;}.cls-6{letter-spacing:0.02em;}.cls-10,.cls-7,.cls-8,.cls-9{font-family:PTSerif-Regular, PT Serif;}.cls-13,.cls-7{letter-spacing:-0.04em;}.cls-8{letter-spacing:0.02em;}.cls-10,.cls-27{letter-spacing:-0.03em;}.cls-11{letter-spacing:-0.04em;}.cls-12{letter-spacing:-0.04em;}.cls-14{letter-spacing:-0.04em;}.cls-15{letter-spacing:-0.09em;}.cls-16{letter-spacing:-0.01em;}.cls-17{letter-spacing:-0.01em;}.cls-19{letter-spacing:-0.01em;}.cls-20{letter-spacing:-0.04em;}.cls-21{letter-spacing:-0.01em;}.cls-22{letter-spacing:-0.04em;}.cls-23{letter-spacing:-0.03em;}.cls-24{letter-spacing:-0.03em;}.cls-25{letter-spacing:0em;}.cls-26{letter-spacing:-0.03em;}.cls-28{letter-spacing:0.04em;}.cls-29{letter-spacing:0.04em;}.cls-30{letter-spacing:0.04em;}.cls-31{letter-spacing:-0.04em;}.cls-32{letter-spacing:-0.03em;}.cls-33,.cls-37{fill:#7be9c2;}.cls-34{font-size:70px;}.cls-35{stroke:#eef4f3;}.cls-35,.cls-37{stroke-miterlimit:10;stroke-width:2px;}.cls-36{opacity:0.5;}.cls-37{stroke:#7be9c2;}.cls-38{opacity:0.6;}</style></defs><title>Artboard 18Web</title><g id="Background"><rect class="cls-1" x="0.81" y="-0.19" width="1920" height="1080"/></g><g id="Info"><text class="cls-2" transform="translate(591.71 365.3)">Accepting</text><text class="cls-2" transform="translate(1122.57 365.3)">Monday APRIL 2, 2018</text><text class="cls-3" transform="translate(591.71 479.21)"><tspan class="cls-4">A</tspan><tspan class="cls-5" x="14.3" y="0">ccepting</tspan><tspan class="cls-6" x="97.94" y="0"> </tspan><tspan class="cls-5" x="103.88" y="0">where</tspan><tspan class="cls-6" x="164.33" y="0"> </tspan><tspan class="cls-5" x="170.27" y="0">you</tspan><tspan class="cls-6" x="206.26" y="0"> </tspan><tspan class="cls-5" x="212.21" y="0">are</tspan><tspan class="cls-6" x="243.68" y="0"> </tspan><tspan class="cls-5" x="249.63" y="0">at</tspan><tspan class="cls-7" x="269.35" y="0">,</tspan><tspan class="cls-8" x="274.37" y="0"> </tspan><tspan class="cls-9" x="279.72" y="0">accepting</tspan><tspan class="cls-8" x="368.41" y="0"> </tspan><tspan class="cls-9" x="373.77" y="0">your</tspan><tspan class="cls-8" x="415.37" y="0"> </tspan><tspan class="cls-9" x="420.72" y="0">imperfections</tspan><tspan class="cls-8" x="548.25" y="0"> </tspan><tspan class="cls-9" x="553.6" y="0">and</tspan><tspan class="cls-8" x="587.73" y="0"> </tspan><tspan class="cls-9" x="593.09" y="0">current</tspan><tspan class="cls-8" x="660.69" y="0"> </tspan><tspan class="cls-9" x="666.04" y="0">standing</tspan><tspan class="cls-8" x="746.09" y="0"> </tspan><tspan class="cls-9" x="751.44" y="0">in</tspan><tspan class="cls-8" x="769.91" y="0"> </tspan><tspan class="cls-9" x="775.26" y="0">life</tspan><tspan class="cls-7" x="805.12" y="0">.</tspan><tspan class="cls-8" x="810.06" y="0"> </tspan><tspan class="cls-9" x="815.41" y="0">It</tspan><tspan class="cls-10" x="830.33" y="0">’</tspan><tspan class="cls-9" x="835.75" y="0">s</tspan><tspan class="cls-8" x="844.69" y="0"> </tspan><tspan class="cls-9" x="850.04" y="0">okay</tspan><tspan class="cls-8" x="892.94" y="0"> </tspan><tspan class="cls-9" x="898.3" y="0">to</tspan><tspan class="cls-8" x="917.36" y="0"> </tspan><tspan class="cls-9" x="922.72" y="0">not</tspan><tspan class="cls-8" x="954.04" y="0"> </tspan><tspan class="cls-9" x="959.4" y="0">be </tspan><tspan class="cls-9"><tspan x="0" y="24.76">okay</tspan><tspan class="cls-11" x="42.9" y="24.76"> </tspan><tspan x="47.14" y="24.76">and</tspan><tspan class="cls-11" x="81.27" y="24.76"> </tspan><tspan x="85.51" y="24.76">ask</tspan><tspan class="cls-11" x="115.51" y="24.76"> </tspan><tspan x="119.75" y="24.76">for</tspan><tspan class="cls-12" x="146.14" y="24.76"> </tspan><tspan x="150.38" y="24.76">help</tspan><tspan class="cls-13" x="190.76" y="24.76">,</tspan><tspan class="cls-11" x="195.78" y="24.76"> </tspan><tspan x="200.02" y="24.76">the</tspan><tspan class="cls-11" x="230.16" y="24.76"> </tspan><tspan x="234.4" y="24.76">only</tspan><tspan class="cls-11" x="274.7" y="24.76"> </tspan><tspan x="278.94" y="24.76">thing</tspan><tspan class="cls-11" x="328.03" y="24.76"> </tspan><tspan x="332.27" y="24.76">that</tspan><tspan class="cls-11" x="370.11" y="24.76"> </tspan><tspan x="374.35" y="24.76">this</tspan><tspan class="cls-11" x="409.27" y="24.76"> </tspan><tspan x="413.5" y="24.76">shows</tspan><tspan class="cls-14" x="469.92" y="24.76"> </tspan><tspan x="474.16" y="24.76">is</tspan><tspan class="cls-12" x="489.31" y="24.76"> </tspan><tspan x="493.54" y="24.76">your</tspan><tspan class="cls-14" x="535.14" y="24.76"> </tspan><tspan x="539.38" y="24.76">strength</tspan><tspan class="cls-13" x="617.16" y="24.76">.</tspan><tspan class="cls-12" x="622.09" y="24.76"> </tspan><tspan class="cls-15" x="626.33" y="24.76">Y</tspan><tspan x="637.74" y="24.76">ou</tspan><tspan class="cls-12" x="660.99" y="24.76"> </tspan><tspan x="665.23" y="24.76">are</tspan><tspan class="cls-14" x="693.96" y="24.76"> </tspan><tspan x="698.19" y="24.76">worth</tspan><tspan class="cls-12" x="752.32" y="24.76"> </tspan><tspan x="756.56" y="24.76">more</tspan><tspan class="cls-14" x="804.08" y="24.76"> </tspan><tspan x="808.32" y="24.76">than</tspan><tspan class="cls-12" x="850.77" y="24.76"> </tspan><tspan x="855" y="24.76">what</tspan><tspan class="cls-14" x="900.22" y="24.76"> </tspan><tspan x="904.45" y="24.76">you</tspan><tspan class="cls-12" x="938.13" y="24.76"> </tspan><tspan x="942.37" y="24.76">may </tspan><tspan x="0" y="49.53">think</tspan><tspan class="cls-16" x="48.89" y="49.53"> </tspan><tspan x="53.68" y="49.53">all</tspan><tspan class="cls-17" x="76.52" y="49.53"> </tspan><tspan x="81.32" y="49.53">you</tspan><tspan class="cls-16" x="114.99" y="49.53"> </tspan><tspan x="119.79" y="49.53">need</tspan><tspan class="cls-17" x="164.26" y="49.53"> </tspan><tspan x="169.05" y="49.53">to</tspan><tspan class="cls-16" x="188.12" y="49.53"> </tspan><tspan x="192.91" y="49.53">do</tspan><tspan class="cls-17" x="215.78" y="49.53"> </tspan><tspan x="220.57" y="49.53">is</tspan><tspan class="cls-16" x="235.72" y="49.53"> </tspan><tspan x="240.51" y="49.53">step</tspan><tspan class="cls-17" x="279.16" y="49.53"> </tspan><tspan x="283.95" y="49.53">back</tspan><tspan class="cls-16" x="325.88" y="49.53"> </tspan><tspan x="330.68" y="49.53">and</tspan><tspan class="cls-17" x="364.81" y="49.53"> </tspan><tspan x="369.6" y="49.53">breathe</tspan><tspan class="cls-13" x="439.72" y="49.53">.</tspan><tspan class="cls-17" x="444.65" y="49.53"> </tspan><tspan class="cls-18" x="449.45" y="49.53">Honor</tspan><tspan class="cls-19" x="512.01" y="49.53"> </tspan><tspan class="cls-18" x="517.34" y="49.53">yourself</tspan><tspan class="cls-13" x="597.16" y="49.53">.</tspan><tspan class="cls-16" x="602.09" y="49.53"> </tspan><tspan class="cls-20" x="606.88" y="49.53">A</tspan><tspan x="620.23" y="49.53">ccept</tspan><tspan class="cls-16" x="669.18" y="49.53"> </tspan><tspan x="673.97" y="49.53">what</tspan><tspan class="cls-21" x="719.19" y="49.53"> </tspan><tspan x="723.98" y="49.53">might</tspan><tspan class="cls-16" x="778.62" y="49.53"> </tspan><tspan x="783.42" y="49.53">be</tspan><tspan class="cls-16" x="805.04" y="49.53"> </tspan><tspan x="809.84" y="49.53">causing</tspan><tspan class="cls-16" x="879.98" y="49.53"> </tspan><tspan x="884.77" y="49.53">you</tspan><tspan class="cls-21" x="918.45" y="49.53"> </tspan><tspan x="923.24" y="49.53">stress</tspan><tspan class="cls-13" x="976.01" y="49.53">,</tspan><tspan x="981.02" y="49.53"> </tspan><tspan x="0" y="74.29">anxiet</tspan><tspan class="cls-22" x="57.63" y="74.29">y</tspan><tspan class="cls-13" x="67.21" y="74.29">,</tspan><tspan class="cls-23" x="72.22" y="74.29"> </tspan><tspan x="76.54" y="74.29">or</tspan><tspan class="cls-23" x="95.87" y="74.29"> </tspan><tspan x="100.18" y="74.29">fear</tspan><tspan class="cls-24" x="135.96" y="74.29"> </tspan><tspan x="140.27" y="74.29">and</tspan><tspan class="cls-23" x="174.4" y="74.29"> </tspan><tspan x="178.71" y="74.29">face</tspan><tspan class="cls-23" x="216.19" y="74.29"> </tspan><tspan x="220.5" y="74.29">it</tspan><tspan class="cls-23" x="234.37" y="74.29"> </tspan><tspan x="238.68" y="74.29">in</tspan><tspan class="cls-23" x="257.14" y="74.29"> </tspan><tspan x="261.46" y="74.29">a</tspan><tspan class="cls-24" x="271.88" y="74.29"> </tspan><tspan x="276.19" y="74.29">healthy</tspan><tspan class="cls-23" x="345.5" y="74.29"> </tspan><tspan x="349.81" y="74.29">manne</tspan><tspan class="cls-13" x="412.93" y="74.29">r.</tspan><tspan class="cls-23" x="424.96" y="74.29"> </tspan><tspan class="cls-25" x="429.27" y="74.29">Find</tspan><tspan class="cls-23" x="470.42" y="74.29"> </tspan><tspan x="474.73" y="74.29">people</tspan><tspan class="cls-23" x="536.47" y="74.29"> </tspan><tspan x="540.79" y="74.29">to</tspan><tspan class="cls-23" x="559.85" y="74.29"> </tspan><tspan x="564.16" y="74.29">help</tspan><tspan class="cls-23" x="604.55" y="74.29"> </tspan><tspan x="608.86" y="74.29">you</tspan><tspan class="cls-23" x="642.53" y="74.29"> </tspan><tspan x="646.84" y="74.29">face</tspan><tspan class="cls-26" x="684.32" y="74.29"> </tspan><tspan x="688.63" y="74.29">those</tspan><tspan class="cls-23" x="739.12" y="74.29"> </tspan><tspan x="743.43" y="74.29">fears</tspan><tspan class="cls-13" x="788.15" y="74.29">.</tspan><tspan class="cls-23" x="793.08" y="74.29"> </tspan><tspan x="797.39" y="74.29">Sometimes</tspan><tspan class="cls-23" x="899.04" y="74.29"> </tspan><tspan x="903.35" y="74.29">it</tspan><tspan class="cls-27" x="917.22" y="74.29">’</tspan><tspan x="922.65" y="74.29">s</tspan><tspan class="cls-23" x="931.58" y="74.29"> </tspan><tspan x="935.89" y="74.29">good </tspan><tspan x="0" y="99.05">to</tspan><tspan class="cls-28" x="19.07" y="99.05"> </tspan><tspan x="24.96" y="99.05">wait</tspan><tspan class="cls-13" x="64.28" y="99.05">,</tspan><tspan class="cls-29" x="69.29" y="99.05"> </tspan><tspan x="75.19" y="99.05">but</tspan><tspan class="cls-28" x="105.94" y="99.05"> </tspan><tspan x="111.83" y="99.05">if</tspan><tspan class="cls-29" x="125.1" y="99.05"> </tspan><tspan x="131" y="99.05">the</tspan><tspan class="cls-28" x="161.15" y="99.05"> </tspan><tspan x="167.04" y="99.05">source</tspan><tspan class="cls-28" x="227.16" y="99.05"> </tspan><tspan x="233.05" y="99.05">your</tspan><tspan class="cls-29" x="274.65" y="99.05"> </tspan><tspan x="280.55" y="99.05">stress</tspan><tspan class="cls-28" x="333.32" y="99.05"> </tspan><tspan x="339.21" y="99.05">is</tspan><tspan class="cls-28" x="354.36" y="99.05"> </tspan><tspan x="360.26" y="99.05">procrastination</tspan><tspan class="cls-28" x="502.25" y="99.05"> </tspan><tspan x="508.15" y="99.05">try</tspan><tspan class="cls-28" x="534.15" y="99.05"> </tspan><tspan x="540.04" y="99.05">to</tspan><tspan class="cls-28" x="559.11" y="99.05"> </tspan><tspan x="565.01" y="99.05">confront</tspan><tspan class="cls-28" x="644.6" y="99.05"> </tspan><tspan x="650.5" y="99.05">the</tspan><tspan class="cls-30" x="680.65" y="99.05"> </tspan><tspan x="686.54" y="99.05">task</tspan><tspan class="cls-28" x="724.2" y="99.05"> </tspan><tspan x="730.1" y="99.05">and</tspan><tspan class="cls-28" x="764.23" y="99.05"> </tspan><tspan x="770.13" y="99.05">look</tspan><tspan class="cls-28" x="809.81" y="99.05"> </tspan><tspan x="815.71" y="99.05">at</tspan><tspan class="cls-28" x="833.78" y="99.05"> </tspan><tspan x="839.68" y="99.05">in</tspan><tspan class="cls-30" x="858.15" y="99.05"> </tspan><tspan x="864.05" y="99.05">a</tspan><tspan class="cls-28" x="874.47" y="99.05"> </tspan><tspan x="880.37" y="99.05">way</tspan><tspan class="cls-28" x="916.23" y="99.05"> </tspan><tspan x="922.13" y="99.05">that</tspan><tspan class="cls-28" x="959.97" y="99.05"> </tspan><tspan x="965.87" y="99.05">is </tspan><tspan x="0" y="123.81">manageable</tspan><tspan class="cls-13" x="110.4" y="123.81">.</tspan><tspan x="115.33" y="123.81" xml:space="preserve">  There are many resources available to you friends</tspan><tspan class="cls-13" x="579.96" y="123.81">,</tspan><tspan x="584.97" y="123.81" xml:space="preserve"> famil</tspan><tspan class="cls-22" x="637.7" y="123.81">y</tspan><tspan class="cls-13" x="647.27" y="123.81">,</tspan><tspan x="652.29" y="123.81" xml:space="preserve"> campus services</tspan><tspan class="cls-13" x="805.47" y="123.81">,</tspan><tspan x="810.48" y="123.81" xml:space="preserve"> etc</tspan><tspan class="cls-31" x="843.15" y="123.81">.</tspan><tspan x="848.08" y="123.81"> </tspan><tspan class="cls-18" x="853.09" y="123.81">Utilize them</tspan><tspan class="cls-32" x="975.52" y="123.81">.</tspan></tspan></text><rect class="cls-33" x="512.33" y="398.89" width="1408.48" height="20"/><text class="cls-34" transform="translate(331.06 433.18)">1</text><path class="cls-35" d="M351.14,587.7c-98.6,0-178.81-80.21-178.81-178.81s80.21-178.82,178.81-178.82S530,310.29,530,408.89,449.74,587.7,351.14,587.7Zm0-324.4c-80.27,0-145.58,65.31-145.58,145.59s65.31,145.58,145.58,145.58,145.59-65.31,145.59-145.58S431.42,263.3,351.14,263.3Z"/><g class="cls-36"><path class="cls-37" d="M351.14,587.7c-98.59,0-178.81-80.21-178.81-178.81s80.22-178.82,178.81-178.82S530,310.29,530,408.89,449.74,587.7,351.14,587.7Zm0-324.4c-80.27,0-145.58,65.31-145.58,145.59s65.31,145.58,145.58,145.58,145.59-65.31,145.59-145.58S431.42,263.3,351.14,263.3Z"/></g><g class="cls-38"><path class="cls-33" d="M351.14,579.4c-94,0-170.5-76.49-170.5-170.51s76.49-170.51,170.5-170.51,170.51,76.49,170.51,170.51S445.16,579.4,351.14,579.4Zm0-324.41c-84.85,0-153.89,69-153.89,153.9s69,153.89,153.89,153.89S505,493.74,505,408.89,436,255,351.14,255Z"/></g></g></svg>