<svg id="Layer_1" data-name="Layer 1" xmlns="http://www.w3.org/2000/svg" xmlns:xlink="http://www.w3.org/1999/xlink" viewBox="0 0 1207.87 447.17"><defs><style>.cls-1{fill:#7be9c2;}.cls-2{opacity:0.35;}.cls-3{fill:#fff;}.cls-4{opacity:0.3;fill:url(#linear-gradient);}</style><linearGradient id="linear-gradient" y1="223.77" x2="1207.81" y2="223.77" gradientUnits="userSpaceOnUse"><stop offset="0" stop-color="#7be9c2"/><stop offset="0.24" stop-color="#e6b3b6"/><stop offset="0.51" stop-color="#facc7a"/><stop offset="0.77" stop-color="#788afa"/><stop offset="1" stop-color="#c27be9"/></linearGradient></defs><title>Artboard 30timeline</title><rect class="cls-1" x="-1.05" width="1208.86" height="447.17"/><g class="cls-2"><path class="cls-3" d="M392.3,53.23a1.18,1.18,0,0,1,1.19,1.2,1.13,1.13,0,0,1-.35.83,1.11,1.11,0,0,1-.84.35h-6.09v3.65h4.39a1.19,1.19,0,0,1,.85.35,1.15,1.15,0,0,1,.35.84,1.18,1.18,0,0,1-1.2,1.19h-4.39v4.86a1.08,1.08,0,0,1-.36.83,1.19,1.19,0,0,1-2-.83V54.41a1.15,1.15,0,0,1,.35-.85,1.11,1.11,0,0,1,.84-.35h0Z"/><path class="cls-3" d="M402.5,67.68a7.24,7.24,0,1,1,0-14.47,7.24,7.24,0,0,1,0,14.47Zm0-12.1A4.87,4.87,0,1,0,405.94,57,4.68,4.68,0,0,0,402.5,55.58Z"/><path class="cls-3" d="M423.11,57.41a3.86,3.86,0,0,1-.82,2.41,4.31,4.31,0,0,1-2.1,1.52L422.48,66a1.13,1.13,0,0,1,0,.9,1.15,1.15,0,0,1-.59.69,1.24,1.24,0,0,1-.53.12,1.11,1.11,0,0,1-1.06-.67l-2.67-5.41h-2v4.81a1.2,1.2,0,0,1-1.19,1.18,1.18,1.18,0,0,1-.84-.35,1.13,1.13,0,0,1-.34-.83v-12a1.18,1.18,0,0,1,1.18-1.19h4.17a4.5,4.5,0,0,1,3.18,1.23A3.9,3.9,0,0,1,423.11,57.41Zm-4.41,1.82a2.24,2.24,0,0,0,1.45-.55,1.65,1.65,0,0,0,0-2.57,2.19,2.19,0,0,0-1.5-.54h-3v3.66Z"/><path class="cls-3" d="M432.91,67.64a7.21,7.21,0,1,1,4.38-12.93,1.21,1.21,0,0,1,.47.79,1.2,1.2,0,0,1-1.92,1.1,4.84,4.84,0,0,0-6.35.42,4.82,4.82,0,0,0,6.66,7l.07-.06V61.29h-3.94a1.18,1.18,0,0,1-.84-.34,1.2,1.2,0,0,1,.84-2.05h5.14a1.2,1.2,0,0,1,1.2,1.2l0,6.39a1.21,1.21,0,0,1-1.19,1.19h0a1.12,1.12,0,0,1-.72-.26,1.13,1.13,0,0,1-.42-.61A7.13,7.13,0,0,1,432.91,67.64Z"/><path class="cls-3" d="M443.6,67.68a1.21,1.21,0,0,1-1.19-1.19v-12a1.19,1.19,0,0,1,2.38,0v12a1.21,1.21,0,0,1-1.19,1.19Z"/><path class="cls-3" d="M458.19,53.35a1.14,1.14,0,0,1,.67.6,1.16,1.16,0,0,1,.06.91l-4.23,12h0a1,1,0,0,1-.07.15s0,0,0,0a.57.57,0,0,1-.08.13s0,0,0,0l-.1.1,0,0a.4.4,0,0,1-.12.1s0,0,0,0l-.13.07h0l-.12,0h0l-.13,0h-.05l-.2,0-.19,0h-.05l-.13,0s0,0,0,0l-.12,0h0l-.12-.07v0h0a.29.29,0,0,1-.12-.1s0,0,0,0l-.09-.1s0,0,0,0a.57.57,0,0,1-.08-.13s0,0,0,0a1,1,0,0,1-.07-.15h0l-4.23-12a1.16,1.16,0,0,1,.06-.91,1.14,1.14,0,0,1,.67-.6,1.15,1.15,0,0,1,.91,0,1.14,1.14,0,0,1,.6.67l3.1,8.84,3.11-8.84a1.14,1.14,0,0,1,.6-.67l.45-.21Z"/><path class="cls-3" d="M463.24,67.68a1.21,1.21,0,0,1-1.19-1.19v-12a1.2,1.2,0,0,1,1.19-1.19,1.21,1.21,0,0,1,1.19,1.19v12a1.23,1.23,0,0,1-1.19,1.19Z"/><path class="cls-3" d="M478.41,67.22h0l-7.24-9.32v8.6a1.19,1.19,0,0,1-2.38,0V54.42a1.17,1.17,0,0,1,.81-1.12,1,1,0,0,1,.72,0,1.18,1.18,0,0,1,.6.41L478.15,63v-8.6a1.18,1.18,0,0,1,1.19-1.19,1.2,1.2,0,0,1,1.19,1.19V66.51a.18.18,0,0,1,0,.06v.05a.18.18,0,0,1,0,.06s0,0,0,.06v.05s0,0,0,.06,0,0,0,.05l0,.06,0,.05,0,0a.33.33,0,0,0,0,.06l0,0a.21.21,0,0,1,0,.06l0,0,0,0,0,0s0,0,0,0,0,0-.06,0,0,0,0,0h0l-.16.11h0l-.16.07h0l-.17,0h-.35l-.1,0h0l-.08,0,0,0-.08,0a.05.05,0,0,1,0,0,.13.13,0,0,0-.08,0s0,0,0,0l-.07,0,0,0-.09-.08h0l0,0Z"/><path class="cls-3" d="M491.24,67.64a7.21,7.21,0,1,1,4.38-12.93,1.21,1.21,0,0,1,.47.79,1.2,1.2,0,0,1-1.92,1.1,4.84,4.84,0,0,0-6.35.42,4.82,4.82,0,0,0,6.66,7l.07-.06V61.29h-3.94a1.18,1.18,0,0,1-.84-.34,1.2,1.2,0,0,1,.84-2.05h5.14a1.19,1.19,0,0,1,.85.35,1.15,1.15,0,0,1,.35.85l0,6.39a1.07,1.07,0,0,1-.35.83,1.12,1.12,0,0,1-.84.36h0a1.12,1.12,0,0,1-.72-.26,1.13,1.13,0,0,1-.42-.61A7.13,7.13,0,0,1,491.24,67.64Z"/><path class="cls-3" d="M719.62,65.29a1.15,1.15,0,0,1,.84.35,1.19,1.19,0,0,1,.35.85,1.21,1.21,0,0,1-1.19,1.19h-7.29a1.12,1.12,0,0,1-.84-.36,1.07,1.07,0,0,1-.35-.83V54.41a1.2,1.2,0,0,1,1.19-1.2h0l7.28,0a1.18,1.18,0,0,1,1.19,1.2,1.13,1.13,0,0,1-.35.83,1.11,1.11,0,0,1-.84.35h-6.09v3.65h4.39a1.15,1.15,0,0,1,.84.35,1.12,1.12,0,0,1,.36.84,1.16,1.16,0,0,1-.36.85,1.14,1.14,0,0,1-.84.34h-4.39v3.66Z"/><path class="cls-3" d="M733.4,67.22h0l-7.25-9.32v8.6a1.19,1.19,0,0,1-2.38,0V54.42a1.18,1.18,0,0,1,.22-.69,1.15,1.15,0,0,1,.59-.43,1,1,0,0,1,.72,0,1.14,1.14,0,0,1,.6.41L733.14,63v-8.6a1.19,1.19,0,0,1,2.38,0V66.51a.18.18,0,0,1,0,.06v.05a.18.18,0,0,1,0,.06s0,0,0,.06v.05s0,0,0,.06,0,0,0,.05,0,0,0,.06l0,.05,0,0a.33.33,0,0,0,0,.06l0,0,0,.06,0,0,0,0,0,0s0,0,0,0l0,0h0l-.15.11h0l-.16.07h0l-.17,0h-.35l-.1,0h0l-.08,0,0,0-.08,0,0,0-.07,0,0,0-.07,0,0,0a.24.24,0,0,1-.09-.08h0l0,0Z"/><path class="cls-3" d="M746.15,67.68a7.2,7.2,0,1,1,4.39-12.91A1.2,1.2,0,0,1,750,56.9a1.19,1.19,0,0,1-.89-.24,4.67,4.67,0,0,0-2.93-1,4.81,4.81,0,0,0,0,9.62A4.69,4.69,0,0,0,749.4,64a1.19,1.19,0,0,1,1.68.08,1.17,1.17,0,0,1,.31.86,1.12,1.12,0,0,1-.38.82A7,7,0,0,1,746.15,67.68Z"/><path class="cls-3" d="M761.08,67.68a7.24,7.24,0,1,1,5.12-12.36,7.25,7.25,0,0,1-5.12,12.36Zm0-12.1A4.87,4.87,0,1,0,764.52,57,4.67,4.67,0,0,0,761.08,55.58Z"/><path class="cls-3" d="M780.77,53.23a1.16,1.16,0,0,1,1.17,1.17v8.12a5.16,5.16,0,0,1-10.31,0V54.4a1.13,1.13,0,0,1,.35-.83,1.09,1.09,0,0,1,.82-.34,1.13,1.13,0,0,1,.83.34,1.12,1.12,0,0,1,.34.83v8.12a2.82,2.82,0,1,0,5.63,0V54.4a1.13,1.13,0,0,1,.35-.83A1.09,1.09,0,0,1,780.77,53.23Z"/><path class="cls-3" d="M795.81,57.41a3.87,3.87,0,0,1-.83,2.41,4.31,4.31,0,0,1-2.1,1.52L795.17,66a1.13,1.13,0,0,1,.05.9,1.15,1.15,0,0,1-.59.69,1.24,1.24,0,0,1-.53.12,1.09,1.09,0,0,1-1.05-.67l-2.68-5.41h-2v4.81a1.2,1.2,0,0,1-1.19,1.18A1.18,1.18,0,0,1,786,66.41v-12a1.18,1.18,0,0,1,.34-.84,1.14,1.14,0,0,1,.84-.35h4.17a4.5,4.5,0,0,1,3.18,1.23A3.91,3.91,0,0,1,795.81,57.41Zm-4.42,1.82a2.24,2.24,0,0,0,1.45-.55,1.65,1.65,0,0,0,0-2.57,2.19,2.19,0,0,0-1.5-.54h-3v3.66Z"/><path class="cls-3" d="M799,67.59a1.17,1.17,0,0,1-.64-.65,1.11,1.11,0,0,1,0-.91L799.65,63h0l3.71-9,0-.1,0,0s0,0,0-.05l0,0,0,0,0,0s0,0,0-.05l0,0s.05,0,.06,0l0,0,0,0,0,0,.06,0,.07,0,0,0,0,0,.07,0,.07,0h.5a.11.11,0,0,1,.07,0h0a.92.92,0,0,1,.23.09l0,0,.06,0,0,0,.05,0,0,0,0,0s0,0,0,0l0,.05,0,0,0,0s0,0,0,.05l0,0,0,.1,3.71,9h0L810.54,66a1.2,1.2,0,0,1,0,.91,1.22,1.22,0,0,1-.65.65,1.2,1.2,0,0,1-.45.09,1.1,1.1,0,0,1-1.1-.74l-1-2.34h-5.83l-1,2.34a1.1,1.1,0,0,1-1.1.74h-.23Zm7.38-5.36-1.95-4.67-1.93,4.67Z"/><path class="cls-3" d="M819.79,67.64a7.21,7.21,0,1,1,4.38-12.93,1.18,1.18,0,0,1,.22,1.67,1.2,1.2,0,0,1-1.67.22,4.84,4.84,0,0,0-6.35.42A4.82,4.82,0,0,0,823,64l.07-.06V61.29h-3.94a1.19,1.19,0,0,1-.84-2,1.13,1.13,0,0,1,.84-.35h5.14a1.2,1.2,0,0,1,1.2,1.2l0,6.39a1.21,1.21,0,0,1-1.19,1.19h0a1.12,1.12,0,0,1-.72-.26,1.13,1.13,0,0,1-.42-.61A7.13,7.13,0,0,1,819.79,67.64Z"/><path class="cls-3" d="M830.48,67.68a1.21,1.21,0,0,1-1.19-1.19v-12a1.2,1.2,0,0,1,1.19-1.19,1.21,1.21,0,0,1,1.19,1.19v12a1.23,1.23,0,0,1-1.19,1.19Z"/><path class="cls-3" d="M845.65,67.22h0l-7.24-9.32v8.6a1.23,1.23,0,0,1-1.19,1.19A1.21,1.21,0,0,1,836,66.49V54.42a1.17,1.17,0,0,1,.81-1.12,1,1,0,0,1,.72,0,1.18,1.18,0,0,1,.6.41L845.39,63v-8.6a1.14,1.14,0,0,1,.34-.84,1.19,1.19,0,0,1,.85-.35,1.2,1.2,0,0,1,1.19,1.19V66.51a.18.18,0,0,1,0,.06v.05a.35.35,0,0,0,0,.06.35.35,0,0,1,0,.06v.05l0,.06s0,0,0,.05l0,.06,0,.05,0,0a.33.33,0,0,0,0,.06l0,0,0,.06,0,0,0,0,0,0s0,0,0,0l0,0h0a.72.72,0,0,1-.15.11h0l-.16.07h0l-.17,0h-.35l-.1,0h0l-.08,0,0,0-.08,0,0,0-.07,0-.05,0-.07,0,0,0-.09-.08h0l0,0Z"/><path class="cls-3" d="M858.48,67.64a7.21,7.21,0,1,1,4.38-12.93,1.21,1.21,0,0,1,.47.79,1.2,1.2,0,0,1-1.92,1.1,4.84,4.84,0,0,0-6.35.42,4.82,4.82,0,0,0,6.66,7l.07-.06V61.29h-3.94A1.18,1.18,0,0,1,857,61a1.2,1.2,0,0,1,.84-2.05H863a1.2,1.2,0,0,1,1.2,1.2l0,6.39A1.21,1.21,0,0,1,863,67.68h0a1.12,1.12,0,0,1-.72-.26,1.13,1.13,0,0,1-.42-.61A7.13,7.13,0,0,1,858.48,67.64Z"/><path class="cls-3" d="M212,391.92a1.17,1.17,0,0,1-.64-.65,1.2,1.2,0,0,1,0-.91l1.28-3.07h0l3.71-8.95,0-.1,0-.05,0-.05,0-.05,0,0,0,0,0-.05,0,0s0,0,.05,0l0,0,.05,0,0,0,.06,0,.07,0,0,0,0,0,.07,0,.07,0h.5l.08,0h0a.85.85,0,0,1,.22.09l0,0,.06,0,0,0,.05,0,0,0,.05,0,0,0,0,.05,0,0,0,.05a.09.09,0,0,0,0,.05l0,.05.05.1,3.71,8.95h0l1.28,3.07a1.2,1.2,0,0,1-.65,1.56,1.13,1.13,0,0,1-.45.09,1.1,1.1,0,0,1-1.1-.74l-1-2.34h-5.84l-1,2.34a1.09,1.09,0,0,1-1.09.74h-.24Zm7.38-5.35-2-4.68-1.93,4.68Z"/><path class="cls-3" d="M232.15,392a7.2,7.2,0,0,1,0-14.4,7.07,7.07,0,0,1,4.4,1.49,1.2,1.2,0,0,1,.45.79,1.16,1.16,0,0,1-.24.88,1.14,1.14,0,0,1-.79.46,1.16,1.16,0,0,1-.88-.24,4.7,4.7,0,0,0-2.94-1,4.81,4.81,0,0,0,0,9.62,4.68,4.68,0,0,0,3.25-1.25,1.13,1.13,0,0,1,.86-.31,1.11,1.11,0,0,1,.82.39,1.13,1.13,0,0,1,.31.86,1.12,1.12,0,0,1-.38.82A7,7,0,0,1,232.15,392Z"/><path class="cls-3" d="M246.11,392a7.2,7.2,0,0,1,0-14.4,7,7,0,0,1,4.39,1.49,1.17,1.17,0,0,1,.46.79,1.12,1.12,0,0,1-.25.88,1.14,1.14,0,0,1-.78.46A1.18,1.18,0,0,1,249,381a4.81,4.81,0,1,0,.31,7.38,1.15,1.15,0,0,1,.86-.31,1.11,1.11,0,0,1,.83.39,1.17,1.17,0,0,1,.31.86,1.12,1.12,0,0,1-.38.82A7,7,0,0,1,246.11,392Z"/><path class="cls-3" d="M262.13,389.62a1.15,1.15,0,0,1,.84.35,1.19,1.19,0,0,1,.35.85,1.21,1.21,0,0,1-1.19,1.19h-7.29a1.12,1.12,0,0,1-.84-.36,1.07,1.07,0,0,1-.35-.83V378.74a1.12,1.12,0,0,1,.35-.85,1.15,1.15,0,0,1,.84-.35h0l7.28,0a1.18,1.18,0,0,1,1.19,1.2,1.21,1.21,0,0,1-1.19,1.19h0l-6.08,0v3.65h4.39a1.19,1.19,0,0,1,.85.35,1.15,1.15,0,0,1,.35.84,1.18,1.18,0,0,1-1.2,1.19H256v3.66Z"/><path class="cls-3" d="M270.93,377.53a4.47,4.47,0,0,1,3.19,1.24,4,4,0,0,1,.05,5.92,4.46,4.46,0,0,1-3.08,1.28h-3.17v4.85a1.11,1.11,0,0,1-.35.83,1.14,1.14,0,0,1-.84.36,1.12,1.12,0,0,1-.84-.36,1.07,1.07,0,0,1-.35-.83v-12.1a1.11,1.11,0,0,1,.35-.84,1.15,1.15,0,0,1,.84-.35Zm.07,6.06a2.17,2.17,0,0,0,1.46-.55,1.68,1.68,0,0,0,.6-1.29,1.66,1.66,0,0,0-.62-1.3,2.24,2.24,0,0,0-1.51-.54h-3v3.68Z"/><path class="cls-3" d="M280.93,379.92h-3a1.16,1.16,0,0,1-.85-.36,1.14,1.14,0,0,1-.34-.83,1.18,1.18,0,0,1,1.19-1.19h8.37a1.18,1.18,0,0,1,1.18,1.19,1.1,1.1,0,0,1-.34.83,1.12,1.12,0,0,1-.84.36h-3v10.9a1.2,1.2,0,0,1-1.19,1.19,1.21,1.21,0,0,1-1.19-1.19Z"/><path class="cls-3" d="M290.47,392a1.12,1.12,0,0,1-.84-.36,1.07,1.07,0,0,1-.35-.83v-12a1.11,1.11,0,0,1,.35-.84,1.17,1.17,0,0,1,1.67,0,1.11,1.11,0,0,1,.35.84v12a1.07,1.07,0,0,1-.35.83A1.11,1.11,0,0,1,290.47,392Z"/><path class="cls-3" d="M304.44,391.55h0l-7.24-9.32v8.6A1.23,1.23,0,0,1,296,392a1.21,1.21,0,0,1-1.19-1.19V378.75a1.12,1.12,0,0,1,.22-.69,1.13,1.13,0,0,1,.58-.43,1.08,1.08,0,0,1,.73,0,1.12,1.12,0,0,1,.59.41l7.25,9.33v-8.6a1.14,1.14,0,0,1,.34-.84,1.19,1.19,0,0,1,.85-.35,1.21,1.21,0,0,1,1.19,1.19v12.09a.35.35,0,0,0,0,.06V391a.35.35,0,0,0,0,.06.35.35,0,0,1,0,.06v.05l0,.06,0,.05a.39.39,0,0,0,0,.06l0,0,0,.05,0,.06,0,0,0,.06,0,0,0,0,0,0s0,0,0,0a.12.12,0,0,1,0,.05h0l-.15.1h0l-.16.07h0l-.17,0h-.35l-.1,0h0l-.09,0,0,0-.08,0,0,0a.11.11,0,0,0-.07,0l0,0-.07-.05,0,0-.09-.08h0v0l0,0Z"/><path class="cls-3" d="M316.29,392A7.21,7.21,0,1,1,320.67,379a1.17,1.17,0,0,1,.47.8,1.14,1.14,0,0,1-.24.87,1.18,1.18,0,0,1-.79.46,1.14,1.14,0,0,1-.89-.24,4.84,4.84,0,0,0-6.35.42,4.82,4.82,0,0,0,6.66,7l.08-.06v-2.64h-3.94a1.2,1.2,0,1,1,0-2.39h5.14a1.16,1.16,0,0,1,.84.35,1.15,1.15,0,0,1,.35.85l0,6.39a1.07,1.07,0,0,1-.35.83,1.12,1.12,0,0,1-.84.36h0a1.19,1.19,0,0,1-.72-.25,1.12,1.12,0,0,1-.41-.62A7.2,7.2,0,0,1,316.29,392Z"/><path class="cls-3" d="M564.24,392a1.21,1.21,0,0,1-1.19-1.19v-12a1.15,1.15,0,0,1,.34-.84,1.21,1.21,0,0,1,.84-.35l4.23,0a4.52,4.52,0,0,1,3.2,1.21,3.86,3.86,0,0,1,1.3,3,4,4,0,0,1-1.24,2.93,3.86,3.86,0,0,1,1.5,3.12,4,4,0,0,1-1.33,3A4.53,4.53,0,0,1,568.7,392Zm1.19-8.39h3a2.18,2.18,0,0,0,1.49-.55,1.74,1.74,0,0,0,.63-1.33,1.6,1.6,0,0,0-.62-1.27,2.23,2.23,0,0,0-1.5-.52l-3,0Zm0,6h3.27a2.22,2.22,0,0,0,1.51-.54,1.65,1.65,0,0,0,.63-1.3,1.58,1.58,0,0,0-.62-1.26,2.24,2.24,0,0,0-1.5-.53h-3.29Z"/><path class="cls-3" d="M585.24,389.62a1.13,1.13,0,0,1,.83.35,1.15,1.15,0,0,1,.35.85,1.07,1.07,0,0,1-.35.83,1.1,1.1,0,0,1-.83.36h-7.3a1.21,1.21,0,0,1-1.19-1.19V378.74a1.2,1.2,0,0,1,1.19-1.2h0l7.29,0a1.15,1.15,0,0,1,.84.35,1.18,1.18,0,0,1,.34.85,1.07,1.07,0,0,1-.35.83,1.1,1.1,0,0,1-.83.36h0l-6.09,0v3.65h4.39a1.17,1.17,0,0,1,.85.35,1.15,1.15,0,0,1,.35.84,1.19,1.19,0,0,1-.35.85,1.16,1.16,0,0,1-.85.34h-4.39v3.66Z"/><path class="cls-3" d="M590.78,377.56a1.21,1.21,0,0,1,1.19,1.19v10.88h5.33a1.2,1.2,0,0,1,1.19,1.19A1.21,1.21,0,0,1,597.3,392h-6.52a1.21,1.21,0,0,1-1.19-1.19V378.75a1.2,1.2,0,0,1,1.19-1.19Z"/><path class="cls-3" d="M602.31,392a1.12,1.12,0,0,1-.84-.36,1.07,1.07,0,0,1-.35-.83v-12a1.11,1.11,0,0,1,.35-.84,1.17,1.17,0,0,1,1.67,0,1.11,1.11,0,0,1,.35.84v12a1.07,1.07,0,0,1-.35.83A1.11,1.11,0,0,1,602.31,392Z"/><path class="cls-3" d="M616.32,389.62a1.15,1.15,0,0,1,.84.35,1.19,1.19,0,0,1,.35.85,1.21,1.21,0,0,1-1.19,1.19H609a1.12,1.12,0,0,1-.84-.36,1.07,1.07,0,0,1-.35-.83V378.74a1.12,1.12,0,0,1,.35-.85,1.15,1.15,0,0,1,.84-.35h0l7.28,0a1.18,1.18,0,0,1,1.19,1.2,1.21,1.21,0,0,1-1.19,1.19h0l-6.08,0v3.65h4.39a1.15,1.15,0,0,1,.84.35,1.12,1.12,0,0,1,.36.84,1.16,1.16,0,0,1-.36.85,1.14,1.14,0,0,1-.84.34h-4.39v3.66Z"/><path class="cls-3" d="M629.7,377.68a1.15,1.15,0,0,1,.68.6,1.2,1.2,0,0,1,0,.91l-4.22,12h0l-.07.15,0,0a.57.57,0,0,1-.08.13s0,0,0,0a.47.47,0,0,1-.1.1l0,0-.12.1,0,0-.13.07h0l-.12.05h0l-.13,0h-.05l-.19,0-.19,0h0l-.14,0h0l-.12-.05h0l-.12-.07h0l-.12-.1,0,0-.09-.1s0,0,0,0l-.08-.13s0,0,0,0a1,1,0,0,1-.07-.15h0l-4.22-12a1.15,1.15,0,0,1,0-.91,1.14,1.14,0,0,1,.67-.6,1.15,1.15,0,0,1,.91.05,1.13,1.13,0,0,1,.6.67l3.11,8.84,3.1-8.84a1.15,1.15,0,0,1,.61-.67l.44-.21Z"/><path class="cls-3" d="M634.75,392a1.21,1.21,0,0,1-1.19-1.19v-12a1.19,1.19,0,0,1,2.38,0v12a1.21,1.21,0,0,1-1.19,1.19Z"/><path class="cls-3" d="M649.92,391.55h0l-7.24-9.32v8.6a1.21,1.21,0,0,1-1.19,1.19,1.23,1.23,0,0,1-1.19-1.19V378.75a1.18,1.18,0,0,1,.22-.69,1.15,1.15,0,0,1,.59-.43,1,1,0,0,1,.72,0,1.14,1.14,0,0,1,.6.41l7.24,9.33v-8.6a1.19,1.19,0,0,1,2.38,0v12.09a.18.18,0,0,1,0,.06V391a.18.18,0,0,1,0,.06s0,.05,0,.06v.05s0,.05,0,.06l0,.05s0,0,0,.06l0,0,0,.05,0,.06,0,0,0,.06,0,0,0,0s0,0,0,0l0,0a.23.23,0,0,1,0,.05h0l-.15.1h0l-.17.07s0,0,0,0l-.18,0h-.35l-.1,0h0l-.08,0,0,0-.08,0,0,0-.07,0,0,0-.07-.05,0,0a.24.24,0,0,1-.09-.08h0v0l0,0Z"/><path class="cls-3" d="M662.75,392a7.21,7.21,0,1,1,0-14.42,7,7,0,0,1,4.39,1.49,1.2,1.2,0,0,1,.46.8,1.14,1.14,0,0,1-.24.87,1.18,1.18,0,0,1-.79.46,1.15,1.15,0,0,1-.89-.24,4.83,4.83,0,0,0-6.34.42,4.82,4.82,0,0,0,6.66,7l.07-.06v-2.64h-3.94a1.15,1.15,0,0,1-.85-.34,1.21,1.21,0,0,1,0-1.7,1.15,1.15,0,0,1,.85-.35h5.14a1.21,1.21,0,0,1,1.2,1.2l0,6.39a1.07,1.07,0,0,1-.35.83,1.11,1.11,0,0,1-.83.36h0a1.19,1.19,0,0,1-.73-.25,1.12,1.12,0,0,1-.41-.62A7.2,7.2,0,0,1,662.75,392Z"/><path class="cls-3" d="M912,389.62a1.15,1.15,0,0,1,.84.35,1.19,1.19,0,0,1,.35.85A1.21,1.21,0,0,1,912,392h-7.29a1.21,1.21,0,0,1-1.19-1.19V378.74a1.2,1.2,0,0,1,1.19-1.2h0l7.28,0a1.18,1.18,0,0,1,1.19,1.2A1.21,1.21,0,0,1,912,380h0l-6.08,0v3.65h4.39a1.19,1.19,0,0,1,.85.35,1.15,1.15,0,0,1,.35.84,1.18,1.18,0,0,1-1.2,1.19h-4.39v3.66Z"/><path class="cls-3" d="M925.94,377.81a1.14,1.14,0,0,1,.48.78,1.11,1.11,0,0,1-.2.88l-3.78,5.33,3.78,5.33a1.14,1.14,0,0,1,.2.89,1.12,1.12,0,0,1-.48.77,1.18,1.18,0,0,1-.69.22,1.1,1.1,0,0,1-1-.51l-3.3-4.65-3.29,4.65a1.12,1.12,0,0,1-1,.51,1.18,1.18,0,0,1-.69-.22,1.16,1.16,0,0,1-.48-.77,1.18,1.18,0,0,1,.2-.89l3.78-5.33-3.78-5.33a1.15,1.15,0,0,1-.2-.88,1.18,1.18,0,0,1,1.37-1,1.2,1.2,0,0,1,.77.48l3.29,4.66,3.3-4.66a1.15,1.15,0,0,1,.76-.48A1.18,1.18,0,0,1,925.94,377.81Z"/><path class="cls-3" d="M935.14,377.53a4.47,4.47,0,0,1,3.19,1.24,4,4,0,0,1,0,5.92A4.46,4.46,0,0,1,935.3,386h-3.17v4.85a1.18,1.18,0,0,1-2,.83,1.07,1.07,0,0,1-.35-.83v-12.1a1.11,1.11,0,0,1,.35-.84,1.15,1.15,0,0,1,.84-.35Zm.07,6.06a2.17,2.17,0,0,0,1.46-.55,1.68,1.68,0,0,0,.6-1.29,1.66,1.66,0,0,0-.62-1.3,2.24,2.24,0,0,0-1.51-.54h-3v3.68Z"/><path class="cls-3" d="M952.64,381.74a3.87,3.87,0,0,1-.83,2.41,4.33,4.33,0,0,1-2.09,1.52L952,390.3a1.17,1.17,0,0,1,0,.9,1.14,1.14,0,0,1-.6.69,1.2,1.2,0,0,1-.52.12,1.09,1.09,0,0,1-1.06-.67l-2.67-5.41h-2.05v4.81a1.1,1.1,0,0,1-.35.83,1.18,1.18,0,0,1-2-.83v-12a1.18,1.18,0,0,1,1.18-1.19h4.17a4.46,4.46,0,0,1,3.17,1.23A3.91,3.91,0,0,1,952.64,381.74Zm-4.41,1.82a2.26,2.26,0,0,0,1.45-.55,1.67,1.67,0,0,0,0-2.57,2.22,2.22,0,0,0-1.5-.53h-3v3.65Z"/><path class="cls-3" d="M964.57,389.62a1.15,1.15,0,0,1,.84.35,1.19,1.19,0,0,1,.35.85,1.21,1.21,0,0,1-1.19,1.19h-7.29a1.12,1.12,0,0,1-.84-.36,1.07,1.07,0,0,1-.35-.83V378.74a1.12,1.12,0,0,1,.35-.85,1.15,1.15,0,0,1,.84-.35h0l7.28,0a1.18,1.18,0,0,1,1.19,1.2,1.21,1.21,0,0,1-1.19,1.19h0l-6.09,0v3.65h4.4a1.15,1.15,0,0,1,.84.35,1.12,1.12,0,0,1,.36.84,1.16,1.16,0,0,1-.36.85,1.14,1.14,0,0,1-.84.34h-4.4v3.66Z"/><path class="cls-3" d="M977.91,387.7a4.23,4.23,0,0,1-1.44,3.06,4.68,4.68,0,0,1-3.26,1.25,6.1,6.1,0,0,1-3-.71,3.79,3.79,0,0,1-2-2.46,1.16,1.16,0,0,1,.12-.89,1.13,1.13,0,0,1,.72-.55,1.18,1.18,0,0,1,.9.12,1.2,1.2,0,0,1,.55.73,1.69,1.69,0,0,0,1,1.06,4,4,0,0,0,1.66.33,2.39,2.39,0,0,0,1.62-.59,2,2,0,0,0,.72-1.46,1.21,1.21,0,0,0-.37-.93,2.8,2.8,0,0,0-2.1-.69H973a5.08,5.08,0,0,1-3.77-1.42,3.5,3.5,0,0,1-1-2.67,4.23,4.23,0,0,1,1.44-3.06,4.62,4.62,0,0,1,3.26-1.25,6.09,6.09,0,0,1,2.95.7,3.84,3.84,0,0,1,2,2.46,1.14,1.14,0,0,1-.13.9,1.1,1.1,0,0,1-.72.54,1.18,1.18,0,0,1-1.44-.84,1.66,1.66,0,0,0-1-1.06,3.92,3.92,0,0,0-1.65-.33,2.39,2.39,0,0,0-1.63.59,2,2,0,0,0-.71,1.45,1.26,1.26,0,0,0,.37.95,2.83,2.83,0,0,0,2.09.67h0A5.09,5.09,0,0,1,976.9,385,3.5,3.5,0,0,1,977.91,387.7Z"/><path class="cls-3" d="M990.71,387.7a4.31,4.31,0,0,1-1.44,3.06A4.72,4.72,0,0,1,986,392a6.09,6.09,0,0,1-2.94-.71,3.84,3.84,0,0,1-2-2.46,1.2,1.2,0,0,1,.85-1.44,1.18,1.18,0,0,1,.9.12,1.15,1.15,0,0,1,.54.73,1.68,1.68,0,0,0,1,1.06,3.92,3.92,0,0,0,1.65.33,2.39,2.39,0,0,0,1.62-.59,2,2,0,0,0,.73-1.46,1.24,1.24,0,0,0-.37-.93,2.81,2.81,0,0,0-2.1-.69h0a5.09,5.09,0,0,1-3.78-1.42,3.53,3.53,0,0,1-1-2.67,4.31,4.31,0,0,1,1.44-3.06,4.64,4.64,0,0,1,3.27-1.25,6.08,6.08,0,0,1,2.94.7,3.85,3.85,0,0,1,2,2.46,1.18,1.18,0,0,1-.13.9,1.1,1.1,0,0,1-.72.54,1.18,1.18,0,0,1-.9-.12,1.15,1.15,0,0,1-.54-.72,1.65,1.65,0,0,0-1-1.06,3.87,3.87,0,0,0-1.64-.33,2.37,2.37,0,0,0-1.63.59,2,2,0,0,0-.72,1.45,1.27,1.27,0,0,0,.38.95,2.81,2.81,0,0,0,2.09.67h0A5.09,5.09,0,0,1,989.7,385,3.53,3.53,0,0,1,990.71,387.7Z"/><path class="cls-3" d="M995.69,392a1.12,1.12,0,0,1-.84-.36,1.07,1.07,0,0,1-.35-.83v-12a1.11,1.11,0,0,1,.35-.84,1.17,1.17,0,0,1,1.67,0,1.11,1.11,0,0,1,.35.84v12a1.07,1.07,0,0,1-.35.83A1.11,1.11,0,0,1,995.69,392Z"/><path class="cls-3" d="M1010.86,391.55h0l-7.24-9.32v8.6a1.08,1.08,0,0,1-.36.83,1.15,1.15,0,0,1-1.67,0,1.07,1.07,0,0,1-.35-.83V378.75a1.12,1.12,0,0,1,.22-.69,1.13,1.13,0,0,1,.58-.43,1.08,1.08,0,0,1,.73,0,1.12,1.12,0,0,1,.59.41l7.25,9.33v-8.6a1.14,1.14,0,0,1,.34-.84,1.19,1.19,0,0,1,.85-.35,1.21,1.21,0,0,1,1.19,1.19v12.09a.35.35,0,0,0,0,.06V391a.35.35,0,0,0,0,.06.35.35,0,0,1,0,.06v.05l0,.06a.13.13,0,0,1,0,.05.39.39,0,0,0,0,.06l0,0,0,.05a.09.09,0,0,1,0,.06l0,0s0,0,0,.06l0,0,0,0,0,0s0,0,0,0l-.05.05h0l-.15.1h0l-.16.07h0l-.17,0h-.35l-.11,0h0l-.08,0,0,0-.08,0,0,0a.11.11,0,0,0-.07,0l0,0-.07-.05,0,0-.09-.08h0v0l0,0Z"/><path class="cls-3" d="M1023.69,392a7.21,7.21,0,1,1,4.38-12.93,1.16,1.16,0,0,1,.46.8,1.19,1.19,0,0,1-1.91,1.09,4.84,4.84,0,0,0-6.35.42,4.82,4.82,0,0,0,6.66,7l.07-.06v-2.64h-3.94a1.12,1.12,0,0,1-.84-.34,1.18,1.18,0,0,1,0-1.7,1.13,1.13,0,0,1,.84-.35h5.14a1.2,1.2,0,0,1,1.2,1.2l0,6.39a1.21,1.21,0,0,1-1.19,1.19h0a1.22,1.22,0,0,1-.73-.25,1.24,1.24,0,0,1-.41-.62A7.13,7.13,0,0,1,1023.69,392Z"/></g><path class="cls-4" d="M1207.81,234.76v-8.67H964L793,212V119.91a16.19,16.19,0,1,0-8.66,0V212.4L616.2,226.08l-170.81-13V119.91a16.19,16.19,0,1,0-8.67,0v93.18l-168.25,13H0v8.67H264.3v92.86a16.19,16.19,0,1,0,8.67,0V234.44l168.09-13,170.82,13v93.18a16.19,16.19,0,1,0,8.66,0v-93.2l170.75-13.89,168.16,13.89v93.2a16.19,16.19,0,1,0,8.67,0V234.76Z"/><path class="cls-3" d="M134.45,233.1c-1.54.34-2.74.56-3.95.73h-.08a11.23,11.23,0,0,1-7.65-4c-1.39-1.6-3.7.72-2.32,2.31a14.66,14.66,0,0,0,2.28,2.09c-1.64,0-3.27-.1-4.91-.25-3.08-.27-6,2.91-5.9,5.89.16,3.44,2.59,5.6,5.9,5.9a63.6,63.6,0,0,0,11.87-.07c2.93-.29,8.76-.93,2.53,5.29-2.47,2.47-4.87,4.71-7.09,6.62a2.48,2.48,0,0,1-3.29,0,137.88,137.88,0,0,1-22.55-25,4.75,4.75,0,0,1,4.48-7.37c9.35,1.09,19,.67,28.34.12,3.07-.18,6-2.59,5.9-5.9-.14-3-2.6-6.09-5.9-5.89-2,.12-4.07.24-6.1.34a11.37,11.37,0,0,0,1.63-2.25c1-1.84-1.79-3.49-2.83-1.65a7.64,7.64,0,0,1-6.85,4.15,2.53,2.53,0,0,0-.3,0,107.83,107.83,0,0,1-11.65-.43c-1.83-.19-2.61-.3-4.57-.65a58.18,58.18,0,0,1-5.7-1.33h-.07a7.52,7.52,0,0,1-5-9.66,17,17,0,0,1,4.63-7c17.4-16.07,28.16,5.84,28.16,5.84s10.73-21.72,28.29-5.84c9.46,8.54,6.63,26.13-1.66,32h0A52.2,52.2,0,0,1,134.45,233.1Z"/><path class="cls-3" d="M44.07,189.34a5.79,5.79,0,0,1,5.7,5.71v52.21H75.35a5.71,5.71,0,1,1,0,11.41H44.07a5.77,5.77,0,0,1-5.7-5.7V195.05a5.79,5.79,0,0,1,5.7-5.71Z"/><path class="cls-3" d="M219.17,189.93a5.43,5.43,0,0,1,3.24,2.9,5.53,5.53,0,0,1,.24,4.35l-20.26,57.67v.05c-.09.22-.21.47-.33.72a.76.76,0,0,1-.1.15q-.19.34-.39.63c.07-.07,0,0-.09.14L201,257c-.1.09-.13.13-.1.09a4.81,4.81,0,0,1-.57.49c.06,0,0,0-.1.09a3.77,3.77,0,0,1-.63.34l-.1,0a3.23,3.23,0,0,1-.58.24l-.09.05a2.36,2.36,0,0,1-.63.14c-.26.07-.34.09-.24.05a4.38,4.38,0,0,1-.92.1,4.31,4.31,0,0,1-.92-.1c.1,0,0,0-.24-.05a2.27,2.27,0,0,1-.63-.14l-.1-.05a4,4,0,0,1-.58-.24l-.14,0a4.88,4.88,0,0,1-.58-.34l-.05-.05,0,0a2,2,0,0,1-.58-.49s0,0-.14-.09a4.86,4.86,0,0,1-.44-.49c-.06-.06-.1-.11-.1-.14-.12-.19-.25-.4-.38-.63a.48.48,0,0,1-.1-.15c-.13-.25-.24-.5-.34-.72v-.05l-20.25-57.67a5.49,5.49,0,0,1,.24-4.35,5.37,5.37,0,0,1,3.24-2.9,5.49,5.49,0,0,1,4.35.24,5.4,5.4,0,0,1,2.9,3.24L197,235.8l14.89-42.39a5.37,5.37,0,0,1,2.9-3.24l2.13-1Z"/><path class="cls-3" d="M278.34,247.21a5.4,5.4,0,0,1,4,1.7,5.55,5.55,0,0,1,1.69,4.06,5.77,5.77,0,0,1-5.71,5.7h-35a5.77,5.77,0,0,1-5.7-5.7V195a5.43,5.43,0,0,1,1.69-4.06,5.36,5.36,0,0,1,4-1.69h0l34.95.09a5.52,5.52,0,0,1,4.06,1.7,5.61,5.61,0,0,1,1.65,4.06,5.77,5.77,0,0,1-5.71,5.7h0l-29.2-.09v17.54h21.08a5.71,5.71,0,1,1,0,11.41H249.09v17.55Z"/><path class="cls-3" d="M384.89,189.34a5.62,5.62,0,0,1,3,2.08,5.5,5.5,0,0,1,1.16,3.44V253a5.48,5.48,0,0,1-1.64,4,5.73,5.73,0,0,1-8.13,0,5.48,5.48,0,0,1-1.64-4V215.35l-18,29.78v.05l-.05,0-.05.05-.05.05c-.09.16-.16.27-.19.34l-.14.19-.25.24-.19.2c-.1.09-.16.16-.19.19l-.29.24-.15.14a3.4,3.4,0,0,1-.34.2s0,.05-.05.05l0,0h-.05a1.12,1.12,0,0,1-.34.2q-.19.09-.15.09a2.44,2.44,0,0,0-.29.1,5.27,5.27,0,0,1-2.32.44h-.09c.06,0,0,0-.2-.05a6.26,6.26,0,0,1-1.25-.24l-.2,0c.07,0,0,0-.19-.05a2.47,2.47,0,0,1-.34-.15s0,0-.09-.09a2,2,0,0,1-.39-.2h-.05l-.05,0-.05-.05a1.65,1.65,0,0,1-.33-.24s-.05,0-.15-.1a3.34,3.34,0,0,1-.29-.24l-.19-.19-.2-.2a.87.87,0,0,0-.24-.24.68.68,0,0,1-.1-.19,2.92,2.92,0,0,1-.24-.34l0-.05s0-.05,0-.05v0a0,0,0,0,0-.05-.05l-18-29.78V253a5.37,5.37,0,0,1-1.69,4,5.53,5.53,0,0,1-4.06,1.69,5.77,5.77,0,0,1-5.7-5.7V194.86a5.44,5.44,0,0,1,1.16-3.44,5.64,5.64,0,0,1,3-2.08,5.86,5.86,0,0,1,3.63.2,5.7,5.7,0,0,1,2.8,2.37l23.79,39.3,23.78-39.3a5.52,5.52,0,0,1,2.76-2.37l1.79-.68Z"/><path class="cls-3" d="M456.15,190.8a5.56,5.56,0,0,1,.87,8L436.09,225v28A5.57,5.57,0,0,1,434.4,257a5.71,5.71,0,0,1-9.72-4.06V225l-20.93-26.2a5.67,5.67,0,0,1,.87-8,5.5,5.5,0,0,1,4.2-1.26,5.64,5.64,0,0,1,3.82,2.13l17.74,22.23,17.79-22.23a5.57,5.57,0,0,1,8-.87Z"/><path class="cls-3" d="M515.08,238a20.47,20.47,0,0,1-6.91,14.65,22.47,22.47,0,0,1-15.66,6,29.18,29.18,0,0,1-14.12-3.38,18.31,18.31,0,0,1-9.52-11.8,5.54,5.54,0,0,1,.58-4.3,5.42,5.42,0,0,1,3.48-2.61,5.54,5.54,0,0,1,4.3.58,5.48,5.48,0,0,1,2.61,3.48q.87,3.24,4.74,5.07a18.72,18.72,0,0,0,7.93,1.6,11.39,11.39,0,0,0,7.78-2.85,9.41,9.41,0,0,0,3.48-7A6,6,0,0,0,502,233q-3-3.19-10.05-3.29h-.25q-11.83-.19-18.12-6.81a16.92,16.92,0,0,1-4.84-12.81,20.51,20.51,0,0,1,6.91-14.7,22.35,22.35,0,0,1,15.67-6,29.1,29.1,0,0,1,14.12,3.39,18.38,18.38,0,0,1,9.52,11.79,5.49,5.49,0,0,1-.63,4.31,5.34,5.34,0,0,1-3.43,2.61,5.65,5.65,0,0,1-4.31-.58,5.53,5.53,0,0,1-2.61-3.48c-.58-2.16-2.17-3.86-4.78-5.08a18.58,18.58,0,0,0-7.88-1.6,11.56,11.56,0,0,0-7.84,2.86,9.6,9.6,0,0,0-3.43,7,6.15,6.15,0,0,0,1.79,4.54q3,3.15,10.06,3.24h.24q11.85.19,18.13,6.87A16.8,16.8,0,0,1,515.08,238Z"/><path class="cls-3" d="M573.92,247.21a5.38,5.38,0,0,1,4,1.7,5.51,5.51,0,0,1,1.69,4.06,5.77,5.77,0,0,1-5.7,5.7h-35a5.77,5.77,0,0,1-5.71-5.7V195a5.47,5.47,0,0,1,1.69-4.06,5.39,5.39,0,0,1,4-1.69h0l35,.09A5.54,5.54,0,0,1,578,191a5.64,5.64,0,0,1,1.64,4.06,5.77,5.77,0,0,1-5.7,5.7h0l-29.2-.09v17.54h21.08a5.61,5.61,0,0,1,4.06,1.65,5.72,5.72,0,0,1,0,8.12,5.6,5.6,0,0,1-4.06,1.64H544.67v17.55Z"/><path class="cls-3" d="M600.51,189.34a5.79,5.79,0,0,1,5.7,5.71v52.21h25.57a5.7,5.7,0,0,1,5.71,5.71,5.45,5.45,0,0,1-1.65,4,5.51,5.51,0,0,1-4.06,1.69H600.51a5.77,5.77,0,0,1-5.71-5.7V195.05a5.79,5.79,0,0,1,5.71-5.71Z"/><path class="cls-3" d="M690.81,189.34a5.52,5.52,0,0,1,4.06,1.7,5.61,5.61,0,0,1,1.65,4.06,5.77,5.77,0,0,1-5.71,5.7h0l-29.2-.09v17.54h21.08a5.71,5.71,0,1,1,0,11.41H661.56V253a5.37,5.37,0,0,1-1.69,4,5.53,5.53,0,0,1-4.06,1.69,5.77,5.77,0,0,1-5.7-5.7V195a5.43,5.43,0,0,1,1.69-4.06,5.36,5.36,0,0,1,4-1.69h.05Z"/><path class="cls-3" d="M755.83,189.2a21.56,21.56,0,0,1,15.33,6,19.26,19.26,0,0,1,.24,28.42,21.65,21.65,0,0,1-14.79,6.14h-.2l-.58,0-.29,0H741.38V253a5.48,5.48,0,0,1-1.64,4,5.55,5.55,0,0,1-4.07,1.69A5.77,5.77,0,0,1,730,253V194.91a5.77,5.77,0,0,1,5.7-5.71Zm.34,29.1a10.58,10.58,0,0,0,7-2.66,8,8,0,0,0-.1-12.42,10.64,10.64,0,0,0-7.25-2.61H741.38V218.3Z"/><path class="cls-3" d="M839.91,209.41a18.55,18.55,0,0,1-4,11.55,20.77,20.77,0,0,1-10.05,7.3l11,22.24a5.77,5.77,0,0,1-2.61,7.59,5.71,5.71,0,0,1-2.52.58,5.24,5.24,0,0,1-5.07-3.19l-12.81-26H804v23.06a5.68,5.68,0,0,1-5.7,5.65,5.62,5.62,0,0,1-5.66-5.65V195a5.7,5.7,0,0,1,5.66-5.7h20a21.41,21.41,0,0,1,15.23,5.9A18.78,18.78,0,0,1,839.91,209.41Zm-21.18,8.75a10.87,10.87,0,0,0,7-2.66,8,8,0,0,0-.14-12.33,10.72,10.72,0,0,0-7.21-2.56H804v17.55Z"/><path class="cls-3" d="M886.75,258.67a34.7,34.7,0,0,1-24.51-59.27,34.7,34.7,0,0,1,49.07,49.07A33.48,33.48,0,0,1,886.75,258.67Zm0-58a23.27,23.27,0,1,0,16.48,6.81A22.43,22.43,0,0,0,886.75,200.66Z"/><path class="cls-3" d="M947.71,195.1a5.79,5.79,0,0,1,5.75-5.76,5.4,5.4,0,0,1,4,1.7,5.57,5.57,0,0,1,1.69,4.06v42.54a21,21,0,0,1-21,21,5.79,5.79,0,0,1-5.71-5.7,5.52,5.52,0,0,1,1.7-4.06,5.37,5.37,0,0,1,4-1.7,9.56,9.56,0,0,0,9.57-9.57Z"/><path class="cls-3" d="M1019.55,247.21a5.37,5.37,0,0,1,4,1.7,5.52,5.52,0,0,1,1.7,4.06,5.79,5.79,0,0,1-5.71,5.7h-35a5.77,5.77,0,0,1-5.7-5.7V195a5.43,5.43,0,0,1,1.69-4.06,5.36,5.36,0,0,1,4-1.69h.05l34.95.09a5.54,5.54,0,0,1,4.06,1.7,5.61,5.61,0,0,1,1.65,4.06,5.79,5.79,0,0,1-5.71,5.7h0l-29.2-.09v17.54h21.08a5.61,5.61,0,0,1,4.06,1.65,5.72,5.72,0,0,1,0,8.12,5.6,5.6,0,0,1-4.06,1.64H990.3v17.55Z"/><path class="cls-3" d="M1070.36,258.67A34.52,34.52,0,0,1,1046,199.74a33.25,33.25,0,0,1,24.41-10.15,33.75,33.75,0,0,1,21.08,7.15,5.7,5.7,0,0,1,2.17,3.77,5.58,5.58,0,0,1-1.16,4.26,5.45,5.45,0,0,1-3.77,2.17,5.64,5.64,0,0,1-4.25-1.11,23.08,23.08,0,0,0-37.13,18.32,23.11,23.11,0,0,0,38.63,17.07,5.52,5.52,0,0,1,4.11-1.5,5.37,5.37,0,0,1,4,1.89,5.72,5.72,0,0,1-.34,8.07A33.57,33.57,0,0,1,1070.36,258.67Z"/><path class="cls-3" d="M1125.08,200.66h-14.35a5.55,5.55,0,0,1-4.06-1.69,5.71,5.71,0,0,1,4.06-9.72h40.17a5.71,5.71,0,0,1,0,11.41h-14.41V253a5.53,5.53,0,0,1-1.69,4.06,5.72,5.72,0,0,1-8,0,5.54,5.54,0,0,1-1.7-4.06Z"/></svg>