<svg id="Layer_1" data-name="Layer 1" xmlns="http://www.w3.org/2000/svg" xmlns:xlink="http://www.w3.org/1999/xlink" viewBox="0 0 1207.87 447.17"><defs><style>.cls-1{fill:#7be9c2;}.cls-2{opacity:0.35;}.cls-3{font-size:20.64px;font-family:Moon-Bold, Moon;font-weight:700;}.cls-3,.cls-5{fill:#fff;}.cls-4{opacity:0.3;fill:url(#linear-gradient);}</style><linearGradient id="linear-gradient" y1="223.77" x2="1207.81" y2="223.77" gradientUnits="userSpaceOnUse"><stop offset="0" stop-color="#7be9c2"/><stop offset="0.24" stop-color="#e6b3b6"/><stop offset="0.51" stop-color="#facc7a"/><stop offset="0.77" stop-color="#788afa"/><stop offset="1" stop-color="#c27be9"/></linearGradient></defs><title>Artboard 30banner</title><rect class="cls-1" x="-1.05" width="1208.86" height="447.17"/><g class="cls-2"><text class="cls-3" transform="translate(382.7 67.68)">Forgiving</text><text class="cls-3" transform="translate(709.99 67.68)">Encouraging</text><text class="cls-3" transform="translate(210.99 392.01)">ACCEPTING</text><text class="cls-3" transform="translate(561.9 392.01)">Believing</text><text class="cls-3" transform="translate(902.37 392.01)">Expressing</text></g><path class="cls-4" d="M1207.81,234.76v-8.67H964L793,212V119.91a16.19,16.19,0,1,0-8.66,0V212.4L616.2,226.08l-170.81-13V119.91a16.19,16.19,0,1,0-8.67,0v93.18l-168.25,13H0v8.67H264.3v92.86a16.19,16.19,0,1,0,8.67,0V234.44l168.09-13,170.82,13v93.18a16.19,16.19,0,1,0,8.66,0v-93.2l170.75-13.89,168.16,13.89v93.2a16.19,16.19,0,1,0,8.67,0V234.76Z"/><path class="cls-5" d="M134.45,233.1c-1.54.34-2.74.56-3.95.73h-.08a11.23,11.23,0,0,1-7.65-4c-1.39-1.6-3.7.72-2.32,2.31a14.66,14.66,0,0,0,2.28,2.09c-1.64,0-3.27-.1-4.91-.25-3.08-.27-6,2.91-5.9,5.89.16,3.44,2.59,5.6,5.9,5.9a63.6,63.6,0,0,0,11.87-.07c2.93-.29,8.76-.93,2.53,5.29-2.47,2.47-4.87,4.71-7.09,6.62a2.48,2.48,0,0,1-3.29,0,137.88,137.88,0,0,1-22.55-25,4.75,4.75,0,0,1,4.48-7.37c9.35,1.09,19,.67,28.34.12,3.07-.18,6-2.59,5.9-5.9-.14-3-2.6-6.09-5.9-5.89-2,.12-4.07.24-6.1.34a11.37,11.37,0,0,0,1.63-2.25c1-1.84-1.79-3.49-2.83-1.65a7.64,7.64,0,0,1-6.85,4.15,2.53,2.53,0,0,0-.3,0,107.83,107.83,0,0,1-11.65-.43c-1.83-.19-2.61-.3-4.57-.65a58.18,58.18,0,0,1-5.7-1.33h-.07a7.52,7.52,0,0,1-5-9.66,17,17,0,0,1,4.63-7c17.4-16.07,28.16,5.84,28.16,5.84s10.73-21.72,28.29-5.84c9.46,8.54,6.63,26.13-1.66,32h0A52.2,52.2,0,0,1,134.45,233.1Z"/><path class="cls-5" d="M44.07,189.34a5.79,5.79,0,0,1,5.7,5.71v52.21H75.35a5.71,5.71,0,1,1,0,11.41H44.07a5.77,5.77,0,0,1-5.7-5.7V195.05a5.79,5.79,0,0,1,5.7-5.71Z"/><path class="cls-5" d="M219.17,189.93a5.43,5.43,0,0,1,3.24,2.9,5.53,5.53,0,0,1,.24,4.35l-20.26,57.67v.05c-.09.22-.21.47-.33.72a.76.76,0,0,1-.1.15q-.19.34-.39.63c.07-.07,0,0-.09.14L201,257c-.1.09-.13.13-.1.09a4.81,4.81,0,0,1-.57.49c.06,0,0,0-.1.09a3.77,3.77,0,0,1-.63.34l-.1,0a3.23,3.23,0,0,1-.58.24l-.09.05a2.36,2.36,0,0,1-.63.14c-.26.07-.34.09-.24.05a4.38,4.38,0,0,1-.92.1,4.31,4.31,0,0,1-.92-.1c.1,0,0,0-.24-.05a2.27,2.27,0,0,1-.63-.14l-.1-.05a4,4,0,0,1-.58-.24l-.14,0a4.88,4.88,0,0,1-.58-.34l-.05-.05,0,0a2,2,0,0,1-.58-.49s0,0-.14-.09a4.86,4.86,0,0,1-.44-.49c-.06-.06-.1-.11-.1-.14-.12-.19-.25-.4-.38-.63a.48.48,0,0,1-.1-.15c-.13-.25-.24-.5-.34-.72v-.05l-20.25-57.67a5.49,5.49,0,0,1,.24-4.35,5.37,5.37,0,0,1,3.24-2.9,5.49,5.49,0,0,1,4.35.24,5.4,5.4,0,0,1,2.9,3.24L197,235.8l14.89-42.39a5.37,5.37,0,0,1,2.9-3.24l2.13-1Z"/><path class="cls-5" d="M278.34,247.21a5.4,5.4,0,0,1,4,1.7,5.55,5.55,0,0,1,1.69,4.06,5.77,5.77,0,0,1-5.71,5.7h-35a5.77,5.77,0,0,1-5.7-5.7V195a5.43,5.43,0,0,1,1.69-4.06,5.36,5.36,0,0,1,4-1.69h0l34.95.09a5.52,5.52,0,0,1,4.06,1.7,5.61,5.61,0,0,1,1.65,4.06,5.77,5.77,0,0,1-5.71,5.7h0l-29.2-.09v17.54h21.08a5.71,5.71,0,1,1,0,11.41H249.09v17.55Z"/><path class="cls-5" d="M384.89,189.34a5.62,5.62,0,0,1,3,2.08,5.5,5.5,0,0,1,1.16,3.44V253a5.48,5.48,0,0,1-1.64,4,5.73,5.73,0,0,1-8.13,0,5.48,5.48,0,0,1-1.64-4V215.35l-18,29.78v.05l-.05,0-.05.05-.05.05c-.09.16-.16.27-.19.34l-.14.19-.25.24-.19.2c-.1.09-.16.16-.19.19l-.29.24-.15.14a3.4,3.4,0,0,1-.34.2s0,.05-.05.05l0,0h-.05a1.12,1.12,0,0,1-.34.2q-.19.09-.15.09a2.44,2.44,0,0,0-.29.1,5.27,5.27,0,0,1-2.32.44h-.09c.06,0,0,0-.2-.05a6.26,6.26,0,0,1-1.25-.24l-.2,0c.07,0,0,0-.19-.05a2.47,2.47,0,0,1-.34-.15s0,0-.09-.09a2,2,0,0,1-.39-.2h-.05l-.05,0-.05-.05a1.65,1.65,0,0,1-.33-.24s-.05,0-.15-.1a3.34,3.34,0,0,1-.29-.24l-.19-.19-.2-.2a.87.87,0,0,0-.24-.24.68.68,0,0,1-.1-.19,2.92,2.92,0,0,1-.24-.34l0-.05s0-.05,0-.05v0a0,0,0,0,0-.05-.05l-18-29.78V253a5.37,5.37,0,0,1-1.69,4,5.53,5.53,0,0,1-4.06,1.69,5.77,5.77,0,0,1-5.7-5.7V194.86a5.44,5.44,0,0,1,1.16-3.44,5.64,5.64,0,0,1,3-2.08,5.86,5.86,0,0,1,3.63.2,5.7,5.7,0,0,1,2.8,2.37l23.79,39.3,23.78-39.3a5.52,5.52,0,0,1,2.76-2.37l1.79-.68Z"/><path class="cls-5" d="M456.15,190.8a5.56,5.56,0,0,1,.87,8L436.09,225v28A5.57,5.57,0,0,1,434.4,257a5.71,5.71,0,0,1-9.72-4.06V225l-20.93-26.2a5.67,5.67,0,0,1,.87-8,5.5,5.5,0,0,1,4.2-1.26,5.64,5.64,0,0,1,3.82,2.13l17.74,22.23,17.79-22.23a5.57,5.57,0,0,1,8-.87Z"/><path class="cls-5" d="M515.08,238a20.47,20.47,0,0,1-6.91,14.65,22.47,22.47,0,0,1-15.66,6,29.18,29.18,0,0,1-14.12-3.38,18.31,18.31,0,0,1-9.52-11.8,5.54,5.54,0,0,1,.58-4.3,5.42,5.42,0,0,1,3.48-2.61,5.54,5.54,0,0,1,4.3.58,5.48,5.48,0,0,1,2.61,3.48q.87,3.24,4.74,5.07a18.72,18.72,0,0,0,7.93,1.6,11.39,11.39,0,0,0,7.78-2.85,9.41,9.41,0,0,0,3.48-7A6,6,0,0,0,502,233q-3-3.19-10.05-3.29h-.25q-11.83-.19-18.12-6.81a16.92,16.92,0,0,1-4.84-12.81,20.51,20.51,0,0,1,6.91-14.7,22.35,22.35,0,0,1,15.67-6,29.1,29.1,0,0,1,14.12,3.39,18.38,18.38,0,0,1,9.52,11.79,5.49,5.49,0,0,1-.63,4.31,5.34,5.34,0,0,1-3.43,2.61,5.65,5.65,0,0,1-4.31-.58,5.53,5.53,0,0,1-2.61-3.48c-.58-2.16-2.17-3.86-4.78-5.08a18.58,18.58,0,0,0-7.88-1.6,11.56,11.56,0,0,0-7.84,2.86,9.6,9.6,0,0,0-3.43,7,6.15,6.15,0,0,0,1.79,4.54q3,3.15,10.06,3.24h.24q11.85.19,18.13,6.87A16.8,16.8,0,0,1,515.08,238Z"/><path class="cls-5" d="M573.92,247.21a5.38,5.38,0,0,1,4,1.7,5.51,5.51,0,0,1,1.69,4.06,5.77,5.77,0,0,1-5.7,5.7h-35a5.77,5.77,0,0,1-5.71-5.7V195a5.47,5.47,0,0,1,1.69-4.06,5.39,5.39,0,0,1,4-1.69h0l35,.09A5.54,5.54,0,0,1,578,191a5.64,5.64,0,0,1,1.64,4.06,5.77,5.77,0,0,1-5.7,5.7h0l-29.2-.09v17.54h21.08a5.61,5.61,0,0,1,4.06,1.65,5.72,5.72,0,0,1,0,8.12,5.6,5.6,0,0,1-4.06,1.64H544.67v17.55Z"/><path class="cls-5" d="M600.51,189.34a5.79,5.79,0,0,1,5.7,5.71v52.21h25.57a5.7,5.7,0,0,1,5.71,5.71,5.45,5.45,0,0,1-1.65,4,5.51,5.51,0,0,1-4.06,1.69H600.51a5.77,5.77,0,0,1-5.71-5.7V195.05a5.79,5.79,0,0,1,5.71-5.71Z"/><path class="cls-5" d="M690.81,189.34a5.52,5.52,0,0,1,4.06,1.7,5.61,5.61,0,0,1,1.65,4.06,5.77,5.77,0,0,1-5.71,5.7h0l-29.2-.09v17.54h21.08a5.71,5.71,0,1,1,0,11.41H661.56V253a5.37,5.37,0,0,1-1.69,4,5.53,5.53,0,0,1-4.06,1.69,5.77,5.77,0,0,1-5.7-5.7V195a5.43,5.43,0,0,1,1.69-4.06,5.36,5.36,0,0,1,4-1.69h.05Z"/><path class="cls-5" d="M755.83,189.2a21.56,21.56,0,0,1,15.33,6,19.26,19.26,0,0,1,.24,28.42,21.65,21.65,0,0,1-14.79,6.14h-.2l-.58,0-.29,0H741.38V253a5.48,5.48,0,0,1-1.64,4,5.55,5.55,0,0,1-4.07,1.69A5.77,5.77,0,0,1,730,253V194.91a5.77,5.77,0,0,1,5.7-5.71Zm.34,29.1a10.58,10.58,0,0,0,7-2.66,8,8,0,0,0-.1-12.42,10.64,10.64,0,0,0-7.25-2.61H741.38V218.3Z"/><path class="cls-5" d="M839.91,209.41a18.55,18.55,0,0,1-4,11.55,20.77,20.77,0,0,1-10.05,7.3l11,22.24a5.77,5.77,0,0,1-2.61,7.59,5.71,5.71,0,0,1-2.52.58,5.24,5.24,0,0,1-5.07-3.19l-12.81-26H804v23.06a5.68,5.68,0,0,1-5.7,5.65,5.62,5.62,0,0,1-5.66-5.65V195a5.7,5.7,0,0,1,5.66-5.7h20a21.41,21.41,0,0,1,15.23,5.9A18.78,18.78,0,0,1,839.91,209.41Zm-21.18,8.75a10.87,10.87,0,0,0,7-2.66,8,8,0,0,0-.14-12.33,10.72,10.72,0,0,0-7.21-2.56H804v17.55Z"/><path class="cls-5" d="M886.75,258.67a34.7,34.7,0,0,1-24.51-59.27,34.7,34.7,0,0,1,49.07,49.07A33.48,33.48,0,0,1,886.75,258.67Zm0-58a23.27,23.27,0,1,0,16.48,6.81A22.43,22.43,0,0,0,886.75,200.66Z"/><path class="cls-5" d="M947.71,195.1a5.79,5.79,0,0,1,5.75-5.76,5.4,5.4,0,0,1,4,1.7,5.57,5.57,0,0,1,1.69,4.06v42.54a21,21,0,0,1-21,21,5.79,5.79,0,0,1-5.71-5.7,5.52,5.52,0,0,1,1.7-4.06,5.37,5.37,0,0,1,4-1.7,9.56,9.56,0,0,0,9.57-9.57Z"/><path class="cls-5" d="M1019.55,247.21a5.37,5.37,0,0,1,4,1.7,5.52,5.52,0,0,1,1.7,4.06,5.79,5.79,0,0,1-5.71,5.7h-35a5.77,5.77,0,0,1-5.7-5.7V195a5.43,5.43,0,0,1,1.69-4.06,5.36,5.36,0,0,1,4-1.69h.05l34.95.09a5.54,5.54,0,0,1,4.06,1.7,5.61,5.61,0,0,1,1.65,4.06,5.79,5.79,0,0,1-5.71,5.7h0l-29.2-.09v17.54h21.08a5.61,5.61,0,0,1,4.06,1.65,5.72,5.72,0,0,1,0,8.12,5.6,5.6,0,0,1-4.06,1.64H990.3v17.55Z"/><path class="cls-5" d="M1070.36,258.67A34.52,34.52,0,0,1,1046,199.74a33.25,33.25,0,0,1,24.41-10.15,33.75,33.75,0,0,1,21.08,7.15,5.7,5.7,0,0,1,2.17,3.77,5.58,5.58,0,0,1-1.16,4.26,5.45,5.45,0,0,1-3.77,2.17,5.64,5.64,0,0,1-4.25-1.11,23.08,23.08,0,0,0-37.13,18.32,23.11,23.11,0,0,0,38.63,17.07,5.52,5.52,0,0,1,4.11-1.5,5.37,5.37,0,0,1,4,1.89,5.72,5.72,0,0,1-.34,8.07A33.57,33.57,0,0,1,1070.36,258.67Z"/><path class="cls-5" d="M1125.08,200.66h-14.35a5.55,5.55,0,0,1-4.06-1.69,5.71,5.71,0,0,1,4.06-9.72h40.17a5.71,5.71,0,0,1,0,11.41h-14.41V253a5.53,5.53,0,0,1-1.69,4.06,5.72,5.72,0,0,1-8,0,5.54,5.54,0,0,1-1.7-4.06Z"/></svg>