<svg xmlns="http://www.w3.org/2000/svg" viewBox="0 0 1920 1080"><defs><style>.cls-1{fill:#eef4f3;}.cls-2{font-size:40.26px;}.cls-2,.cls-3,.cls-33{fill:#2c2e2e;}.cls-2,.cls-33{font-family:Moon-Bold, Moon;}.cls-18,.cls-19,.cls-2,.cls-20,.cls-21,.cls-22,.cls-23,.cls-31,.cls-33,.cls-4,.cls-5,.cls-6,.cls-7,.cls-8{font-weight:700;}.cls-3{font-size:20.64px;}.cls-18,.cls-19,.cls-20,.cls-21,.cls-3,.cls-31{font-family:PTSerif-Bold, PT Serif;}.cls-4{letter-spacing:-0.04em;}.cls-6{letter-spacing:-0.01em;}.cls-7{letter-spacing:-0.01em;}.cls-8{letter-spacing:0em;}.cls-10,.cls-11,.cls-24,.cls-25,.cls-26,.cls-9{font-family:PTSerif-Regular, PT Serif;}.cls-12,.cls-9{letter-spacing:-0.04em;}.cls-10{letter-spacing:-0.01em;}.cls-13{letter-spacing:-0.02em;}.cls-14{letter-spacing:-0.02em;}.cls-15{letter-spacing:-0.02em;}.cls-16{letter-spacing:-0.05em;}.cls-17{letter-spacing:-0.08em;}.cls-18{letter-spacing:-0.02em;}.cls-19{letter-spacing:-0.1em;}.cls-21{letter-spacing:-0.02em;}.cls-22{letter-spacing:0.03em;}.cls-23{letter-spacing:0.03em;}.cls-24{letter-spacing:0.03em;}.cls-25{letter-spacing:0.03em;}.cls-26{letter-spacing:0.03em;}.cls-27{letter-spacing:-0.02em;}.cls-28{letter-spacing:-0.02em;}.cls-29{letter-spacing:0em;}.cls-30{letter-spacing:-0.02em;}.cls-31{letter-spacing:-0.03em;}.cls-32{fill:#facc7a;}.cls-33{font-size:70px;}.cls-34{opacity:0.5;}.cls-35{opacity:0.6;}</style></defs><title>Artboard 18 copy 2Web</title><g id="Background"><rect class="cls-1" x="0.81" width="1920" height="1080"/></g><g id="Info"><text class="cls-2" transform="translate(591.71 415.53)">Believing</text><text class="cls-2" transform="translate(1268.76 415.53)">Wednesday APRIL 4, 2018</text><text class="cls-3" transform="translate(591.71 529.44)"><tspan class="cls-4">A</tspan><tspan class="cls-5" x="14.3" y="0">cknowledge</tspan><tspan class="cls-6" x="131.06" y="0"> </tspan><tspan class="cls-5" x="136.48" y="0">and</tspan><tspan class="cls-7" x="173.62" y="0"> </tspan><tspan class="cls-5" x="179.05" y="0">discover</tspan><tspan class="cls-6" x="260.93" y="0"> </tspan><tspan class="cls-5" x="266.35" y="0">your</tspan><tspan class="cls-6" x="311.23" y="0"> </tspan><tspan class="cls-5" x="316.66" y="0">abilities</tspan><tspan class="cls-7" x="396.33" y="0"> </tspan><tspan class="cls-5" x="401.75" y="0">and</tspan><tspan class="cls-6" x="438.89" y="0"> </tspan><tspan class="cls-8" x="444.32" y="0">potential</tspan><tspan class="cls-9" x="535.17" y="0">.</tspan><tspan class="cls-10" x="540.11" y="0"> </tspan><tspan class="cls-11" x="544.99" y="0">Be</tspan><tspan class="cls-10" x="568.06" y="0"> </tspan><tspan class="cls-11" x="572.94" y="0">your</tspan><tspan class="cls-10" x="614.54" y="0"> </tspan><tspan class="cls-11" x="619.42" y="0">biggest</tspan><tspan class="cls-10" x="685.56" y="0"> </tspan><tspan class="cls-11" x="690.44" y="0">supporte</tspan><tspan class="cls-9" x="771.95" y="0">r,</tspan><tspan class="cls-10" x="784.06" y="0"> </tspan><tspan class="cls-11" x="788.94" y="0">you</tspan><tspan class="cls-10" x="822.62" y="0"> </tspan><tspan class="cls-11" x="827.5" y="0">are</tspan><tspan class="cls-10" x="856.22" y="0"> </tspan><tspan class="cls-11" x="861.1" y="0">your</tspan><tspan class="cls-10" x="902.7" y="0"> </tspan><tspan class="cls-11" x="907.58" y="0">own</tspan><tspan class="cls-10" x="946.28" y="0"> </tspan><tspan class="cls-11" x="951.16" y="0">life </tspan><tspan class="cls-11"><tspan x="0" y="24.76">partne</tspan><tspan class="cls-12" x="60.32" y="24.76">r.</tspan><tspan class="cls-13" x="72.35" y="24.76"> </tspan><tspan x="76.91" y="24.76">Find</tspan><tspan class="cls-14" x="118.05" y="24.76"> </tspan><tspan x="122.61" y="24.76">the</tspan><tspan class="cls-13" x="152.76" y="24.76"> </tspan><tspan x="157.32" y="24.76">things</tspan><tspan class="cls-14" x="215.34" y="24.76"> </tspan><tspan x="219.9" y="24.76">that</tspan><tspan class="cls-13" x="257.75" y="24.76"> </tspan><tspan x="262.3" y="24.76">you</tspan><tspan class="cls-14" x="295.98" y="24.76"> </tspan><tspan x="300.54" y="24.76">are</tspan><tspan class="cls-13" x="329.26" y="24.76"> </tspan><tspan x="333.82" y="24.76">individually</tspan><tspan class="cls-14" x="443.19" y="24.76"> </tspan><tspan x="447.75" y="24.76">good</tspan><tspan class="cls-13" x="492.88" y="24.76"> </tspan><tspan x="497.43" y="24.76">at</tspan><tspan class="cls-13" x="515.51" y="24.76"> </tspan><tspan x="520.07" y="24.76">and</tspan><tspan class="cls-15" x="554.2" y="24.76"> </tspan><tspan x="558.76" y="24.76">embrace</tspan><tspan class="cls-13" x="636.53" y="24.76"> </tspan><tspan x="641.09" y="24.76">them</tspan><tspan class="cls-12" x="689.05" y="24.76">.</tspan><tspan class="cls-16" x="693.98" y="24.76"> </tspan><tspan class="cls-17" x="697.99" y="24.76">V</tspan><tspan x="710.44" y="24.76">alidate</tspan><tspan class="cls-13" x="773.19" y="24.76"> </tspan><tspan x="777.75" y="24.76">your</tspan><tspan class="cls-13" x="819.35" y="24.76"> </tspan><tspan x="823.9" y="24.76">feelings.</tspan><tspan class="cls-18" x="901.95" y="24.76"> </tspan><tspan class="cls-19" x="907.01" y="24.76">Y</tspan><tspan class="cls-20" x="919.39" y="24.76">ou</tspan><tspan class="cls-21" x="944.49" y="24.76"> </tspan><tspan class="cls-20" x="949.55" y="24.76">are </tspan></tspan><tspan class="cls-5" x="0" y="49.53">the</tspan><tspan class="cls-22" x="32.52" y="49.53"> </tspan><tspan class="cls-5" x="38.74" y="49.53">only</tspan><tspan class="cls-23" x="82.03" y="49.53"> </tspan><tspan class="cls-5" x="88.24" y="49.53">you</tspan><tspan class="cls-9" x="124.23" y="49.53">.</tspan><tspan class="cls-24" x="129.16" y="49.53"> </tspan><tspan class="cls-11" x="134.75" y="49.53">Build</tspan><tspan class="cls-24" x="183.17" y="49.53"> </tspan><tspan class="cls-11" x="188.76" y="49.53">yourself</tspan><tspan class="cls-24" x="262.94" y="49.53"> </tspan><tspan class="cls-11" x="268.54" y="49.53">self</tspan><tspan class="cls-24" x="301.12" y="49.53"> </tspan><tspan class="cls-11" x="306.71" y="49.53">up</tspan><tspan class="cls-24" x="330.24" y="49.53"> </tspan><tspan class="cls-11" x="335.83" y="49.53">instead</tspan><tspan class="cls-25" x="403.14" y="49.53"> </tspan><tspan class="cls-11" x="408.73" y="49.53">of</tspan><tspan class="cls-24" x="427.2" y="49.53"> </tspan><tspan class="cls-11" x="432.8" y="49.53">breaking</tspan><tspan class="cls-24" x="512.74" y="49.53"> </tspan><tspan class="cls-11" x="518.33" y="49.53">yourself</tspan><tspan class="cls-24" x="592.51" y="49.53"> </tspan><tspan class="cls-11" x="598.11" y="49.53">down</tspan><tspan class="cls-9" x="648.25" y="49.53">.</tspan><tspan class="cls-24" x="653.18" y="49.53"> </tspan><tspan class="cls-11" x="658.78" y="49.53">Be</tspan><tspan class="cls-24" x="681.85" y="49.53"> </tspan><tspan class="cls-11" x="687.44" y="49.53">constructive</tspan><tspan class="cls-26" x="801.41" y="49.53"> </tspan><tspan class="cls-11" x="807" y="49.53">to</tspan><tspan class="cls-24" x="826.07" y="49.53"> </tspan><tspan class="cls-11" x="831.66" y="49.53">yourself</tspan><tspan class="cls-9" x="905.85" y="49.53">.</tspan><tspan class="cls-24" x="910.78" y="49.53"> </tspan><tspan class="cls-11" x="916.37" y="49.53">Under</tspan><tspan class="cls-11" x="972.25" y="49.53">-</tspan><tspan class="cls-11"><tspan x="0" y="74.29">stand</tspan><tspan class="cls-27" x="50.72" y="74.29"> </tspan><tspan x="55.22" y="74.29">how</tspan><tspan class="cls-28" x="93.77" y="74.29"> </tspan><tspan x="98.27" y="74.29">to</tspan><tspan class="cls-27" x="117.34" y="74.29"> </tspan><tspan x="121.84" y="74.29">best</tspan><tspan class="cls-28" x="160.06" y="74.29"> </tspan><tspan x="164.56" y="74.29">encourage</tspan><tspan class="cls-27" x="259.65" y="74.29"> </tspan><tspan x="264.15" y="74.29">yourself</tspan><tspan class="cls-27" x="338.34" y="74.29"> </tspan><tspan x="342.84" y="74.29">and</tspan><tspan class="cls-28" x="376.97" y="74.29"> </tspan><tspan x="381.47" y="74.29">let</tspan><tspan class="cls-27" x="405.72" y="74.29"> </tspan><tspan x="410.22" y="74.29">go</tspan><tspan class="cls-28" x="432.49" y="74.29"> </tspan><tspan class="cls-29" x="436.99" y="74.29">of</tspan><tspan class="cls-28" x="455.46" y="74.29"> </tspan><tspan x="459.96" y="74.29">what</tspan><tspan class="cls-28" x="505.17" y="74.29"> </tspan><tspan x="509.67" y="74.29">you</tspan><tspan class="cls-30" x="543.35" y="74.29"> </tspan><tspan x="547.85" y="74.29">cannot</tspan><tspan class="cls-28" x="611.47" y="74.29"> </tspan><tspan x="615.97" y="74.29">control</tspan><tspan class="cls-12" x="682.46" y="74.29">.</tspan><tspan class="cls-28" x="687.39" y="74.29"> </tspan><tspan x="691.89" y="74.29">Life</tspan><tspan class="cls-28" x="726.87" y="74.29"> </tspan><tspan x="731.37" y="74.29">can</tspan><tspan class="cls-30" x="763.67" y="74.29"> </tspan><tspan x="768.17" y="74.29">get</tspan><tspan class="cls-28" x="797.06" y="74.29"> </tspan><tspan x="801.56" y="74.29">messy</tspan><tspan class="cls-28" x="858.04" y="74.29"> </tspan><tspan x="862.54" y="74.29">but</tspan><tspan class="cls-30" x="893.29" y="74.29"> </tspan><tspan x="897.79" y="74.29">it</tspan><tspan class="cls-28" x="911.66" y="74.29"> </tspan><tspan x="916.16" y="74.29">is</tspan><tspan class="cls-28" x="931.31" y="74.29"> </tspan><tspan x="935.81" y="74.29">what </tspan><tspan x="0" y="99.05">we do with those situations that make us who we are</tspan><tspan class="cls-12" x="482.01" y="99.05">.</tspan><tspan x="486.94" y="99.05"> </tspan><tspan class="cls-20" x="491.95" y="99.05">Build yourself up</tspan><tspan class="cls-31" x="660.6" y="99.05">.</tspan><tspan class="cls-20" x="665.99" y="99.05"> </tspan></tspan></text><rect class="cls-32" x="512.33" y="449.12" width="1408.48" height="20"/><rect class="cls-32" y="449.12" width="186.99" height="20"/><path class="cls-1" d="M351.14,637.93c-98.6,0-178.81-80.22-178.81-178.81S252.54,280.3,351.14,280.3,530,360.52,530,459.12,449.74,637.93,351.14,637.93Zm0-324.4c-80.27,0-145.58,65.31-145.58,145.59S270.87,604.7,351.14,604.7s145.59-65.31,145.59-145.58S431.42,313.53,351.14,313.53Z"/><text class="cls-33" transform="translate(331.06 483.43)">3</text><g class="cls-34"><path class="cls-32" d="M351.14,637.93c-98.59,0-178.81-80.22-178.81-178.81S252.55,280.3,351.14,280.3,530,360.52,530,459.12,449.74,637.93,351.14,637.93Zm0-324.4c-80.27,0-145.58,65.31-145.58,145.59S270.87,604.7,351.14,604.7s145.59-65.31,145.59-145.58S431.42,313.53,351.14,313.53Z"/></g><g class="cls-35"><path class="cls-32" d="M351.14,629.62c-94,0-170.5-76.49-170.5-170.5s76.49-170.51,170.5-170.51S521.65,365.1,521.65,459.12,445.16,629.62,351.14,629.62Zm0-324.4c-84.85,0-153.89,69-153.89,153.9S266.29,613,351.14,613,505,544,505,459.12,436,305.22,351.14,305.22Z"/></g></g></svg>