<svg xmlns="http://www.w3.org/2000/svg" viewBox="0 0 1366 698.69"><defs><style>.cls-1{font-size:48.55px;}.cls-1,.cls-2{fill:#2c2e2e;}.cls-1,.cls-2,.cls-3{font-family:Moon-Bold, Moon;font-weight:700;}.cls-2,.cls-3{font-size:20.64px;}.cls-3{fill:#909392;}.cls-14,.cls-15,.cls-16,.cls-17,.cls-18,.cls-4{fill:none;stroke-miterlimit:10;}.cls-4{stroke:#dfeae8;stroke-width:10px;}.cls-5{fill:#dfeae8;}.cls-6{fill:#eef4f3;}.cls-7{opacity:0.5;}.cls-8{fill:#7be9c2;}.cls-9{fill:#e6b3b6;}.cls-10{fill:#facc7a;}.cls-11{fill:#7aa8fa;}.cls-12{fill:#cba6e8;}.cls-13{opacity:0.6;}.cls-14{stroke:#7be9c2;}.cls-14,.cls-15,.cls-16,.cls-17,.cls-18{stroke-width:15px;}.cls-15{stroke:#e6b3b6;}.cls-16{stroke:#facc7a;}.cls-17{stroke:#7aa8fa;}.cls-18{stroke:#cba6e8;}</style></defs><title>Artboard 4Web</title><g id="Info"><text class="cls-1" transform="translate(272.8 369.58)">1</text><text class="cls-1" transform="translate(474.1 369.58)">2</text><text class="cls-1" transform="translate(675.41 369.58)">3</text><text class="cls-1" transform="translate(876.33 369.58)">4</text><text class="cls-1" transform="translate(1077.23 369.58)">5</text><text class="cls-2" transform="translate(265.85 318.57)">Day</text><text class="cls-3" transform="translate(230.33 653.53)">ACCEPTING</text><text class="cls-3" transform="translate(430.34 51.12)">Forgiving</text><text class="cls-3" transform="translate(635.88 653.53)">Believing</text><text class="cls-3" transform="translate(813.76 51.12)">Encouraging</text><text class="cls-3" transform="translate(1029.05 653.53)">Expressing</text><text class="cls-2" transform="translate(467.15 318.57)">Day</text><text class="cls-2" transform="translate(668.46 318.57)">Day</text><text class="cls-2" transform="translate(869.37 318.57)">Day</text><text class="cls-2" transform="translate(1070.28 318.57)">Day</text><line class="cls-4" x1="287.52" y1="461.68" x2="287.52" y2="590.67"/><circle class="cls-5" cx="287.52" cy="591.81" r="18.67"/><line class="cls-4" x1="889.06" y1="223.93" x2="889.06" y2="94.95"/><circle class="cls-5" cx="889.06" cy="93.81" r="18.67"/><line class="cls-4" x1="688.55" y1="461.68" x2="688.55" y2="590.67"/><circle class="cls-5" cx="688.55" cy="591.81" r="18.67"/><line class="cls-4" x1="488.03" y1="223.93" x2="488.03" y2="94.95"/><circle class="cls-5" cx="488.03" cy="93.81" r="18.67"/><line class="cls-4" x1="1089.58" y1="461.68" x2="1089.58" y2="590.67"/><circle class="cls-5" cx="1089.58" cy="591.81" r="18.67"/><path class="cls-6" d="M287.21,476.68c-73.82,0-133.87-60.05-133.87-133.87s60-133.88,133.87-133.88S421.09,269,421.09,342.81,361,476.68,287.21,476.68Zm0-237.75A103.88,103.88,0,1,0,391.09,342.81,104,104,0,0,0,287.21,238.93Z"/><path class="cls-6" d="M488.12,476.68c-73.82,0-133.87-60.05-133.87-133.87S414.3,208.93,488.12,208.93,622,269,622,342.81,561.94,476.68,488.12,476.68Zm0-237.75A103.88,103.88,0,1,0,592,342.81,104,104,0,0,0,488.12,238.93Z"/><path class="cls-6" d="M689,476.68c-73.82,0-133.87-60.05-133.87-133.87S615.21,208.93,689,208.93,822.91,269,822.91,342.81,762.85,476.68,689,476.68Zm0-237.75A103.88,103.88,0,1,0,792.91,342.81,104,104,0,0,0,689,238.93Z"/><path class="cls-6" d="M889.94,476.68c-73.82,0-133.87-60.05-133.87-133.87s60-133.88,133.87-133.88S1023.82,269,1023.82,342.81,963.76,476.68,889.94,476.68Zm0-237.75A103.88,103.88,0,1,0,993.82,342.81,104,104,0,0,0,889.94,238.93Z"/><path class="cls-6" d="M1090.85,476.68C1017,476.68,957,416.63,957,342.81s60-133.88,133.87-133.88S1224.73,269,1224.73,342.81,1164.67,476.68,1090.85,476.68Zm0-237.75a103.88,103.88,0,1,0,103.88,103.88A104,104,0,0,0,1090.85,238.93Z"/><g class="cls-7"><path class="cls-8" d="M287.52,476.68c-73.82,0-133.88-60.05-133.88-133.87S213.7,208.93,287.52,208.93,421.39,269,421.39,342.81,361.33,476.68,287.52,476.68Zm0-237.75A103.88,103.88,0,1,0,391.39,342.81,104,104,0,0,0,287.52,238.93Z"/><path class="cls-9" d="M488.43,476.68c-73.82,0-133.88-60.05-133.88-133.87s60.06-133.88,133.88-133.88S622.3,269,622.3,342.81,562.24,476.68,488.43,476.68Zm0-237.75A103.88,103.88,0,1,0,592.3,342.81,104,104,0,0,0,488.43,238.93Z"/><path class="cls-10" d="M689.34,476.68c-73.82,0-133.88-60.05-133.88-133.87s60.06-133.88,133.88-133.88S823.21,269,823.21,342.81,763.15,476.68,689.34,476.68Zm0-237.75A103.88,103.88,0,1,0,793.21,342.81,104,104,0,0,0,689.34,238.93Z"/><path class="cls-11" d="M890.25,476.68c-73.82,0-133.88-60.05-133.88-133.87s60.06-133.88,133.88-133.88S1024.12,269,1024.12,342.81,964.07,476.68,890.25,476.68Zm0-237.75A103.88,103.88,0,1,0,994.12,342.81,104,104,0,0,0,890.25,238.93Z"/><path class="cls-12" d="M1091.16,476.68c-73.82,0-133.88-60.05-133.88-133.87s60.06-133.88,133.88-133.88S1225,269,1225,342.81,1165,476.68,1091.16,476.68Zm0-237.75A103.88,103.88,0,1,0,1195,342.81,104,104,0,0,0,1091.16,238.93Z"/></g><g class="cls-13"><circle class="cls-14" cx="287.52" cy="342.81" r="118.88"/><circle class="cls-15" cx="488.43" cy="342.81" r="118.88"/><circle class="cls-16" cx="689.34" cy="342.81" r="118.88"/><circle class="cls-17" cx="890.25" cy="342.81" r="118.88"/><circle class="cls-18" cx="1091.16" cy="342.81" r="118.88"/></g></g></svg>