<svg xmlns="http://www.w3.org/2000/svg" viewBox="0 0 495.47 288"><defs><style>.cls-1{fill:#2c2e2e;}.cls-2{fill:none;stroke:#2c2e2e;stroke-linecap:round;stroke-linejoin:round;stroke-width:3px;}</style></defs><title>Artboard 33scroll</title><g id="Information"><path class="cls-1" d="M154.05,183.14h1.08c.07.28.13.62.2,1s.11.81.15,1.26.08.89.1,1.33,0,.84,0,1.19a6.22,6.22,0,0,1-2.31.82,16.46,16.46,0,0,1-2.83.24,13.65,13.65,0,0,1-4-.55,7.53,7.53,0,0,1-3-1.71,7.79,7.79,0,0,1-1.94-3,12.16,12.16,0,0,1-.69-4.34,11.19,11.19,0,0,1,.75-4.31,8.53,8.53,0,0,1,2-3,8,8,0,0,1,2.94-1.7,11.42,11.42,0,0,1,3.52-.54,18,18,0,0,1,3.16.25,9.49,9.49,0,0,1,2.3.67c0,.28,0,.65,0,1.08s-.07.91-.13,1.39-.13,1-.21,1.42-.15.86-.22,1.18h-1.11l-1.45-4a3,3,0,0,0-.77-.21,7.62,7.62,0,0,0-1.08-.08,4.81,4.81,0,0,0-2,.44,4.65,4.65,0,0,0-1.69,1.38,7.19,7.19,0,0,0-1.16,2.44,13.37,13.37,0,0,0-.42,3.58,9.63,9.63,0,0,0,1.5,5.8,4.84,4.84,0,0,0,4.09,2,5.73,5.73,0,0,0,1.26-.12,1.3,1.3,0,0,0,.69-.33Z"/><path class="cls-1" d="M173.56,188.68h-7v-1a6.88,6.88,0,0,1,.66-.35A7,7,0,0,1,168,187V181.7a9.5,9.5,0,0,0-.43-3.34,1.66,1.66,0,0,0-1.7-1.07,2.49,2.49,0,0,0-1.8.72,4.26,4.26,0,0,0-1.05,1.68V187a5.53,5.53,0,0,1,.75.24,3.42,3.42,0,0,1,.7.4v1h-7v-1a7.12,7.12,0,0,1,1.74-.64V171l-2-.21v-1a6.77,6.77,0,0,1,1-.32c.42-.11.85-.2,1.31-.28s.91-.15,1.37-.21.86-.11,1.21-.14h.9v9.31h0a4.47,4.47,0,0,1,.71-1.15,5.35,5.35,0,0,1,1-.95,5.17,5.17,0,0,1,1.23-.65,4.08,4.08,0,0,1,1.4-.24,6.37,6.37,0,0,1,1.88.26,2.87,2.87,0,0,1,1.39.88,4.15,4.15,0,0,1,.84,1.71,10.24,10.24,0,0,1,.29,2.71V187l.9.24a3,3,0,0,1,.84.4Z"/><path class="cls-1" d="M181.53,178.52a4.22,4.22,0,0,0-.74.53,3.33,3.33,0,0,0-.77,1.22V187a6.39,6.39,0,0,1,1.06.2,4.7,4.7,0,0,1,1,.44v1h-7.64v-1a4.55,4.55,0,0,1,.89-.4c.28-.09.57-.17.85-.24v-9.7l-1.74-.21v-1a7.48,7.48,0,0,1,1-.34c.41-.1.84-.2,1.28-.28s.86-.14,1.28-.19l1-.14H180v3.51h.11a6.32,6.32,0,0,1,.62-1.21,6.23,6.23,0,0,1,1-1.16,4.75,4.75,0,0,1,1.22-.84,2.83,2.83,0,0,1,1.37-.3,3.43,3.43,0,0,1,.5,1.05c.14.45.25.87.34,1.28v1Z"/><path class="cls-1" d="M193.34,188.68h-7.28v-1a6.58,6.58,0,0,1,.82-.36c.28-.1.59-.19.92-.28v-9.7l-1.74-.21v-1a9.94,9.94,0,0,1,1-.31c.4-.11.82-.2,1.26-.28s.87-.15,1.29-.21l1.11-.15h.89V187c.35.09.67.18,1,.28a4.75,4.75,0,0,1,.79.36Zm-5.93-17.51a1.8,1.8,0,0,1,.62-1.45,2.74,2.74,0,0,1,3.24,0,1.8,1.8,0,0,1,.62,1.45,1.78,1.78,0,0,1-.62,1.42,2.74,2.74,0,0,1-3.24,0A1.78,1.78,0,0,1,187.41,171.17Z"/><path class="cls-1" d="M201.6,185.8a1.66,1.66,0,0,0-.49-1.18,5.94,5.94,0,0,0-1.21-.93c-.49-.28-1-.56-1.59-.84a9.13,9.13,0,0,1-1.58-1,5.27,5.27,0,0,1-1.21-1.33,3.36,3.36,0,0,1-.49-1.87,2.81,2.81,0,0,1,.37-1.44,3.49,3.49,0,0,1,1-1.1,5,5,0,0,1,1.52-.69,6.89,6.89,0,0,1,1.91-.26,14.69,14.69,0,0,1,2.65.23,10.18,10.18,0,0,1,2.15.62,9.92,9.92,0,0,1-.42,1.81c-.21.64-.41,1.22-.61,1.75h-.89l-1.11-2.69a2.14,2.14,0,0,0-.66-.17,6.08,6.08,0,0,0-.77,0,1.53,1.53,0,0,0-1.2.46,1.56,1.56,0,0,0-.41,1,1.61,1.61,0,0,0,.49,1.15,6.05,6.05,0,0,0,1.22.91c.48.28,1,.56,1.58.84a10,10,0,0,1,1.58,1,5,5,0,0,1,1.21,1.27,3.14,3.14,0,0,1,.49,1.77,3.29,3.29,0,0,1-1.48,2.86,6.67,6.67,0,0,1-4,1.05,13.22,13.22,0,0,1-2.61-.27,9,9,0,0,1-2.32-.74,5.7,5.7,0,0,1,.45-1.92,12.84,12.84,0,0,1,.84-1.74h.9l1.29,2.87a1.27,1.27,0,0,0,.64.25,5.49,5.49,0,0,0,.68,0A2.33,2.33,0,0,0,201,187,1.42,1.42,0,0,0,201.6,185.8Z"/><path class="cls-1" d="M206.13,176.15a7,7,0,0,1,2.11-.92v-2.14a5.58,5.58,0,0,1,1-.46,11.93,11.93,0,0,1,1.86-.49H212v3.35h3.48v1.72H212V184a4.49,4.49,0,0,0,.41,2.26,1.5,1.5,0,0,0,1.36.63c.32,0,.67,0,1.07-.07a4.58,4.58,0,0,0,1.09-.25l.19.87a3.44,3.44,0,0,1-.7.5,8.1,8.1,0,0,1-1.06.5,8.51,8.51,0,0,1-1.29.4,7,7,0,0,1-1.46.16,3.34,3.34,0,0,1-2.56-.9,4.12,4.12,0,0,1-.85-2.89v-8h-2.11Z"/><path class="cls-1" d="M224.54,188.68h-7.28v-1a6.58,6.58,0,0,1,.82-.36c.28-.1.59-.19.92-.28v-9.7l-1.74-.21v-1a9.94,9.94,0,0,1,1-.31c.4-.11.82-.2,1.26-.28s.87-.15,1.29-.21l1.11-.15h.89V187c.35.09.67.18.95.28a4.75,4.75,0,0,1,.79.36Zm-5.93-17.51a1.8,1.8,0,0,1,.62-1.45,2.74,2.74,0,0,1,3.24,0,1.8,1.8,0,0,1,.62,1.45,1.78,1.78,0,0,1-.62,1.42,2.74,2.74,0,0,1-3.24,0A1.78,1.78,0,0,1,218.61,171.17Z"/><path class="cls-1" d="M241.87,188.68h-7v-1a5.91,5.91,0,0,1,.67-.33c.22-.1.48-.2.78-.31v-6.21a6,6,0,0,0-.47-2.61,1.73,1.73,0,0,0-1.69-.93,2.52,2.52,0,0,0-1.73.64,4,4,0,0,0-1.09,1.76V187a5.48,5.48,0,0,1,.75.25,5.65,5.65,0,0,1,.7.39v1h-7v-1a8.48,8.48,0,0,1,1.74-.64v-9.7l-1.74-.21v-1a6.71,6.71,0,0,1,.9-.3c.36-.1.76-.19,1.2-.28s.87-.16,1.31-.22l1.23-.15h.9v2.72h0A5.37,5.37,0,0,1,233,176a4.45,4.45,0,0,1,2.69-.81,6.17,6.17,0,0,1,1.85.26,3,3,0,0,1,1.39.88,4.43,4.43,0,0,1,.87,1.71,10.2,10.2,0,0,1,.3,2.71V187a4.75,4.75,0,0,1,1.74.64Z"/><path class="cls-1" d="M255,186.46a3.12,3.12,0,0,1-.67.91,4.7,4.7,0,0,1-1.13.82,7,7,0,0,1-1.56.58,7.69,7.69,0,0,1-1.91.23,8.12,8.12,0,0,1-2.9-.49,5.5,5.5,0,0,1-2.11-1.4,6.08,6.08,0,0,1-1.28-2.18,8.68,8.68,0,0,1-.44-2.84,7,7,0,0,1,1.77-5.15,6.63,6.63,0,0,1,4.91-1.77,8.63,8.63,0,0,1,2.52.37,4.39,4.39,0,0,1,2,1.22,4.64,4.64,0,0,1,1.08,2.21,8.81,8.81,0,0,1,0,3.35h-8.1a5.17,5.17,0,0,0,1.07,3.33,3.81,3.81,0,0,0,3.07,1.24,6.51,6.51,0,0,0,1.81-.27,4.05,4.05,0,0,0,1.46-.68Zm-5.44-9.78a2.27,2.27,0,0,0-.93.18,1.64,1.64,0,0,0-.71.68,4.44,4.44,0,0,0-.49,1.31,14.26,14.26,0,0,0-.26,2.1h4.22a7.44,7.44,0,0,0-.23-3.16A1.58,1.58,0,0,0,249.56,176.68Z"/><path class="cls-1" d="M267.61,186.49a3.06,3.06,0,0,0,.82.54,3.25,3.25,0,0,0,1.4.25,3.81,3.81,0,0,0,2.41-.75,2.51,2.51,0,0,0,1-2.1,2.3,2.3,0,0,0-.62-1.63,6.73,6.73,0,0,0-1.57-1.22c-.63-.37-1.31-.73-2-1.09a12.18,12.18,0,0,1-2-1.28,6.54,6.54,0,0,1-1.57-1.75,4.8,4.8,0,0,1-.62-2.52,4.9,4.9,0,0,1,.48-2.24,4.24,4.24,0,0,1,1.3-1.57,5.79,5.79,0,0,1,2-.93,9.51,9.51,0,0,1,2.45-.3,19.9,19.9,0,0,1,3,.22,11,11,0,0,1,2.5.7c0,.36-.05.76-.1,1.22s-.1.91-.17,1.36-.14.87-.22,1.26-.16.73-.23,1h-1.08L273.43,172a3.91,3.91,0,0,0-.94-.29,6,6,0,0,0-1.28-.14,3,3,0,0,0-1.88.59,2,2,0,0,0-.77,1.68,2.43,2.43,0,0,0,.63,1.7,7.13,7.13,0,0,0,1.59,1.28c.64.39,1.33.77,2.08,1.15a12.6,12.6,0,0,1,2.08,1.31,6.79,6.79,0,0,1,1.58,1.72,4.39,4.39,0,0,1,.64,2.44,5,5,0,0,1-1.78,4.08,8.18,8.18,0,0,1-5.24,1.44,14,14,0,0,1-1.7-.11,15.1,15.1,0,0,1-1.62-.29,11.18,11.18,0,0,1-1.36-.4,3.24,3.24,0,0,1-.88-.44,10.74,10.74,0,0,1,.13-1.31c.07-.47.14-.93.22-1.4s.17-.91.25-1.33.18-.79.27-1.11h1.08Z"/><path class="cls-1" d="M278.4,176.15a6.92,6.92,0,0,1,2.11-.92v-2.14a5.08,5.08,0,0,1,1-.46,11.93,11.93,0,0,1,1.86-.49h.89v3.35h3.49v1.72H284.3V184a4.49,4.49,0,0,0,.41,2.26,1.51,1.51,0,0,0,1.36.63c.32,0,.67,0,1.07-.07a4.47,4.47,0,0,0,1.09-.25l.19.87a3.44,3.44,0,0,1-.7.5,8.59,8.59,0,0,1-1.05.5,9,9,0,0,1-1.3.4,6.87,6.87,0,0,1-1.46.16,3.35,3.35,0,0,1-2.56-.9,4.12,4.12,0,0,1-.84-2.89v-8H278.4Z"/><path class="cls-1" d="M296.36,178.52a4.22,4.22,0,0,0-.74.53,3.33,3.33,0,0,0-.77,1.22V187a6.39,6.39,0,0,1,1.06.2,4.7,4.7,0,0,1,1,.44v1h-7.64v-1a4.55,4.55,0,0,1,.89-.4c.28-.09.57-.17.85-.24v-9.7l-1.74-.21v-1a7.48,7.48,0,0,1,1-.34c.41-.1.84-.2,1.28-.28s.86-.14,1.28-.19l1-.14h.89v3.51H295a6.32,6.32,0,0,1,.62-1.21,6.23,6.23,0,0,1,1-1.16,4.75,4.75,0,0,1,1.22-.84,2.83,2.83,0,0,1,1.37-.3,3.43,3.43,0,0,1,.5,1.05c.14.45.25.87.34,1.28v1Z"/><path class="cls-1" d="M312.47,184.85c0,.39,0,.73,0,1s0,.58.07.89l1.82.27v.92a5.3,5.3,0,0,1-.86.32l-1.13.3q-.6.15-1.17.24c-.39.06-.73.11-1,.14h-.9a4.18,4.18,0,0,1-.32-1.21c0-.4-.06-.9-.07-1.48h-.14a3.07,3.07,0,0,1-.45,1,3.63,3.63,0,0,1-.8.87,4.2,4.2,0,0,1-1.15.62,4.28,4.28,0,0,1-1.47.24,4.65,4.65,0,0,1-1.61-.27A3.73,3.73,0,0,1,302,188a3.53,3.53,0,0,1-.88-1.14,3.56,3.56,0,0,1-.31-1.52,3.8,3.8,0,0,1,.45-2,3.36,3.36,0,0,1,1.41-1.26,8.63,8.63,0,0,1,2.48-.72,34.75,34.75,0,0,1,3.68-.34,8,8,0,0,0-.19-3.33,1.63,1.63,0,0,0-1.71-1,4.31,4.31,0,0,0-1.51.26l-1.24,3.17H303a7.94,7.94,0,0,1-.41-.73,8.75,8.75,0,0,1-.36-.87,8.29,8.29,0,0,1-.29-.93,8.44,8.44,0,0,1-.18-.93,7.86,7.86,0,0,1,2.59-1.08,13.91,13.91,0,0,1,3.35-.4,7.88,7.88,0,0,1,2.45.33,3.69,3.69,0,0,1,1.49.9,3.09,3.09,0,0,1,.75,1.33,6.19,6.19,0,0,1,.21,1.64c0,1,0,2-.06,2.86S312.47,184,312.47,184.85Zm-5.93,2a1.91,1.91,0,0,0,.95-.22,2.44,2.44,0,0,0,.67-.5,2,2,0,0,0,.42-.63c.1-.23.17-.43.23-.61V182.3a14.74,14.74,0,0,0-2,.15,3.14,3.14,0,0,0-1.24.44,1.56,1.56,0,0,0-.62.76,3.15,3.15,0,0,0-.18,1.13,2.3,2.3,0,0,0,.48,1.55A1.66,1.66,0,0,0,306.54,186.89Z"/><path class="cls-1" d="M322.36,185.8a1.62,1.62,0,0,0-.49-1.18,5.67,5.67,0,0,0-1.21-.93c-.48-.28-1-.56-1.58-.84a8.77,8.77,0,0,1-1.58-1,5.31,5.31,0,0,1-1.22-1.33,3.44,3.44,0,0,1-.48-1.87,2.9,2.9,0,0,1,.36-1.44,3.41,3.41,0,0,1,1-1.1,4.89,4.89,0,0,1,1.51-.69,6.91,6.91,0,0,1,1.92-.26,14.77,14.77,0,0,1,2.65.23,10.54,10.54,0,0,1,2.15.62,10.91,10.91,0,0,1-.43,1.81c-.21.64-.41,1.22-.6,1.75h-.9l-1.11-2.69a2.14,2.14,0,0,0-.66-.17,5.92,5.92,0,0,0-.76,0,1.5,1.5,0,0,0-1.2.46,1.56,1.56,0,0,0,.08,2.19,6,6,0,0,0,1.21.91c.48.28,1,.56,1.58.84a10,10,0,0,1,1.58,1,5.07,5.07,0,0,1,1.22,1.27,3.22,3.22,0,0,1,.49,1.77,3.31,3.31,0,0,1-1.48,2.86,6.69,6.69,0,0,1-4,1.05,13.3,13.3,0,0,1-2.61-.27,9.17,9.17,0,0,1-2.32-.74,6.22,6.22,0,0,1,.45-1.92,12.84,12.84,0,0,1,.84-1.74h.9L319,187.2a1.3,1.3,0,0,0,.65.25,5.33,5.33,0,0,0,.67,0,2.36,2.36,0,0,0,1.4-.45A1.44,1.44,0,0,0,322.36,185.8Z"/><path class="cls-1" d="M334.28,185.8a1.65,1.65,0,0,0-.48-1.18,5.75,5.75,0,0,0-1.22-.93c-.48-.28-1-.56-1.58-.84a8.77,8.77,0,0,1-1.58-1,5.31,5.31,0,0,1-1.22-1.33,3.44,3.44,0,0,1-.48-1.87,2.81,2.81,0,0,1,.37-1.44,3.38,3.38,0,0,1,1-1.1,4.89,4.89,0,0,1,1.51-.69,6.91,6.91,0,0,1,1.92-.26,14.69,14.69,0,0,1,2.65.23,10.54,10.54,0,0,1,2.15.62,10,10,0,0,1-.43,1.81c-.21.64-.41,1.22-.6,1.75h-.9l-1.11-2.69a2.14,2.14,0,0,0-.66-.17,5.92,5.92,0,0,0-.76,0,1.5,1.5,0,0,0-1.2.46,1.56,1.56,0,0,0,.08,2.19,6,6,0,0,0,1.21.91c.48.28,1,.56,1.58.84a10.54,10.54,0,0,1,1.59,1,5.21,5.21,0,0,1,1.21,1.27,3.22,3.22,0,0,1,.49,1.77,3.29,3.29,0,0,1-1.48,2.86,6.69,6.69,0,0,1-4,1.05,13.3,13.3,0,0,1-2.61-.27,9.17,9.17,0,0,1-2.32-.74,6.22,6.22,0,0,1,.45-1.92,14.15,14.15,0,0,1,.84-1.74h.9l1.29,2.87a1.3,1.3,0,0,0,.65.25,5.33,5.33,0,0,0,.67,0,2.36,2.36,0,0,0,1.4-.45A1.44,1.44,0,0,0,334.28,185.8Z"/><path class="cls-1" d="M351.43,186.46a3.37,3.37,0,0,1-.68.91,4.51,4.51,0,0,1-1.13.82,7,7,0,0,1-1.56.58,7.69,7.69,0,0,1-1.91.23,8.12,8.12,0,0,1-2.9-.49,5.58,5.58,0,0,1-2.11-1.4,6.08,6.08,0,0,1-1.28-2.18,8.69,8.69,0,0,1-.43-2.84,7,7,0,0,1,1.76-5.15,6.64,6.64,0,0,1,4.91-1.77,8.58,8.58,0,0,1,2.52.37,4.39,4.39,0,0,1,1.95,1.22,4.64,4.64,0,0,1,1.08,2.21,8.81,8.81,0,0,1,0,3.35h-8.1a5.17,5.17,0,0,0,1.07,3.33,3.81,3.81,0,0,0,3.07,1.24,6.46,6.46,0,0,0,1.81-.27,4.11,4.11,0,0,0,1.47-.68ZM346,176.68a2.27,2.27,0,0,0-.93.18,1.7,1.7,0,0,0-.71.68,4.19,4.19,0,0,0-.48,1.31,14.1,14.1,0,0,0-.27,2.1h4.22a7.28,7.28,0,0,0-.23-3.16A1.58,1.58,0,0,0,346,176.68Z"/><path class="cls-1" d="M360.42,178.52a4.22,4.22,0,0,0-.74.53,3.2,3.2,0,0,0-.76,1.22V187a6.47,6.47,0,0,1,1.05.2,5,5,0,0,1,1.06.44v1h-7.65v-1a4.55,4.55,0,0,1,.89-.4l.85-.24v-9.7l-1.74-.21v-1a8,8,0,0,1,1-.34c.41-.1.84-.2,1.28-.28s.86-.14,1.28-.19l1-.14h.9v3.51h.1a6.32,6.32,0,0,1,.62-1.21,6.23,6.23,0,0,1,1-1.16,4.75,4.75,0,0,1,1.22-.84,2.85,2.85,0,0,1,1.37-.3,3.43,3.43,0,0,1,.5,1.05c.14.45.25.87.34,1.28v1Z"/><path class="cls-2" d="M239.81,50c-26.9,0-48.71,14.77-48.71,33,0,14,12.79,25.87,30.84,30.7,1.77,6.56,2.92,16-1.46,24,0,0,10.16-6.58,15.53-21.8,1.25.07,2.52.11,3.8.11,26.89,0,48.7-14.77,48.7-33S266.7,50,239.81,50Z"/><path class="cls-2" d="M313.76,103.33c0-8.2-6.41-15.64-16.9-18.65a47,47,0,0,1-8.35,20.63c-7.2,9.76-21.57,13.83-21.57,13.83a36.45,36.45,0,0,0,10.69,3.43c5.56,12.26,13.86,17.64,13.86,17.64-3-5.56-3.41-11.79-2.77-17.28C302.88,121.55,313.76,113.3,313.76,103.33Z"/></g></svg>