<svg xmlns="http://www.w3.org/2000/svg" viewBox="0 0 495.47 288"><defs><style>.cls-1{fill:#2c2e2e;}</style></defs><title>Artboard 33 copyscroll</title><g id="Information"><path class="cls-1" d="M149.35,148.58h1.08c.07.28.14.62.2,1s.11.82.16,1.27.07.89.09,1.33,0,.84,0,1.19a6.23,6.23,0,0,1-2.3.82,16.66,16.66,0,0,1-2.84.23,13.66,13.66,0,0,1-4-.54,7.53,7.53,0,0,1-3-1.71,7.79,7.79,0,0,1-1.94-3,12.2,12.2,0,0,1-.69-4.34,11.18,11.18,0,0,1,.76-4.31,8.29,8.29,0,0,1,2-3,8,8,0,0,1,2.94-1.7,11.43,11.43,0,0,1,3.53-.54,17.8,17.8,0,0,1,3.15.25,9.35,9.35,0,0,1,2.3.67q0,.42,0,1.08c0,.44-.08.91-.14,1.39s-.13,1-.21,1.42-.15.86-.22,1.18h-1.11l-1.45-4a2.89,2.89,0,0,0-.76-.21,7.88,7.88,0,0,0-1.09-.08,4.84,4.84,0,0,0-2,.44,4.54,4.54,0,0,0-1.68,1.38,7.2,7.2,0,0,0-1.17,2.44,13.37,13.37,0,0,0-.42,3.58,9.56,9.56,0,0,0,1.51,5.8,4.81,4.81,0,0,0,4.08,2,5.67,5.67,0,0,0,1.26-.12,1.38,1.38,0,0,0,.7-.33Z"/><path class="cls-1" d="M168.86,154.12h-7v-1c.21-.13.43-.24.65-.35a7.24,7.24,0,0,1,.8-.29v-5.34a9.42,9.42,0,0,0-.44-3.34,1.67,1.67,0,0,0-1.7-1.08,2.48,2.48,0,0,0-1.79.73,4.17,4.17,0,0,0-1.06,1.68v7.35a5.53,5.53,0,0,1,.75.24,3.18,3.18,0,0,1,.7.4v1h-7v-1a7.12,7.12,0,0,1,1.74-.64v-16l-2-.21v-1a8.37,8.37,0,0,1,1-.31c.42-.11.85-.2,1.31-.28s.91-.15,1.37-.21l1.21-.15h.9v9.31h0a4.6,4.6,0,0,1,.71-1.14,5.67,5.67,0,0,1,1-.95,5.17,5.17,0,0,1,1.23-.65,4.08,4.08,0,0,1,1.4-.24,6.37,6.37,0,0,1,1.88.26,2.87,2.87,0,0,1,1.39.88,4.15,4.15,0,0,1,.84,1.71,10.21,10.21,0,0,1,.29,2.7v6.32l.9.24a3,3,0,0,1,.84.4Z"/><path class="cls-1" d="M176.83,144a4.22,4.22,0,0,0-.74.53,3.2,3.2,0,0,0-.76,1.22v6.77a6.47,6.47,0,0,1,1,.2,5,5,0,0,1,1.06.44v1h-7.65v-1a4.55,4.55,0,0,1,.89-.4l.85-.24v-9.7l-1.74-.21v-1a8,8,0,0,1,1-.34c.41-.1.84-.2,1.28-.28s.86-.14,1.28-.19l1-.14h.9v3.51h.1a6.32,6.32,0,0,1,.62-1.21,6.23,6.23,0,0,1,1-1.16,5.05,5.05,0,0,1,1.22-.85,3,3,0,0,1,1.37-.29,3.43,3.43,0,0,1,.5,1c.14.44.25.87.34,1.28v1Z"/><path class="cls-1" d="M188.65,154.12h-7.28v-1a4.88,4.88,0,0,1,.81-.36c.28-.1.59-.19.93-.28v-9.7l-1.74-.21v-1a8.5,8.5,0,0,1,1-.31c.39-.11.81-.2,1.25-.28l1.29-.21,1.11-.15h.89v11.87c.36.09.67.18.95.28a4.15,4.15,0,0,1,.8.36Zm-5.94-17.51a1.78,1.78,0,0,1,.63-1.45,2.35,2.35,0,0,1,1.61-.53,2.4,2.4,0,0,1,1.62.53,1.77,1.77,0,0,1,.62,1.45,1.75,1.75,0,0,1-.62,1.42,2.45,2.45,0,0,1-1.62.53,2.4,2.4,0,0,1-1.61-.53A1.76,1.76,0,0,1,182.71,136.61Z"/><path class="cls-1" d="M196.9,151.24a1.62,1.62,0,0,0-.49-1.18,5.37,5.37,0,0,0-1.21-.93c-.49-.28-1-.56-1.58-.84a8.85,8.85,0,0,1-1.59-1,5.47,5.47,0,0,1-1.21-1.33,3.38,3.38,0,0,1-.49-1.87,2.91,2.91,0,0,1,.37-1.44,3.49,3.49,0,0,1,1-1.1,5.06,5.06,0,0,1,1.52-.69,6.89,6.89,0,0,1,1.91-.26,14.61,14.61,0,0,1,2.65.23,9.62,9.62,0,0,1,2.15.62,9.64,9.64,0,0,1-.42,1.8c-.21.65-.41,1.23-.61,1.76H198l-1.11-2.69a2.14,2.14,0,0,0-.66-.17,5.92,5.92,0,0,0-.76,0,1.49,1.49,0,0,0-1.61,1.5,1.6,1.6,0,0,0,.48,1.15,6.05,6.05,0,0,0,1.22.91c.48.28,1,.56,1.58.84a9.28,9.28,0,0,1,1.58,1,5.07,5.07,0,0,1,1.22,1.27,3.19,3.19,0,0,1,.48,1.77,3.32,3.32,0,0,1-1.47,2.86,6.73,6.73,0,0,1-4,1,13.27,13.27,0,0,1-2.61-.26,9.45,9.45,0,0,1-2.32-.74,5.7,5.7,0,0,1,.45-1.92,12.84,12.84,0,0,1,.84-1.74h.9l1.29,2.87a1.36,1.36,0,0,0,.65.25,5.22,5.22,0,0,0,.67,0,2.38,2.38,0,0,0,1.4-.45A1.44,1.44,0,0,0,196.9,151.24Z"/><path class="cls-1" d="M201.44,141.59a6.58,6.58,0,0,1,2.11-.92v-2.14a5.08,5.08,0,0,1,1-.46,10.91,10.91,0,0,1,1.86-.49h.89v3.35h3.48v1.71h-3.48v6.8a4.42,4.42,0,0,0,.41,2.25,1.51,1.51,0,0,0,1.36.63c.32,0,.67,0,1.07-.06a5,5,0,0,0,1.09-.25l.19.87a3.44,3.44,0,0,1-.7.5,8.1,8.1,0,0,1-1.06.5,8.51,8.51,0,0,1-1.29.4,6.88,6.88,0,0,1-1.46.15,3.35,3.35,0,0,1-2.56-.89,4.12,4.12,0,0,1-.84-2.89v-8h-2.11Z"/><path class="cls-1" d="M219.84,154.12h-7.27v-1a4.88,4.88,0,0,1,.81-.36c.28-.1.59-.19.93-.28v-9.7l-1.74-.21v-1a8.92,8.92,0,0,1,1-.31c.4-.11.82-.2,1.26-.28l1.29-.21,1.11-.15h.89v11.87c.36.09.67.18,1,.28a4.06,4.06,0,0,1,.79.36Zm-5.93-17.51a1.78,1.78,0,0,1,.63-1.45,2.35,2.35,0,0,1,1.61-.53,2.4,2.4,0,0,1,1.62.53,1.77,1.77,0,0,1,.62,1.45,1.75,1.75,0,0,1-.62,1.42,2.45,2.45,0,0,1-1.62.53,2.4,2.4,0,0,1-1.61-.53A1.76,1.76,0,0,1,213.91,136.61Z"/><path class="cls-1" d="M237.17,154.12h-7v-1a7.18,7.18,0,0,1,.68-.34l.77-.3v-6.21a5.86,5.86,0,0,0-.47-2.61,1.74,1.74,0,0,0-1.69-.94,2.53,2.53,0,0,0-1.73.65,4,4,0,0,0-1.09,1.76v7.35a5.48,5.48,0,0,1,.75.25,5.65,5.65,0,0,1,.7.39v1h-7v-1a8.48,8.48,0,0,1,1.74-.64v-9.7l-1.74-.21v-1a6.71,6.71,0,0,1,.9-.3c.37-.1.77-.19,1.2-.28s.87-.16,1.32-.22l1.22-.15h.9v2.72h0a5.18,5.18,0,0,1,1.66-1.91,4.43,4.43,0,0,1,2.69-.81,6.15,6.15,0,0,1,1.84.26,3,3,0,0,1,1.39.88,4.17,4.17,0,0,1,.87,1.71,10.17,10.17,0,0,1,.3,2.7v6.32a4.75,4.75,0,0,1,1.74.64Z"/><path class="cls-1" d="M250.31,151.9a3.53,3.53,0,0,1-.68.91,4.51,4.51,0,0,1-1.13.82,7,7,0,0,1-1.56.58,7.7,7.7,0,0,1-1.91.22,8.13,8.13,0,0,1-2.9-.48,5.58,5.58,0,0,1-2.11-1.4,6.08,6.08,0,0,1-1.28-2.18,8.71,8.71,0,0,1-.43-2.85,7,7,0,0,1,1.76-5.14,6.64,6.64,0,0,1,4.91-1.77,8.58,8.58,0,0,1,2.52.37,4.39,4.39,0,0,1,1.95,1.22,4.64,4.64,0,0,1,1.08,2.21,8.81,8.81,0,0,1,0,3.35h-8.1a5.17,5.17,0,0,0,1.07,3.33,3.81,3.81,0,0,0,3.07,1.23,6.49,6.49,0,0,0,1.81-.26,4.11,4.11,0,0,0,1.47-.69Zm-5.45-9.78a2.27,2.27,0,0,0-.93.18,1.73,1.73,0,0,0-.71.67,4.36,4.36,0,0,0-.48,1.32,14.1,14.1,0,0,0-.27,2.1h4.22a7.28,7.28,0,0,0-.23-3.16A1.58,1.58,0,0,0,244.86,142.12Z"/><path class="cls-1" d="M262.91,151.93a3,3,0,0,0,2.22.79,3.81,3.81,0,0,0,2.41-.75,2.51,2.51,0,0,0,1-2.1,2.26,2.26,0,0,0-.62-1.63,6.73,6.73,0,0,0-1.57-1.22c-.63-.37-1.31-.73-2-1.09a12.61,12.61,0,0,1-2-1.28,6.71,6.71,0,0,1-1.57-1.75,4.8,4.8,0,0,1-.62-2.52,4.9,4.9,0,0,1,.48-2.24,4.24,4.24,0,0,1,1.3-1.57,5.79,5.79,0,0,1,2-.93,9.51,9.51,0,0,1,2.45-.3,18.66,18.66,0,0,1,3,.22,11,11,0,0,1,2.5.7c0,.35-.05.76-.1,1.22s-.1.91-.17,1.35-.14.87-.22,1.27-.15.73-.22,1H270l-1.21-3.61a3.72,3.72,0,0,0-.95-.29,6,6,0,0,0-1.28-.14,3.07,3.07,0,0,0-1.88.58,2,2,0,0,0-.77,1.69,2.4,2.4,0,0,0,.64,1.7,6.85,6.85,0,0,0,1.58,1.28c.64.39,1.33.77,2.08,1.15a13.26,13.26,0,0,1,2.08,1.3,7,7,0,0,1,1.58,1.73,4.39,4.39,0,0,1,.64,2.44,4.94,4.94,0,0,1-1.78,4.08,8.18,8.18,0,0,1-5.24,1.43,14,14,0,0,1-1.7-.1,15.1,15.1,0,0,1-1.62-.29,13.31,13.31,0,0,1-1.36-.4,3,3,0,0,1-.88-.45c0-.4.06-.83.13-1.3s.15-.93.22-1.4.17-.91.26-1.33.17-.79.26-1.11h1.08Z"/><path class="cls-1" d="M273.7,141.59a6.68,6.68,0,0,1,2.11-.92v-2.14a5.38,5.38,0,0,1,1-.46,10.91,10.91,0,0,1,1.86-.49h.9v3.35h3.48v1.71h-3.48v6.8a4.31,4.31,0,0,0,.41,2.25,1.48,1.48,0,0,0,1.35.63,10.61,10.61,0,0,0,1.07-.06,5.21,5.21,0,0,0,1.1-.25l.18.87a3.44,3.44,0,0,1-.7.5,8.59,8.59,0,0,1-1,.5,9,9,0,0,1-1.3.4,6.88,6.88,0,0,1-1.46.15,3.36,3.36,0,0,1-2.56-.89,4.12,4.12,0,0,1-.84-2.89v-8H273.7Z"/><path class="cls-1" d="M291.66,144a4.22,4.22,0,0,0-.74.53,3.2,3.2,0,0,0-.76,1.22v6.77a6.47,6.47,0,0,1,1,.2,5,5,0,0,1,1.06.44v1h-7.65v-1a4.55,4.55,0,0,1,.89-.4c.28-.09.57-.17.85-.24v-9.7l-1.74-.21v-1a8,8,0,0,1,1-.34c.41-.1.84-.2,1.28-.28s.86-.14,1.28-.19l1-.14h.9v3.51h.1a6.32,6.32,0,0,1,.62-1.21,6.23,6.23,0,0,1,1-1.16,5.05,5.05,0,0,1,1.22-.85,3,3,0,0,1,1.37-.29,3.43,3.43,0,0,1,.5,1c.14.44.25.87.34,1.28v1Z"/><path class="cls-1" d="M307.77,150.29c0,.39,0,.72,0,1s0,.58.06.89l1.82.27v.92a6.24,6.24,0,0,1-.85.32l-1.14.3c-.39.1-.79.17-1.17.24s-.73.11-1,.14h-.9a3.86,3.86,0,0,1-.31-1.21c0-.41-.07-.9-.08-1.48h-.13a3.54,3.54,0,0,1-.45,1,3.68,3.68,0,0,1-.81.87,4.29,4.29,0,0,1-1.14.62,4.38,4.38,0,0,1-1.48.23,4.65,4.65,0,0,1-1.61-.26,4.1,4.1,0,0,1-1.29-.74,3.31,3.31,0,0,1-.87-1.15,3.49,3.49,0,0,1-.32-1.51,3.8,3.8,0,0,1,.45-2,3.36,3.36,0,0,1,1.41-1.26,8.63,8.63,0,0,1,2.48-.72,35,35,0,0,1,3.68-.34,8,8,0,0,0-.19-3.33,1.63,1.63,0,0,0-1.71-1,4.22,4.22,0,0,0-1.5.26l-1.24,3.17h-1.16a5,5,0,0,1-.41-.73,6.89,6.89,0,0,1-.37-.87,7.84,7.84,0,0,1-.29-.94,6.17,6.17,0,0,1-.17-.92,7.8,7.8,0,0,1,2.58-1.08,14,14,0,0,1,3.35-.4,7.59,7.59,0,0,1,2.45.33,3.62,3.62,0,0,1,1.49.9,3.22,3.22,0,0,1,.76,1.33,6.19,6.19,0,0,1,.21,1.64c0,1.05,0,2-.07,2.86S307.77,149.4,307.77,150.29Zm-5.93,2a2,2,0,0,0,1-.21,2.44,2.44,0,0,0,.67-.5,1.83,1.83,0,0,0,.42-.63,4.84,4.84,0,0,0,.23-.61v-2.63a14.74,14.74,0,0,0-2,.15,3.2,3.2,0,0,0-1.24.44,1.56,1.56,0,0,0-.62.76,3.14,3.14,0,0,0-.17,1.12,2.31,2.31,0,0,0,.47,1.56A1.65,1.65,0,0,0,301.84,152.32Z"/><path class="cls-1" d="M317.66,151.24a1.65,1.65,0,0,0-.48-1.18,5.44,5.44,0,0,0-1.22-.93c-.48-.28-1-.56-1.58-.84a8.77,8.77,0,0,1-1.58-1,5.31,5.31,0,0,1-1.22-1.33,3.47,3.47,0,0,1-.48-1.87,2.81,2.81,0,0,1,.37-1.44,3.38,3.38,0,0,1,1-1.1,5,5,0,0,1,1.51-.69,6.91,6.91,0,0,1,1.92-.26,14.69,14.69,0,0,1,2.65.23,9.78,9.78,0,0,1,2.15.62,9,9,0,0,1-.43,1.8c-.21.65-.41,1.23-.6,1.76h-.9l-1.11-2.69a2.14,2.14,0,0,0-.66-.17,5.82,5.82,0,0,0-.76,0,1.5,1.5,0,0,0-1.2.46,1.54,1.54,0,0,0-.41,1,1.57,1.57,0,0,0,.49,1.15,6,6,0,0,0,1.21.91c.49.28,1,.56,1.58.84a9.37,9.37,0,0,1,1.59,1,5,5,0,0,1,1.21,1.27,3.11,3.11,0,0,1,.49,1.77,3.3,3.3,0,0,1-1.48,2.86,6.67,6.67,0,0,1-4,1,13.29,13.29,0,0,1-2.62-.26,9.59,9.59,0,0,1-2.32-.74,6.22,6.22,0,0,1,.45-1.92,14.13,14.13,0,0,1,.85-1.74H313l1.29,2.87a1.4,1.4,0,0,0,.65.25,5.33,5.33,0,0,0,.67,0,2.36,2.36,0,0,0,1.4-.45A1.44,1.44,0,0,0,317.66,151.24Z"/><path class="cls-1" d="M329.58,151.24a1.65,1.65,0,0,0-.48-1.18,5.44,5.44,0,0,0-1.22-.93c-.48-.28-1-.56-1.58-.84a8.77,8.77,0,0,1-1.58-1,5.09,5.09,0,0,1-1.21-1.33,3.38,3.38,0,0,1-.49-1.87,2.81,2.81,0,0,1,.37-1.44,3.38,3.38,0,0,1,1-1.1,5,5,0,0,1,1.52-.69,6.78,6.78,0,0,1,1.91-.26,14.69,14.69,0,0,1,2.65.23,9.78,9.78,0,0,1,2.15.62,9.64,9.64,0,0,1-.42,1.8c-.22.65-.42,1.23-.61,1.76h-.9l-1.11-2.69a2.15,2.15,0,0,0-.65-.17,6.08,6.08,0,0,0-.77,0,1.5,1.5,0,0,0-1.2.46,1.54,1.54,0,0,0-.41,1,1.57,1.57,0,0,0,.49,1.15,6,6,0,0,0,1.21.91c.49.28,1,.56,1.58.84a9.37,9.37,0,0,1,1.59,1,5,5,0,0,1,1.21,1.27,3.11,3.11,0,0,1,.49,1.77,3.3,3.3,0,0,1-1.48,2.86,6.67,6.67,0,0,1-3.95,1,13.12,13.12,0,0,1-2.61-.26,9.53,9.53,0,0,1-2.33-.74,6.22,6.22,0,0,1,.45-1.92,14.13,14.13,0,0,1,.85-1.74h.89l1.3,2.87a1.33,1.33,0,0,0,.64.25,5.33,5.33,0,0,0,.67,0,2.36,2.36,0,0,0,1.4-.45A1.44,1.44,0,0,0,329.58,151.24Z"/><path class="cls-1" d="M346.73,151.9a3.47,3.47,0,0,1-.67.91,4.76,4.76,0,0,1-1.14.82,7,7,0,0,1-1.56.58,7.65,7.65,0,0,1-1.91.22,8.16,8.16,0,0,1-2.9-.48,5.58,5.58,0,0,1-2.11-1.4,6.08,6.08,0,0,1-1.28-2.18,8.71,8.71,0,0,1-.43-2.85,7,7,0,0,1,1.76-5.14,6.64,6.64,0,0,1,4.91-1.77,8.53,8.53,0,0,1,2.52.37,4.39,4.39,0,0,1,1.95,1.22,4.64,4.64,0,0,1,1.08,2.21,8.81,8.81,0,0,1,0,3.35h-8.09a5.11,5.11,0,0,0,1.06,3.33,3.82,3.82,0,0,0,3.08,1.23,6.42,6.42,0,0,0,1.8-.26,4.11,4.11,0,0,0,1.47-.69Zm-5.45-9.78a2.27,2.27,0,0,0-.93.18,1.73,1.73,0,0,0-.71.67,4.36,4.36,0,0,0-.48,1.32,14.1,14.1,0,0,0-.27,2.1h4.22a7.28,7.28,0,0,0-.23-3.16A1.57,1.57,0,0,0,341.28,142.12Z"/><path class="cls-1" d="M355.72,144a4.22,4.22,0,0,0-.74.53,3.33,3.33,0,0,0-.76,1.22v6.77a6.47,6.47,0,0,1,1,.2,4.77,4.77,0,0,1,1.06.44v1h-7.65v-1a4.62,4.62,0,0,1,.9-.4l.84-.24v-9.7l-1.74-.21v-1a8,8,0,0,1,1-.34c.41-.1.84-.2,1.28-.28s.87-.14,1.28-.19l1-.14h.9v3.51h.1a6.32,6.32,0,0,1,.62-1.21,6.71,6.71,0,0,1,1-1.16,4.81,4.81,0,0,1,1.21-.85,3,3,0,0,1,1.37-.29,3.43,3.43,0,0,1,.5,1,11.63,11.63,0,0,1,.34,1.28v1Z"/></g></svg>