<svg xmlns="http://www.w3.org/2000/svg" viewBox="0 0 144 144"><defs><style>.cls-1{fill:none;stroke:#2c2e2e;stroke-linecap:round;stroke-linejoin:round;stroke-width:3px;}</style></defs><title>Artboard 33 copy 7scroll</title><g id="Information"><circle class="cls-1" cx="72.08" cy="52.92" r="16.41"/><path class="cls-1" d="M72.12,74h0a27.83,27.83,0,0,1,27.83,27.83v12.06a0,0,0,0,1,0,0H44.3a0,0,0,0,1,0,0V101.84A27.83,27.83,0,0,1,72.12,74Z"/><circle class="cls-1" cx="109.86" cy="45.75" r="15.64"/><path class="cls-1" d="M89.44,75.61A26.43,26.43,0,0,1,109.9,66h0a26.52,26.52,0,0,1,26.52,26.52V104H104.07v-3.82A27.8,27.8,0,0,0,89.51,75.68Z"/><circle class="cls-1" cx="33.77" cy="46.71" r="15.64"/><path class="cls-1" d="M54.37,75.84C49.5,70,42.77,66.92,34.53,66.92h0A26.52,26.52,0,0,0,8,93.44v11.49H40.36v-3.82c0-10.56,5.33-20.55,14-25.27Z"/></g></svg>