<svg xmlns="http://www.w3.org/2000/svg" viewBox="0 0 375.63 198.19"><defs><style>.cls-1{fill:#7be9c2;}.cls-2{fill:#e6b3b6;}.cls-3{fill:#facc7a;}.cls-4{fill:#cba6e8;}.cls-5{fill:#eef4f3;}.cls-6{fill:#333;}.cls-7{fill:#606060;}.cls-8{fill:#2c2e2e;}.cls-9{fill:#7aa8fa;}</style></defs><title>Artboard 52colors</title><g id="Information"><rect class="cls-1" x="14.74" y="21.33" width="71.05" height="70.65" rx="35.32" ry="35.32" transform="translate(-6.39 106.92) rotate(-90)"/><rect class="cls-2" x="105.69" y="21.33" width="71.05" height="70.65" rx="35.32" ry="35.32" transform="translate(84.55 197.87) rotate(-90)"/><rect class="cls-3" x="196.64" y="21.33" width="71.05" height="70.65" rx="35.32" ry="35.32" transform="translate(175.5 288.82) rotate(-90)"/><rect class="cls-4" x="14.74" y="107.91" width="71.05" height="70.65" rx="35.32" ry="35.32" transform="translate(-92.97 193.5) rotate(-90)"/><path class="cls-5" d="M141.21,178.26a34.86,34.86,0,0,1-34.82-34.82V143A34.83,34.83,0,1,1,176,143v.4A34.86,34.86,0,0,1,141.21,178.26Z"/><path class="cls-6" d="M141.21,108.71A34.37,34.37,0,0,1,175.54,143v.4a34.33,34.33,0,0,1-68.65,0V143a34.37,34.37,0,0,1,34.32-34.33m0-1h0A35.32,35.32,0,0,0,105.89,143v.4a35.32,35.32,0,0,0,35.32,35.32h0a35.32,35.32,0,0,0,35.33-35.32V143a35.33,35.33,0,0,0-35.33-35.33Z"/><rect class="cls-7" x="196.84" y="107.71" width="70.65" height="71.05" rx="35.32" ry="35.32"/><rect class="cls-8" x="287.59" y="107.91" width="71.05" height="70.65" rx="35.32" ry="35.32" transform="translate(179.87 466.35) rotate(-90)"/><rect class="cls-9" x="287.59" y="21.33" width="71.05" height="70.65" rx="35.32" ry="35.32" transform="translate(266.45 379.77) rotate(-90)"/></g></svg>