<svg xmlns="http://www.w3.org/2000/svg" viewBox="0 0 495.47 288"><defs><style>.cls-1{fill:#2c2e2e;}</style></defs><title>Artboard 33 copy 5scroll</title><g id="Information"><path class="cls-1" d="M171.8,152.7H162v-1.08c.38-.16.81-.31,1.29-.47a8.75,8.75,0,0,1,1.47-.36V134.58h-3.31l-1.82,4.88h-1.17c-.08-.38-.16-.86-.23-1.45s-.14-1.2-.2-1.83-.11-1.25-.14-1.87-.06-1.15-.06-1.58H176c0,.45,0,1-.06,1.59s-.08,1.23-.14,1.86-.13,1.23-.2,1.81-.15,1.07-.23,1.47h-1.17l-1.83-4.88H169v16.21c.5.09,1,.21,1.47.34a7.52,7.52,0,0,1,1.3.49Z"/><path class="cls-1" d="M194.32,152.7h-7.57v-1.08a6.1,6.1,0,0,1,.72-.37,6.33,6.33,0,0,1,.85-.32v-5.78a10.14,10.14,0,0,0-.47-3.62,1.8,1.8,0,0,0-1.84-1.16,2.68,2.68,0,0,0-1.94.79,4.6,4.6,0,0,0-1.14,1.82v8a6,6,0,0,1,.81.26,3.52,3.52,0,0,1,.76.43v1.08h-7.56v-1.08a7.7,7.7,0,0,1,1.88-.69V133.58l-2.17-.23v-1.08a9.27,9.27,0,0,1,1.1-.34q.67-.18,1.41-.3c.5-.09,1-.16,1.49-.23s.93-.12,1.31-.16h1v10.08h0a5.27,5.27,0,0,1,.77-1.25,5.6,5.6,0,0,1,1.1-1,5.13,5.13,0,0,1,1.33-.7,4.39,4.39,0,0,1,1.51-.26,7.1,7.1,0,0,1,2,.27,3.14,3.14,0,0,1,1.5,1,4.58,4.58,0,0,1,.91,1.85,11.37,11.37,0,0,1,.31,2.93v6.83c.33.08.65.16,1,.26a3.22,3.22,0,0,1,.92.43Z"/><path class="cls-1" d="M208.53,150.3a3.7,3.7,0,0,1-.73,1,4.84,4.84,0,0,1-1.23.88,7.17,7.17,0,0,1-1.68.63,8.52,8.52,0,0,1-2.07.24,8.72,8.72,0,0,1-3.14-.52A6.09,6.09,0,0,1,197.4,151a6.57,6.57,0,0,1-1.39-2.35,9.53,9.53,0,0,1-.47-3.08,7.53,7.53,0,0,1,1.92-5.57,7.17,7.17,0,0,1,5.3-1.91,9,9,0,0,1,2.73.4,4.79,4.79,0,0,1,2.11,1.31,5.11,5.11,0,0,1,1.17,2.4,9.61,9.61,0,0,1,0,3.62H200a5.52,5.52,0,0,0,1.15,3.6,4.11,4.11,0,0,0,3.33,1.34,7.18,7.18,0,0,0,2-.28,4.44,4.44,0,0,0,1.59-.75Zm-5.9-10.58a2.26,2.26,0,0,0-1,.2,1.75,1.75,0,0,0-.77.72,4.62,4.62,0,0,0-.52,1.43,14.6,14.6,0,0,0-.29,2.27h4.57a7.92,7.92,0,0,0-.26-3.42A1.7,1.7,0,0,0,202.63,139.72Z"/><path class="cls-1" d="M233.1,146.71h1.17c.07.3.14.67.21,1.1s.12.88.17,1.37.08,1,.1,1.44,0,.9,0,1.28a6.82,6.82,0,0,1-2.5.89,18.26,18.26,0,0,1-3.07.25,14.74,14.74,0,0,1-4.29-.58,8.17,8.17,0,0,1-3.28-1.86,8.39,8.39,0,0,1-2.1-3.22,13.34,13.34,0,0,1-.74-4.69,12.16,12.16,0,0,1,.81-4.67,9.12,9.12,0,0,1,2.18-3.21A8.55,8.55,0,0,1,225,133a12.3,12.3,0,0,1,3.81-.59,18.74,18.74,0,0,1,3.41.28,10.22,10.22,0,0,1,2.49.72c0,.31,0,.7,0,1.17s-.08,1-.14,1.5-.14,1-.23,1.54-.17.93-.24,1.27h-1.2l-1.57-4.31a2.84,2.84,0,0,0-.83-.23,9,9,0,0,0-1.17-.08,5.3,5.3,0,0,0-2.2.47,4.84,4.84,0,0,0-1.82,1.5,7.73,7.73,0,0,0-1.26,2.64,14.46,14.46,0,0,0-.45,3.86,10.44,10.44,0,0,0,1.62,6.28,5.21,5.21,0,0,0,4.43,2.2,5.82,5.82,0,0,0,1.35-.13,1.45,1.45,0,0,0,.76-.36Z"/><path class="cls-1" d="M237.18,145.57a8.82,8.82,0,0,1,.52-3.13,6.46,6.46,0,0,1,3.9-3.84,9.21,9.21,0,0,1,3.17-.51,9.61,9.61,0,0,1,3.44.56,6.17,6.17,0,0,1,2.36,1.54,5.93,5.93,0,0,1,1.36,2.37,10.28,10.28,0,0,1,.43,3,8.73,8.73,0,0,1-.52,3.12,6.47,6.47,0,0,1-1.49,2.36,6.66,6.66,0,0,1-2.4,1.48,10.39,10.39,0,0,1-6.55,0A6.58,6.58,0,0,1,239,151a6.27,6.27,0,0,1-1.4-2.37A9.69,9.69,0,0,1,237.18,145.57Zm4.42,0a15.5,15.5,0,0,0,.16,2.35,5.51,5.51,0,0,0,.55,1.81,3,3,0,0,0,1.09,1.16,3.31,3.31,0,0,0,1.77.41,2.23,2.23,0,0,0,1.14-.3,2.47,2.47,0,0,0,.88-1,5.59,5.59,0,0,0,.56-1.77,19.51,19.51,0,0,0,0-5.06,5.78,5.78,0,0,0-.55-1.8,2.83,2.83,0,0,0-1-1.15,3,3,0,0,0-1.65-.42,2.62,2.62,0,0,0-1.29.3,2.39,2.39,0,0,0-.91,1,5.76,5.76,0,0,0-.56,1.77A17,17,0,0,0,241.6,145.57Z"/><path class="cls-1" d="M270.19,152.7h-7.13v-1.08a7.32,7.32,0,0,1,.64-.36,7,7,0,0,1,.78-.33v-5.69c0-.88,0-1.62-.07-2.23a5,5,0,0,0-.3-1.51,1.77,1.77,0,0,0-.62-.85,1.74,1.74,0,0,0-1-.28,2.16,2.16,0,0,0-1.59.7,4.36,4.36,0,0,0-1,1.85v8a4.85,4.85,0,0,1,1.43.69v1.08H253.9v-1.08a7.26,7.26,0,0,1,.88-.38c.33-.11.66-.22,1-.31v-10.5l-1.88-.23v-1.08a7.34,7.34,0,0,1,1.12-.37c.45-.12.91-.22,1.39-.3s.94-.16,1.38-.22l1.13-.14h1v3.23h0a4.94,4.94,0,0,1,1.61-2.29,4.25,4.25,0,0,1,2.78-.94,6.55,6.55,0,0,1,1.34.14,3.41,3.41,0,0,1,1.22.53,3.31,3.31,0,0,1,.95,1.07,5,5,0,0,1,.57,1.77,5.37,5.37,0,0,1,1.72-2.54,4.44,4.44,0,0,1,2.91-1,6,6,0,0,1,1.87.27,3,3,0,0,1,1.37,1,4.72,4.72,0,0,1,.84,1.86,12.89,12.89,0,0,1,.28,3v6.78a5.91,5.91,0,0,1,1.89.69v1.08h-7.42v-1.08a5.84,5.84,0,0,1,1.42-.69v-6.21a9.59,9.59,0,0,0-.41-3.29,1.72,1.72,0,0,0-1.78-1.06,1.91,1.91,0,0,0-1.62.78,5.23,5.23,0,0,0-.87,2.06v7.72a6.16,6.16,0,0,1,.87.32,5.54,5.54,0,0,1,.73.37Z"/><path class="cls-1" d="M288.08,158.41h-7.87v-1.09a10.2,10.2,0,0,1,1.88-.68V140.43l-1.88-.23v-1.08a7.34,7.34,0,0,1,1.12-.37c.45-.12.91-.22,1.39-.3s.94-.16,1.38-.22l1.13-.14h1v3.2h0a5.34,5.34,0,0,1,1.52-2.29,4.31,4.31,0,0,1,2.9-.91,6.08,6.08,0,0,1,2.27.41,4.18,4.18,0,0,1,1.71,1.29,6.23,6.23,0,0,1,1.09,2.22,12.31,12.31,0,0,1,.38,3.24,10.09,10.09,0,0,1-.5,3.26,6.87,6.87,0,0,1-1.42,2.45,6.18,6.18,0,0,1-2.26,1.54,7.92,7.92,0,0,1-3,.54,7.61,7.61,0,0,1-1.53-.12,5.64,5.64,0,0,1-1.18-.45v4.17a4.27,4.27,0,0,1,.91.21,5,5,0,0,1,1,.47Zm.92-18a2.49,2.49,0,0,0-1.73.69,3.94,3.94,0,0,0-1.07,2.11v7.59a3,3,0,0,0,1,.5,4.85,4.85,0,0,0,1.34.16,2.54,2.54,0,0,0,2.4-1.57,10.85,10.85,0,0,0,.77-4.6,8.87,8.87,0,0,0-.59-3.61A2.12,2.12,0,0,0,289,140.37Z"/><path class="cls-1" d="M310.4,148.56c0,.42,0,.78,0,1.09s0,.63.07,1l2,.28v1a5,5,0,0,1-.93.34c-.39.12-.79.23-1.22.33s-.85.19-1.27.26l-1.11.16h-1a4.59,4.59,0,0,1-.34-1.32c0-.43-.06-1-.08-1.59h-.15a3.4,3.4,0,0,1-.48,1.09,3.91,3.91,0,0,1-.87,1,4.59,4.59,0,0,1-1.24.67,4.75,4.75,0,0,1-1.6.25,5.12,5.12,0,0,1-1.74-.28,4.49,4.49,0,0,1-1.4-.8,3.71,3.71,0,0,1-.94-1.24,3.79,3.79,0,0,1-.34-1.64,4.14,4.14,0,0,1,.48-2.11,3.54,3.54,0,0,1,1.53-1.36,9.11,9.11,0,0,1,2.68-.78,36.7,36.7,0,0,1,4-.38,8.66,8.66,0,0,0-.2-3.59,1.76,1.76,0,0,0-1.85-1.14,4.5,4.5,0,0,0-1.63.28l-1.34,3.43h-1.26a6.36,6.36,0,0,1-.44-.79c-.14-.29-.27-.61-.4-.94a9,9,0,0,1-.31-1,7.61,7.61,0,0,1-.19-1,8.43,8.43,0,0,1,2.8-1.17,14.66,14.66,0,0,1,3.62-.43,8.21,8.21,0,0,1,2.66.36,4,4,0,0,1,1.61,1,3.33,3.33,0,0,1,.81,1.44,6.7,6.7,0,0,1,.23,1.77c0,1.14,0,2.17-.07,3.09S310.4,147.59,310.4,148.56Zm-6.42,2.2a2.09,2.09,0,0,0,1-.23,2.83,2.83,0,0,0,.72-.54,2.48,2.48,0,0,0,.46-.68q.15-.37.24-.66V145.8a14.05,14.05,0,0,0-2.2.17,3.33,3.33,0,0,0-1.34.47,1.74,1.74,0,0,0-.67.83,3.55,3.55,0,0,0-.18,1.21,2.52,2.52,0,0,0,.51,1.68A1.78,1.78,0,0,0,304,150.76Z"/><path class="cls-1" d="M321.1,149.59a1.78,1.78,0,0,0-.53-1.28,6,6,0,0,0-1.31-1c-.53-.31-1.1-.61-1.71-.92a9.73,9.73,0,0,1-1.72-1.07,5.46,5.46,0,0,1-1.31-1.44,3.68,3.68,0,0,1-.53-2,3.18,3.18,0,0,1,.4-1.56,3.71,3.71,0,0,1,1.09-1.18,5.07,5.07,0,0,1,1.64-.76,7.51,7.51,0,0,1,2.07-.27,16.06,16.06,0,0,1,2.86.24,11.76,11.76,0,0,1,2.33.67,10.77,10.77,0,0,1-.46,2c-.22.69-.44,1.33-.65,1.9h-1L321.1,140a2.55,2.55,0,0,0-.72-.19,6.82,6.82,0,0,0-.82,0,1.61,1.61,0,0,0-1.74,1.62,1.69,1.69,0,0,0,.53,1.25,6,6,0,0,0,1.31,1c.52.3,1.09.61,1.71.91a11.12,11.12,0,0,1,1.71,1,5.58,5.58,0,0,1,1.31,1.39,3.32,3.32,0,0,1,.53,1.91,3.59,3.59,0,0,1-1.6,3.1A7.28,7.28,0,0,1,319,153a14.64,14.64,0,0,1-2.82-.28,10.29,10.29,0,0,1-2.51-.8,6.6,6.6,0,0,1,.48-2.08,13.89,13.89,0,0,1,.92-1.89h1l1.39,3.11a1.32,1.32,0,0,0,.7.27,6.4,6.4,0,0,0,.73,0,2.5,2.5,0,0,0,1.51-.49A1.54,1.54,0,0,0,321.1,149.59Z"/><path class="cls-1" d="M334,149.59a1.78,1.78,0,0,0-.53-1.28,6,6,0,0,0-1.31-1c-.53-.31-1.1-.61-1.72-.92a9.65,9.65,0,0,1-1.71-1.07,5.46,5.46,0,0,1-1.31-1.44,3.68,3.68,0,0,1-.53-2,3.07,3.07,0,0,1,.4-1.56,3.71,3.71,0,0,1,1.09-1.18,5.07,5.07,0,0,1,1.64-.76,7.49,7.49,0,0,1,2.06-.27,16.09,16.09,0,0,1,2.87.24,11.76,11.76,0,0,1,2.33.67,10.77,10.77,0,0,1-.46,2c-.23.69-.45,1.33-.65,1.9h-1L334,140a2.55,2.55,0,0,0-.72-.19,6.82,6.82,0,0,0-.82,0,1.6,1.6,0,0,0-1.3.5,1.62,1.62,0,0,0-.44,1.12,1.72,1.72,0,0,0,.52,1.25,6.12,6.12,0,0,0,1.32,1c.52.3,1.09.61,1.71.91a11.12,11.12,0,0,1,1.71,1,5.58,5.58,0,0,1,1.31,1.39,3.4,3.4,0,0,1,.53,1.91,3.59,3.59,0,0,1-1.6,3.1,7.28,7.28,0,0,1-4.28,1.12,14.64,14.64,0,0,1-2.82-.28,10.29,10.29,0,0,1-2.51-.8,6.34,6.34,0,0,1,.48-2.08A15.19,15.19,0,0,1,328,148h1l1.4,3.11a1.29,1.29,0,0,0,.7.27,6.4,6.4,0,0,0,.73,0,2.5,2.5,0,0,0,1.51-.49A1.54,1.54,0,0,0,334,149.59Z"/></g></svg>