<svg xmlns="http://www.w3.org/2000/svg" viewBox="0 0 495.47 288"><defs><style>.cls-1{fill:#2c2e2e;}.cls-2{fill:none;stroke:#2c2e2e;stroke-linecap:round;stroke-linejoin:round;stroke-width:3px;}</style></defs><title>Artboard 33 copy 3scroll</title><g id="Information"><path class="cls-1" d="M170,188.19h-9.82v-1.08c.38-.16.81-.31,1.3-.48a8.27,8.27,0,0,1,1.47-.35V170.07h-3.31L157.76,175h-1.17c-.08-.38-.15-.87-.23-1.46s-.14-1.19-.2-1.82-.1-1.25-.14-1.87-.06-1.15-.06-1.59h18.15c0,.46,0,1-.06,1.6s-.08,1.23-.14,1.86-.12,1.23-.2,1.81-.15,1.07-.23,1.47h-1.17l-1.82-4.88h-3.31v16.21c.49.09,1,.21,1.47.34a7.33,7.33,0,0,1,1.3.49Z"/><path class="cls-1" d="M192.46,188.19H184.9v-1.08a8,8,0,0,1,.71-.38,6.05,6.05,0,0,1,.86-.31v-5.78A10.37,10.37,0,0,0,186,177a1.81,1.81,0,0,0-1.84-1.16,2.66,2.66,0,0,0-1.95.79,4.53,4.53,0,0,0-1.14,1.82v7.95a6.12,6.12,0,0,1,.82.26,3.09,3.09,0,0,1,.75.43v1.08h-7.56v-1.08a7.7,7.7,0,0,1,1.88-.69V169.07l-2.16-.23v-1.08a7.54,7.54,0,0,1,1.09-.34,14.2,14.2,0,0,1,1.42-.3c.49-.09,1-.17,1.48-.23l1.31-.16h1V176.8h0a5.42,5.42,0,0,1,.77-1.24,5.9,5.9,0,0,1,1.1-1,5.13,5.13,0,0,1,1.33-.7,4.21,4.21,0,0,1,1.51-.26,7.1,7.1,0,0,1,2,.27,3.14,3.14,0,0,1,1.5,1,4.6,4.6,0,0,1,.91,1.84,11.43,11.43,0,0,1,.32,2.93v6.84c.32.08.64.16,1,.26a3,3,0,0,1,.91.43Z"/><path class="cls-1" d="M206.67,185.79a3.64,3.64,0,0,1-.73,1,5,5,0,0,1-1.22.88,7.44,7.44,0,0,1-1.69.63,9.35,9.35,0,0,1-5.21-.29,6,6,0,0,1-2.28-1.51,6.41,6.41,0,0,1-1.38-2.35,9.31,9.31,0,0,1-.47-3.08,7.53,7.53,0,0,1,1.91-5.57,7.18,7.18,0,0,1,5.31-1.91,8.9,8.9,0,0,1,2.72.4,4.73,4.73,0,0,1,2.11,1.31,5.11,5.11,0,0,1,1.17,2.4,9.4,9.4,0,0,1,0,3.62h-8.76a5.49,5.49,0,0,0,1.16,3.6,4.09,4.09,0,0,0,3.32,1.34,7.15,7.15,0,0,0,1.95-.29,4.36,4.36,0,0,0,1.59-.74Zm-5.89-10.58a2.31,2.31,0,0,0-1,.2,1.81,1.81,0,0,0-.77.72,4.89,4.89,0,0,0-.52,1.43,14.74,14.74,0,0,0-.28,2.27h4.56a8.15,8.15,0,0,0-.25-3.43A1.72,1.72,0,0,0,200.78,175.21Z"/><path class="cls-1" d="M231.24,182.2h1.17c.07.3.15.67.21,1.1s.13.88.17,1.37.08,1,.1,1.44,0,.9,0,1.28a7,7,0,0,1-2.49.89,18.35,18.35,0,0,1-3.07.25,14.81,14.81,0,0,1-4.3-.58,8.17,8.17,0,0,1-3.28-1.86,8.5,8.5,0,0,1-2.1-3.22,13.4,13.4,0,0,1-.74-4.7,12,12,0,0,1,.82-4.66,9,9,0,0,1,2.18-3.21,8.44,8.44,0,0,1,3.18-1.84,12.35,12.35,0,0,1,3.81-.59,19.65,19.65,0,0,1,3.41.27,10.28,10.28,0,0,1,2.5.73c0,.31,0,.7-.05,1.17s-.07,1-.14,1.5-.14,1-.23,1.54-.16.93-.24,1.27H231L229.41,170a2.76,2.76,0,0,0-.82-.23,9.23,9.23,0,0,0-1.18-.08,5.07,5.07,0,0,0-2.19.47,4.79,4.79,0,0,0-1.83,1.5,7.54,7.54,0,0,0-1.25,2.64,14,14,0,0,0-.46,3.86,10.37,10.37,0,0,0,1.63,6.28,5.21,5.21,0,0,0,4.42,2.2,6.43,6.43,0,0,0,1.35-.13,1.45,1.45,0,0,0,.76-.36Z"/><path class="cls-1" d="M235.32,181.06a8.56,8.56,0,0,1,.53-3.13,6.39,6.39,0,0,1,1.51-2.35,6.68,6.68,0,0,1,2.38-1.49,9.21,9.21,0,0,1,3.17-.51,9.57,9.57,0,0,1,3.44.56,6.29,6.29,0,0,1,2.37,1.54,5.91,5.91,0,0,1,1.35,2.37,10,10,0,0,1,.43,3,9,9,0,0,1-.51,3.12,6.33,6.33,0,0,1-3.9,3.84,10.39,10.39,0,0,1-6.55,0,6.6,6.6,0,0,1-2.37-1.55,6.13,6.13,0,0,1-1.39-2.36A9.45,9.45,0,0,1,235.32,181.06Zm4.42,0a15.5,15.5,0,0,0,.16,2.35,5.28,5.28,0,0,0,.56,1.81,2.88,2.88,0,0,0,1.08,1.16,3.46,3.46,0,0,0,1.77.41,2.21,2.21,0,0,0,1.14-.3,2.4,2.4,0,0,0,.88-1,5.51,5.51,0,0,0,.56-1.77,18.4,18.4,0,0,0,0-5.06,5.7,5.7,0,0,0-.54-1.8,3,3,0,0,0-1-1.16,3.12,3.12,0,0,0-1.66-.41,2.6,2.6,0,0,0-1.28.3,2.4,2.4,0,0,0-.92,1,5.78,5.78,0,0,0-.55,1.77A15.8,15.8,0,0,0,239.74,181.06Z"/><path class="cls-1" d="M268.33,188.19H261.2v-1.08a7.32,7.32,0,0,1,.64-.36,4.36,4.36,0,0,1,.79-.33v-5.69c0-.88,0-1.63-.07-2.24a5.5,5.5,0,0,0-.3-1.5,1.93,1.93,0,0,0-.63-.86,1.81,1.81,0,0,0-1-.27,2.13,2.13,0,0,0-1.58.7,4.27,4.27,0,0,0-1,1.85v8a4.73,4.73,0,0,1,1.43.69v1.08H252v-1.08a7.44,7.44,0,0,1,.89-.38c.32-.11.65-.22,1-.31v-10.5l-1.88-.23v-1.08a6.24,6.24,0,0,1,1.13-.37q.68-.18,1.38-.3c.48-.09.94-.16,1.39-.22l1.12-.14h1v3.22h0a5,5,0,0,1,1.61-2.28,4.26,4.26,0,0,1,2.79-.94,6.7,6.7,0,0,1,1.34.14,3.26,3.26,0,0,1,2.17,1.6,5.42,5.42,0,0,1,.57,1.77,5.28,5.28,0,0,1,1.71-2.54,4.46,4.46,0,0,1,2.91-1,5.94,5.94,0,0,1,1.87.27,2.91,2.91,0,0,1,1.37,1,4.72,4.72,0,0,1,.84,1.86,12.82,12.82,0,0,1,.29,3v6.78a5.72,5.72,0,0,1,1.88.69v1.08H270v-1.08a5.91,5.91,0,0,1,1.43-.69v-6.21a9.54,9.54,0,0,0-.42-3.29,1.71,1.71,0,0,0-1.78-1.06,1.91,1.91,0,0,0-1.61.77,5.36,5.36,0,0,0-.87,2.06v7.73a7.29,7.29,0,0,1,.87.31,7,7,0,0,1,.72.38Z"/><path class="cls-1" d="M286.23,193.9h-7.88v-1.09a10.47,10.47,0,0,1,1.88-.68V175.92l-1.88-.23v-1.08a6.24,6.24,0,0,1,1.13-.37c.44-.12.91-.22,1.38-.3s.94-.16,1.39-.22l1.12-.14h1v3.2h0a5.27,5.27,0,0,1,1.53-2.29,4.23,4.23,0,0,1,2.89-.91,6,6,0,0,1,2.27.41,4.18,4.18,0,0,1,1.71,1.29,6.23,6.23,0,0,1,1.09,2.22,11.91,11.91,0,0,1,.38,3.24,10,10,0,0,1-.49,3.25,6.85,6.85,0,0,1-1.43,2.46,6.18,6.18,0,0,1-2.26,1.54,7.88,7.88,0,0,1-3,.54,6.79,6.79,0,0,1-1.52-.13,5.13,5.13,0,0,1-1.19-.44v4.16a4.39,4.39,0,0,1,.92.22,5,5,0,0,1,1,.47Zm.91-18a2.5,2.5,0,0,0-1.73.69,3.9,3.9,0,0,0-1.07,2.11v7.59a3.32,3.32,0,0,0,1,.5,4.91,4.91,0,0,0,1.34.16,2.53,2.53,0,0,0,2.4-1.57,10.85,10.85,0,0,0,.77-4.6,8.9,8.9,0,0,0-.58-3.61A2.12,2.12,0,0,0,287.14,175.86Z"/><path class="cls-1" d="M308.54,184.05c0,.42,0,.78,0,1.09a8.68,8.68,0,0,0,.07,1l2,.28v1a5.88,5.88,0,0,1-.93.34q-.59.18-1.23.33c-.43.11-.85.19-1.27.26l-1.11.16h-1a4,4,0,0,1-.34-1.32c0-.43-.07-1-.09-1.6h-.14a3.71,3.71,0,0,1-.49,1.1,3.87,3.87,0,0,1-.87.94,4.46,4.46,0,0,1-1.24.68,4.75,4.75,0,0,1-1.6.25,5.12,5.12,0,0,1-1.74-.28,4.49,4.49,0,0,1-1.4-.8,3.71,3.71,0,0,1-.94-1.24,3.82,3.82,0,0,1-.34-1.64,4.11,4.11,0,0,1,.49-2.12,3.55,3.55,0,0,1,1.52-1.35,9.5,9.5,0,0,1,2.68-.79,40,40,0,0,1,4-.37,8.62,8.62,0,0,0-.21-3.59,1.76,1.76,0,0,0-1.85-1.14,4.54,4.54,0,0,0-1.63.28l-1.34,3.43H298.3a6.35,6.35,0,0,1-.45-.79c-.14-.29-.27-.61-.39-.94a9.1,9.1,0,0,1-.32-1,7.84,7.84,0,0,1-.18-1,8.37,8.37,0,0,1,2.79-1.17,14.68,14.68,0,0,1,3.63-.43,8.19,8.19,0,0,1,2.65.36,3.85,3.85,0,0,1,1.61,1,3.45,3.45,0,0,1,.82,1.44,6.71,6.71,0,0,1,.22,1.77c0,1.14,0,2.17-.07,3.09S308.54,183.08,308.54,184.05Zm-6.42,2.2a2.21,2.21,0,0,0,1-.23,2.88,2.88,0,0,0,.73-.54,2.34,2.34,0,0,0,.45-.69,5.61,5.61,0,0,0,.25-.65v-2.86a16.86,16.86,0,0,0-2.2.17,3.42,3.42,0,0,0-1.34.48,1.65,1.65,0,0,0-.67.82,3.4,3.4,0,0,0-.19,1.22,2.52,2.52,0,0,0,.51,1.68A1.79,1.79,0,0,0,302.12,186.25Z"/><path class="cls-1" d="M319.24,185.08a1.78,1.78,0,0,0-.53-1.29,6,6,0,0,0-1.31-1c-.52-.31-1.09-.61-1.71-.92a9.3,9.3,0,0,1-1.71-1.07,5.83,5.83,0,0,1-1.32-1.44,3.7,3.7,0,0,1-.52-2,3.07,3.07,0,0,1,.4-1.56,3.47,3.47,0,0,1,1.08-1.18,5.17,5.17,0,0,1,1.64-.76,7.62,7.62,0,0,1,2.07-.27,16.17,16.17,0,0,1,2.87.24,11,11,0,0,1,2.32.67,10.7,10.7,0,0,1-.45,2q-.35,1-.66,1.89h-1l-1.2-2.91a2.85,2.85,0,0,0-.71-.18,7.1,7.1,0,0,0-.83,0,1.63,1.63,0,0,0-1.3.5,1.65,1.65,0,0,0-.44,1.12,1.7,1.7,0,0,0,.53,1.24,6.32,6.32,0,0,0,1.31,1c.52.3,1.09.61,1.71.91a11.12,11.12,0,0,1,1.71,1,5.28,5.28,0,0,1,1.32,1.39,3.4,3.4,0,0,1,.53,1.91,3.62,3.62,0,0,1-1.6,3.1,7.31,7.31,0,0,1-4.28,1.12,14.67,14.67,0,0,1-2.83-.28,10.29,10.29,0,0,1-2.51-.8,6.47,6.47,0,0,1,.49-2.09,14.34,14.34,0,0,1,.91-1.88h1l1.4,3.11a1.47,1.47,0,0,0,.7.27,6.23,6.23,0,0,0,.72,0,2.6,2.6,0,0,0,1.52-.49A1.56,1.56,0,0,0,319.24,185.08Z"/><path class="cls-1" d="M332.14,185.08a1.82,1.82,0,0,0-.53-1.29,6,6,0,0,0-1.31-1c-.52-.31-1.09-.61-1.71-.92a9.73,9.73,0,0,1-1.72-1.07,5.78,5.78,0,0,1-1.31-1.44,3.71,3.71,0,0,1-.53-2,3.18,3.18,0,0,1,.4-1.56,3.61,3.61,0,0,1,1.09-1.18,5.07,5.07,0,0,1,1.64-.76,7.62,7.62,0,0,1,2.07-.27,16.25,16.25,0,0,1,2.87.24,11.2,11.2,0,0,1,2.32.67,10.77,10.77,0,0,1-.46,2c-.22.69-.44,1.32-.65,1.89h-1l-1.2-2.91a3,3,0,0,0-.71-.18,7.1,7.1,0,0,0-.83,0,1.63,1.63,0,0,0-1.3.5,1.68,1.68,0,0,0,.09,2.36,6.07,6.07,0,0,0,1.31,1c.52.3,1.09.61,1.71.91a11.12,11.12,0,0,1,1.71,1,5.45,5.45,0,0,1,1.32,1.39,3.39,3.39,0,0,1,.52,1.91,3.61,3.61,0,0,1-1.59,3.1,7.33,7.33,0,0,1-4.28,1.12,14.67,14.67,0,0,1-2.83-.28,10.29,10.29,0,0,1-2.51-.8,6.72,6.72,0,0,1,.48-2.09,14.33,14.33,0,0,1,.92-1.88h1l1.4,3.11a1.43,1.43,0,0,0,.69.27,6.4,6.4,0,0,0,.73,0,2.57,2.57,0,0,0,1.51-.49A1.54,1.54,0,0,0,332.14,185.08Z"/><path class="cls-2" d="M259.89,128.57a32.78,32.78,0,0,1-18.11,2.65"/><polyline class="cls-2" points="253.02 110.85 232.19 149 233.68 106"/><polyline class="cls-2" points="238.79 86.67 259.89 48.28 258.3 91.28"/><line class="cls-2" x1="232.19" y1="148.99" x2="259.89" y2="48.28"/><polygon class="cls-2" points="238.82 86.69 245.94 98.64 258.3 91.28 296.38 112.4 253.16 110.59 246.04 98.64 233.68 106 195.54 84.79 238.82 86.69"/><polyline class="cls-2" points="232.77 86.42 225.25 61.68 242.29 80.32"/><line class="cls-2" x1="225.26" y1="61.68" x2="238.82" y2="86.69"/><polyline class="cls-2" points="258.71 85.22 283.44 77.7 264.81 94.73"/><line class="cls-2" x1="283.45" y1="77.7" x2="258.44" y2="91.27"/><polyline class="cls-2" points="259.38 111.29 266.9 136.02 249.87 117.39"/><line class="cls-2" x1="266.9" y1="136.02" x2="253.33" y2="111.02"/><polyline class="cls-2" points="233.44 112.49 208.71 120 227.34 102.97"/><line class="cls-2" x1="208.71" y1="120" x2="233.71" y2="106.44"/><path class="cls-2" d="M216.15,85.69a33.1,33.1,0,0,1,12-14.45"/><path class="cls-2" d="M216.72,112.75a32.85,32.85,0,0,1-3-17.85"/><path class="cls-2" d="M232.88,128.57a33,33,0,0,1-13.82-11.71"/><path class="cls-2" d="M276.56,111.68A32.11,32.11,0,0,1,264,126.38"/><path class="cls-2" d="M276.16,84.62a31.42,31.42,0,0,1,3.11,14,33.55,33.55,0,0,1-.26,4.16"/><path class="cls-2" d="M259.14,68.29a33,33,0,0,1,14.5,11.91"/><path class="cls-2" d="M232,69a32.7,32.7,0,0,1,14.35-3.29,31.29,31.29,0,0,1,3.37.17"/><line class="cls-2" x1="195.54" y1="84.79" x2="296.38" y2="112.4"/></g></svg>