<svg xmlns="http://www.w3.org/2000/svg" viewBox="0 0 711.79 698.69"><defs><style>.cls-1{fill:#dfeae8;}.cls-2{fill:#eef4f3;}.cls-3{fill:#2c2e2e;}.cls-4{opacity:0.5;}.cls-5{fill:#7aa8fa;}.cls-6{opacity:0.6;}</style></defs><title>Artboard 8Web</title><g id="Info"><rect class="cls-1" x="457.46" y="350.21" width="191.34" height="13.54"/><circle class="cls-1" cx="650.35" cy="356.99" r="25.29"/><path class="cls-2" d="M259.13,575.64C138.56,575.64,40.47,477.55,40.47,357s98.09-218.66,218.66-218.66S477.78,236.42,477.78,357,379.69,575.64,259.13,575.64Zm0-396.68c-98.17,0-178,79.86-178,178s79.86,178,178,178,178-79.86,178-178S357.29,179,259.13,179Z"/><path class="cls-3" d="M263,381.11H248.47a3.5,3.5,0,0,1-3.34-2,3.58,3.58,0,0,1,.22-3.92l18.27-26.33a4,4,0,0,1,1.9-1.41,3.84,3.84,0,0,1,2.37,0,3.58,3.58,0,0,1,1.9,1.38,3.67,3.67,0,0,1,.73,2.24v38.44a3.59,3.59,0,0,1-1.09,2.66,3.74,3.74,0,0,1-5.36,0,3.54,3.54,0,0,1-1.12-2.66Zm0-7.58V363.1l-7.23,10.43Z"/><path class="cls-3" d="M234,324.16a1.59,1.59,0,0,1-1.61-1.61V306.22a1.59,1.59,0,0,1,.47-1.15,1.55,1.55,0,0,1,1.14-.46h4.13a9.75,9.75,0,1,1,0,19.5l-4.11.05Zm1.62-3.25,2.5,0a6.52,6.52,0,0,0,0-13h-2.51Z"/><path class="cls-3" d="M252.55,324a1.61,1.61,0,0,1-.88-2.1l1.74-4.17h0l5-12.12a.83.83,0,0,1,.07-.13l0-.07a.25.25,0,0,1,.05-.07s0,0,0-.07l.06-.05s0,0,0-.06a.18.18,0,0,0,0-.07l.06,0,.06-.05.06,0,.07-.06.05,0,.08,0,.1,0,0,0,0,0,.1,0,.1,0h0l.1,0h.46l.07,0,.09,0,.06,0a1.34,1.34,0,0,1,.3.12l.05,0,.08.05.06,0,.07.06.05,0s0,.05.07.05,0,0,0,.06a.15.15,0,0,1,.06.07l0,.05.05.07,0,.07a.13.13,0,0,1,0,.07.83.83,0,0,1,.07.13l5,12.12h0l1.74,4.17a1.61,1.61,0,0,1-1.49,2.22,1.48,1.48,0,0,1-1.49-1L263.86,320H256l-1.31,3.16a1.48,1.48,0,0,1-1.49,1h-.31Zm10-7.25-2.64-6.33-2.62,6.33Z"/><path class="cls-3" d="M285.49,305a1.58,1.58,0,0,1,.25,2.25l-5.91,7.4v7.9a1.56,1.56,0,0,1-.48,1.15,1.63,1.63,0,0,1-2.27,0,1.59,1.59,0,0,1-.47-1.15v-7.9l-5.91-7.4a1.61,1.61,0,0,1,.24-2.25,1.6,1.6,0,0,1,2.27.25l5,6.27,5-6.27a1.52,1.52,0,0,1,1.06-.6A1.55,1.55,0,0,1,285.49,305Z"/><g class="cls-4"><path class="cls-5" d="M259.13,575.64C138.56,575.64,40.47,477.55,40.47,357s98.09-218.66,218.66-218.66S477.78,236.42,477.78,357,379.69,575.64,259.13,575.64Zm0-396.68c-98.17,0-178,79.86-178,178s79.86,178,178,178,178-79.86,178-178S357.29,179,259.13,179Z"/></g><g class="cls-6"><path class="cls-5" d="M259.13,565.48c-115,0-208.5-93.53-208.5-208.49s93.53-208.5,208.5-208.5S467.62,242,467.62,357,374.09,565.48,259.13,565.48Zm0-396.67C155.36,168.81,71,253.22,71,357s84.41,188.18,188.18,188.18S447.31,460.75,447.31,357,362.89,168.81,259.13,168.81Z"/></g></g></svg>