<svg xmlns="http://www.w3.org/2000/svg" viewBox="0 0 711.79 698.69"><defs><style>.cls-1{fill:#dfeae8;}.cls-2{fill:#eef4f3;}.cls-3{fill:#2c2e2e;}.cls-4{opacity:0.5;}.cls-5{fill:#7be9c2;}.cls-6{opacity:0.6;}</style></defs><title>Artboard 5Web</title><g id="Info"><rect class="cls-1" x="457.72" y="350.21" width="191.34" height="13.54"/><circle class="cls-1" cx="650.6" cy="356.99" r="25.29"/><path class="cls-2" d="M259.38,575.64C138.82,575.64,40.73,477.55,40.73,357s98.09-218.66,218.65-218.66S478,236.42,478,357,380,575.64,259.38,575.64Zm0-396.68c-98.16,0-178,79.86-178,178s79.86,178,178,178,178-79.86,178-178S357.55,179,259.38,179Z"/><path class="cls-3" d="M253.43,358.31a3.76,3.76,0,0,1-2.89-.13,3.68,3.68,0,0,1-2-2.15,3.78,3.78,0,0,1,2.28-4.85l9.89-3.59a3.66,3.66,0,0,1,3.47.48,3.56,3.56,0,0,1,1.6,3.08v38.31a3.59,3.59,0,0,1-1.09,2.66,3.69,3.69,0,0,1-2.7,1.13,3.86,3.86,0,0,1-3.79-3.79V356.55Z"/><path class="cls-3" d="M234.27,324.16a1.6,1.6,0,0,1-1.61-1.61V306.22a1.62,1.62,0,0,1,1.61-1.62h4.14a9.76,9.76,0,0,1,0,19.51l-4.11.05Zm1.63-3.25,2.49,0a6.53,6.53,0,0,0,0-13.05H235.9Z"/><path class="cls-3" d="M252.8,324a1.62,1.62,0,0,1-.87-2.1l1.73-4.17h0l5-12.12a.83.83,0,0,1,.07-.13l0-.07.06-.07s0,0,0-.07a.23.23,0,0,1,.05-.05l0-.06a.15.15,0,0,0,.06-.07l.05,0,.07-.05s0,0,.06,0l.06-.06.06,0,.08,0,.1,0,0,0,.05,0,.1,0,.09,0h.06l.09,0h.47l.06,0,.1,0,.05,0a1.34,1.34,0,0,1,.3.12s0,0,.06,0a.21.21,0,0,1,.08.05l.06,0,.06.06.06,0,.07.05s0,0,0,.06a.18.18,0,0,1,0,.07l0,.05.06.07s0,0,0,.07a.13.13,0,0,1,0,.07.83.83,0,0,1,.07.13l5,12.12h0l1.73,4.17a1.52,1.52,0,0,1,0,1.22,1.57,1.57,0,0,1-.87.88,1.66,1.66,0,0,1-.61.12,1.48,1.48,0,0,1-1.49-1L264.12,320h-7.9l-1.31,3.16a1.49,1.49,0,0,1-1.49,1h-.31Zm10-7.25-2.63-6.33-2.62,6.33Z"/><path class="cls-3" d="M285.75,305a1.56,1.56,0,0,1,.24,2.25l-5.91,7.4v7.9a1.59,1.59,0,0,1-.47,1.15,1.63,1.63,0,0,1-2.27,0,1.56,1.56,0,0,1-.48-1.15v-7.9l-5.9-7.4a1.59,1.59,0,0,1,.24-2.25,1.54,1.54,0,0,1,1.19-.35,1.6,1.6,0,0,1,1.08.6l5,6.27,5-6.27a1.5,1.5,0,0,1,1.06-.6A1.55,1.55,0,0,1,285.75,305Z"/><g class="cls-4"><path class="cls-5" d="M259.38,575.64C138.82,575.64,40.73,477.55,40.73,357s98.09-218.66,218.65-218.66S478,236.42,478,357,380,575.64,259.38,575.64Zm0-396.68c-98.16,0-178,79.86-178,178s79.86,178,178,178,178-79.86,178-178S357.54,179,259.38,179Z"/></g><g class="cls-6"><path class="cls-5" d="M259.38,565.48C144.42,565.48,50.89,472,50.89,357s93.53-208.5,208.49-208.5S467.88,242,467.88,357,374.35,565.48,259.38,565.48Zm0-396.67C155.62,168.81,71.2,253.22,71.2,357s84.42,188.18,188.18,188.18S447.56,460.75,447.56,357,363.15,168.81,259.38,168.81Z"/></g></g></svg>