<svg xmlns="http://www.w3.org/2000/svg" viewBox="0 0 711.79 698.69"><defs><style>.cls-1{fill:#dfeae8;}.cls-2{fill:#eef4f3;}.cls-3{fill:#2c2e2e;}.cls-4{opacity:0.5;}.cls-5{fill:#e6b3b6;}.cls-6{opacity:0.6;}</style></defs><title>Artboard 6Web</title><g id="Info"><rect class="cls-1" x="452.53" y="350.21" width="191.34" height="13.54"/><circle class="cls-1" cx="645.42" cy="356.99" r="25.29"/><path class="cls-2" d="M254.2,575.64C133.63,575.64,35.54,477.55,35.54,357S133.63,138.33,254.2,138.33,472.85,236.42,472.85,357,374.76,575.64,254.2,575.64Zm0-396.68c-98.17,0-178,79.86-178,178S156,535,254.2,535s178-79.86,178-178S352.36,179,254.2,179Z"/><path class="cls-3" d="M268.66,389.46a3.54,3.54,0,0,1-1.12,2.66,3.59,3.59,0,0,1-2.67,1.13H245.51a3.54,3.54,0,0,1-3.34-2,3.58,3.58,0,0,1,.23-3.92l17.11-24.89a5.3,5.3,0,0,0,.39-2,5.67,5.67,0,0,0-11.34,0,2.34,2.34,0,0,0,0,.38,3.51,3.51,0,0,1-1,2.73,3.55,3.55,0,0,1-2.6,1.29,3.65,3.65,0,0,1-2.73-.93,3.59,3.59,0,0,1-1.28-2.6,8.71,8.71,0,0,1,0-.87,13.25,13.25,0,1,1,26.49,0,13,13,0,0,1-1.15,5.39,3.21,3.21,0,0,1-.32.61l-13.26,19.27h12.13a3.63,3.63,0,0,1,2.67,1.09A3.68,3.68,0,0,1,268.66,389.46Z"/><path class="cls-3" d="M229.09,324.16a1.59,1.59,0,0,1-1.61-1.61V306.22a1.59,1.59,0,0,1,.47-1.15,1.55,1.55,0,0,1,1.14-.46h4.13a9.75,9.75,0,1,1,0,19.5l-4.1.05Zm1.62-3.25,2.5,0a6.52,6.52,0,0,0,0-13h-2.51Z"/><path class="cls-3" d="M247.62,324a1.58,1.58,0,0,1-.87-.87,1.55,1.55,0,0,1,0-1.23l1.73-4.17h0l5-12.12a.83.83,0,0,1,.07-.13l0-.07a.25.25,0,0,1,.05-.07l0-.07.06-.05s0,0,0-.06l.05-.06.06-.05L254,305l.06,0,.07-.06,0,0,.08,0,.1,0,0,0,.06,0,.09,0,.1,0h0l.1,0h.46l.07,0,.09,0h.06a1.34,1.34,0,0,1,.3.12l0,0,.09.05.05,0,.07.06.05,0,.07.06,0,.05.06.07,0,.05.05.07,0,.07a.13.13,0,0,1,0,.07.83.83,0,0,1,.07.13l5,12.12h0l1.74,4.17a1.64,1.64,0,0,1,0,1.23,1.6,1.6,0,0,1-.88.87,1.62,1.62,0,0,1-.61.12,1.49,1.49,0,0,1-1.49-1L258.93,320H251l-1.31,3.17a1.49,1.49,0,0,1-1.49,1h-.31Zm10-7.25L255,310.46l-2.62,6.33Z"/><path class="cls-3" d="M280.56,305a1.58,1.58,0,0,1,.25,2.25l-5.91,7.4v7.9a1.56,1.56,0,0,1-.48,1.15,1.54,1.54,0,0,1-1.13.46,1.51,1.51,0,0,1-1.13-.46,1.56,1.56,0,0,1-.48-1.15v-7.9l-5.91-7.4A1.61,1.61,0,0,1,266,305a1.6,1.6,0,0,1,2.27.25l5,6.28,5-6.28a1.52,1.52,0,0,1,1.06-.6A1.55,1.55,0,0,1,280.56,305Z"/><g class="cls-4"><path class="cls-5" d="M254.2,575.64C133.63,575.64,35.54,477.55,35.54,357S133.63,138.33,254.2,138.33,472.85,236.42,472.85,357,374.76,575.64,254.2,575.64Zm0-396.68c-98.17,0-178,79.86-178,178S156,535,254.2,535s178-79.86,178-178S352.36,179,254.2,179Z"/></g><g class="cls-6"><path class="cls-5" d="M254.2,565.48C139.23,565.48,45.7,472,45.7,357s93.53-208.5,208.5-208.5S462.69,242,462.69,357,369.16,565.48,254.2,565.48Zm0-396.67C150.43,168.81,66,253.22,66,357S150.43,545.17,254.2,545.17,442.38,460.75,442.38,357,358,168.81,254.2,168.81Z"/></g></g></svg>