<svg xmlns="http://www.w3.org/2000/svg" viewBox="0 0 711.79 698.69"><defs><style>.cls-1{fill:#dfeae8;}.cls-2{fill:#eef4f3;}.cls-3{fill:#2c2e2e;}.cls-4{opacity:0.5;}.cls-5{fill:#cba6e8;}.cls-6{opacity:0.6;}</style></defs><title>Artboard 9Web</title><g id="Info"><rect class="cls-1" x="452.88" y="350.21" width="191.34" height="13.54"/><circle class="cls-1" cx="645.77" cy="356.99" r="25.29"/><path class="cls-2" d="M254.54,575.64C134,575.64,35.89,477.55,35.89,357S134,138.33,254.54,138.33,473.2,236.42,473.2,357,375.11,575.64,254.54,575.64Zm0-396.68c-98.16,0-178,79.86-178,178s79.86,178,178,178,178-79.86,178-178S352.71,179,254.54,179Z"/><path class="cls-3" d="M268.78,379.82a13.42,13.42,0,0,1-26.84,0,3.79,3.79,0,0,1,7.58,0,5.85,5.85,0,1,0,5.84-5.84h-8.48a3.82,3.82,0,0,1-3.78-3.79v-19.1a3.82,3.82,0,0,1,3.78-3.79h18.05a3.58,3.58,0,0,1,2.67,1.12,3.62,3.62,0,0,1,1.12,2.67,3.68,3.68,0,0,1-1.12,2.69,3.64,3.64,0,0,1-2.67,1.1H250.67V366.4h4.69a13.49,13.49,0,0,1,13.42,13.42Z"/><path class="cls-3" d="M229.43,324.16a1.6,1.6,0,0,1-1.61-1.61V306.21a1.62,1.62,0,0,1,1.61-1.61h4.14a9.76,9.76,0,0,1,0,19.51l-4.11.05Zm1.63-3.25,2.5,0a6.53,6.53,0,0,0,0-13.05h-2.51Z"/><path class="cls-3" d="M248,324a1.66,1.66,0,0,1-.87-.88,1.61,1.61,0,0,1,0-1.22l1.73-4.17h0l5-12.12a.61.61,0,0,1,.07-.14l0-.06.06-.07s0,0,0-.07l.05-.05,0-.06a.15.15,0,0,0,.06-.07l.05,0,.07-.05s0,0,.05,0l.07-.06.06,0,.08,0,.1,0,0,0,0,0,.1,0,.09,0H255l.09,0h.47l.06,0,.1,0,.06,0a1,1,0,0,1,.29.12s0,0,.06,0l.08.05.06,0,.06.06.06,0,.07.05s0,0,0,.06a.18.18,0,0,1,.05.07l0,.05.06.07s0,0,0,.07a.17.17,0,0,1,0,.06l.07.14,5,12.12h0l1.73,4.17a1.52,1.52,0,0,1,0,1.22,1.6,1.6,0,0,1-.87.88,1.66,1.66,0,0,1-.61.12,1.48,1.48,0,0,1-1.49-1L259.28,320h-7.9l-1.31,3.16a1.49,1.49,0,0,1-1.49,1h-.32Zm10-7.25-2.63-6.33-2.62,6.33Z"/><path class="cls-3" d="M280.91,305a1.59,1.59,0,0,1,.6,1.06,1.55,1.55,0,0,1-.36,1.19l-5.91,7.4v7.9a1.59,1.59,0,0,1-.47,1.15,1.63,1.63,0,0,1-2.27,0,1.56,1.56,0,0,1-.48-1.15v-7.9l-5.91-7.4a1.53,1.53,0,0,1-.34-1.19,1.51,1.51,0,0,1,.59-1.06,1.59,1.59,0,0,1,2.26.25l5,6.27,5-6.27a1.5,1.5,0,0,1,1.06-.6A1.55,1.55,0,0,1,280.91,305Z"/><g class="cls-4"><path class="cls-5" d="M254.54,575.64C134,575.64,35.89,477.55,35.89,357S134,138.33,254.54,138.33,473.2,236.42,473.2,357,375.11,575.64,254.54,575.64Zm0-396.68c-98.16,0-178,79.86-178,178s79.86,178,178,178,178-79.86,178-178S352.7,179,254.54,179Z"/></g><g class="cls-6"><path class="cls-5" d="M254.54,565.48C139.58,565.48,46.05,472,46.05,357s93.53-208.5,208.49-208.5S463,242,463,357,369.51,565.48,254.54,565.48Zm0-396.67C150.78,168.81,66.36,253.22,66.36,357s84.42,188.18,188.18,188.18S442.72,460.75,442.72,357,358.31,168.81,254.54,168.81Z"/></g></g></svg>