<svg xmlns="http://www.w3.org/2000/svg" viewBox="0 0 711.79 698.69"><defs><style>.cls-1{fill:#dfeae8;}.cls-2{fill:#eef4f3;}.cls-3{fill:#2c2e2e;}.cls-4{opacity:0.5;}.cls-5{fill:#facc7a;}.cls-6{opacity:0.6;}</style></defs><title>Artboard 7Web</title><g id="Info"><rect class="cls-1" x="455.25" y="350.21" width="191.34" height="13.54"/><circle class="cls-1" cx="648.13" cy="356.99" r="25.29"/><path class="cls-2" d="M256.91,575.64C136.35,575.64,38.26,477.55,38.26,357s98.09-218.66,218.65-218.66S475.56,236.42,475.56,357,377.48,575.64,256.91,575.64Zm0-396.68c-98.16,0-178,79.86-178,178s79.86,178,178,178,178-79.86,178-178S355.07,179,256.91,179Z"/><path class="cls-3" d="M270.7,379.83a13.42,13.42,0,0,1-26.84,0,3.79,3.79,0,0,1,7.58,0,5.85,5.85,0,1,0,5.84-5.85,3.77,3.77,0,0,1-3.43-5.36l6.35-13.81H247.65a3.82,3.82,0,0,1-3.79-3.79,3.79,3.79,0,0,1,3.79-3.79h18.46a3.79,3.79,0,0,1,3.44,5.37l-6.87,14.93a13.36,13.36,0,0,1,5.77,4.88A13.09,13.09,0,0,1,270.7,379.83Z"/><path class="cls-3" d="M231.8,324.16a1.6,1.6,0,0,1-1.61-1.61V306.22a1.62,1.62,0,0,1,1.61-1.62h4.14a9.76,9.76,0,0,1,0,19.51l-4.11.05Zm1.62-3.25,2.5,0a6.52,6.52,0,0,0,0-13h-2.52Z"/><path class="cls-3" d="M250.33,324a1.57,1.57,0,0,1-.87-.88,1.61,1.61,0,0,1,0-1.22l1.73-4.17h0l5-12.12a.75.75,0,0,1,.06-.13l0-.07.06-.07s0,0,0-.07a.23.23,0,0,1,0-.05s0,0,0-.06a.15.15,0,0,0,.06-.07l.05,0,.07-.05s0,0,.05,0l.07-.06.06,0,.08,0,.09,0,.05,0,.05,0,.09,0,.1,0h.05l.1,0h.47l.06,0,.1,0,0,0a1.34,1.34,0,0,1,.3.12l.06,0,.08.05.05,0,.07.06.06,0a.12.12,0,0,0,.06.05l.05.06a.18.18,0,0,1,.05.07l0,.05.06.07s0,0,0,.07l0,.07a.83.83,0,0,1,.07.13l5,12.12h0l1.73,4.17a1.52,1.52,0,0,1,0,1.22,1.57,1.57,0,0,1-.87.88,1.67,1.67,0,0,1-.62.12,1.48,1.48,0,0,1-1.48-1L261.65,320h-7.9l-1.31,3.16a1.49,1.49,0,0,1-1.49,1h-.32Zm10-7.25-2.63-6.33-2.62,6.33Z"/><path class="cls-3" d="M283.28,305a1.59,1.59,0,0,1,.6,1.07,1.58,1.58,0,0,1-.36,1.18l-5.91,7.4v7.9a1.59,1.59,0,0,1-.47,1.15,1.63,1.63,0,0,1-2.27,0,1.56,1.56,0,0,1-.48-1.15v-7.9l-5.91-7.4a1.6,1.6,0,0,1,.25-2.25,1.54,1.54,0,0,1,1.19-.35,1.56,1.56,0,0,1,1.07.6l5,6.27,5-6.27a1.59,1.59,0,0,1,2.26-.25Z"/><g class="cls-4"><path class="cls-5" d="M256.91,575.64C136.35,575.64,38.26,477.55,38.26,357s98.09-218.66,218.65-218.66S475.56,236.42,475.56,357,377.48,575.64,256.91,575.64Zm0-396.68c-98.16,0-178,79.86-178,178s79.86,178,178,178,178-79.86,178-178S355.07,179,256.91,179Z"/></g><g class="cls-6"><path class="cls-5" d="M256.91,565.48C142,565.48,48.42,472,48.42,357S142,148.49,256.91,148.49,465.41,242,465.41,357,371.88,565.48,256.91,565.48Zm0-396.67C153.15,168.81,68.73,253.22,68.73,357s84.42,188.18,188.18,188.18S445.09,460.75,445.09,357,360.67,168.81,256.91,168.81Z"/></g></g></svg>