<svg xmlns="http://www.w3.org/2000/svg" viewBox="0 0 1366.31 1586.48"><defs><style>.cls-1{fill:none;stroke:#000;stroke-linecap:round;stroke-miterlimit:10;stroke-width:4px;}.cls-16,.cls-2{font-size:14px;}.cls-17,.cls-2{fill:red;}.cls-16,.cls-2,.cls-35{font-family:MyriadPro-Semibold, Myriad Pro;font-weight:700;}.cls-3{letter-spacing:-0.01em;}.cls-4{letter-spacing:-0.01em;}.cls-5{letter-spacing:-0.04em;}.cls-6{letter-spacing:-0.09em;}.cls-7{letter-spacing:0em;}.cls-8{letter-spacing:-0.03em;}.cls-9{letter-spacing:-0.01em;}.cls-10{letter-spacing:-0.04em;}.cls-11{letter-spacing:-0.09em;}.cls-12{letter-spacing:0.01em;}.cls-13{letter-spacing:0em;}.cls-14{letter-spacing:-0.01em;}.cls-15{letter-spacing:-0.01em;}.cls-18{letter-spacing:-0.01em;}.cls-19{letter-spacing:0.01em;}.cls-20{letter-spacing:0em;}.cls-21{letter-spacing:-0.01em;}.cls-22{letter-spacing:-0.04em;}.cls-23{letter-spacing:0.01em;}.cls-24{letter-spacing:0em;}.cls-25{letter-spacing:0em;}.cls-26{letter-spacing:-0.02em;}.cls-27{letter-spacing:-0.01em;}.cls-28{letter-spacing:0.01em;}.cls-29{letter-spacing:0.01em;}.cls-30{letter-spacing:-0.01em;}.cls-31{letter-spacing:0.02em;}.cls-32{letter-spacing:-0.07em;}.cls-33{letter-spacing:-0.01em;}.cls-34{letter-spacing:-0.04em;}.cls-35{font-size:13.91px;}.cls-36{letter-spacing:0.01em;}.cls-37{letter-spacing:-0.01em;}.cls-38{letter-spacing:0em;}.cls-39{letter-spacing:-0.01em;}.cls-40{letter-spacing:-0.01em;}.cls-41{letter-spacing:0em;}.cls-42{letter-spacing:0.02em;}.cls-43{letter-spacing:0em;}.cls-44{letter-spacing:0.02em;}.cls-45{letter-spacing:-0.01em;}.cls-46{letter-spacing:0em;}.cls-47{letter-spacing:-0.01em;}.cls-48{letter-spacing:-0.02em;}.cls-49{letter-spacing:-0.01em;}.cls-50{letter-spacing:-0.05em;}.cls-51{letter-spacing:-0.03em;}.cls-52{letter-spacing:-0.02em;}.cls-53{letter-spacing:0.01em;}.cls-54{letter-spacing:0.02em;}.cls-55{letter-spacing:-0.08em;}.cls-56{letter-spacing:0.02em;}.cls-57{letter-spacing:0.02em;}.cls-58{letter-spacing:-0.01em;}.cls-59{letter-spacing:0.01em;}.cls-60{letter-spacing:0em;}</style></defs><title>Artboard 52banner</title><g id="Layer_4" data-name="Layer 4"><path class="cls-1" d="M242.94,81.45s-19.89-36-66.5-36S96.9,82.69,96.9,129.3s46.6,73.95,79.54,73.95,88.87-24.86,88.87-71.46S252.88,74,231.13,56.59"/><path class="cls-1" d="M454.2,167.33s-19.88-36-66.49-36-79.55,37.28-79.55,83.89,46.61,74,79.55,74,88.87-24.86,88.87-71.47-12.43-57.8-34.18-75.2"/><path class="cls-1" d="M274.47,276.67s-19.89-36-66.5-36-79.54,37.28-79.54,83.89,46.6,74,79.54,74,88.87-24.85,88.87-71.46-12.43-57.8-34.18-75.2"/><path class="cls-1" d="M490,556.18s-19.89-36-66.5-36S344,557.42,344,604s46.61,74,79.54,74,88.87-24.86,88.87-71.47-12.43-57.8-34.18-75.2"/><path class="cls-1" d="M716,477.26s-19.89-36.05-66.5-36.05-79.54,37.29-79.54,83.9,46.6,73.95,79.54,73.95,88.87-24.86,88.87-71.46-12.43-57.8-34.18-75.2"/><path class="cls-1" d="M651.08,692.79s-19.89-36-66.5-36S505,694,505,740.64s46.6,74,79.54,74,88.87-24.86,88.87-71.47-12.43-57.79-34.18-75.2"/><path class="cls-1" d="M684.55,100.91s-19.89-36-66.5-36-79.54,37.29-79.54,83.9,46.61,74,79.54,74,88.87-24.86,88.87-71.46-12.43-57.8-34.18-75.2"/><path class="cls-1" d="M768.76,286.73s-19.89-36.05-66.5-36.05-79.54,37.29-79.54,83.9,46.6,73.95,79.54,73.95,88.87-24.86,88.87-71.47S778.7,279.27,757,261.87"/><path class="cls-1" d="M574.22,322.84s-19.88-36-66.49-36-79.55,37.28-79.55,83.89,46.61,73.95,79.55,73.95,88.87-24.85,88.87-71.46-12.43-57.8-34.18-75.2"/><path class="cls-1" d="M292.54,495.13s-19.89-36-66.49-36S146.5,496.37,146.5,543s46.61,73.95,79.55,73.95,88.86-24.85,88.86-71.46-12.43-57.8-34.18-75.2"/><path class="cls-1" d="M1099.36,778.5s-29.28-43-97.89-43S884.37,780,884.37,835.62s68.61,88.27,117.1,88.27,113.75-21.87,127.69-75.73c11.38-43.94-15.16-78.56-47.18-99.33"/><path class="cls-1" d="M1239.18,1106.15s-32-47-107-47-128,48.66-128,109.48,75,96.51,128,96.51,124.37-23.92,139.61-82.8c12.43-48-16.58-85.88-51.59-108.59"/><path class="cls-1" d="M820.89,1379.34s-32-47-107-47-128,48.66-128,109.49,75,96.5,128,96.5,124.37-23.91,139.61-82.8c12.43-48-16.58-85.88-51.59-108.59"/><path class="cls-1" d="M950.94,651.19s-21.39-23.1-71.52-23.1-92.84,24.8-85.55,53.77c7.56,30.07,50.13,47.4,85.55,47.4s90.73-16.32,95.58-45.8c4.45-27.05-13.37-39.81-36.76-51"/><path class="cls-1" d="M940.1,967.09S918.71,944,868.58,944s-92.84,24.8-85.55,53.77c7.56,30.07,50.13,47.4,85.55,47.4s90.73-16.33,95.58-45.8c4.45-27.05-13.37-39.82-36.76-51"/><path class="cls-1" d="M475.08,956s-17.93-19.36-59.94-19.36-77.8,20.78-71.7,45.06c6.34,25.2,42,39.73,71.7,39.73s76-13.69,80.1-38.39c3.73-22.67-11.2-33.36-30.81-42.71"/><path class="cls-1" d="M652.41,874.24s-21.39-23.1-71.52-23.1-92.84,24.8-85.55,53.77c7.56,30.07,50.12,47.4,85.55,47.4S671.62,936,676.47,906.5c4.45-27-13.37-39.81-36.76-51"/><path class="cls-1" d="M768.31,1042.8s-21.39-23.1-71.52-23.1-92.84,24.8-85.55,53.77c7.56,30.07,50.12,47.4,85.55,47.4s90.73-16.33,95.58-45.8c4.45-27-13.37-39.82-36.76-51"/><path class="cls-1" d="M957.92,1112.24s-24.7-25-82.59-25-107.23,26.88-98.81,58.28c8.73,32.59,57.89,51.38,98.81,51.38s104.78-17.7,110.38-49.65c5.15-29.32-15.43-43.15-42.45-55.24"/><path class="cls-1" d="M1093.19,1326.94s-29.07-29.46-97.18-29.46-126.15,31.63-116.25,68.57C890,1404.39,947.87,1426.5,996,1426.5s123.28-20.83,129.87-58.42c6-34.49-18.16-50.76-50-65"/><path class="cls-1" d="M505.87,1091.5s-24.35-24.69-81.44-24.69-105.72,26.51-97.43,57.47c8.61,32.13,57.09,50.66,97.43,50.66s103.32-17.46,108.84-49c5.07-28.9-15.22-42.55-41.86-54.47"/><path class="cls-1" d="M748.59,1209.79s-29.06-29.46-97.18-29.46S525.26,1212,535.16,1248.9c10.27,38.34,68.12,60.45,116.25,60.45s123.28-20.82,129.88-58.41c6-34.5-18.17-50.77-50-65"/><path class="cls-1" d="M1233.6,953s-25.94-26.29-86.73-26.29-112.58,28.23-103.74,61.2c9.17,34.21,60.79,53.94,103.74,53.94s110-18.58,115.91-52.13c5.4-30.78-16.21-45.31-44.58-58"/><path class="cls-1" d="M1206,657.41s-21.39-23.1-71.52-23.1-92.84,24.8-85.55,53.77c7.56,30.07,50.12,47.4,85.55,47.4s90.73-16.33,95.58-45.81c4.45-27-13.37-39.81-36.76-51"/><line class="cls-1" x1="601.08" y1="812.85" x2="598.18" y2="852.11"/><line class="cls-1" x1="580.89" y1="952.31" x2="610.42" y2="1184.26"/><line class="cls-1" x1="728.14" y1="1023.08" x2="659.32" y2="780.54"/><line class="cls-1" x1="672.17" y1="755.05" x2="834.69" y2="947.93"/><line class="cls-1" x1="673.45" y1="726.79" x2="809.97" y2="706.22"/><line class="cls-1" x1="975" y1="683.46" x2="1048.91" y2="688.08"/><line class="cls-1" x1="947.16" y1="713.53" x2="964.85" y2="740.05"/><line class="cls-1" x1="964.16" y1="999.36" x2="1048.06" y2="999.36"/><line class="cls-1" x1="942.63" y1="1025.91" x2="1023.33" y2="1109.29"/><line class="cls-1" x1="784.63" y1="1090.4" x2="814.03" y2="1098.3"/><line class="cls-1" x1="875.33" y1="1196.86" x2="947.16" y2="1303.12"/><line class="cls-1" x1="666.12" y1="1309.35" x2="676.25" y2="1336.69"/><text class="cls-2" transform="translate(533.25 711.4)"><tspan class="cls-3">A</tspan><tspan class="cls-4" x="8.72" y="0">cc</tspan><tspan x="21.04" y="0">epting</tspan><tspan class="cls-5" x="60.98" y="0"> </tspan><tspan class="cls-6" x="63.28" y="0">Y</tspan><tspan x="70.01" y="0">ourself</tspan><tspan x="-7.9" y="16.8">En</tspan><tspan class="cls-4" x="7.32" y="16.8">c</tspan><tspan x="13.48" y="16.8">ou</tspan><tspan class="cls-4" x="29.34" y="16.8">r</tspan><tspan x="34.19" y="16.8">a</tspan><tspan class="cls-7" x="41.31" y="16.8">g</tspan><tspan x="49.27" y="16.8">ing</tspan><tspan class="cls-5" x="68.89" y="16.8"> </tspan><tspan class="cls-6" x="71.18" y="16.8">Y</tspan><tspan x="77.92" y="16.8">ourself</tspan><tspan class="cls-8" x="1.6" y="33.6">F</tspan><tspan x="8.34" y="33.6">o</tspan><tspan class="cls-9" x="16.23" y="33.6">r</tspan><tspan class="cls-7" x="21.1" y="33.6">g</tspan><tspan x="29.07" y="33.6">iving</tspan><tspan class="cls-10" x="59.38" y="33.6"> </tspan><tspan class="cls-11" x="61.68" y="33.6">Y</tspan><tspan x="68.41" y="33.6">ourself</tspan><tspan class="cls-12" x="-4.98" y="50.4">B</tspan><tspan x="3.16" y="50.4">eli</tspan><tspan class="cls-13" x="17.56" y="50.4">e</tspan><tspan x="24.74" y="50.4">ving in</tspan><tspan class="cls-10" x="65.96" y="50.4"> </tspan><tspan class="cls-11" x="68.25" y="50.4">Y</tspan><tspan x="74.99" y="50.4">ourself</tspan><tspan class="cls-14" x="9.86" y="67.2">L</tspan><tspan class="cls-15" x="16.61" y="67.2">o</tspan><tspan x="24.4" y="67.2">ving</tspan><tspan class="cls-10" x="51.12" y="67.2"> </tspan><tspan class="cls-11" x="53.42" y="67.2">Y</tspan><tspan x="60.15" y="67.2">ourself</tspan></text><text class="cls-16" transform="translate(156.56 91.49)"><tspan class="cls-4">C</tspan><tspan x="8.11" y="0">ampus</tspan><tspan class="cls-17"><tspan x="-3.98" y="16.8"> </tspan><tspan class="cls-7" x="-1.08" y="16.8">S</tspan><tspan x="6.13" y="16.8">tude</tspan><tspan class="cls-18" x="34.37" y="16.8">n</tspan><tspan x="42.31" y="16.8">ts</tspan></tspan><tspan class="cls-19" x="-10.35" y="33.6">S</tspan><tspan x="-3" y="33.6">elf </tspan><tspan class="cls-20" x="15.19" y="33.6">E</tspan><tspan x="22.44" y="33.6">s</tspan><tspan class="cls-21" x="28.28" y="33.6">t</tspan><tspan x="33.11" y="33.6">eem</tspan><tspan x="-16.13" y="50.4">Daily </tspan><tspan class="cls-20" x="17.62" y="50.4">R</tspan><tspan x="25.63" y="50.4">outine</tspan><tspan class="cls-22" x="-24.64" y="67.2">W</tspan><tspan x="-13.01" y="67.2">al</tspan><tspan class="cls-23" x="-2.3" y="67.2">k</tspan><tspan x="5.01" y="67.2">ing </tspan><tspan class="cls-21" x="27.52" y="67.2">t</tspan><tspan class="cls-24" x="32.35" y="67.2">o </tspan><tspan class="cls-25" x="43.15" y="67.2">C</tspan><tspan x="51.34" y="67.2">lass</tspan></text><text class="cls-16" transform="translate(349.57 184.44)"><tspan class="cls-12">M</tspan><tspan x="11.65" y="0">e</tspan><tspan class="cls-18" x="18.87" y="0">n</tspan><tspan x="26.81" y="0">tal Health</tspan><tspan x="38.63" y="16.8">+</tspan><tspan class="cls-13" x="-6.58" y="33.6">P</tspan><tspan class="cls-26" x="1.2" y="33.6">h</tspan><tspan class="cls-27" x="8.99" y="33.6">y</tspan><tspan x="15.82" y="33.6">sical Healt</tspan><tspan class="cls-26" x="77.39" y="33.6">h</tspan><tspan x="85.18" y="33.6">y</tspan><tspan x="38.63" y="50.4">=</tspan><tspan class="cls-19" x="15.69" y="67.2">S</tspan><tspan x="23.04" y="67.2">elf </tspan><tspan class="cls-14" x="41.22" y="67.2">L</tspan><tspan class="cls-15" x="47.97" y="67.2">o</tspan><tspan class="cls-3" x="55.75" y="67.2">v</tspan><tspan x="62.68" y="67.2">e</tspan></text><text class="cls-16" transform="translate(686.04 309.6)"><tspan class="cls-28">M</tspan><tspan x="11.7" y="0">ir</tspan><tspan class="cls-4" x="20.27" y="0">r</tspan><tspan x="25.13" y="0">ors</tspan><tspan class="cls-27" x="-2.35" y="16.8">P</tspan><tspan x="5.31" y="16.8">i</tspan><tspan class="cls-29" x="8.9" y="16.8">c</tspan><tspan x="15.39" y="16.8">tu</tspan><tspan class="cls-4" x="28.27" y="16.8">r</tspan><tspan x="33.13" y="16.8">es</tspan><tspan class="cls-30" x="-6.97" y="33.6">T</tspan><tspan x="0.24" y="33.6">houg</tspan><tspan class="cls-18" x="32.13" y="33.6">h</tspan><tspan x="40.07" y="33.6">ts</tspan><tspan x="-8.42" y="50.4">Doo</tspan><tspan class="cls-31" x="16.93" y="50.4">r</tspan><tspan class="cls-21" x="22.22" y="50.4">w</tspan><tspan class="cls-30" x="32.62" y="50.4">a</tspan><tspan class="cls-27" x="39.6" y="50.4">y</tspan><tspan x="46.43" y="50.4">s</tspan></text><text class="cls-16" transform="translate(445.84 372.89)">B<tspan class="cls-4" x="8.06" y="0">r</tspan><tspan x="12.92" y="0">eak up daily </tspan><tspan class="cls-4" x="88.66" y="0">r</tspan><tspan x="93.52" y="0">outine</tspan></text><text class="cls-16" transform="translate(198.25 509.59)"><tspan class="cls-20">B</tspan><tspan class="cls-21" x="8.11" y="0">a</tspan><tspan x="15.13" y="0">th</tspan><tspan class="cls-4" x="28.06" y="0">r</tspan><tspan x="32.91" y="0">ooms</tspan><tspan class="cls-32" x="14.01" y="16.8">T</tspan><tspan x="20.45" y="16.8">ables</tspan><tspan class="cls-22" x="17.32" y="33.6">W</tspan><tspan x="28.95" y="33.6">alls</tspan><tspan x="6.33" y="50.4">Hall</tspan><tspan class="cls-21" x="30.04" y="50.4">w</tspan><tspan class="cls-30" x="40.45" y="50.4">a</tspan><tspan class="cls-27" x="47.42" y="50.4">y</tspan><tspan x="54.25" y="50.4">s</tspan><tspan class="cls-32" x="0.8" y="67.2">T</tspan><tspan x="7.24" y="67.2">a</tspan><tspan class="cls-33" x="14.35" y="67.2">k</tspan><tspan x="21.38" y="67.2">e</tspan><tspan class="cls-30" x="28.6" y="67.2">a</tspan><tspan class="cls-21" x="35.57" y="67.2">w</tspan><tspan class="cls-30" x="45.98" y="67.2">a</tspan><tspan class="cls-27" x="52.95" y="67.2">y</tspan><tspan x="59.78" y="67.2">s</tspan></text><text class="cls-16" transform="translate(185.91 307.05)"><tspan class="cls-30">T</tspan><tspan x="7.21" y="0">he</tspan><tspan class="cls-34" x="22.44" y="0"> </tspan><tspan class="cls-22" x="24.83" y="0">W</tspan><tspan x="36.47" y="0">ell</tspan><tspan x="-13.66" y="16.8">Lib</tspan><tspan class="cls-4" x="5.02" y="16.8">r</tspan><tspan x="9.88" y="16.8">a</tspan><tspan class="cls-31" x="16.99" y="16.8">r</tspan><tspan x="22.28" y="16.8">y L</tspan><tspan class="cls-30" x="39.08" y="16.8">a</tspan><tspan x="46.05" y="16.8">wn</tspan><tspan class="cls-26" x="-1.93" y="33.6">C</tspan><tspan x="6.08" y="33.6">ompass</tspan></text><text class="cls-35" transform="translate(385.64 588.34)"><tspan class="cls-36">S</tspan><tspan x="7.3" y="0">ame loc</tspan><tspan class="cls-37" x="53.88" y="0">a</tspan><tspan x="60.86" y="0">tion</tspan><tspan class="cls-38" x="-7.67" y="16.69">D</tspan><tspan x="1.87" y="16.69">i</tspan><tspan class="cls-39" x="5.43" y="16.69">ff</tspan><tspan x="13.9" y="16.69">e</tspan><tspan class="cls-40" x="21.08" y="16.69">r</tspan><tspan x="25.9" y="16.69">e</tspan><tspan class="cls-41" x="33.08" y="16.69">n</tspan><tspan x="40.96" y="16.69">t obje</tspan><tspan class="cls-42" x="75.63" y="16.69">c</tspan><tspan x="82.08" y="16.69">ts</tspan><tspan x="14.84" y="33.38">B</tspan><tspan class="cls-40" x="22.85" y="33.38">r</tspan><tspan x="27.67" y="33.38">anding</tspan></text><text class="cls-16" transform="translate(630.37 493.81)">But<tspan class="cls-21" x="20.94" y="0">t</tspan><tspan x="25.77" y="0">ons</tspan><tspan class="cls-4" x="6.73" y="16.8">C</tspan><tspan x="14.84" y="16.8">a</tspan><tspan class="cls-4" x="21.95" y="16.8">r</tspan><tspan x="26.81" y="16.8">ds</tspan><tspan class="cls-43" x="-2.59" y="33.6">M</tspan><tspan x="9.04" y="33.6">a</tspan><tspan class="cls-7" x="16.16" y="33.6">g</tspan><tspan x="24.12" y="33.6">nets</tspan><tspan class="cls-26" x="0.44" y="50.4">F</tspan><tspan x="7.34" y="50.4">l</tspan><tspan class="cls-9" x="10.94" y="50.4">o</tspan><tspan class="cls-3" x="18.72" y="50.4">w</tspan><tspan x="29.03" y="50.4">ers</tspan><tspan class="cls-4" x="-0.25" y="67.2">C</tspan><tspan x="7.86" y="67.2">andies</tspan></text><text class="cls-16" transform="translate(583.56 141.23)">H<tspan class="cls-9" x="9.41" y="0">o</tspan><tspan x="17.19" y="0">w </tspan><tspan class="cls-21" x="30.58" y="0">t</tspan><tspan x="35.41" y="0">o sh</tspan><tspan class="cls-15" x="60.04" y="0">o</tspan><tspan x="67.83" y="0">w</tspan><tspan class="cls-17"><tspan class="cls-19" x="10.63" y="16.8">S</tspan><tspan x="17.98" y="16.8">elf l</tspan><tspan class="cls-9" x="39.76" y="16.8">o</tspan><tspan class="cls-3" x="47.54" y="16.8">v</tspan><tspan x="54.47" y="16.8">e?</tspan></tspan></text><text class="cls-16" transform="translate(989.26 771.47)"><tspan class="cls-14">L<tspan class="cls-24" x="6.75" y="0">et go</tspan></tspan><tspan class="cls-32" x="-15.5" y="16.8">T</tspan><tspan x="-9.07" y="16.8">a</tspan><tspan class="cls-33" x="-1.95" y="16.8">k</tspan><tspan x="5.08" y="16.8">e a</tspan><tspan class="cls-29" x="22.31" y="16.8">c</tspan><tspan x="28.8" y="16.8">tion</tspan><tspan class="cls-6" x="-39.22" y="33.6">Y</tspan><tspan class="cls-24" x="-32.49" y="33.6">ou made mista</tspan><tspan class="cls-33" x="56.83" y="33.6">k</tspan><tspan x="63.86" y="33.6">es</tspan><tspan class="cls-6" x="-71.12" y="50.4">Y</tspan><tspan class="cls-24" x="-64.38" y="50.4">ou hu</tspan><tspan class="cls-44" x="-29.65" y="50.4">r</tspan><tspan x="-24.35" y="50.4">t people but </tspan><tspan class="cls-3" x="52.65" y="50.4">y</tspan><tspan x="59.47" y="50.4">ou must </tspan><tspan class="cls-45" x="-28.38" y="67.2">f</tspan><tspan class="cls-46" x="-24.07" y="67.2">o</tspan><tspan class="cls-15" x="-16.18" y="67.2">r</tspan><tspan class="cls-7" x="-11.31" y="67.2">g</tspan><tspan x="-3.34" y="67.2">i</tspan><tspan class="cls-47" x="0.25" y="67.2">v</tspan><tspan x="7.17" y="67.2">e </tspan><tspan class="cls-3" x="17.3" y="67.2">y</tspan><tspan x="24.11" y="67.2">ourself</tspan><tspan class="cls-12" x="-43.18" y="84">M</tspan><tspan class="cls-9" x="-31.53" y="84">o</tspan><tspan class="cls-3" x="-23.75" y="84">v</tspan><tspan x="-16.82" y="84">e i</tspan><tspan class="cls-18" x="-3.11" y="84">n</tspan><tspan class="cls-21" x="4.82" y="84">t</tspan><tspan x="9.65" y="84">o the futu</tspan><tspan class="cls-4" x="68.8" y="84">r</tspan><tspan x="73.66" y="84">e</tspan><tspan class="cls-43" x="-24.35" y="100.8">M</tspan><tspan x="-12.71" y="100.8">a</tspan><tspan class="cls-33" x="-5.6" y="100.8">k</tspan><tspan x="1.43" y="100.8">e changes</tspan></text><text class="cls-2" transform="translate(826.65 681.84)"><tspan class="cls-8">F</tspan><tspan x="6.73" y="0">o</tspan><tspan class="cls-9" x="14.63" y="0">r</tspan><tspan class="cls-7" x="19.5" y="0">g</tspan><tspan x="27.47" y="0">iving</tspan><tspan class="cls-10" x="57.78" y="0"> </tspan><tspan class="cls-11" x="60.07" y="0">Y</tspan><tspan x="66.81" y="0">ourself</tspan></text><text class="cls-2" transform="translate(521.94 902.82)">En<tspan class="cls-4" x="15.22" y="0">c</tspan><tspan x="21.38" y="0">ou</tspan><tspan class="cls-4" x="37.24" y="0">r</tspan><tspan x="42.1" y="0">a</tspan><tspan class="cls-7" x="49.21" y="0">g</tspan><tspan x="57.17" y="0">ing</tspan><tspan class="cls-5" x="76.79" y="0"> </tspan><tspan class="cls-6" x="79.08" y="0">Y</tspan><tspan x="85.82" y="0">ourself</tspan></text><text class="cls-2" transform="translate(812.56 998.59)"><tspan class="cls-12">B</tspan><tspan x="8.13" y="0">eli</tspan><tspan class="cls-13" x="22.54" y="0">e</tspan><tspan x="29.72" y="0">ving in</tspan><tspan class="cls-10" x="70.94" y="0"> </tspan><tspan class="cls-11" x="73.23" y="0">Y</tspan><tspan x="79.97" y="0">ourself</tspan></text><text class="cls-2" transform="translate(645.75 1075.2)"><tspan class="cls-3">A</tspan><tspan class="cls-4" x="8.72" y="0">cc</tspan><tspan x="21.04" y="0">epting</tspan><tspan class="cls-5" x="60.98" y="0"> </tspan><tspan class="cls-6" x="63.28" y="0">Y</tspan><tspan x="70.01" y="0">ourself</tspan></text><text class="cls-2" transform="translate(373.16 985.18)"><tspan class="cls-14">L</tspan><tspan class="cls-15" x="6.75" y="0">o</tspan><tspan x="14.53" y="0">ving</tspan><tspan class="cls-10" x="41.26" y="0"> </tspan><tspan class="cls-11" x="43.55" y="0">Y</tspan><tspan x="50.29" y="0">ourself</tspan></text><text class="cls-16" transform="translate(1070.75 1119.23)">Unique cha<tspan class="cls-4" x="68.54" y="0">r</tspan><tspan x="73.4" y="0">a</tspan><tspan class="cls-29" x="80.51" y="0">c</tspan><tspan class="cls-21" x="87.01" y="0">t</tspan><tspan x="91.84" y="0">eristics</tspan><tspan class="cls-11" x="-16.23" y="16.8">Y</tspan><tspan class="cls-46" x="-9.49" y="16.8">o</tspan><tspan class="cls-48" x="-1.6" y="16.8">u</tspan><tspan class="cls-49" x="6.08" y="16.8">’</tspan><tspan class="cls-3" x="9.18" y="16.8">v</tspan><tspan x="16.11" y="16.8">e got s</tspan><tspan class="cls-23" x="55.8" y="16.8">k</tspan><tspan x="63.11" y="16.8">ills and tale</tspan><tspan class="cls-18" x="131.62" y="16.8">n</tspan><tspan x="139.56" y="16.8">ts</tspan><tspan class="cls-6" x="-6.2" y="33.6">Y</tspan><tspan class="cls-24" x="0.54" y="33.6">o</tspan><tspan class="cls-48" x="8.43" y="33.6">u</tspan><tspan class="cls-50" x="16.11" y="33.6">’</tspan><tspan class="cls-4" x="18.77" y="33.6">r</tspan><tspan x="23.62" y="33.6">e on </tspan><tspan class="cls-3" x="52.54" y="33.6">y</tspan><tspan x="59.36" y="33.6">our </tspan><tspan class="cls-15" x="83.11" y="33.6">o</tspan><tspan x="90.89" y="33.6">wn </tspan><tspan class="cls-4" x="112.28" y="33.6">r</tspan><tspan x="117.14" y="33.6">oad</tspan><tspan x="-32.12" y="50.4">Do</tspan><tspan class="cls-51" x="-14.66" y="50.4">n</tspan><tspan class="cls-52" x="-7.06" y="50.4">’</tspan><tspan x="-3.99" y="50.4">t </tspan><tspan class="cls-4" x="3.82" y="50.4">c</tspan><tspan x="9.98" y="50.4">ompa</tspan><tspan class="cls-4" x="45.05" y="50.4">r</tspan><tspan x="49.91" y="50.4">e </tspan><tspan class="cls-3" x="60.03" y="50.4">y</tspan><tspan x="66.85" y="50.4">ourself </tspan><tspan class="cls-21" x="111.71" y="50.4">t</tspan><tspan x="116.54" y="50.4">o others</tspan><tspan class="cls-11" x="-18.77" y="67.2">Y</tspan><tspan class="cls-46" x="-12.03" y="67.2">o</tspan><tspan class="cls-48" x="-4.14" y="67.2">u</tspan><tspan class="cls-49" x="3.53" y="67.2">’</tspan><tspan class="cls-3" x="6.64" y="67.2">v</tspan><tspan x="13.57" y="67.2">e got something in </tspan><tspan class="cls-3" x="130.18" y="67.2">y</tspan><tspan x="136.99" y="67.2">ou</tspan><tspan x="36.48" y="84">Suppo</tspan><tspan class="cls-44" x="75.99" y="84">r</tspan><tspan x="81.29" y="84">t it</tspan></text><text class="cls-16" transform="translate(685.03 1373.74)"><tspan class="cls-53">I</tspan><tspan class="cls-54" x="3.85" y="0">t</tspan><tspan class="cls-55" x="8.99" y="0">’</tspan><tspan x="11.13" y="0">s ok </tspan><tspan class="cls-21" x="37.78" y="0">t</tspan><tspan x="42.61" y="0">o fail</tspan><tspan class="cls-30" x="-5.89" y="16.8">E</tspan><tspan class="cls-3" x="1.18" y="16.8">v</tspan><tspan x="8.11" y="16.8">e</tspan><tspan class="cls-31" x="15.33" y="16.8">r</tspan><tspan class="cls-3" x="20.62" y="16.8">y</tspan><tspan x="27.44" y="16.8">one fails</tspan><tspan class="cls-14" x="-69.74" y="33.6">L</tspan><tspan class="cls-24" x="-62.99" y="33.6">earn f</tspan><tspan class="cls-4" x="-28.3" y="33.6">r</tspan><tspan x="-23.44" y="33.6">om </tspan><tspan class="cls-47" x="-0.78" y="33.6">y</tspan><tspan class="cls-24" x="6.04" y="33.6">our mista</tspan><tspan class="cls-33" x="63.1" y="33.6">k</tspan><tspan x="70.13" y="33.6">es and </tspan><tspan class="cls-33" x="112.24" y="33.6">k</tspan><tspan x="119.27" y="33.6">eep </tspan><tspan x="18.32" y="50.4">going</tspan><tspan x="-74.51" y="67.2">Ha</tspan><tspan class="cls-4" x="-57.99" y="67.2">r</tspan><tspan x="-53.13" y="67.2">d</tspan><tspan class="cls-3" x="-45" y="67.2">w</tspan><tspan x="-34.69" y="67.2">ork will al</tspan><tspan class="cls-21" x="23.08" y="67.2">w</tspan><tspan class="cls-30" x="33.49" y="67.2">a</tspan><tspan class="cls-27" x="40.46" y="67.2">y</tspan><tspan x="47.29" y="67.2">s get </tspan><tspan class="cls-3" x="79.08" y="67.2">y</tspan><tspan x="85.9" y="67.2">ou fa</tspan><tspan class="cls-56" x="116.24" y="67.2">r</tspan><tspan x="121.54" y="67.2">ther </tspan><tspan x="-23.78" y="84">than </tspan><tspan class="cls-3" x="7.16" y="84">y</tspan><tspan x="13.98" y="84">ou a</tspan><tspan class="cls-4" x="39.85" y="84">r</tspan><tspan x="44.71" y="84">e </tspan><tspan class="cls-21" x="54.83" y="84">a</tspan><tspan x="61.86" y="84">t n</tspan><tspan class="cls-9" x="77.68" y="84">o</tspan><tspan x="85.46" y="84">w</tspan><tspan class="cls-26" x="-32.29" y="100.8">C</tspan><tspan x="-24.28" y="100.8">eleb</tspan><tspan class="cls-4" x="1.95" y="100.8">r</tspan><tspan class="cls-21" x="6.81" y="100.8">at</tspan><tspan x="18.67" y="100.8">e the bi</tspan><tspan class="cls-29" x="63.61" y="100.8">c</tspan><tspan class="cls-21" x="70.1" y="100.8">t</tspan><tspan x="74.93" y="100.8">ories</tspan></text><text class="cls-16" transform="translate(1073.37 679.19)"><tspan class="cls-20">O</tspan><tspan x="9.9" y="0">ne thing </tspan><tspan class="cls-3" x="63.46" y="0">y</tspan><tspan x="70.28" y="0">ou </tspan><tspan class="cls-4" x="89.04" y="0">r</tspan><tspan x="93.89" y="0">e</tspan><tspan class="cls-7" x="101.12" y="0">g</tspan><tspan class="cls-4" x="109.08" y="0">r</tspan><tspan x="113.94" y="0">et?</tspan><tspan class="cls-33" x="6.66" y="16.8">W</tspan><tspan x="18.73" y="16.8">h</tspan><tspan class="cls-21" x="26.74" y="16.8">a</tspan><tspan x="33.77" y="16.8">t it taug</tspan><tspan class="cls-18" x="80.99" y="16.8">h</tspan><tspan x="88.93" y="16.8">t </tspan><tspan class="cls-3" x="96.74" y="16.8">y</tspan><tspan x="103.56" y="16.8">ou?</tspan></text><text class="cls-16" transform="translate(1078.4 976.91)"><tspan class="cls-33">W</tspan><tspan x="12.07" y="0">h</tspan><tspan class="cls-21" x="20.08" y="0">a</tspan><tspan x="27.1" y="0">t do </tspan><tspan class="cls-3" x="53.84" y="0">y</tspan><tspan x="60.66" y="0">ou </tspan><tspan class="cls-21" x="79.42" y="0">w</tspan><tspan x="89.82" y="0">a</tspan><tspan class="cls-18" x="96.93" y="0">n</tspan><tspan x="104.87" y="0">t </tspan><tspan class="cls-21" x="112.68" y="0">t</tspan><tspan x="117.51" y="0">o do?</tspan><tspan class="cls-33" x="-1.61" y="16.8">W</tspan><tspan x="10.46" y="16.8">h</tspan><tspan class="cls-21" x="18.47" y="16.8">a</tspan><tspan class="cls-57" x="25.5" y="16.8">t</tspan><tspan class="cls-55" x="30.63" y="16.8">’</tspan><tspan x="32.77" y="16.8">s holding </tspan><tspan class="cls-3" x="91.66" y="16.8">y</tspan><tspan x="98.47" y="16.8">ou back?</tspan></text><text class="cls-16" transform="translate(926.47 1349.68)"><tspan class="cls-33">W</tspan><tspan x="12.07" y="0">h</tspan><tspan class="cls-21" x="20.08" y="0">a</tspan><tspan x="27.1" y="0">t </tspan><tspan class="cls-3" x="34.92" y="0">y</tspan><tspan x="41.73" y="0">o</tspan><tspan class="cls-48" x="49.63" y="0">u</tspan><tspan class="cls-50" x="57.3" y="0">’</tspan><tspan class="cls-58" x="59.96" y="0">r</tspan><tspan x="64.82" y="0">e </tspan><tspan class="cls-14" x="74.94" y="0">f</tspan><tspan x="79.25" y="0">eeling is </tspan><tspan class="cls-21" x="132.13" y="0">v</tspan><tspan x="139.16" y="0">alid</tspan><tspan class="cls-11" x="33.44" y="16.8">Y</tspan><tspan class="cls-46" x="40.17" y="16.8">ou a</tspan><tspan class="cls-4" x="66.04" y="16.8">r</tspan><tspan x="70.9" y="16.8">e enough</tspan><tspan class="cls-59" x="18.65" y="33.6">R</tspan><tspan x="26.75" y="33.6">ig</tspan><tspan class="cls-60" x="38.36" y="33.6">h</tspan><tspan x="46.3" y="33.6">t he</tspan><tspan class="cls-4" x="69.34" y="33.6">r</tspan><tspan x="74.2" y="33.6">e rig</tspan><tspan class="cls-18" x="100.91" y="33.6">h</tspan><tspan x="108.85" y="33.6">t n</tspan><tspan class="cls-15" x="124.67" y="33.6">o</tspan><tspan x="132.45" y="33.6">w</tspan></text><text class="cls-16" transform="translate(840.22 1130.5)"><tspan class="cls-33">W</tspan><tspan x="12.07" y="0">ho a</tspan><tspan class="cls-4" x="37.98" y="0">r</tspan><tspan x="42.84" y="0">e </tspan><tspan class="cls-3" x="52.96" y="0">y</tspan><tspan x="59.78" y="0">ou?</tspan><tspan class="cls-33" x="-32.02" y="16.8">W</tspan><tspan x="-19.95" y="16.8">ho do </tspan><tspan class="cls-3" x="17.78" y="16.8">y</tspan><tspan x="24.6" y="16.8">ou </tspan><tspan class="cls-21" x="43.36" y="16.8">w</tspan><tspan x="53.76" y="16.8">a</tspan><tspan class="cls-18" x="60.87" y="16.8">n</tspan><tspan x="68.81" y="16.8">t </tspan><tspan class="cls-21" x="76.62" y="16.8">t</tspan><tspan x="81.45" y="16.8">o be?</tspan></text><text class="cls-16" transform="translate(571.74 1236.02)">H<tspan class="cls-9" x="9.41" y="0">o</tspan><tspan x="17.19" y="0">w far h</tspan><tspan class="cls-30" x="58.04" y="0">a</tspan><tspan class="cls-3" x="65.01" y="0">v</tspan><tspan x="71.95" y="0">e </tspan><tspan class="cls-3" x="82.07" y="0">y</tspan><tspan x="88.88" y="0">ou </tspan><tspan class="cls-4" x="107.64" y="0">c</tspan><tspan x="113.8" y="0">ome f</tspan><tspan class="cls-4" x="148.16" y="0">r</tspan><tspan x="153.02" y="0">om </tspan><tspan x="28.58" y="16.8">whe</tspan><tspan class="cls-4" x="54.3" y="16.8">r</tspan><tspan x="59.16" y="16.8">e </tspan><tspan class="cls-3" x="69.28" y="16.8">y</tspan><tspan x="76.1" y="16.8">ou sta</tspan><tspan class="cls-44" x="112.72" y="16.8">r</tspan><tspan class="cls-21" x="118.02" y="16.8">t</tspan><tspan x="122.85" y="16.8">ed?</tspan></text><text class="cls-16" transform="translate(354.2 1107.35)"><tspan class="cls-33">W</tspan><tspan x="12.07" y="0">h</tspan><tspan class="cls-21" x="20.08" y="0">a</tspan><tspan class="cls-57" x="27.1" y="0">t</tspan><tspan class="cls-55" x="32.24" y="0">’</tspan><tspan x="34.38" y="0">s one thing </tspan><tspan class="cls-3" x="104.58" y="0">y</tspan><tspan x="111.39" y="0">ou l</tspan><tspan class="cls-15" x="133.75" y="0">o</tspan><tspan class="cls-47" x="141.54" y="0">v</tspan><tspan x="148.46" y="0">e </tspan><tspan x="30.97" y="16.8">about </tspan><tspan class="cls-3" x="69.94" y="16.8">y</tspan><tspan x="76.76" y="16.8">ourself?</tspan><tspan class="cls-20" x="44.91" y="33.6">O</tspan><tspan x="54.81" y="33.6">ne mo</tspan><tspan class="cls-4" x="92.71" y="33.6">r</tspan><tspan x="97.56" y="33.6">e?</tspan><tspan class="cls-20" x="44.91" y="50.4">O</tspan><tspan x="54.81" y="50.4">ne mo</tspan><tspan class="cls-4" x="92.71" y="50.4">r</tspan><tspan x="97.56" y="50.4">e?</tspan></text><line class="cls-1" x1="243.5" y1="177.08" x2="308.16" y2="203.25"/><line class="cls-1" x1="475.3" y1="195.01" x2="541.07" y2="167.11"/><line class="cls-1" x1="654.12" y1="215.18" x2="678.08" y2="254.29"/><line class="cls-1" x1="581.2" y1="213.09" x2="551.53" y2="299.66"/><line class="cls-1" x1="429.46" y1="379.9" x2="313.25" y2="520.14"/><line class="cls-1" x1="226.05" y1="459.09" x2="220.4" y2="398.47"/><line class="cls-1" x1="449.67" y1="524.33" x2="475.3" y2="437.15"/><line class="cls-1" x1="511.11" y1="578.46" x2="577.71" y2="556.32"/><line class="cls-1" x1="602.78" y1="658.71" x2="632.68" y2="596.95"/><line class="cls-1" x1="427.04" y1="937.23" x2="516.96" y2="778.6"/><line class="cls-1" x1="415.14" y1="1021.47" x2="424.43" y2="1066.81"/></g></svg>