<svg xmlns="http://www.w3.org/2000/svg" viewBox="0 0 144 144"><defs><style>.cls-1{fill:none;stroke:#2c2e2e;stroke-linecap:round;stroke-linejoin:round;stroke-width:3px;}</style></defs><title>Artboard 33 copy 11scroll</title><g id="Information"><ellipse class="cls-1" cx="71.69" cy="42.76" rx="61.22" ry="19.12"/><path class="cls-1" d="M24.63,55c11.23-4.21,28.14-6.9,47.06-6.9s35.84,2.69,47.07,6.9"/><path class="cls-1" d="M10.47,42.76V72.55C10.47,82.09,32.8,90,62,91.44a9.82,9.82,0,0,0,19.37,0c29.2-1.45,51.53-9.35,51.53-18.89V42.76"/><circle class="cls-1" cx="72.13" cy="87.74" r="4.6"/><path class="cls-1" d="M68.46,99.1v5.17H62.38a5.57,5.57,0,0,0,.15-1.3,5.8,5.8,0,1,0-5.79,5.8,4.44,4.44,0,0,0,.63,0v.08a4.44,4.44,0,0,0-.63,0,5.8,5.8,0,1,0,5.79,5.8,5.57,5.57,0,0,0-.15-1.3H81.87a5.57,5.57,0,0,0-.15,1.3,5.8,5.8,0,1,0,5.79-5.8,5.8,5.8,0,1,0-5.79-5.8,5.57,5.57,0,0,0,.15,1.3H75.28V99"/><line class="cls-1" x1="97.33" y1="49.85" x2="97.33" y2="25.39"/></g></svg>