<svg xmlns="http://www.w3.org/2000/svg" viewBox="0 0 144 144"><defs><style>.cls-1{fill:none;stroke:#2c2e2e;stroke-linecap:round;stroke-linejoin:round;stroke-width:3px;}</style></defs><title>Artboard 33 copy 4scroll</title><g id="Information"><rect class="cls-1" x="21.03" y="70.97" width="20.29" height="48.2" transform="translate(62.35 190.14) rotate(180)"/><path class="cls-1" d="M48.93,71v48.2h53.38c5.49,0,10.1-3,10.1-9s-5.49-8.35-5.49-8.35,9.67,0,9.67-6.8-5.27-7.92-5.27-7.92,8.34.22,8.34-6.15-6.37-8.47-6.37-8.47,10.11.27,10.11-7.25c0-8.57-7.69-8.92-10.77-8.92H87.81S92.2,40.8,86.16,33.11s-15.26-11-20.32-5.71,4.62,13-3.29,25.7S48.93,71,48.93,71Z"/></g></svg>