<svg xmlns="http://www.w3.org/2000/svg" viewBox="0 0 1920 1080"><defs><style>.cls-1{fill:#eef4f3;}.cls-2{font-size:40.26px;}.cls-2,.cls-3,.cls-32{fill:#2c2e2e;}.cls-2,.cls-32{font-family:Moon-Bold, Moon;}.cls-16,.cls-17,.cls-18,.cls-19,.cls-2,.cls-20,.cls-21,.cls-32,.cls-4,.cls-5,.cls-6{font-weight:700;}.cls-3{font-size:20.64px;}.cls-16,.cls-17,.cls-18,.cls-3{font-family:PTSerif-Bold, PT Serif;}.cls-5{letter-spacing:0.01em;}.cls-6{letter-spacing:0.01em;}.cls-10,.cls-11,.cls-22,.cls-23,.cls-24,.cls-7,.cls-8,.cls-9{font-family:PTSerif-Regular, PT Serif;}.cls-15,.cls-20,.cls-7{letter-spacing:-0.04em;}.cls-8{letter-spacing:0.01em;}.cls-10{letter-spacing:0.01em;}.cls-11{letter-spacing:0.01em;}.cls-12{letter-spacing:0.04em;}.cls-13{letter-spacing:0.04em;}.cls-14{letter-spacing:-0.04em;}.cls-17{letter-spacing:0.05em;}.cls-18{letter-spacing:0.05em;}.cls-19{letter-spacing:0.01em;}.cls-21{letter-spacing:0.01em;}.cls-22{letter-spacing:0.01em;}.cls-23{letter-spacing:-0.04em;}.cls-24{letter-spacing:0.01em;}.cls-25{letter-spacing:-0.01em;}.cls-26{letter-spacing:-0.01em;}.cls-27{letter-spacing:-0.01em;}.cls-28{letter-spacing:-0.04em;}.cls-29{letter-spacing:0em;}.cls-30{letter-spacing:-0.01em;}.cls-31{fill:#7aa8fa;}.cls-32{font-size:70px;}.cls-33{opacity:0.5;}.cls-34{opacity:0.6;}</style></defs><title>Artboard 18 copy 3Web</title><g id="Background"><rect class="cls-1" x="0.81" y="0.09" width="1920" height="1080"/></g><g id="Info"><text class="cls-2" transform="translate(1023.79 415.53)">Encouraging</text><text class="cls-2" transform="translate(122.59 415.53)">Thursday APRIL 5, 2018</text><text class="cls-3" transform="translate(351.14 529.44)"><tspan class="cls-4">Encourage</tspan><tspan class="cls-5" x="103.94" y="0"> </tspan><tspan class="cls-4" x="109.79" y="0">yourself</tspan><tspan class="cls-6" x="189.61" y="0"> </tspan><tspan class="cls-4" x="195.46" y="0">and</tspan><tspan class="cls-5" x="232.61" y="0"> </tspan><tspan class="cls-4" x="238.46" y="0">others</tspan><tspan class="cls-5" x="301.46" y="0"> </tspan><tspan class="cls-4" x="307.32" y="0">around</tspan><tspan class="cls-5" x="378.45" y="0"> </tspan><tspan class="cls-4" x="384.3" y="0">you</tspan><tspan class="cls-7" x="420.29" y="0">.</tspan><tspan class="cls-8" x="425.22" y="0"> </tspan><tspan class="cls-9" x="430.49" y="0">Set</tspan><tspan class="cls-10" x="459.58" y="0"> </tspan><tspan class="cls-9" x="464.85" y="0">goals</tspan><tspan class="cls-11" x="512.68" y="0"> </tspan><tspan class="cls-9" x="517.95" y="0">for</tspan><tspan class="cls-10" x="544.35" y="0"> </tspan><tspan class="cls-9" x="549.61" y="0">yourself</tspan><tspan class="cls-7" x="623.8" y="0">.</tspan><tspan class="cls-11" x="628.73" y="0"> </tspan><tspan class="cls-9" x="634" y="0">Don’t</tspan><tspan class="cls-10" x="685.96" y="0"> </tspan><tspan class="cls-9" x="691.23" y="0">be</tspan><tspan class="cls-11" x="712.85" y="0"> </tspan><tspan class="cls-9" x="718.12" y="0">too</tspan><tspan class="cls-10" x="748.6" y="0"> </tspan><tspan class="cls-9" x="753.87" y="0">hard</tspan><tspan class="cls-11" x="795.78" y="0"> </tspan><tspan class="cls-9" x="801.04" y="0">on</tspan><tspan class="cls-11" x="824.71" y="0"> </tspan><tspan class="cls-9" x="829.98" y="0">yourself</tspan><tspan class="cls-7" x="904.17" y="0">,</tspan><tspan class="cls-10" x="909.18" y="0"> </tspan><tspan class="cls-9" x="914.45" y="0">respect </tspan><tspan class="cls-9"><tspan x="0" y="24.76">each</tspan><tspan class="cls-12" x="42.53" y="24.76"> </tspan><tspan x="48.38" y="24.76">step</tspan><tspan class="cls-12" x="87.03" y="24.76"> </tspan><tspan x="92.89" y="24.76">and</tspan><tspan class="cls-13" x="127.02" y="24.76"> </tspan><tspan x="132.87" y="24.76">your</tspan><tspan class="cls-12" x="174.47" y="24.76"> </tspan><tspan x="180.32" y="24.76">will</tspan><tspan class="cls-12" x="213.98" y="24.76"> </tspan><tspan x="219.84" y="24.76">to</tspan><tspan class="cls-12" x="238.9" y="24.76"> </tspan><tspan x="244.76" y="24.76">gro</tspan><tspan class="cls-14" x="274.95" y="24.76">w</tspan><tspan class="cls-15" x="289.12" y="24.76">.</tspan><tspan class="cls-12" x="294.06" y="24.76"> </tspan><tspan x="299.91" y="24.76">Don’t</tspan><tspan class="cls-12" x="351.87" y="24.76"> </tspan><tspan x="357.72" y="24.76">set</tspan><tspan class="cls-13" x="384.69" y="24.76"> </tspan><tspan x="390.55" y="24.76">your</tspan><tspan class="cls-12" x="432.15" y="24.76"> </tspan><tspan x="438" y="24.76">standards</tspan><tspan class="cls-12" x="527.46" y="24.76"> </tspan><tspan x="533.31" y="24.76">too</tspan><tspan class="cls-12" x="563.79" y="24.76"> </tspan><tspan x="569.64" y="24.76">high</tspan><tspan class="cls-15" x="610.93" y="24.76">,</tspan><tspan class="cls-12" x="615.95" y="24.76"> </tspan><tspan class="cls-16" x="621.8" y="24.76">work</tspan><tspan class="cls-17" x="671.16" y="24.76"> </tspan><tspan class="cls-16" x="677.66" y="24.76">toward</tspan><tspan class="cls-17" x="747.08" y="24.76"> </tspan><tspan class="cls-16" x="753.59" y="24.76">being</tspan><tspan class="cls-18" x="808.58" y="24.76"> </tspan><tspan class="cls-16" x="815.08" y="24.76">the</tspan><tspan class="cls-17" x="847.6" y="24.76"> </tspan><tspan class="cls-16" x="854.11" y="24.76">best</tspan><tspan class="cls-17" x="894.88" y="24.76"> </tspan><tspan class="cls-16" x="901.39" y="24.76">you</tspan><tspan class="cls-17" x="937.37" y="24.76"> </tspan><tspan class="cls-16" x="943.88" y="24.76">and </tspan></tspan><tspan class="cls-4" x="0" y="49.53">not</tspan><tspan class="cls-19" x="33.78" y="49.53"> </tspan><tspan class="cls-4" x="39.54" y="49.53">someone</tspan><tspan class="cls-19" x="127.9" y="49.53"> </tspan><tspan class="cls-4" x="133.66" y="49.53">els</tspan><tspan class="cls-20" x="160.92" y="49.53">e</tspan><tspan class="cls-4" x="171.17" y="49.53">’s</tspan><tspan class="cls-19" x="186.86" y="49.53"> </tspan><tspan class="cls-4" x="192.62" y="49.53">version</tspan><tspan class="cls-19" x="265.44" y="49.53"> </tspan><tspan class="cls-4" x="271.2" y="49.53">of</tspan><tspan class="cls-21" x="291.13" y="49.53"> </tspan><tspan class="cls-4" x="296.89" y="49.53">you</tspan><tspan class="cls-7" x="332.88" y="49.53">.</tspan><tspan class="cls-22" x="337.81" y="49.53"> </tspan><tspan class="cls-23" x="342.99" y="49.53">A</tspan><tspan class="cls-9" x="356.35" y="49.53">cknowledge</tspan><tspan class="cls-22" x="464.58" y="49.53"> </tspan><tspan class="cls-9" x="469.76" y="49.53">your</tspan><tspan class="cls-24" x="511.36" y="49.53"> </tspan><tspan class="cls-9" x="516.55" y="49.53">desires</tspan><tspan class="cls-22" x="580.77" y="49.53"> </tspan><tspan class="cls-9" x="585.95" y="49.53">and</tspan><tspan class="cls-22" x="620.08" y="49.53"> </tspan><tspan class="cls-9" x="625.27" y="49.53">connect</tspan><tspan class="cls-22" x="698.46" y="49.53"> </tspan><tspan class="cls-9" x="703.64" y="49.53">with</tspan><tspan class="cls-24" x="744.65" y="49.53"> </tspan><tspan class="cls-9" x="749.83" y="49.53">other</tspan><tspan class="cls-22" x="799.31" y="49.53"> </tspan><tspan class="cls-9" x="804.5" y="49.53">people</tspan><tspan class="cls-22" x="866.24" y="49.53"> </tspan><tspan class="cls-9" x="871.42" y="49.53">that</tspan><tspan class="cls-22" x="909.27" y="49.53"> </tspan><tspan class="cls-9" x="914.45" y="49.53">respect </tspan><tspan class="cls-9"><tspan x="0" y="74.29">your</tspan><tspan class="cls-25" x="41.6" y="74.29"> </tspan><tspan x="46.48" y="74.29">interests</tspan><tspan class="cls-25" x="126.81" y="74.29"> </tspan><tspan x="131.69" y="74.29">and</tspan><tspan class="cls-25" x="165.82" y="74.29"> </tspan><tspan x="170.7" y="74.29">self</tspan><tspan class="cls-25" x="203.28" y="74.29"> </tspan><tspan x="208.16" y="74.29">worth</tspan><tspan class="cls-15" x="262.29" y="74.29">.</tspan><tspan class="cls-25" x="267.22" y="74.29"> </tspan><tspan x="272.1" y="74.29">Know</tspan><tspan class="cls-25" x="324.12" y="74.29"> </tspan><tspan x="329" y="74.29">that</tspan><tspan class="cls-25" x="366.84" y="74.29"> </tspan><tspan x="371.72" y="74.29">progress</tspan><tspan class="cls-25" x="449.76" y="74.29"> </tspan><tspan x="454.64" y="74.29">is</tspan><tspan class="cls-25" x="469.79" y="74.29"> </tspan><tspan x="474.67" y="74.29">everything</tspan><tspan class="cls-15" x="573.32" y="74.29">.</tspan><tspan class="cls-25" x="578.25" y="74.29"> </tspan><tspan x="583.13" y="74.29">Develop</tspan><tspan class="cls-25" x="658.27" y="74.29"> </tspan><tspan x="663.14" y="74.29">healthy</tspan><tspan class="cls-25" x="732.46" y="74.29"> </tspan><tspan x="737.34" y="74.29">trust</tspan><tspan class="cls-25" x="781.35" y="74.29"> </tspan><tspan x="786.23" y="74.29">intimacy</tspan><tspan class="cls-25" x="866.83" y="74.29"> </tspan><tspan x="871.71" y="74.29">with</tspan><tspan class="cls-25" x="912.71" y="74.29"> </tspan><tspan x="917.59" y="74.29">others</tspan><tspan class="cls-15" x="976.01" y="74.29">,</tspan><tspan x="981.02" y="74.29"> </tspan><tspan x="0" y="99.05">friends</tspan><tspan class="cls-15" x="64.22" y="99.05">,</tspan><tspan class="cls-26" x="69.23" y="99.05"> </tspan><tspan x="74.14" y="99.05">famil</tspan><tspan class="cls-14" x="121.85" y="99.05">y</tspan><tspan class="cls-15" x="131.42" y="99.05">,</tspan><tspan class="cls-27" x="136.44" y="99.05"> </tspan><tspan x="141.35" y="99.05">and</tspan><tspan class="cls-26" x="175.48" y="99.05"> </tspan><tspan x="180.38" y="99.05">your</tspan><tspan class="cls-27" x="221.99" y="99.05"> </tspan><tspan x="226.89" y="99.05">communit</tspan><tspan class="cls-28" x="321.51" y="99.05">y</tspan><tspan class="cls-15" x="331.08" y="99.05">.</tspan><tspan class="cls-26" x="336.01" y="99.05"> </tspan><tspan x="340.92" y="99.05">Becoming</tspan><tspan class="cls-27" x="432.15" y="99.05"> </tspan><tspan class="cls-29" x="437.06" y="99.05">your</tspan><tspan class="cls-27" x="478.66" y="99.05"> </tspan><tspan x="483.57" y="99.05">ideal</tspan><tspan class="cls-27" x="528.24" y="99.05"> </tspan><tspan x="533.15" y="99.05">isn’t</tspan><tspan class="cls-30" x="574.23" y="99.05"> </tspan><tspan x="579.14" y="99.05">instant</tspan><tspan class="cls-15" x="644.54" y="99.05">,</tspan><tspan class="cls-27" x="649.55" y="99.05"> </tspan><tspan x="654.46" y="99.05">give</tspan><tspan class="cls-27" x="692.37" y="99.05"> </tspan><tspan x="697.27" y="99.05">yourself</tspan><tspan class="cls-27" x="771.46" y="99.05"> </tspan><tspan x="776.36" y="99.05">time</tspan><tspan class="cls-30" x="818.42" y="99.05"> </tspan><tspan x="823.33" y="99.05">and</tspan><tspan class="cls-27" x="857.46" y="99.05"> </tspan><tspan x="862.37" y="99.05">acknowledge </tspan><tspan x="0" y="123.81">every step forward</tspan><tspan class="cls-15" x="169.46" y="123.81">.</tspan><tspan x="174.39" y="123.81" xml:space="preserve"> Be thankful,</tspan><tspan class="cls-16" x="291.54" y="123.81" xml:space="preserve"> celebrate your achievements</tspan><tspan class="cls-15" x="579.79" y="123.81">.</tspan><tspan x="584.72" y="123.81"> </tspan></tspan></text><rect class="cls-31" y="449.12" width="1408.48" height="20"/><rect class="cls-31" x="1733.43" y="449.12" width="186.57" height="20"/><path class="cls-1" d="M1571,636.79c-98,0-177.67-79.71-177.67-177.67S1473,281.44,1571,281.44s177.67,79.71,177.67,177.68S1669,636.79,1571,636.79Zm0-322.33c-79.76,0-144.65,64.89-144.65,144.66S1491.24,603.77,1571,603.77s144.66-64.89,144.66-144.65S1650.77,314.46,1571,314.46Z"/><text class="cls-32" transform="translate(1550.94 482.85)">4</text><g class="cls-33"><path class="cls-31" d="M1571,636.79c-98,0-177.67-79.71-177.67-177.68S1473,281.45,1571,281.45s177.67,79.7,177.67,177.66S1669,636.79,1571,636.79Zm0-322.33c-79.76,0-144.65,64.89-144.65,144.65S1491.24,603.77,1571,603.77s144.66-64.89,144.66-144.66S1650.77,314.46,1571,314.46Z"/></g><g class="cls-34"><path class="cls-31" d="M1571,628.53c-93.41,0-169.41-76-169.41-169.42s76-169.41,169.41-169.41,169.42,76,169.42,169.41S1664.42,628.53,1571,628.53Zm0-322.32c-84.31,0-152.91,68.59-152.91,152.9S1486.69,612,1571,612s152.91-68.59,152.91-152.91S1655.32,306.21,1571,306.21Z"/></g></g></svg>