<svg xmlns="http://www.w3.org/2000/svg" viewBox="0 0 1920 1080"><defs><style>.cls-1{fill:#eef4f3;}.cls-2{font-size:40.26px;}.cls-18,.cls-2,.cls-3{fill:#2c2e2e;}.cls-18,.cls-2{font-family:Moon-Bold, Moon;}.cls-12,.cls-13,.cls-16,.cls-18,.cls-2,.cls-4,.cls-9{font-weight:700;}.cls-3{font-size:20.64px;}.cls-12,.cls-13,.cls-16,.cls-3,.cls-9{font-family:PTSerif-Bold, PT Serif;}.cls-5,.cls-6{font-family:PTSerif-Regular, PT Serif;}.cls-5,.cls-7{letter-spacing:-0.04em;}.cls-8{letter-spacing:-0.06em;}.cls-10{letter-spacing:-0.04em;}.cls-11{letter-spacing:-0.05em;}.cls-12{letter-spacing:-0.05em;}.cls-13{letter-spacing:-0.05em;}.cls-14{letter-spacing:-0.04em;}.cls-15{letter-spacing:-0.03em;}.cls-16{letter-spacing:-0.03em;}.cls-17{fill:#cba6e8;}.cls-18{font-size:70px;}.cls-19{opacity:0.5;}.cls-20{opacity:0.6;}</style></defs><title>Artboard 18 copy 4Web</title><g id="Background"><rect class="cls-1" x="0.81" y="0.19" width="1920" height="1080"/></g><g id="Info"><text class="cls-2" transform="translate(591.71 365.49)">Expressing</text><text class="cls-2" transform="translate(1160.26 365.49)">Friday APRIL 6, 2018</text><text class="cls-3" transform="translate(591.71 479.4)"><tspan class="cls-4">Appreciate and express yourself</tspan><tspan class="cls-5" x="315.31" y="0">.</tspan><tspan class="cls-6" x="320.24" y="0" xml:space="preserve"> Spend time away from work to do things you like</tspan><tspan class="cls-5" x="771.85" y="0">,</tspan><tspan class="cls-6" x="776.86" y="0" xml:space="preserve"> get rest</tspan><tspan class="cls-5" x="850.68" y="0">.</tspan><tspan class="cls-6" x="855.61" y="0" xml:space="preserve"> Have healthy </tspan><tspan class="cls-6"><tspan x="0" y="24.76">boundaries between yourself and those around you</tspan><tspan class="cls-7" x="467.29" y="24.76">.</tspan><tspan x="472.22" y="24.76"> </tspan><tspan class="cls-8" x="477.24" y="24.76">T</tspan><tspan x="488.71" y="24.76">ell others when they hurt you.</tspan><tspan class="cls-9" x="764.32" y="24.76" xml:space="preserve"> Express how you feel</tspan><tspan class="cls-7" x="976.14" y="24.76">,</tspan><tspan x="981.15" y="24.76"> </tspan><tspan x="0" y="49.53">don’t dehumanize yourself</tspan><tspan class="cls-7" x="245.95" y="49.53">.</tspan><tspan x="250.89" y="49.53" xml:space="preserve"> Get yourself out of situations and relationships that abuse your boundaries and </tspan><tspan x="0" y="74.29">sel</tspan><tspan class="cls-10" x="25.53" y="74.29">f</tspan><tspan x="31.78" y="74.29">-worth</tspan><tspan class="cls-7" x="94.68" y="74.29">.</tspan><tspan class="cls-11" x="99.61" y="74.29"> </tspan><tspan x="103.66" y="74.29">Pay</tspan><tspan class="cls-11" x="136.8" y="74.29"> </tspan><tspan x="140.86" y="74.29">attention</tspan><tspan class="cls-11" x="226.76" y="74.29"> </tspan><tspan x="230.81" y="74.29">to</tspan><tspan class="cls-11" x="249.88" y="74.29"> </tspan><tspan x="253.94" y="74.29">your</tspan><tspan class="cls-11" x="295.54" y="74.29"> </tspan><tspan x="299.59" y="74.29">own</tspan><tspan class="cls-11" x="338.28" y="74.29"> </tspan><tspan x="342.34" y="74.29">needs</tspan><tspan class="cls-7" x="395.74" y="74.29">.</tspan><tspan class="cls-11" x="400.67" y="74.29"> </tspan><tspan class="cls-9" x="404.73" y="74.29">Be</tspan><tspan class="cls-12" x="429.2" y="74.29"> </tspan><tspan class="cls-9" x="433.7" y="74.29">comfortable</tspan><tspan class="cls-12" x="553.64" y="74.29"> </tspan><tspan class="cls-9" x="558.14" y="74.29">saying</tspan><tspan class="cls-13" x="621.64" y="74.29"> </tspan><tspan class="cls-9" x="626.14" y="74.29">no</tspan><tspan class="cls-7" x="651.69" y="74.29">,</tspan><tspan class="cls-11" x="656.7" y="74.29"> </tspan><tspan x="660.75" y="74.29">respect</tspan><tspan class="cls-11" x="727.32" y="74.29"> </tspan><tspan x="731.38" y="74.29">your</tspan><tspan class="cls-11" x="772.98" y="74.29"> </tspan><tspan x="777.03" y="74.29">time</tspan><tspan class="cls-11" x="819.09" y="74.29"> </tspan><tspan x="823.14" y="74.29">and</tspan><tspan class="cls-11" x="857.27" y="74.29"> </tspan><tspan x="861.33" y="74.29">energ</tspan><tspan class="cls-14" x="913.12" y="74.29">y</tspan><tspan class="cls-7" x="922.7" y="74.29">.</tspan><tspan class="cls-11" x="927.63" y="74.29"> </tspan><tspan x="931.68" y="74.29">Make </tspan><tspan x="0" y="99.05">good choices with your personal freedom</tspan><tspan class="cls-7" x="376.72" y="99.05">.</tspan><tspan x="381.65" y="99.05"> </tspan><tspan class="cls-15" x="386.67" y="99.05">T</tspan><tspan x="398.82" y="99.05">ake time each day to do something for yourself</tspan><tspan class="cls-7" x="827.4" y="99.05">.</tspan><tspan x="832.33" y="99.05"> </tspan><tspan class="cls-9" x="837.35" y="99.05">Love yourself</tspan><tspan class="cls-16" x="969.23" y="99.05">.</tspan></tspan></text><rect class="cls-17" x="512.33" y="399.08" width="1408.48" height="20"/><rect class="cls-17" y="399.08" width="186.99" height="20"/><path class="cls-1" d="M351.14,588.65c-99,0-179.57-80.56-179.57-179.58S252.13,229.5,351.14,229.5s179.58,80.56,179.58,179.57S450.16,588.65,351.14,588.65Zm0-325.78c-80.61,0-146.2,65.59-146.2,146.2s65.59,146.21,146.2,146.21,146.21-65.59,146.21-146.21S431.76,262.87,351.14,262.87Z"/><text class="cls-18" transform="translate(331.06 432.54)">5</text><g class="cls-19"><path class="cls-17" d="M351.15,588.65c-99,0-179.58-80.56-179.58-179.58S252.13,229.5,351.15,229.5s179.57,80.56,179.57,179.57S450.16,588.65,351.15,588.65Zm0-325.78c-80.62,0-146.21,65.59-146.21,146.2s65.59,146.21,146.21,146.21,146.2-65.59,146.2-146.21S431.76,262.87,351.15,262.87Z"/></g><g class="cls-20"><path class="cls-17" d="M351.14,580.31c-94.41,0-171.23-76.82-171.23-171.24s76.82-171.23,171.23-171.23,171.24,76.82,171.24,171.23S445.56,580.31,351.14,580.31Zm0-325.78c-85.21,0-154.54,69.33-154.54,154.54s69.33,154.55,154.54,154.55,154.55-69.33,154.55-154.55S436.36,254.53,351.14,254.53Z"/></g></g></svg>