<svg xmlns="http://www.w3.org/2000/svg" viewBox="0 0 824.38 743.49"><defs><style>.cls-1{fill:none;stroke:#7be9c2;stroke-miterlimit:10;}.cls-2{fill:#eef4f3;}.cls-3{fill:#cba6e8;}.cls-4{fill:#2c2e2e;}.cls-5{fill:#b2bbb9;}.cls-6{opacity:0.5;}.cls-7{opacity:0.6;}.cls-8{font-size:20px;font-family:PTSans-Regular, PT Sans;}.cls-9{letter-spacing:-0.01em;}.cls-10{letter-spacing:0.66em;}.cls-11{letter-spacing:0.66em;}.cls-12{letter-spacing:-0.02em;}.cls-13{letter-spacing:0.61em;}.cls-14{letter-spacing:-0.02em;}.cls-15{letter-spacing:-0.08em;}.cls-16{letter-spacing:0.21em;}.cls-17{letter-spacing:-0.04em;}.cls-18{letter-spacing:0.21em;}.cls-19{letter-spacing:-0.03em;}.cls-20{letter-spacing:0.21em;}.cls-21{letter-spacing:-0.06em;}.cls-22{letter-spacing:-0.04em;}.cls-23{letter-spacing:-0.01em;}.cls-24{letter-spacing:-0.04em;}.cls-25{letter-spacing:0.02em;}.cls-26{letter-spacing:-0.08em;}.cls-27{letter-spacing:0.49em;}.cls-28{letter-spacing:0.45em;}.cls-29{letter-spacing:0.16em;}.cls-30{letter-spacing:0.14em;}.cls-31{letter-spacing:0.11em;}.cls-32{letter-spacing:-0.13em;}.cls-33{letter-spacing:0.16em;}.cls-34{letter-spacing:-0.02em;}.cls-35{letter-spacing:0.08em;}.cls-36{letter-spacing:0.03em;}.cls-37{letter-spacing:0.06em;}.cls-38{letter-spacing:0.08em;}.cls-39{letter-spacing:0em;}.cls-40{letter-spacing:-0.01em;}.cls-41{letter-spacing:-0.02em;}.cls-42{letter-spacing:0.06em;}.cls-43{letter-spacing:0em;}.cls-44{letter-spacing:0.85em;}.cls-45{letter-spacing:-0.02em;}.cls-46{letter-spacing:0.79em;}.cls-47{letter-spacing:0.25em;}.cls-48{letter-spacing:0.25em;}.cls-49{letter-spacing:0.55em;}.cls-50{letter-spacing:0.5em;}.cls-51{letter-spacing:0.55em;}.cls-52{letter-spacing:-0.03em;}.cls-53{letter-spacing:-0.03em;}.cls-54{letter-spacing:-0.03em;}.cls-55{letter-spacing:-0.04em;}.cls-56{letter-spacing:-0.01em;}.cls-57{letter-spacing:0.43em;}.cls-58{letter-spacing:0.43em;}.cls-59{letter-spacing:0.43em;}.cls-60{letter-spacing:-0.01em;}.cls-61{letter-spacing:0.1em;}.cls-62{letter-spacing:0.12em;}.cls-63{letter-spacing:0.12em;}.cls-64{letter-spacing:-0.07em;}.cls-65{letter-spacing:0.46em;}.cls-66{letter-spacing:0.42em;}.cls-67{letter-spacing:0.14em;}.cls-68{letter-spacing:-0.1em;}.cls-69{letter-spacing:0.19em;}.cls-70{letter-spacing:0.19em;}.cls-71{letter-spacing:-0.01em;}.cls-72{letter-spacing:-0.06em;}</style></defs><title>Artboard 18 copy 9things</title><g id="Background"><rect class="cls-1" y="-1.2" width="824.38" height="745.89"/><rect class="cls-2" y="-1.2" width="824.38" height="745.89"/></g><g id="Information"><rect class="cls-3" y="151.31" width="154.88" height="12.68" transform="translate(154.88 315.29) rotate(180)"/><rect class="cls-3" x="287.72" y="151.31" width="536.67" height="12.68"/><path class="cls-4" d="M231.68,164.13a9,9,0,0,1-18,0,2.53,2.53,0,0,1,5.06,0,3.92,3.92,0,1,0,3.91-3.91H217a2.56,2.56,0,0,1-2.53-2.53V144.92a2.56,2.56,0,0,1,2.53-2.53H229.1a2.56,2.56,0,0,1,2.53,2.53,2.45,2.45,0,0,1-.75,1.8,2.41,2.41,0,0,1-1.78.73h-9.53v7.71h3.13a9,9,0,0,1,9,9Z"/><path class="cls-4" d="M323,129.24a1.43,1.43,0,0,1,1.42,1.42,1.32,1.32,0,0,1-.42,1,1.34,1.34,0,0,1-1,.42h-8.66a1.43,1.43,0,0,1-1.42-1.41V116.31a1.35,1.35,0,0,1,.42-1,1.33,1.33,0,0,1,1-.42h0l8.65,0a1.4,1.4,0,0,1,1.42,1.42,1.32,1.32,0,0,1-.42,1,1.34,1.34,0,0,1-1,.42h0l-7.23,0v4.35H321a1.41,1.41,0,1,1,0,2.82h-5.22v4.35Z"/><path class="cls-4" d="M339.58,115.21a1.34,1.34,0,0,1,.57.92,1.36,1.36,0,0,1-.23,1.05l-4.49,6.33,4.49,6.34a1.36,1.36,0,0,1,.23,1.05,1.4,1.4,0,0,1-2.53.57l-3.92-5.53-3.91,5.53a1.34,1.34,0,0,1-1.15.6,1.4,1.4,0,0,1-1.39-1.17,1.36,1.36,0,0,1,.24-1.05l4.49-6.34-4.49-6.33a1.36,1.36,0,0,1-.24-1.05,1.4,1.4,0,0,1,1.63-1.16,1.41,1.41,0,0,1,.91.57l3.91,5.53,3.92-5.53a1.36,1.36,0,0,1,.91-.57A1.32,1.32,0,0,1,339.58,115.21Z"/><path class="cls-4" d="M350.51,114.87a5.38,5.38,0,0,1,3.8,1.47,4.77,4.77,0,0,1,.06,7,5.37,5.37,0,0,1-3.67,1.52h-3.77v5.76a1.41,1.41,0,0,1-2.41,1,1.31,1.31,0,0,1-.41-1V116.28a1.31,1.31,0,0,1,.41-1,1.36,1.36,0,0,1,1-.42Zm.08,7.21a2.68,2.68,0,0,0,1.74-.66,2,2,0,0,0,0-3.08,2.66,2.66,0,0,0-1.8-.64h-3.58v4.38Z"/><path class="cls-4" d="M371.31,119.87a4.59,4.59,0,0,1-1,2.87,5.16,5.16,0,0,1-2.49,1.8l2.72,5.51a1.33,1.33,0,0,1,.06,1.07,1.39,1.39,0,0,1-1.33.95,1.28,1.28,0,0,1-1.25-.79l-3.18-6.43h-2.43v5.72A1.42,1.42,0,0,1,361,132a1.38,1.38,0,0,1-1-.41,1.34,1.34,0,0,1-.41-1V116.29a1.31,1.31,0,0,1,.41-1,1.35,1.35,0,0,1,1-.42h5a5.34,5.34,0,0,1,3.77,1.46A4.68,4.68,0,0,1,371.31,119.87ZM366.06,122a2.67,2.67,0,0,0,1.73-.66,2,2,0,0,0,.7-1.51,2,2,0,0,0-.74-1.54,2.67,2.67,0,0,0-1.78-.63h-3.55V122Z"/><path class="cls-4" d="M385.48,129.24a1.32,1.32,0,0,1,1,.42,1.34,1.34,0,0,1,.42,1,1.43,1.43,0,0,1-1.41,1.41h-8.67a1.43,1.43,0,0,1-1.41-1.41V116.31a1.35,1.35,0,0,1,.42-1,1.32,1.32,0,0,1,1-.42h0l8.66,0a1.38,1.38,0,0,1,1.41,1.42,1.43,1.43,0,0,1-1.41,1.41h0l-7.23,0v4.35h5.22a1.4,1.4,0,0,1,1.42,1.41,1.36,1.36,0,0,1-.42,1,1.39,1.39,0,0,1-1,.41h-5.22v4.35Z"/><path class="cls-4" d="M401.33,127a5,5,0,0,1-1.71,3.63,5.57,5.57,0,0,1-3.88,1.48,7.33,7.33,0,0,1-3.5-.83,4.54,4.54,0,0,1-2.35-2.93,1.36,1.36,0,0,1,.14-1.06,1.41,1.41,0,0,1,1.93-.5,1.33,1.33,0,0,1,.64.86,2,2,0,0,0,1.18,1.26,4.7,4.7,0,0,0,2,.39,2.84,2.84,0,0,0,1.93-.71,2.31,2.31,0,0,0,.86-1.72,1.5,1.5,0,0,0-.44-1.11,3.39,3.39,0,0,0-2.49-.82h-.06a6,6,0,0,1-4.49-1.69,4.14,4.14,0,0,1-1.2-3.17,5.06,5.06,0,0,1,1.71-3.64,5.53,5.53,0,0,1,3.88-1.48,7.22,7.22,0,0,1,3.5.84,4.52,4.52,0,0,1,2.35,2.92,1.41,1.41,0,0,1-1,1.71,1.43,1.43,0,0,1-1.07-.14,1.35,1.35,0,0,1-.64-.87,2,2,0,0,0-1.19-1.25,4.5,4.5,0,0,0-1.95-.4,2.87,2.87,0,0,0-1.94.71,2.37,2.37,0,0,0-.85,1.72,1.52,1.52,0,0,0,.44,1.13,3.43,3.43,0,0,0,2.49.8h.06a6,6,0,0,1,4.49,1.7A4.13,4.13,0,0,1,401.33,127Z"/><path class="cls-4" d="M416.53,127a5,5,0,0,1-1.71,3.63,5.55,5.55,0,0,1-3.88,1.48,7.29,7.29,0,0,1-3.49-.83,4.53,4.53,0,0,1-2.36-2.93,1.4,1.4,0,0,1,2.72-.7,2,2,0,0,0,1.17,1.26,4.73,4.73,0,0,0,2,.39,2.82,2.82,0,0,0,1.93-.71,2.31,2.31,0,0,0,.86-1.72,1.46,1.46,0,0,0-.44-1.11,3.36,3.36,0,0,0-2.49-.82h-.06a6,6,0,0,1-4.49-1.69,4.22,4.22,0,0,1-1.2-3.17,5.11,5.11,0,0,1,1.72-3.64,5.51,5.51,0,0,1,3.87-1.48,7.19,7.19,0,0,1,3.5.84,4.54,4.54,0,0,1,2.36,2.92,1.36,1.36,0,0,1-.16,1.06,1.3,1.3,0,0,1-.85.65,1.4,1.4,0,0,1-1.06-.14,1.37,1.37,0,0,1-.65-.87,2,2,0,0,0-1.18-1.25,4.52,4.52,0,0,0-2-.4,2.84,2.84,0,0,0-1.93.71,2.33,2.33,0,0,0-.85,1.72,1.52,1.52,0,0,0,.44,1.13,3.4,3.4,0,0,0,2.49.8h.06a6,6,0,0,1,4.49,1.7A4.16,4.16,0,0,1,416.53,127Z"/><path class="cls-4" d="M422.45,132.07a1.43,1.43,0,0,1-1.41-1.41V116.38a1.41,1.41,0,0,1,2.82,0v14.28a1.43,1.43,0,0,1-1.41,1.41Z"/><path class="cls-4" d="M440.48,131.53h0l-8.61-11.07v10.21a1.42,1.42,0,0,1-2.83,0V116.32a1.34,1.34,0,0,1,.27-.82A1.37,1.37,0,0,1,430,115a1.33,1.33,0,0,1,.86,0,1.31,1.31,0,0,1,.71.49l8.61,11.08V116.32a1.38,1.38,0,0,1,.4-1,1.41,1.41,0,0,1,1-.41,1.42,1.42,0,0,1,1.41,1.41v14.36a.28.28,0,0,1,0,.08v.06a.23.23,0,0,1,0,.07s0,.05,0,.07l0,.06a.1.1,0,0,1,0,.07l0,.06a.24.24,0,0,1,0,.07l0,.06,0,.06,0,.08,0,0a.23.23,0,0,1-.05.07l0,0-.05.05-.05,0a.11.11,0,0,1-.05,0,.13.13,0,0,1-.06,0s0,0,0,0v0l-.18.12h0l-.19.08h0a.65.65,0,0,1-.2.05h-.42l-.12,0h0l-.09,0-.05,0-.1,0,0,0-.09,0-.05,0-.08-.06-.05,0-.11-.1h0l-.05,0Z"/><path class="cls-4" d="M455.72,132a8.57,8.57,0,1,1,5.21-15.36,1.39,1.39,0,0,1,.26,2,1.36,1.36,0,0,1-.93.54,1.33,1.33,0,0,1-1.06-.27,5.72,5.72,0,0,0-7.54.49,5.73,5.73,0,0,0,7.91,8.28l.09-.07v-3.14H455a1.4,1.4,0,0,1-1.43-1.41,1.43,1.43,0,0,1,1.43-1.42h6.1a1.38,1.38,0,0,1,1,.42,1.34,1.34,0,0,1,.42,1l0,7.59a1.43,1.43,0,0,1-1.41,1.41h0a1.34,1.34,0,0,1-.86-.3,1.33,1.33,0,0,1-.5-.73A8.41,8.41,0,0,1,455.72,132Z"/><path class="cls-4" d="M490.16,115.27a1.36,1.36,0,0,1,.53.93,1.39,1.39,0,0,1-.31,1l-5.19,6.49v6.93a1.38,1.38,0,0,1-.42,1,1.43,1.43,0,0,1-2,0,1.38,1.38,0,0,1-.42-1v-6.93l-5.19-6.49a1.38,1.38,0,0,1-.3-1,1.32,1.32,0,0,1,.52-.93,1.36,1.36,0,0,1,1-.32,1.45,1.45,0,0,1,.95.53l4.39,5.51,4.41-5.51a1.39,1.39,0,0,1,.93-.53A1.36,1.36,0,0,1,490.16,115.27Z"/><path class="cls-4" d="M501.63,132.07a8.6,8.6,0,1,1,6.08-2.52A8.27,8.27,0,0,1,501.63,132.07Zm0-14.36a5.77,5.77,0,1,0,4.08,1.69A5.53,5.53,0,0,0,501.63,117.71Z"/><path class="cls-4" d="M525,114.91a1.38,1.38,0,0,1,1.39,1.38v9.65a6.13,6.13,0,1,1-12.25,0v-9.65a1.39,1.39,0,1,1,2.78,0v9.65a3.36,3.36,0,0,0,3.35,3.36,3.36,3.36,0,0,0,3.34-3.36v-9.65a1.38,1.38,0,0,1,1.39-1.38Z"/><path class="cls-4" d="M542.88,119.87a4.58,4.58,0,0,1-1,2.87,5.16,5.16,0,0,1-2.49,1.8l2.72,5.51a1.33,1.33,0,0,1,.06,1.07,1.39,1.39,0,0,1-1.33.95,1.31,1.31,0,0,1-1.26-.79l-3.17-6.43H534v5.72a1.41,1.41,0,0,1-2.81,0V116.29a1.31,1.31,0,0,1,.41-1,1.34,1.34,0,0,1,1-.42h5a5.34,5.34,0,0,1,3.77,1.46A4.67,4.67,0,0,1,542.88,119.87ZM537.64,122a2.67,2.67,0,0,0,1.73-.66,2,2,0,0,0,.7-1.51,2,2,0,0,0-.74-1.54,2.67,2.67,0,0,0-1.78-.63H534V122Z"/><path class="cls-4" d="M557.69,127a5,5,0,0,1-1.71,3.63,5.55,5.55,0,0,1-3.88,1.48,7.29,7.29,0,0,1-3.49-.83,4.53,4.53,0,0,1-2.36-2.93,1.36,1.36,0,0,1,.14-1.06,1.41,1.41,0,0,1,1.93-.5,1.35,1.35,0,0,1,.65.86,2,2,0,0,0,1.17,1.26,4.7,4.7,0,0,0,2,.39,2.82,2.82,0,0,0,1.93-.71,2.31,2.31,0,0,0,.86-1.72,1.46,1.46,0,0,0-.44-1.11,3.39,3.39,0,0,0-2.49-.82h-.06a6,6,0,0,1-4.49-1.69,4.22,4.22,0,0,1-1.2-3.17,5.11,5.11,0,0,1,1.72-3.64,5.51,5.51,0,0,1,3.87-1.48,7.22,7.22,0,0,1,3.5.84,4.54,4.54,0,0,1,2.36,2.92,1.36,1.36,0,0,1-.16,1.06,1.3,1.3,0,0,1-.85.65,1.4,1.4,0,0,1-1.06-.14,1.37,1.37,0,0,1-.65-.87,2,2,0,0,0-1.18-1.25,4.52,4.52,0,0,0-2-.4,2.88,2.88,0,0,0-1.94.71,2.4,2.4,0,0,0-.85,1.72,1.57,1.57,0,0,0,.45,1.13,3.4,3.4,0,0,0,2.49.8H552a6,6,0,0,1,4.49,1.7A4.16,4.16,0,0,1,557.69,127Z"/><path class="cls-4" d="M572.26,129.24a1.43,1.43,0,0,1,1.42,1.42,1.32,1.32,0,0,1-.42,1,1.34,1.34,0,0,1-1,.42H563.6a1.43,1.43,0,0,1-1.42-1.41V116.31a1.35,1.35,0,0,1,.42-1,1.33,1.33,0,0,1,1-.42h0l8.65,0a1.4,1.4,0,0,1,1.42,1.42,1.32,1.32,0,0,1-.42,1,1.34,1.34,0,0,1-1,.42h0l-7.23,0v4.35h5.22a1.4,1.4,0,0,1,1,.4,1.38,1.38,0,0,1,.42,1,1.36,1.36,0,0,1-.42,1,1.41,1.41,0,0,1-1,.41H565v4.35Z"/><path class="cls-4" d="M578.85,114.91a1.42,1.42,0,0,1,1.41,1.41v12.93h6.33a1.38,1.38,0,0,1,1,.42,1.4,1.4,0,0,1,0,2,1.38,1.38,0,0,1-1,.42h-7.74a1.42,1.42,0,0,1-1.41-1.41V116.32a1.4,1.4,0,0,1,1.41-1.41Z"/><path class="cls-4" d="M601.21,114.91a1.38,1.38,0,0,1,1.41,1.42,1.42,1.42,0,0,1-1.41,1.41h0l-7.23,0v4.35h5.22a1.4,1.4,0,0,1,1.42,1.41,1.36,1.36,0,0,1-.42,1,1.39,1.39,0,0,1-1,.41H594v5.77a1.32,1.32,0,0,1-.42,1,1.38,1.38,0,0,1-1,.42,1.43,1.43,0,0,1-1.41-1.41V116.31a1.35,1.35,0,0,1,.42-1,1.32,1.32,0,0,1,1-.42h0Z"/><path class="cls-5" d="M315.48,192.91a1.39,1.39,0,0,1-.77-.77,1.35,1.35,0,0,1,0-1.08l1.53-3.68h0l4.43-10.7.06-.12,0-.06a.25.25,0,0,1,.05-.07l0-.06.05,0s0,0,0,0l.05-.06s0,0,0,0l.06,0,.05,0,.06-.05.05,0,.07,0,.09,0,0,0,.05,0,.09,0,.08,0h.6l.09,0c.05,0,.06,0,.05,0a.85.85,0,0,1,.26.11l.05,0,.07,0,.05,0,.06,0,.05,0,.06.05,0,0s.05.05.05.06l0,0,.05.06a.26.26,0,0,0,0,.07s0,0,0,.06l.06.12,4.43,10.7h0l1.53,3.68a1.35,1.35,0,0,1,0,1.08,1.39,1.39,0,0,1-.77.77,1.41,1.41,0,0,1-.54.11,1.31,1.31,0,0,1-1.31-.88l-1.16-2.8h-7l-1.15,2.8A1.31,1.31,0,0,1,316,193h-.27Zm8.82-6.4L322,180.92l-2.32,5.59Z"/><path class="cls-5" d="M338.33,175.7a5.42,5.42,0,0,1,3.82,1.48,4.81,4.81,0,0,1,.06,7.09,5.41,5.41,0,0,1-3.69,1.53h-3.79v5.8a1.39,1.39,0,0,1-.41,1,1.4,1.4,0,0,1-1,.42,1.43,1.43,0,0,1-1.42-1.42V177.12a1.43,1.43,0,0,1,1.42-1.42Zm.08,7.26a2.64,2.64,0,0,0,1.75-.67,2,2,0,0,0,0-3.09,2.63,2.63,0,0,0-1.81-.65h-3.6V183Z"/><path class="cls-5" d="M358.42,180.74a4.61,4.61,0,0,1-1,2.88,5.19,5.19,0,0,1-2.51,1.82l2.74,5.54a1.44,1.44,0,0,1-.65,1.89,1.39,1.39,0,0,1-.63.15,1.3,1.3,0,0,1-1.26-.8l-3.2-6.47h-2.44v5.75a1.33,1.33,0,0,1-.43,1,1.36,1.36,0,0,1-1,.41,1.41,1.41,0,0,1-1-.41,1.39,1.39,0,0,1-.41-1V177.14a1.43,1.43,0,0,1,1.41-1.43h5a5.36,5.36,0,0,1,3.8,1.47A4.7,4.7,0,0,1,358.42,180.74Zm-5.28,2.18a2.67,2.67,0,0,0,1.73-.66,2,2,0,0,0,0-3.07,2.66,2.66,0,0,0-1.8-.64h-3.56v4.37Z"/><path class="cls-5" d="M362.89,193a1.33,1.33,0,0,1-1-.42,1.36,1.36,0,0,1-.42-1V177.22a1.34,1.34,0,0,1,.42-1,1.33,1.33,0,0,1,1-.42,1.43,1.43,0,0,1,1.42,1.42V191.6a1.36,1.36,0,0,1-.42,1A1.34,1.34,0,0,1,362.89,193Z"/><path class="cls-5" d="M369.55,175.74a1.33,1.33,0,0,1,1,.42,1.34,1.34,0,0,1,.42,1v13h6.38a1.38,1.38,0,0,1,1,.42,1.36,1.36,0,0,1,.41,1,1.42,1.42,0,0,1-1.42,1.42h-7.8a1.43,1.43,0,0,1-1.42-1.42V177.16a1.34,1.34,0,0,1,.42-1A1.36,1.36,0,0,1,369.55,175.74Z"/><path class="cls-5" d="M393.21,182.94a5,5,0,1,1-3.56,8.6,5,5,0,0,1-1.21-5.17s0,0,0,0v0a.14.14,0,0,0,0-.07l3.39-9.55a1.42,1.42,0,0,1,2.62-.15,1.49,1.49,0,0,1,.06,1.1l-1.9,5.35A5.27,5.27,0,0,1,393.21,182.94Zm0,7.24a2.19,2.19,0,0,0,2.19-2.2,2.19,2.19,0,0,0-2.19-2.19A2.19,2.19,0,0,0,391,188a2.19,2.19,0,0,0,2.2,2.2Z"/><path class="cls-5" d="M404.51,187.85a1.42,1.42,0,0,1,1.42,1.41v2.25a1.36,1.36,0,0,1-.42,1,1.32,1.32,0,0,1-1,.41,1.37,1.37,0,0,1-1-.41,1.39,1.39,0,0,1-.41-1v-2.25a1.39,1.39,0,0,1,.41-1A1.41,1.41,0,0,1,404.51,187.85Z"/><path class="cls-5" d="M428.4,191.6A1.45,1.45,0,0,1,427,193h-7.26a1.33,1.33,0,0,1-1.26-.76,1.35,1.35,0,0,1,.09-1.47l6.42-9.34a1.94,1.94,0,0,0,.15-.76,2,2,0,0,0-.63-1.5,2.12,2.12,0,0,0-3,0,2,2,0,0,0-.63,1.5c0,.05,0,.1,0,.15a1.29,1.29,0,0,1-.36,1,1.31,1.31,0,0,1-1,.48A1.42,1.42,0,0,1,418,181c0-.12,0-.22,0-.33a5,5,0,1,1,9.94,0,4.9,4.9,0,0,1-.43,2l-.12.22-5,7.24H427a1.35,1.35,0,0,1,1,.4A1.38,1.38,0,0,1,428.4,191.6Z"/><path class="cls-5" d="M437.25,175.77a5,5,0,0,1,5,5V188a5,5,0,0,1-10,0V180.8a5,5,0,0,1,5-5Zm2.2,5a2.19,2.19,0,0,0-.64-1.56,2.17,2.17,0,0,0-1.56-.63,2.12,2.12,0,0,0-1.54.63,2.19,2.19,0,0,0-.64,1.56V188a2.19,2.19,0,0,0,2.18,2.18,2.18,2.18,0,0,0,1.56-.64,2.13,2.13,0,0,0,.64-1.54Z"/><path class="cls-5" d="M449.05,179.91a1.42,1.42,0,0,1-1-2.68l3.71-1.35a1.38,1.38,0,0,1,1.3.18,1.34,1.34,0,0,1,.6,1.16V191.6a1.35,1.35,0,0,1-.41,1,1.38,1.38,0,0,1-1,.42,1.34,1.34,0,0,1-1-.42,1.36,1.36,0,0,1-.42-1V179.24Z"/><path class="cls-5" d="M470.62,180.8a4.83,4.83,0,0,1-1.53,3.6,5,5,0,1,1-7,0,5,5,0,1,1,8.51-3.6Zm-7.2,0a2.18,2.18,0,0,0,3.73,1.54,2.08,2.08,0,0,0,.64-1.54,2.17,2.17,0,0,0-2.19-2.19,2.13,2.13,0,0,0-1.55.63A2.18,2.18,0,0,0,463.42,180.8Zm4.37,7.21a2.12,2.12,0,0,0-.64-1.56,2.18,2.18,0,0,0-3.73,1.56,2.17,2.17,0,0,0,2.18,2.18,2.15,2.15,0,0,0,1.55-.64A2.09,2.09,0,0,0,467.79,188Z"/><path class="cls-2" d="M223.25,82.8A75.23,75.23,0,1,1,148,158,75.32,75.32,0,0,1,223.25,82.8Zm0,136.48A61.25,61.25,0,1,0,162,158,61.32,61.32,0,0,0,223.25,219.28Z"/><g class="cls-6"><path class="cls-3" d="M223.25,82.8A75.23,75.23,0,1,1,148,158,75.32,75.32,0,0,1,223.25,82.8Zm0,136.48A61.25,61.25,0,1,0,162,158,61.32,61.32,0,0,0,223.25,219.28Z"/></g><g class="cls-7"><path class="cls-3" d="M223.25,86.3A71.74,71.74,0,1,1,151.51,158,71.81,71.81,0,0,1,223.25,86.3Zm0,136.48A64.75,64.75,0,1,0,158.5,158,64.82,64.82,0,0,0,223.25,222.78Z"/></g><text class="cls-8" transform="translate(259.73 277.29)">Appr<tspan class="cls-9" x="40.14" y="0">e</tspan><tspan x="50.08" y="0">cia</tspan><tspan class="cls-9" x="74.38" y="0">t</tspan><tspan x="80.94" y="0">e</tspan><tspan class="cls-10" x="91.1" y="0"> </tspan><tspan x="109.59" y="0">and</tspan><tspan class="cls-11" x="141.21" y="0"> </tspan><tspan class="cls-12" x="159.7" y="0">e</tspan><tspan x="169.4" y="0">xpress</tspan><tspan class="cls-13" x="224.32" y="0"> </tspan><tspan class="cls-9" x="241.85" y="0">y</tspan><tspan x="250.95" y="0">oursel</tspan><tspan class="cls-14" x="303.67" y="0">f</tspan><tspan class="cls-15" x="309.57" y="0">.</tspan><tspan x="312.29" y="0"> </tspan><tspan x="0" y="24">Spend</tspan><tspan class="cls-16" x="53.3" y="24"> </tspan><tspan x="62.87" y="24">time</tspan><tspan class="cls-16" x="101.41" y="24"> </tspan><tspan x="110.98" y="24">awa</tspan><tspan class="cls-17" x="145.52" y="24">y</tspan><tspan class="cls-16" x="154.12" y="24"> </tspan><tspan x="163.69" y="24">from</tspan><tspan class="cls-18" x="203.83" y="24"> </tspan><tspan class="cls-9" x="213.4" y="24">w</tspan><tspan x="227.88" y="24">or</tspan><tspan class="cls-19" x="245.4" y="24">k</tspan><tspan class="cls-20" x="254.38" y="24"> </tspan><tspan class="cls-9" x="263.96" y="24">t</tspan><tspan x="270.52" y="24">o</tspan><tspan class="cls-20" x="281.24" y="24"> </tspan><tspan x="290.81" y="24">do </tspan><tspan x="0" y="48">things</tspan><tspan class="cls-21" x="53.18" y="48"> </tspan><tspan class="cls-9" x="57.4" y="48">y</tspan><tspan x="66.5" y="48">ou</tspan><tspan class="cls-22" x="88" y="48"> </tspan><tspan x="92.45" y="48">li</tspan><tspan class="cls-23" x="103.65" y="48">k</tspan><tspan x="112.99" y="48">e</tspan><tspan class="cls-15" x="123.15" y="48">,</tspan><tspan class="cls-24" x="125.49" y="48"> </tspan><tspan x="129.94" y="48">get</tspan><tspan class="cls-22" x="157.62" y="48"> </tspan><tspan x="162.07" y="48">res</tspan><tspan class="cls-25" x="187.45" y="48">t</tspan><tspan class="cls-26" x="194.55" y="48">.</tspan><tspan class="cls-24" x="197.27" y="48"> </tspan><tspan x="201.72" y="48">Ha</tspan><tspan class="cls-9" x="225.08" y="48">v</tspan><tspan x="234.5" y="48">e</tspan><tspan class="cls-22" x="244.66" y="48"> </tspan><tspan x="249.11" y="48">health</tspan><tspan class="cls-17" x="303.69" y="48">y</tspan><tspan x="312.29" y="48"> </tspan><tspan x="0" y="72">boundaries</tspan><tspan class="cls-27" x="94.66" y="72"> </tspan><tspan x="109.77" y="72">bet</tspan><tspan class="cls-9" x="137.51" y="72">we</tspan><tspan x="161.93" y="72">en</tspan><tspan class="cls-28" x="183.03" y="72"> </tspan><tspan class="cls-9" x="197.36" y="72">y</tspan><tspan x="206.46" y="72">ourself</tspan><tspan class="cls-27" x="265.55" y="72"> </tspan><tspan x="280.67" y="72">and </tspan><tspan x="0" y="96">those</tspan><tspan class="cls-29" x="47.02" y="96"> </tspan><tspan x="55.52" y="96">around</tspan><tspan class="cls-30" x="115.44" y="96"> </tspan><tspan class="cls-9" x="123.5" y="96">y</tspan><tspan x="132.6" y="96">ou</tspan><tspan class="cls-15" x="154.1" y="96">.</tspan><tspan class="cls-31" x="156.82" y="96"> </tspan><tspan class="cls-32" x="164.34" y="96">T</tspan><tspan x="172.88" y="96">ell</tspan><tspan class="cls-29" x="194.72" y="96"> </tspan><tspan x="203.22" y="96">others</tspan><tspan class="cls-33" x="257.04" y="96"> </tspan><tspan x="265.55" y="96">when </tspan><tspan x="0" y="120">th</tspan><tspan class="cls-34" x="17.72" y="120">e</tspan><tspan class="cls-17" x="27.44" y="120">y</tspan><tspan class="cls-35" x="36.04" y="120"> </tspan><tspan x="42.94" y="120">hu</tspan><tspan class="cls-36" x="64.66" y="120">r</tspan><tspan x="72.06" y="120">t</tspan><tspan class="cls-37" x="78.84" y="120"> </tspan><tspan class="cls-9" x="85.38" y="120">y</tspan><tspan x="94.48" y="120">ou</tspan><tspan class="cls-26" x="115.98" y="120">.</tspan><tspan class="cls-38" x="118.7" y="120"> </tspan><tspan class="cls-39" x="125.6" y="120">Express</tspan><tspan class="cls-38" x="191.24" y="120"> </tspan><tspan x="198.15" y="120">h</tspan><tspan class="cls-40" x="209.09" y="120">o</tspan><tspan class="cls-41" x="219.59" y="120">w</tspan><tspan class="cls-42" x="233.81" y="120"> </tspan><tspan class="cls-9" x="240.35" y="120">y</tspan><tspan x="249.45" y="120">ou</tspan><tspan class="cls-35" x="270.95" y="120"> </tspan><tspan class="cls-9" x="277.85" y="120">fe</tspan><tspan x="293.95" y="120">el</tspan><tspan class="cls-26" x="309.95" y="120">,</tspan><tspan class="cls-43" x="312.29" y="120"> </tspan><tspan x="0" y="144">don’t</tspan><tspan class="cls-44" x="43.08" y="144"> </tspan><tspan x="65.37" y="144">dehumani</tspan><tspan class="cls-45" x="150.47" y="144">z</tspan><tspan x="159.09" y="144">e</tspan><tspan class="cls-46" x="169.25" y="144"> </tspan><tspan class="cls-9" x="190.38" y="144">y</tspan><tspan x="199.48" y="144">oursel</tspan><tspan class="cls-14" x="252.2" y="144">f</tspan><tspan class="cls-15" x="258.1" y="144">.</tspan><tspan class="cls-44" x="260.82" y="144"> </tspan><tspan x="283.11" y="144">Get </tspan><tspan x="0" y="168">out</tspan><tspan class="cls-47" x="28.28" y="168"> </tspan><tspan class="cls-23" x="38.67" y="168">o</tspan><tspan class="cls-39" x="49.15" y="168">f</tspan><tspan class="cls-47" x="55.53" y="168"> </tspan><tspan x="65.93" y="168">situations</tspan><tspan class="cls-48" x="149.4" y="168"> </tspan><tspan class="cls-43" x="159.8" y="168">and</tspan><tspan class="cls-47" x="191.42" y="168"> </tspan><tspan x="201.81" y="168">relationships </tspan><tspan x="0" y="192">that</tspan><tspan class="cls-49" x="34.42" y="192"> </tspan><tspan x="50.66" y="192">abuse</tspan><tspan class="cls-50" x="100.74" y="192"> </tspan><tspan class="cls-9" x="116.13" y="192">y</tspan><tspan x="125.23" y="192">our</tspan><tspan class="cls-51" x="153.53" y="192"> </tspan><tspan x="169.77" y="192">boundaries</tspan><tspan class="cls-51" x="264.43" y="192"> </tspan><tspan x="280.67" y="192">and </tspan><tspan x="0" y="216">self-</tspan><tspan class="cls-9" x="38" y="216">w</tspan><tspan x="52.48" y="216">o</tspan><tspan class="cls-36" x="63.2" y="216">r</tspan><tspan x="70.6" y="216">th</tspan><tspan class="cls-15" x="88.32" y="216">.</tspan><tspan class="cls-52" x="91.04" y="216"> </tspan><tspan class="cls-53" x="95.74" y="216">P</tspan><tspan class="cls-39" x="106.22" y="216">a</tspan><tspan class="cls-17" x="116.14" y="216">y</tspan><tspan class="cls-52" x="124.74" y="216"> </tspan><tspan x="129.45" y="216">at</tspan><tspan class="cls-9" x="146.15" y="216">t</tspan><tspan x="152.71" y="216">ention</tspan><tspan class="cls-54" x="207.6" y="216"> </tspan><tspan class="cls-9" x="212.31" y="216">t</tspan><tspan x="218.87" y="216">o</tspan><tspan class="cls-55" x="229.59" y="216"> </tspan><tspan class="cls-9" x="234.05" y="216">y</tspan><tspan class="cls-43" x="243.15" y="216">our</tspan><tspan class="cls-54" x="271.45" y="216"> </tspan><tspan class="cls-56" x="276.15" y="216">o</tspan><tspan x="286.65" y="216">wn </tspan><tspan x="0" y="240">n</tspan><tspan class="cls-9" x="10.94" y="240">e</tspan><tspan x="20.88" y="240">eds</tspan><tspan class="cls-15" x="50.22" y="240">.</tspan><tspan class="cls-57" x="52.94" y="240"> </tspan><tspan x="66.88" y="240">Be</tspan><tspan class="cls-58" x="88.72" y="240"> </tspan><tspan class="cls-12" x="102.65" y="240">c</tspan><tspan class="cls-39" x="111.21" y="240">om</tspan><tspan class="cls-40" x="138.17" y="240">f</tspan><tspan class="cls-43" x="144.33" y="240">o</tspan><tspan class="cls-36" x="155.05" y="240">r</tspan><tspan x="162.45" y="240">table</tspan><tspan class="cls-57" x="205.95" y="240"> </tspan><tspan x="219.89" y="240">saying</tspan><tspan class="cls-59" x="274.59" y="240"> </tspan><tspan x="288.53" y="240">n</tspan><tspan class="cls-60" x="299.47" y="240">o</tspan><tspan class="cls-15" x="309.95" y="240">,</tspan><tspan x="312.29" y="240" xml:space="preserve"> </tspan><tspan x="0" y="264">resp</tspan><tspan class="cls-9" x="36.2" y="264">e</tspan><tspan x="46.14" y="264">ct</tspan><tspan class="cls-61" x="61.94" y="264"> </tspan><tspan class="cls-9" x="69.25" y="264">y</tspan><tspan x="78.35" y="264">our</tspan><tspan class="cls-62" x="106.65" y="264"> </tspan><tspan x="114.36" y="264">time</tspan><tspan class="cls-62" x="152.9" y="264"> </tspan><tspan x="160.61" y="264">and</tspan><tspan class="cls-63" x="192.23" y="264"> </tspan><tspan x="199.94" y="264">energ</tspan><tspan class="cls-64" x="248.74" y="264">y</tspan><tspan class="cls-26" x="256.62" y="264">.</tspan><tspan class="cls-62" x="259.34" y="264"> </tspan><tspan x="267.05" y="264">Ma</tspan><tspan class="cls-60" x="292.79" y="264">k</tspan><tspan x="302.13" y="264">e </tspan><tspan x="0" y="288">good</tspan><tspan class="cls-65" x="42.94" y="288"> </tspan><tspan x="57.47" y="288">choi</tspan><tspan class="cls-12" x="93.51" y="288">c</tspan><tspan x="102.07" y="288">es</tspan><tspan class="cls-65" x="120.65" y="288"> </tspan><tspan x="135.19" y="288">with</tspan><tspan class="cls-66" x="172.96" y="288"> </tspan><tspan class="cls-9" x="186.74" y="288">y</tspan><tspan x="195.84" y="288">our</tspan><tspan class="cls-65" x="224.14" y="288"> </tspan><tspan x="238.67" y="288">personal </tspan><tspan x="0" y="312">fr</tspan><tspan class="cls-9" x="13.18" y="312">e</tspan><tspan x="23.12" y="312">edom</tspan><tspan class="cls-15" x="71" y="312">.</tspan><tspan class="cls-67" x="73.72" y="312"> </tspan><tspan class="cls-68" x="81.76" y="312">T</tspan><tspan x="90.76" y="312">a</tspan><tspan class="cls-60" x="100.68" y="312">k</tspan><tspan x="110.02" y="312">e</tspan><tspan class="cls-69" x="120.18" y="312"> </tspan><tspan x="129.28" y="312">time</tspan><tspan class="cls-69" x="167.82" y="312"> </tspan><tspan x="176.92" y="312">each</tspan><tspan class="cls-70" x="216.95" y="312"> </tspan><tspan x="226.05" y="312">da</tspan><tspan class="cls-17" x="246.73" y="312">y</tspan><tspan class="cls-70" x="255.33" y="312"> </tspan><tspan class="cls-9" x="264.43" y="312">t</tspan><tspan x="270.99" y="312">o</tspan><tspan class="cls-70" x="281.71" y="312"> </tspan><tspan x="290.81" y="312">do </tspan><tspan x="0" y="336">something </tspan><tspan class="cls-9" x="95.64" y="336">f</tspan><tspan x="101.8" y="336">or</tspan><tspan class="cls-71" x="119.32" y="336"> </tspan><tspan class="cls-9" x="124.38" y="336">y</tspan><tspan x="133.48" y="336">oursel</tspan><tspan class="cls-14" x="186.2" y="336">f</tspan><tspan class="cls-15" x="192.1" y="336">.</tspan><tspan x="194.82" y="336"> </tspan><tspan class="cls-72" x="200.16" y="336">L</tspan><tspan class="cls-23" x="209.32" y="336">o</tspan><tspan class="cls-9" x="219.8" y="336">v</tspan><tspan x="229.22" y="336">e</tspan><tspan class="cls-71" x="239.38" y="336"> </tspan><tspan class="cls-9" x="244.44" y="336">y</tspan><tspan x="253.54" y="336">oursel</tspan><tspan class="cls-14" x="306.26" y="336">f</tspan><tspan class="cls-15" x="312.16" y="336">.</tspan></text></g></svg>