<svg xmlns="http://www.w3.org/2000/svg" viewBox="0 0 332.22 326.11"><defs><style>.cls-1,.cls-2{fill:#eef4f3;}.cls-1{stroke:#eef4f3;stroke-miterlimit:10;stroke-width:8px;}.cls-2{fill-rule:evenodd;}</style></defs><title>Artboard 12Web</title><g id="Info"><path class="cls-1" d="M166.11,25A138.1,138.1,0,1,1,68.47,65.49,137.58,137.58,0,0,1,166.11,25Zm90.07,48.1a127.46,127.46,0,1,0,37.24,90,127.2,127.2,0,0,0-37.24-90Z"/><path class="cls-2" d="M176.66,134.92V123.6c0-5.43,3.6-6.73,6.2-6.73h15.83V92.71h-21.8c-24.23,0-29.66,17.89-29.66,29.52v12.69H133.16v28.21h14.22v70.5h28.21v-70.5h20.88l.92-11.08,1.68-17.13Z"/></g></svg>