<svg id="Layer_1" data-name="Layer 1" xmlns="http://www.w3.org/2000/svg" viewBox="0 0 997.37 575.41"><defs><style>.cls-1{fill:#7be9c2;}</style></defs><title>Artboard 36final</title><path class="cls-1" d="M139,488.13c-1.2.26-2.13.43-3.07.56h-.07a8.77,8.77,0,0,1-5.94-3.09c-1.08-1.23-2.87.57-1.8,1.8a10.92,10.92,0,0,0,1.77,1.62c-1.27,0-2.54-.07-3.82-.19-2.39-.21-4.68,2.26-4.58,4.58A4.7,4.7,0,0,0,126,498a49.92,49.92,0,0,0,9.23-.05c2.27-.23,6.8-.73,2,4.11-1.92,1.92-3.79,3.66-5.51,5.14a2,2,0,0,1-2.56,0,106.8,106.8,0,0,1-17.52-19.44,3.69,3.69,0,0,1,3.48-5.73c7.26.84,14.74.52,22,.09,2.39-.14,4.69-2,4.58-4.58-.11-2.36-2-4.73-4.58-4.58-1.58.09-3.16.19-4.74.26a9.05,9.05,0,0,0,1.27-1.74,1.28,1.28,0,0,0-2.2-1.29,6,6,0,0,1-5.33,3.23l-.23,0a82.87,82.87,0,0,1-9-.33c-1.42-.15-2-.23-3.55-.51a45.13,45.13,0,0,1-4.43-1h0a5.84,5.84,0,0,1-3.92-7.5,13.13,13.13,0,0,1,3.6-5.42c13.52-12.48,21.88,4.54,21.88,4.54s8.33-16.88,22-4.54c7.34,6.64,5.14,20.3-1.29,24.83h0A40.93,40.93,0,0,1,139,488.13Z"/><path class="cls-1" d="M68.75,454.13a4.49,4.49,0,0,1,4.43,4.43v40.57H93.05a4.43,4.43,0,1,1,0,8.86H68.75a4.47,4.47,0,0,1-4.43-4.43v-45a4.49,4.49,0,0,1,4.43-4.43Z"/><path class="cls-1" d="M204.78,454.58a4.17,4.17,0,0,1,2.52,2.26,4.25,4.25,0,0,1,.19,3.37L191.75,505v0c-.07.18-.16.36-.26.56a.62.62,0,0,1-.08.12c-.1.17-.2.34-.3.48,0,0,0,0-.07.12l-.38.37c-.07.08-.1.1-.07.08a4.45,4.45,0,0,1-.45.37c.05,0,0,0-.08.08a2.54,2.54,0,0,1-.49.26l-.07,0a4.32,4.32,0,0,1-.45.19l-.08,0a2.29,2.29,0,0,1-.48.11l-.19,0a3.69,3.69,0,0,1-1.43,0l-.19,0a2.4,2.4,0,0,1-.49-.11l-.07,0a4.32,4.32,0,0,1-.45-.19l-.11,0a3.57,3.57,0,0,1-.46-.26l0,0,0,0a1.49,1.49,0,0,1-.45-.37s0,0-.11-.08a3.81,3.81,0,0,1-.34-.37s-.08-.09-.08-.12-.2-.31-.3-.48a.63.63,0,0,1-.07-.12c-.1-.2-.19-.38-.27-.56v0l-15.73-44.81a4.29,4.29,0,0,1,.18-3.37,4.23,4.23,0,0,1,2.52-2.26,4.28,4.28,0,0,1,3.38.19,4.16,4.16,0,0,1,2.25,2.52l11.57,32.93,11.57-32.93a4.17,4.17,0,0,1,2.26-2.52l1.65-.79Z"/><path class="cls-1" d="M250.76,499.09a4.23,4.23,0,0,1,3.12,1.31,4.34,4.34,0,0,1,1.31,3.16,4.47,4.47,0,0,1-4.43,4.43h-27.2a4.49,4.49,0,0,1-4.43-4.43v-45a4.21,4.21,0,0,1,1.32-3.16,4.16,4.16,0,0,1,3.11-1.31h0l27.16.07a4.28,4.28,0,0,1,3.15,1.32,4.35,4.35,0,0,1,1.28,3.15,4.47,4.47,0,0,1-4.43,4.43h0L228,463v13.63h16.38a4.39,4.39,0,0,1,3.16,1.28,4.45,4.45,0,0,1,0,6.31,4.39,4.39,0,0,1-3.16,1.28H228v13.63Z"/><path class="cls-1" d="M333.54,454.13a4.35,4.35,0,0,1,2.33,1.62,4.21,4.21,0,0,1,.9,2.66v45.15a4.26,4.26,0,0,1-1.28,3.12,4.45,4.45,0,0,1-6.31,0,4.26,4.26,0,0,1-1.28-3.12V474.34l-14,23.13v0l0,0,0,0,0,0-.15.27-.11.15-.19.19-.15.15-.15.14a1.22,1.22,0,0,1-.23.19l-.11.12-.26.15s0,0,0,0l0,0h0a.8.8,0,0,1-.27.15c-.1.05-.13.08-.11.08a.9.9,0,0,0-.22.07,4,4,0,0,1-1.81.34h-.07c.05,0,0,0-.15,0a4.24,4.24,0,0,1-1-.19l-.15,0-.15,0-.26-.11s0,0-.08-.08l-.3-.15h0l0,0,0,0a1,1,0,0,1-.26-.19s0,0-.12-.08a1.11,1.11,0,0,1-.22-.19l-.15-.14-.15-.15a.56.56,0,0,0-.19-.19.54.54,0,0,1-.08-.15,1.23,1.23,0,0,1-.18-.27l0,0s0,0,0,0v0s0,0,0,0l-14-23.13v29.22a4.21,4.21,0,0,1-1.31,3.12,4.34,4.34,0,0,1-3.16,1.31,4.49,4.49,0,0,1-4.43-4.43V458.41a4.21,4.21,0,0,1,.9-2.66,4.34,4.34,0,0,1,2.37-1.62,4.46,4.46,0,0,1,5,2l18.47,30.54,18.48-30.54a4.33,4.33,0,0,1,2.14-1.84l1.39-.53Z"/><path class="cls-1" d="M388.9,455.26a4.33,4.33,0,0,1,.68,6.19l-16.27,20.36v21.75a4.3,4.3,0,0,1-1.31,3.15,4.44,4.44,0,0,1-6.24,0,4.3,4.3,0,0,1-1.31-3.15V481.81l-16.26-20.36a4.41,4.41,0,0,1,.67-6.19,4.3,4.3,0,0,1,3.27-1,4.43,4.43,0,0,1,3,1.65l13.78,17.28,13.82-17.28a4.33,4.33,0,0,1,6.2-.67Z"/><path class="cls-1" d="M434.68,492a15.86,15.86,0,0,1-5.37,11.38A17.42,17.42,0,0,1,417.14,508a22.63,22.63,0,0,1-11-2.63,14.22,14.22,0,0,1-7.4-9.16,4.36,4.36,0,0,1,.45-3.35,4.25,4.25,0,0,1,2.7-2,4.36,4.36,0,0,1,3.35.45,4.22,4.22,0,0,1,2,2.7,6.22,6.22,0,0,0,3.68,3.94,14.61,14.61,0,0,0,6.16,1.24,8.87,8.87,0,0,0,6.05-2.21,7.31,7.31,0,0,0,2.7-5.41,4.6,4.6,0,0,0-1.39-3.49q-2.33-2.49-7.81-2.56h-.18q-9.21-.15-14.09-5.29a13.14,13.14,0,0,1-3.75-10A15.87,15.87,0,0,1,404,458.83a17.32,17.32,0,0,1,12.16-4.66,22.53,22.53,0,0,1,11,2.63,14.25,14.25,0,0,1,7.4,9.16,4.22,4.22,0,0,1-.49,3.34,4.11,4.11,0,0,1-2.66,2,4.36,4.36,0,0,1-3.35-.45,4.22,4.22,0,0,1-2-2.7,6.25,6.25,0,0,0-3.72-3.95A14.49,14.49,0,0,0,416.2,463a9,9,0,0,0-6.08,2.22,7.44,7.44,0,0,0-2.67,5.41,4.8,4.8,0,0,0,1.39,3.53c1.56,1.63,4.16,2.47,7.82,2.52h.18q9.21.15,14.09,5.33A13.05,13.05,0,0,1,434.68,492Z"/><path class="cls-1" d="M480.39,499.09a4.2,4.2,0,0,1,3.12,1.31,4.31,4.31,0,0,1,1.32,3.16,4.49,4.49,0,0,1-4.44,4.43H453.2a4.47,4.47,0,0,1-4.43-4.43v-45a4.24,4.24,0,0,1,1.31-3.16,4.16,4.16,0,0,1,3.12-1.31h0l27.15.07a4.44,4.44,0,0,1,4.44,4.47,4.49,4.49,0,0,1-4.44,4.43h0L457.67,463v13.63h16.38a4.38,4.38,0,0,1,3.15,1.28,4.43,4.43,0,0,1,0,6.31,4.38,4.38,0,0,1-3.15,1.28H457.67v13.63Z"/><path class="cls-1" d="M501.05,454.13a4.49,4.49,0,0,1,4.43,4.43v40.57h19.87a4.3,4.3,0,0,1,3.16,1.31,4.47,4.47,0,0,1,0,6.24,4.34,4.34,0,0,1-3.16,1.31h-24.3a4.47,4.47,0,0,1-4.43-4.43v-45a4.49,4.49,0,0,1,4.43-4.43Z"/><path class="cls-1" d="M571.21,454.13a4.42,4.42,0,0,1,4.43,4.47,4.47,4.47,0,0,1-4.43,4.43h0L548.49,463v13.63h16.37a4.39,4.39,0,0,1,3.16,1.28,4.45,4.45,0,0,1,0,6.31,4.39,4.39,0,0,1-3.16,1.28H548.49v18.1a4.19,4.19,0,0,1-1.32,3.12A4.3,4.3,0,0,1,544,508a4.47,4.47,0,0,1-4.43-4.43v-45a4.47,4.47,0,0,1,4.43-4.47h0Z"/><path class="cls-1" d="M621.73,454a16.76,16.76,0,0,1,11.9,4.62,15,15,0,0,1,.19,22.08,16.83,16.83,0,0,1-11.49,4.77h-.15l-.45,0-.23,0h-11v18.07a4.26,4.26,0,0,1-1.28,3.12,4.34,4.34,0,0,1-3.16,1.31,4.49,4.49,0,0,1-4.43-4.43V458.45a4.49,4.49,0,0,1,4.43-4.43Zm.26,22.61a8.26,8.26,0,0,0,5.45-2.07,6.23,6.23,0,0,0-.08-9.65,8.29,8.29,0,0,0-5.63-2H610.5v13.75Z"/><path class="cls-1" d="M687,469.72a14.38,14.38,0,0,1-3.08,9,16.09,16.09,0,0,1-7.81,5.66l8.53,17.28a4.24,4.24,0,0,1,.18,3.35,4.2,4.2,0,0,1-2.21,2.55,4.5,4.5,0,0,1-2,.45,4.09,4.09,0,0,1-3.94-2.48l-10-20.17h-7.63v17.92a4.29,4.29,0,0,1-1.31,3.12,4.24,4.24,0,0,1-3.12,1.27,4.34,4.34,0,0,1-4.39-4.39V458.49a4.4,4.4,0,0,1,4.39-4.43h15.55a16.63,16.63,0,0,1,11.83,4.58A14.59,14.59,0,0,1,687,469.72Zm-16.45,6.8a8.49,8.49,0,0,0,5.41-2.07,6.18,6.18,0,0,0-.11-9.58,8.38,8.38,0,0,0-5.6-2H659.17v13.64Z"/><path class="cls-1" d="M723.44,508a27,27,0,1,1,19.08-7.92A25.91,25.91,0,0,1,723.44,508Zm0-45.07a18.1,18.1,0,1,0,12.8,5.3A17.36,17.36,0,0,0,723.44,462.92Z"/><path class="cls-1" d="M770.8,458.6a4.49,4.49,0,0,1,4.47-4.47,4.2,4.2,0,0,1,3.12,1.32,4.3,4.3,0,0,1,1.31,3.15v33A16.29,16.29,0,0,1,763.36,508a4.47,4.47,0,0,1-4.43-4.43,4.34,4.34,0,0,1,1.31-3.16,4.2,4.2,0,0,1,3.12-1.31,7.44,7.44,0,0,0,7.44-7.44Z"/><path class="cls-1" d="M826.61,499.09a4.2,4.2,0,0,1,3.12,1.31,4.34,4.34,0,0,1,1.31,3.16,4.47,4.47,0,0,1-4.43,4.43H799.42a4.47,4.47,0,0,1-4.43-4.43v-45a4.47,4.47,0,0,1,4.43-4.47h0l27.15.07A4.42,4.42,0,0,1,831,458.6a4.47,4.47,0,0,1-4.43,4.43h0L803.89,463v13.63h16.37a4.39,4.39,0,0,1,3.16,1.28,4.45,4.45,0,0,1,0,6.31,4.39,4.39,0,0,1-3.16,1.28H803.89v13.63Z"/><path class="cls-1" d="M866.08,508a26.84,26.84,0,1,1,16.38-48.11,4.42,4.42,0,0,1,.79,6.23,4.22,4.22,0,0,1-2.93,1.69,4.43,4.43,0,0,1-3.31-.86,17.92,17.92,0,1,0,1.17,27.49,4.3,4.3,0,0,1,3.19-1.16,4.22,4.22,0,0,1,3.08,1.46,4.45,4.45,0,0,1-.26,6.28A26.1,26.1,0,0,1,866.08,508Z"/><path class="cls-1" d="M908.6,462.92H897.45a4.31,4.31,0,0,1-3.16-1.32,4.46,4.46,0,0,1,0-6.23,4.3,4.3,0,0,1,3.16-1.31h31.21a4.43,4.43,0,0,1,0,8.86H917.47v40.64a4.27,4.27,0,0,1-1.32,3.15,4.43,4.43,0,0,1-6.23,0,4.27,4.27,0,0,1-1.32-3.15Z"/><path class="cls-1" d="M521,261.41c-6.92,1.5-12.28,2.52-17.73,3.27a1,1,0,0,0-.36,0c-13-.42-26-8.23-34.32-17.79-6.24-7.16-16.59,3.26-10.39,10.38a63.83,63.83,0,0,0,10.22,9.37c-7.34-.06-14.69-.45-22-1.11-13.81-1.24-27,13-26.45,26.42.69,15.42,11.63,25.15,26.45,26.45a282,282,0,0,0,53.26-.29c13.13-1.31,39.29-4.18,11.37,23.74-11.09,11.09-21.88,21.13-31.81,29.72a11.22,11.22,0,0,1-14.76,0c-31.25-27.08-71.22-68.25-101.17-112.31-10.22-15,2-35.17,20.09-33.08,41.93,4.87,85.13,3,127.16.53,13.78-.82,27.1-11.6,26.45-26.46-.62-13.61-11.66-27.33-26.45-26.45-9.11.56-18.26,1.08-27.4,1.54a52.93,52.93,0,0,0,7.35-10.09c4.67-8.27-8-15.68-12.71-7.42-6.72,11.89-17,18.36-30.76,18.65a9.23,9.23,0,0,0-1.34.13,472.41,472.41,0,0,1-52.25-2,202.64,202.64,0,0,1-20.5-2.9c-8.62-1.57-17.18-3.53-25.61-6a1.07,1.07,0,0,1-.29-.06,33.71,33.71,0,0,1-22.6-43.34,75.7,75.7,0,0,1,20.77-31.28c78-72.11,126.35,26.22,126.35,26.22S519.7,19.82,598.5,91.08c42.42,38.34,29.72,117.23-7.44,143.39a.13.13,0,0,1-.07,0A235.5,235.5,0,0,1,521,261.41Z"/></svg>