<svg xmlns="http://www.w3.org/2000/svg" viewBox="0 0 1920 1080"><defs><style>.cls-1{fill:#eef4f3;}.cls-2{font-size:40.26px;}.cls-2,.cls-3,.cls-32{fill:#2c2e2e;}.cls-2,.cls-32{font-family:Moon-Bold, Moon;}.cls-17,.cls-18,.cls-19,.cls-2,.cls-22,.cls-29,.cls-30,.cls-32,.cls-4,.cls-5,.cls-6{font-weight:700;}.cls-3{font-size:20.64px;}.cls-17,.cls-18,.cls-19,.cls-22,.cls-29,.cls-3,.cls-30{font-family:PTSerif-Bold, PT Serif;}.cls-5{letter-spacing:-0.02em;}.cls-6{letter-spacing:-0.02em;}.cls-10,.cls-11,.cls-12,.cls-13,.cls-7,.cls-8,.cls-9{font-family:PTSerif-Regular, PT Serif;}.cls-16,.cls-7{letter-spacing:-0.04em;}.cls-8{letter-spacing:-0.02em;}.cls-9{letter-spacing:-0.03em;}.cls-11{letter-spacing:-0.02em;}.cls-12{letter-spacing:-0.02em;}.cls-13{letter-spacing:0.04em;}.cls-14{letter-spacing:-0.02em;}.cls-15{letter-spacing:-0.02em;}.cls-17{letter-spacing:-0.02em;}.cls-19{letter-spacing:-0.02em;}.cls-20{letter-spacing:0.05em;}.cls-21{letter-spacing:0.05em;}.cls-22{letter-spacing:0.06em;}.cls-23{letter-spacing:0.05em;}.cls-24{letter-spacing:0.09em;}.cls-25{letter-spacing:-0.06em;}.cls-26{letter-spacing:0.09em;}.cls-27{letter-spacing:0.09em;}.cls-28{letter-spacing:0.09em;}.cls-29{letter-spacing:-0.03em;}.cls-30{letter-spacing:-0.04em;}.cls-31{fill:#e6b3b6;}.cls-32{font-size:70px;}.cls-33{opacity:0.5;}.cls-34{opacity:0.6;}</style></defs><title>Artboard 18 copyWeb</title><g id="Background"><rect class="cls-1" x="0.81" y="-0.09" width="1920" height="1080"/></g><g id="Info"><text class="cls-2" transform="translate(1101.74 415.53)">Forgiving</text><text class="cls-2" transform="translate(122.59 415.53)">TUESday APRIL 3, 2018</text><text class="cls-3" transform="translate(351.14 529.44)"><tspan class="cls-4">Forgive</tspan><tspan class="cls-5" x="73.71" y="0"> </tspan><tspan class="cls-4" x="78.93" y="0">yourself</tspan><tspan class="cls-6" x="158.75" y="0"> </tspan><tspan class="cls-4" x="163.98" y="0">and</tspan><tspan class="cls-5" x="201.12" y="0"> </tspan><tspan class="cls-4" x="206.34" y="0">move</tspan><tspan class="cls-5" x="259.87" y="0"> </tspan><tspan class="cls-4" x="265.1" y="0">forward</tspan><tspan class="cls-7" x="342.85" y="0">.</tspan><tspan class="cls-8" x="347.78" y="0"> </tspan><tspan class="cls-9" x="352.48" y="0">T</tspan><tspan class="cls-10" x="364.64" y="0">ake</tspan><tspan class="cls-11" x="396.09" y="0"> </tspan><tspan class="cls-10" x="400.79" y="0">some</tspan><tspan class="cls-11" x="449.32" y="0"> </tspan><tspan class="cls-10" x="454.03" y="0">time</tspan><tspan class="cls-11" x="496.08" y="0"> </tspan><tspan class="cls-10" x="500.78" y="0">to</tspan><tspan class="cls-11" x="519.85" y="0"> </tspan><tspan class="cls-10" x="524.55" y="0">resolve</tspan><tspan class="cls-12" x="590.25" y="0"> </tspan><tspan class="cls-10" x="594.96" y="0">a</tspan><tspan class="cls-11" x="605.38" y="0"> </tspan><tspan class="cls-10" x="610.08" y="0">con</tspan><tspan class="cls-13" x="643.36" y="0">f</tspan><tspan class="cls-10" x="651.25" y="0">lict</tspan><tspan class="cls-11" x="680.94" y="0"> </tspan><tspan class="cls-10" x="685.64" y="0">(write</tspan><tspan class="cls-12" x="739.91" y="0"> </tspan><tspan class="cls-10" x="744.61" y="0">a</tspan><tspan class="cls-11" x="755.03" y="0"> </tspan><tspan class="cls-10" x="759.74" y="0">letter</tspan><tspan class="cls-11" x="809.94" y="0"> </tspan><tspan class="cls-10" x="814.64" y="0">to</tspan><tspan class="cls-12" x="833.71" y="0"> </tspan><tspan class="cls-10" x="838.41" y="0">yourself</tspan><tspan class="cls-7" x="912.6" y="0">,</tspan><tspan class="cls-11" x="917.61" y="0"> </tspan><tspan class="cls-10" x="922.31" y="0">talk</tspan><tspan class="cls-11" x="957.25" y="0"> </tspan><tspan class="cls-10" x="961.95" y="0">to </tspan><tspan class="cls-10"><tspan x="0" y="24.76">a</tspan><tspan class="cls-14" x="10.42" y="24.76"> </tspan><tspan x="15.1" y="24.76">friend</tspan><tspan class="cls-14" x="70.39" y="24.76"> </tspan><tspan x="75.07" y="24.76">if</tspan><tspan class="cls-15" x="88.34" y="24.76"> </tspan><tspan x="93.02" y="24.76">there</tspan><tspan class="cls-14" x="141.47" y="24.76"> </tspan><tspan x="146.15" y="24.76">is</tspan><tspan class="cls-14" x="161.3" y="24.76"> </tspan><tspan x="165.98" y="24.76">trouble)</tspan><tspan class="cls-16" x="239.73" y="24.76">.</tspan><tspan class="cls-14" x="244.66" y="24.76"> </tspan><tspan x="249.35" y="24.76">Balance</tspan><tspan class="cls-14" x="321.34" y="24.76"> </tspan><tspan x="326.03" y="24.76">your</tspan><tspan class="cls-14" x="367.63" y="24.76"> </tspan><tspan x="372.31" y="24.76">giving</tspan><tspan class="cls-15" x="429.16" y="24.76"> </tspan><tspan x="433.84" y="24.76">and</tspan><tspan class="cls-14" x="467.97" y="24.76"> </tspan><tspan x="472.66" y="24.76">receiving</tspan><tspan class="cls-14" x="556.95" y="24.76"> </tspan><tspan x="561.64" y="24.76">in</tspan><tspan class="cls-14" x="580.1" y="24.76"> </tspan><tspan x="584.79" y="24.76">relationships,</tspan><tspan class="cls-17" x="710.97" y="24.76"> </tspan><tspan class="cls-18" x="716.17" y="24.76">it’s</tspan><tspan class="cls-17" x="746.94" y="24.76"> </tspan><tspan class="cls-18" x="752.14" y="24.76">okay</tspan><tspan class="cls-17" x="798.82" y="24.76"> </tspan><tspan class="cls-18" x="804.02" y="24.76">to</tspan><tspan class="cls-19" x="824.51" y="24.76"> </tspan><tspan class="cls-18" x="829.72" y="24.76">make</tspan><tspan class="cls-17" x="883.39" y="24.76"> </tspan><tspan class="cls-18" x="888.59" y="24.76">mistakes</tspan><tspan class="cls-16" x="976" y="24.76">,</tspan><tspan x="981.02" y="24.76"> </tspan><tspan x="0" y="49.53">but</tspan><tspan class="cls-20" x="30.75" y="49.53"> </tspan><tspan x="36.83" y="49.53">what</tspan><tspan class="cls-20" x="82.05" y="49.53"> </tspan><tspan x="88.13" y="49.53">do</tspan><tspan class="cls-21" x="111" y="49.53"> </tspan><tspan x="117.08" y="49.53">you</tspan><tspan class="cls-20" x="150.76" y="49.53"> </tspan><tspan x="156.85" y="49.53">do</tspan><tspan class="cls-20" x="179.71" y="49.53"> </tspan><tspan x="185.8" y="49.53">next?</tspan><tspan class="cls-22" x="236.56" y="49.53"> </tspan><tspan x="243.32" y="49.53">Do</tspan><tspan class="cls-20" x="269.34" y="49.53"> </tspan><tspan x="275.43" y="49.53">not</tspan><tspan class="cls-20" x="306.76" y="49.53"> </tspan><tspan x="312.84" y="49.53">be</tspan><tspan class="cls-21" x="334.47" y="49.53"> </tspan><tspan x="340.56" y="49.53">too</tspan><tspan class="cls-20" x="371.03" y="49.53"> </tspan><tspan x="377.12" y="49.53">hard</tspan><tspan class="cls-20" x="419.03" y="49.53"> </tspan><tspan x="425.12" y="49.53">on</tspan><tspan class="cls-21" x="448.79" y="49.53"> </tspan><tspan x="454.87" y="49.53">yourself</tspan><tspan class="cls-16" x="529.06" y="49.53">.</tspan><tspan class="cls-23" x="533.99" y="49.53"> </tspan><tspan x="540.08" y="49.53">Identify</tspan><tspan class="cls-21" x="612.77" y="49.53"> </tspan><tspan x="618.86" y="49.53">the</tspan><tspan class="cls-21" x="649.01" y="49.53"> </tspan><tspan x="655.1" y="49.53">problem</tspan><tspan class="cls-23" x="731.76" y="49.53"> </tspan><tspan x="737.84" y="49.53">in</tspan><tspan class="cls-21" x="756.31" y="49.53"> </tspan><tspan x="762.4" y="49.53">a</tspan><tspan class="cls-23" x="772.82" y="49.53"> </tspan><tspan x="778.91" y="49.53">situation</tspan><tspan class="cls-21" x="861.51" y="49.53"> </tspan><tspan x="867.59" y="49.53">and</tspan><tspan class="cls-21" x="901.73" y="49.53"> </tspan><tspan x="907.81" y="49.53">find</tspan><tspan class="cls-23" x="944.79" y="49.53"> </tspan><tspan x="950.88" y="49.53" xml:space="preserve">the  </tspan><tspan x="0" y="74.29">solution</tspan><tspan class="cls-16" x="75.94" y="74.29">.</tspan><tspan class="cls-24" x="80.87" y="74.29"> </tspan><tspan class="cls-25" x="87.79" y="74.29">W</tspan><tspan x="105.72" y="74.29">alk</tspan><tspan class="cls-26" x="133" y="74.29"> </tspan><tspan x="139.92" y="74.29">away</tspan><tspan class="cls-24" x="186.2" y="74.29"> </tspan><tspan x="193.12" y="74.29">from</tspan><tspan class="cls-24" x="237.32" y="74.29"> </tspan><tspan x="244.24" y="74.29">situations</tspan><tspan class="cls-24" x="335.78" y="74.29"> </tspan><tspan x="342.69" y="74.29">that</tspan><tspan class="cls-26" x="380.54" y="74.29"> </tspan><tspan x="387.45" y="74.29">become</tspan><tspan class="cls-27" x="458.3" y="74.29"> </tspan><tspan x="465.21" y="74.29">too</tspan><tspan class="cls-28" x="495.69" y="74.29"> </tspan><tspan x="502.61" y="74.29">much</tspan><tspan class="cls-26" x="553.99" y="74.29"> </tspan><tspan x="560.91" y="74.29">of</tspan><tspan class="cls-26" x="579.38" y="74.29"> </tspan><tspan x="586.29" y="74.29">a</tspan><tspan class="cls-28" x="596.71" y="74.29"> </tspan><tspan x="603.63" y="74.29">strain</tspan><tspan class="cls-16" x="657.03" y="74.29">.</tspan><tspan class="cls-26" x="661.97" y="74.29"> </tspan><tspan x="668.88" y="74.29">Compliment</tspan><tspan class="cls-26" x="783.59" y="74.29"> </tspan><tspan x="790.51" y="74.29">yourself</tspan><tspan class="cls-16" x="864.7" y="74.29">,</tspan><tspan class="cls-28" x="869.71" y="74.29"> </tspan><tspan x="876.63" y="74.29">and</tspan><tspan class="cls-26" x="910.76" y="74.29"> </tspan><tspan x="917.68" y="74.29">others</tspan><tspan class="cls-16" x="976.09" y="74.29">.</tspan><tspan x="981.03" y="74.29"> </tspan><tspan x="0" y="99.05">Support the people around you no matter what</tspan><tspan class="cls-16" x="429.96" y="99.05">.</tspan><tspan x="434.89" y="99.05"> </tspan><tspan class="cls-18" x="439.91" y="99.05">Be strong</tspan><tspan class="cls-29" x="533.59" y="99.05">.</tspan><tspan class="cls-18" x="538.98" y="99.05" xml:space="preserve"> Be forgiving</tspan><tspan class="cls-30" x="664.81" y="99.05">.</tspan></tspan></text><rect class="cls-31" y="449.12" width="1408.48" height="20"/><rect class="cls-31" x="1733.43" y="449.12" width="186.57" height="20"/><path class="cls-1" d="M1571,637.93c-98.6,0-178.81-80.22-178.81-178.81S1472.4,280.3,1571,280.3s178.82,80.22,178.82,178.82S1669.6,637.93,1571,637.93Zm0-324.4c-80.28,0-145.59,65.31-145.59,145.59S1490.72,604.7,1571,604.7s145.59-65.31,145.59-145.58S1651.28,313.53,1571,313.53Z"/><text class="cls-32" transform="translate(1550.92 482.69)">2</text><g class="cls-33"><path class="cls-31" d="M1571,637.93c-98.6,0-178.81-80.22-178.81-178.81S1472.4,280.3,1571,280.3s178.82,80.22,178.82,178.82S1669.6,637.93,1571,637.93Zm0-324.4c-80.28,0-145.59,65.31-145.59,145.59S1490.72,604.7,1571,604.7s145.59-65.31,145.59-145.58S1651.28,313.53,1571,313.53Z"/></g><g class="cls-34"><path class="cls-31" d="M1571,629.62c-94,0-170.51-76.49-170.51-170.5S1477,288.61,1571,288.61s170.51,76.49,170.51,170.51S1665,629.62,1571,629.62Zm0-324.4c-84.86,0-153.89,69-153.89,153.9S1486.14,613,1571,613s153.9-69,153.9-153.89S1655.86,305.22,1571,305.22Z"/></g></g></svg>