<svg id="Layer_1" data-name="Layer 1" xmlns="http://www.w3.org/2000/svg" viewBox="0 0 33.56 36.34"><defs><style>.cls-1{fill:#eef4f3;}</style></defs><title>Artboard 24 copy 3Web</title><path class="cls-1" d="M21.62,22.47c-.71.16-1.26.26-1.82.34h0A5.14,5.14,0,0,1,16.25,21c-.64-.73-1.71.33-1.07,1.06a6,6,0,0,0,1.05,1c-.76,0-1.51,0-2.26-.11a2.73,2.73,0,0,0-2.72,2.71A2.79,2.79,0,0,0,14,28.31a28.45,28.45,0,0,0,5.46,0c1.35-.13,4-.43,1.17,2.44-1.14,1.13-2.25,2.16-3.27,3.05a1.17,1.17,0,0,1-1.51,0A63.57,63.57,0,0,1,5.44,22.25,2.18,2.18,0,0,1,7.5,18.86a76.85,76.85,0,0,0,13.05.05,2.72,2.72,0,0,0,0-5.43l-2.81.16a5.68,5.68,0,0,0,.75-1,.75.75,0,0,0-1.3-.76A3.55,3.55,0,0,1,14,13.76h-.14a47.84,47.84,0,0,1-5.35-.2,18.46,18.46,0,0,1-2.11-.3,26.18,26.18,0,0,1-2.62-.61h0A3.47,3.47,0,0,1,1.46,8.21,7.73,7.73,0,0,1,3.59,5c8-7.39,13,2.69,13,2.69s4.93-10,13-2.69c4.35,3.94,3.05,12-.76,14.71h0A23.94,23.94,0,0,1,21.62,22.47Z"/></svg>