<svg id="Layer_1" data-name="Layer 1" xmlns="http://www.w3.org/2000/svg" viewBox="0 0 576 576"><defs><style>.cls-1{fill:#66d3a9;}.cls-2{fill:#7be9c2;}.cls-3{fill:#e077a3;}.cls-4{fill:#d16d9a;}.cls-5{fill:#e97ba2;}.cls-6{fill:none;stroke:#7be9c2;stroke-linecap:round;stroke-miterlimit:10;stroke-width:3px;}</style></defs><title>Artboard 1ideation</title><path class="cls-1" d="M545.65,493.57c0,.21,0,.41,0,.62s0,.5,0,.75a28.92,28.92,0,0,1-5.38,16.12,29.09,29.09,0,0,0-12.12-28.73,28.9,28.9,0,0,0-11.95-4.81,29.37,29.37,0,0,0-9.81.09c-.37.07-.75.14-1.12.23a12.93,12.93,0,0,0-5.18-7.61,28.89,28.89,0,0,1,11.29-4.67,29.64,29.64,0,0,1,5.19-.46A29.06,29.06,0,0,1,545.63,493C545.64,493.19,545.65,493.38,545.65,493.57Z"/><path class="cls-2" d="M538.06,494.19a29.21,29.21,0,0,1,2.21,16.87,28.89,28.89,0,0,1-7.54,15.15l-.58.6-.61.58a28.86,28.86,0,0,1-15.14,7.54,29,29,0,0,0,12.21-23.7,28.52,28.52,0,0,0-.46-5.18,28.83,28.83,0,0,0-5-11.87,29.42,29.42,0,0,0-7-6.86,29.06,29.06,0,0,0-6.37-3.34,28.32,28.32,0,0,0-4.24-1.22,13.14,13.14,0,0,0,.14-1.89,12.63,12.63,0,0,0-.36-3c.37-.09.75-.16,1.12-.23a29.37,29.37,0,0,1,9.81-.09,29.1,29.1,0,0,1,21.86,16.67Z"/><path class="cls-1" d="M528.15,506.05a28.52,28.52,0,0,1,.46,5.18,29.07,29.07,0,0,1-28.29,29.08h-1.55a29,29,0,0,1-16.13-5.38,29.15,29.15,0,0,0,28.74-12.11,28.86,28.86,0,0,0,4.81-12,29.37,29.37,0,0,0-.09-9.81,28.45,28.45,0,0,0-2.15-6.86,27.81,27.81,0,0,0-2.78-4.83,27.28,27.28,0,0,0-2.7-3.24l-.43-.45a12.46,12.46,0,0,0-2.7-2q.09-.44.15-.87a28.32,28.32,0,0,1,4.24,1.22,29.06,29.06,0,0,1,6.37,3.34,29.42,29.42,0,0,1,7,6.86A28.83,28.83,0,0,1,528.15,506.05Z"/><path class="cls-2" d="M516.1,501.05a29.37,29.37,0,0,1,.09,9.81,29.1,29.1,0,0,1-16.67,21.86,29.07,29.07,0,0,1-32-5.33l-.6-.58-.58-.6a28.92,28.92,0,0,1-7.53-15.14,29,29,0,0,0,23.69,12.21,29.64,29.64,0,0,0,5.19-.46,28.84,28.84,0,0,0,11.85-5.06A29,29,0,0,0,511.17,499a28.63,28.63,0,0,0,.38-4.06.14.14,0,0,0,0-.09c0-.22,0-.45,0-.67a12,12,0,0,0-3.1-8.07,27.28,27.28,0,0,1,2.7,3.24,27.81,27.81,0,0,1,2.78,4.83A28.45,28.45,0,0,1,516.1,501.05Z"/><path class="cls-1" d="M511.55,495a28.63,28.63,0,0,1-.38,4.06,29.05,29.05,0,0,1-11.65,18.75,28.84,28.84,0,0,1-11.85,5.06,29.64,29.64,0,0,1-5.19.46A29.1,29.1,0,0,1,453.4,495c0-.26,0-.53,0-.79s0-.53,0-.8a29,29,0,0,1,5.38-16.08A29.23,29.23,0,0,0,461,494.19a29.09,29.09,0,0,0,21.87,16.67,29.31,29.31,0,0,0,9.8-.1,28.43,28.43,0,0,0,6.86-2.14,28.14,28.14,0,0,0,4.83-2.79,27.28,27.28,0,0,0,3.24-2.7c.15-.13.3-.28.45-.43A12,12,0,0,0,511.55,495Z"/><path class="cls-3" d="M505.63,480.87a13.14,13.14,0,0,1-.14,1.89c-.37-.08-.76-.16-1.14-.22a27.41,27.41,0,0,0-4.18-.38c-.21,0-.43,0-.65,0a12,12,0,0,0-8.06,3.1,29.35,29.35,0,0,1,3.24-2.7,29,29,0,0,1,10.57-4.7A12.63,12.63,0,0,1,505.63,480.87Z"/><path class="cls-4" d="M504.35,482.54c.38.06.77.14,1.14.22q-.06.44-.15.87a12.05,12.05,0,0,0-5.17-1.47A27.41,27.41,0,0,1,504.35,482.54Z"/><path class="cls-2" d="M507.59,503.13a27.28,27.28,0,0,1-3.24,2.7,28.14,28.14,0,0,1-4.83,2.79,28.43,28.43,0,0,1-6.86,2.14,29.31,29.31,0,0,1-9.8.1A29.15,29.15,0,0,1,461,494.19a29.23,29.23,0,0,1-2.21-16.88,28.86,28.86,0,0,1,7.54-15.14c.19-.2.38-.41.58-.6l.6-.59a29,29,0,0,1,15.15-7.54,29.12,29.12,0,0,0-12.22,23.7A29.17,29.17,0,0,0,476,494.19a29.42,29.42,0,0,0,7,6.86,28.64,28.64,0,0,0,6.37,3.34,27.69,27.69,0,0,0,5.38,1.44,28.42,28.42,0,0,0,4.82.4A12,12,0,0,0,507.59,503.13Z"/><path class="cls-5" d="M500.17,482.16a12.05,12.05,0,0,1,5.17,1.47,13,13,0,1,1-12.71-15.76,12.88,12.88,0,0,1,7.46,2.36l-.56.38a29.46,29.46,0,0,0-6.87,7,29,29,0,0,0-4.78,11.75,21.22,21.22,0,0,1,3.13-3.69l.45-.43a12,12,0,0,1,8.06-3.1C499.74,482.14,500,482.14,500.17,482.16Z"/><path class="cls-4" d="M500.09,470.23a12.93,12.93,0,0,1,5.18,7.61,29,29,0,0,0-10.57,4.7,29.35,29.35,0,0,0-3.24,2.7l-.45.43a21.22,21.22,0,0,0-3.13,3.69,29,29,0,0,1,4.78-11.75,29.46,29.46,0,0,1,6.87-7Z"/><path class="cls-2" d="M80.86,49.05a18.43,18.43,0,0,1-4.25,8.1A11.89,11.89,0,0,1,72.73,60a9.24,9.24,0,0,1-5,.74,9.53,9.53,0,0,1-4.85-2.33A12.57,12.57,0,0,1,59.74,54a17,17,0,0,1,4.75-19.19,12.61,12.61,0,0,1,4.79-2.45,9.52,9.52,0,0,1,5.37.21,9.06,9.06,0,0,1,4.13,3,11.68,11.68,0,0,1,2.1,4.31A18.52,18.52,0,0,1,80.86,49.05Zm0,0a14.17,14.17,0,0,0-.63-8.92,9.69,9.69,0,0,0-2.55-3.5A6.82,6.82,0,0,0,74.05,35a8,8,0,0,0-6.63,3A16.8,16.8,0,0,0,63.8,52.57a8,8,0,0,0,4.48,5.74,6.91,6.91,0,0,0,4,.25,9.9,9.9,0,0,0,3.89-1.91A14.16,14.16,0,0,0,80.86,49.05Z"/><path class="cls-2" d="M83.3,54.12a34.36,34.36,0,0,1,7.45,2.18,14.54,14.54,0,0,1,3.39,2,5,5,0,0,1,1.1,7.35,15.32,15.32,0,0,1-2.71,3,24.88,24.88,0,0,1-6.93,3.91,95.91,95.91,0,0,1-15.15,4c-2.52.53-5.1,1-7.51,1.61a41.92,41.92,0,0,0-7,2.44c-4.45,2-8.35,5.16-10.43,9.27a17.65,17.65,0,0,0-1.82,6.58,22.46,22.46,0,0,0,0,3.48,15.18,15.18,0,0,0,.64,3.26,11.1,11.1,0,0,0,3.37,5.17A12.32,12.32,0,0,0,53.31,111c4.29.87,9.1.08,13.67-1.34l.66-.21,1.21.2.14,0c4.56,1.43,9.37,2.18,13.65,1.36a12.31,12.31,0,0,0,5.63-2.54,11.07,11.07,0,0,0,3.38-5.12,14.8,14.8,0,0,0,.65-3.23,22.19,22.19,0,0,0,0-3.46,17.55,17.55,0,0,0-1.74-6.58c-2-4.11-5.82-7.27-10.22-9.33a39.54,39.54,0,0,0-7-2.49C71,77.63,68.48,77.16,66,76.63A105.57,105.57,0,0,1,50.9,72.74a26.19,26.19,0,0,1-7-3.73,15.68,15.68,0,0,1-2.82-2.82,7,7,0,0,1-1.59-3.73A4.89,4.89,0,0,1,41,58.73a11.65,11.65,0,0,1,3.22-2.24,29,29,0,0,1,7.34-2.37,29,29,0,0,0-7.15,2.72,11.21,11.21,0,0,0-3,2.3,4.18,4.18,0,0,0-1.16,3.25,6.11,6.11,0,0,0,1.57,3.17A14.41,14.41,0,0,0,44.66,68a24.74,24.74,0,0,0,6.78,3.12,103.18,103.18,0,0,0,15,2.93c2.54.38,5.09.68,7.7,1.21a44.06,44.06,0,0,1,7.67,2.29,28.76,28.76,0,0,1,7.11,4.09A21.5,21.5,0,0,1,97,96.17a27.3,27.3,0,0,1,.18,4.24,20.28,20.28,0,0,1-.62,4.35A16.39,16.39,0,0,1,92,112.62a18,18,0,0,1-8,4.26c-5.82,1.47-11.52.69-16.84-.48l-.16-.06h1.86a45.22,45.22,0,0,1-8.29,1.32,28.3,28.3,0,0,1-8.68-.79,18.28,18.28,0,0,1-8-4.36,16.48,16.48,0,0,1-4.55-7.92,19.57,19.57,0,0,1-.6-4.39A27.65,27.65,0,0,1,39,95.92a21.38,21.38,0,0,1,8.39-14.49,29.67,29.67,0,0,1,7.19-4,44.79,44.79,0,0,1,7.74-2.22c2.63-.51,5.17-.81,7.74-1.2a95.93,95.93,0,0,0,15-3,23.85,23.85,0,0,0,6.74-3.29,13.9,13.9,0,0,0,2.66-2.59,4.78,4.78,0,0,0,1.12-3.29,5,5,0,0,0-1.8-3.06,14,14,0,0,0-3.18-2.08A33.78,33.78,0,0,0,83.3,54.12Z"/><path class="cls-2" d="M182.42,363.14c7.25,9.47,14.13,14.51,25.05,19,7.66,3.13,11.93-6.72,5.47-9.64-9.29-4.19-16.9-10-23.07-19.47-3.52-5.42-4.89-9.12-5.71-15.93-2.44-20.36,12.49-29,31.55-28.87,23.51.12,40.16,18.75,35.87,38.08-1.73,7.82-14.81,16.08-34.7-.18-6.62-5.41-13.24,3.19-7.83,7.83,4.79,4.12,11.36,7,18.15,9.15,13.29,4.24,13.23,12.09,9.38,20.3l0,.06c-7.74,16.52-26.92,24.83-44,18.3a34.6,34.6,0,0,1-19-47h0a2.35,2.35,0,0,1,4.22-.07C178.39,355.78,180.13,360.16,182.42,363.14Z"/><path class="cls-2" d="M372.37,39.87a11.12,11.12,0,0,1-9.78,11,10.91,10.91,0,0,1-8.43-2.59,11.19,11.19,0,0,1,0-16.87,10.93,10.93,0,0,1,8.44-2.59,11.12,11.12,0,0,1,9.78,11Zm0,0a8.7,8.7,0,0,0-3.11-6.67,8.42,8.42,0,0,0-6.67-1.85,8.63,8.63,0,0,0,0,17,8.45,8.45,0,0,0,6.68-1.86A8.73,8.73,0,0,0,372.37,39.87Z"/><path class="cls-2" d="M390.36,28.55a45.79,45.79,0,0,1-2.05,17.07,33,33,0,0,1-9.47,14.85,33.25,33.25,0,0,1-16.31,7.43l-1.09.21-1,.2a18,18,0,0,0-1.9.44l-1.86.57-1.79.75a28.37,28.37,0,0,0-6.54,4.17,31.12,31.12,0,0,0-5.15,5.84,30.16,30.16,0,0,0-3.6,6.89,29.69,29.69,0,0,0-1.75,7.48,22.86,22.86,0,0,0,.54,7.41,16.73,16.73,0,0,0,8.36,11,23.13,23.13,0,0,0,7,2.46l.93.19c.32.06.64.08,1,.12l1.94.22c1.3.08,2.62.11,3.93.12a38.45,38.45,0,0,0,7.73-.83,22,22,0,0,0,6.9-2.66,16.11,16.11,0,0,0,5.2-4.78,18.85,18.85,0,0,0,2.78-6.57,23.85,23.85,0,0,0,.39-7.47,30.78,30.78,0,0,0-1.81-7.49,30,30,0,0,0-3.62-6.88A29.3,29.3,0,0,0,374,73.54a24.58,24.58,0,0,0-6.57-3.94c-.6-.21-1.19-.48-1.8-.64l-1.86-.47c-1.28-.19-2.45-.39-4.05-.57a33,33,0,0,1-8.8-2.29,27.68,27.68,0,0,1-7.72-4.86,32.21,32.21,0,0,1-9.06-15.11,48.26,48.26,0,0,1-1.74-17.11A52.75,52.75,0,0,0,333.52,37,48,48,0,0,0,336,45c2.08,5.14,5.15,9.9,9.43,13.1a26,26,0,0,0,14.76,5.22c1.24.07,2.9.18,4.44.36l2.31.47c.77.16,1.5.45,2.26.67a30.07,30.07,0,0,1,8.24,4.42,35.4,35.4,0,0,1,11.08,14.67,37.45,37.45,0,0,1,2.44,9,30.23,30.23,0,0,1-.23,9.53,24.11,24.11,0,0,1-3.72,9.09,22.84,22.84,0,0,1-7.19,6.79,28.79,28.79,0,0,1-8.92,3.56,43.93,43.93,0,0,1-9.2,1.09c-1.54,0-3.06-.08-4.6-.19l-2.31-.28c-.38,0-.77-.09-1.15-.16l-1.15-.25a29.78,29.78,0,0,1-9-3.28c-.69-.43-1.42-.8-2.09-1.3l-2-1.52c-.61-.57-1.2-1.17-1.79-1.75s-1.06-1.29-1.59-1.94a23.53,23.53,0,0,1-4-9,29.42,29.42,0,0,1-.43-9.57A36.32,36.32,0,0,1,344.94,70a33.58,33.58,0,0,1,8-4.6l2.19-.79,2.25-.58a18,18,0,0,1,2.29-.39l1.14-.16,1-.13a29.41,29.41,0,0,0,14.81-5.57,31,31,0,0,0,9.81-12.87,44.61,44.61,0,0,0,2.61-8A47.41,47.41,0,0,0,390.36,28.55Z"/><path class="cls-2" d="M528.51,28.55a45.58,45.58,0,0,1-2,17.07A33,33,0,0,1,517,60.47a33.25,33.25,0,0,1-16.32,7.43l-1.08.21-1,.2a17.45,17.45,0,0,0-1.9.44l-1.86.57-1.8.75a28.37,28.37,0,0,0-6.54,4.17,31.48,31.48,0,0,0-5.15,5.84,30.56,30.56,0,0,0-3.6,6.89A30.12,30.12,0,0,0,476,94.45a23.14,23.14,0,0,0,.54,7.41,16.71,16.71,0,0,0,8.37,11,23.07,23.07,0,0,0,7,2.46l.94.19c.31.06.64.08,1,.12l1.93.22c1.3.08,2.63.11,3.94.12a38.53,38.53,0,0,0,7.73-.83,22.21,22.21,0,0,0,6.9-2.66,16.07,16.07,0,0,0,5.19-4.78,18.68,18.68,0,0,0,2.79-6.57,23.85,23.85,0,0,0,.39-7.47,31.24,31.24,0,0,0-1.81-7.49,30.35,30.35,0,0,0-3.62-6.88,29.3,29.3,0,0,0-5.16-5.78,24.73,24.73,0,0,0-6.57-3.94c-.61-.21-1.19-.48-1.81-.64l-1.86-.47c-1.27-.19-2.45-.39-4-.57a33,33,0,0,1-8.8-2.29,27.77,27.77,0,0,1-7.71-4.86,32.23,32.23,0,0,1-9.07-15.11,48.49,48.49,0,0,1-1.74-17.11A52.77,52.77,0,0,0,471.68,37,47,47,0,0,0,474.11,45c2.07,5.14,5.15,9.9,9.43,13.1a26,26,0,0,0,14.76,5.22c1.23.07,2.89.18,4.44.36l2.31.47c.76.16,1.5.45,2.25.67a29.78,29.78,0,0,1,8.24,4.42,35.23,35.23,0,0,1,11.08,14.67,37,37,0,0,1,2.44,9,29.94,29.94,0,0,1-.23,9.53,24.09,24.09,0,0,1-3.71,9.09,22.87,22.87,0,0,1-7.2,6.79,28.64,28.64,0,0,1-8.91,3.56A43.94,43.94,0,0,1,499.8,123c-1.53,0-3.06-.08-4.59-.19l-2.31-.28c-.39,0-.77-.09-1.16-.16l-1.15-.25a29.63,29.63,0,0,1-9-3.28c-.7-.43-1.43-.8-2.09-1.3l-2-1.52c-.6-.57-1.19-1.17-1.78-1.75s-1.06-1.29-1.59-1.94a23.4,23.4,0,0,1-4-9,29.41,29.41,0,0,1-.42-9.57A36.36,36.36,0,0,1,483.09,70a33.84,33.84,0,0,1,8.05-4.6l2.19-.79,2.25-.58a17.51,17.51,0,0,1,2.28-.39l1.15-.16,1-.13a29.37,29.37,0,0,0,14.81-5.57,31,31,0,0,0,9.82-12.87,45.42,45.42,0,0,0,2.61-8A48.33,48.33,0,0,0,528.51,28.55Z"/><path class="cls-2" d="M224.83,43.45a29.1,29.1,0,0,1,4.31.95,23.85,23.85,0,0,1,4.16,1.65A13.47,13.47,0,0,1,237,48.82a8.21,8.21,0,0,1,1.36,2.08,6.78,6.78,0,0,1,.6,2.47,11.12,11.12,0,0,1-.77,4.81,15.35,15.35,0,0,1-2.47,4.13,24.36,24.36,0,0,1-7.32,5.8,45.41,45.41,0,0,1-17.57,4.79,35.87,35.87,0,0,0-15.45,4.86,25.49,25.49,0,0,0-10.26,11.5,18.33,18.33,0,0,0-.19,14.5,19.72,19.72,0,0,0,10.62,10,45.56,45.56,0,0,0,31.45,0,19.65,19.65,0,0,0,10.61-10,18.3,18.3,0,0,0-.18-14.49,25.52,25.52,0,0,0-10.26-11.49,35.69,35.69,0,0,0-15.45-4.86,45.47,45.47,0,0,1-17.57-4.8,24.21,24.21,0,0,1-7.32-5.8,15.2,15.2,0,0,1-2.47-4.12,11.21,11.21,0,0,1-.77-4.83,6.78,6.78,0,0,1,.6-2.46,8,8,0,0,1,1.36-2.08,13,13,0,0,1,3.72-2.77,23,23,0,0,1,4.15-1.65,29.38,29.38,0,0,1,4.31-.95,29.62,29.62,0,0,0-7.81,3.68,11.74,11.74,0,0,0-3,2.81,5.6,5.6,0,0,0-1.06,3.5,10.15,10.15,0,0,0,3.19,6.88,22.29,22.29,0,0,0,6.7,4.52,34.7,34.7,0,0,0,7.9,2.47,41.27,41.27,0,0,0,4.14.6c.69.07,1.39.11,2.08.16l2.15.09A41,41,0,0,1,230,73a32,32,0,0,1,7.62,5.78,29.15,29.15,0,0,1,5.5,8,26.17,26.17,0,0,1,2.36,9.62A23.2,23.2,0,0,1,238,114.62a29.36,29.36,0,0,1-8.25,5.41,50.14,50.14,0,0,1-37,0,29.36,29.36,0,0,1-8.25-5.41,23.23,23.23,0,0,1-7.42-18.24,26.16,26.16,0,0,1,2.35-9.62,29.1,29.1,0,0,1,5.5-8A31.87,31.87,0,0,1,192.62,73a40.73,40.73,0,0,1,17.9-4.79l2.15-.09c.69,0,1.39-.08,2.08-.16a40.67,40.67,0,0,0,4.13-.6,35.45,35.45,0,0,0,7.91-2.47,22.29,22.29,0,0,0,6.7-4.52,10.17,10.17,0,0,0,3.19-6.89,5.56,5.56,0,0,0-1.06-3.5,11.61,11.61,0,0,0-3-2.82A30,30,0,0,0,224.83,43.45Z"/><path class="cls-2" d="M221.78,39.78a15.2,15.2,0,0,1-2.22,8,10.7,10.7,0,0,1-3,3.17,8.89,8.89,0,0,1-4.29,1.58,9,9,0,0,1-4.69-.89,11.2,11.2,0,0,1-3.75-3,14.49,14.49,0,0,1,0-17.77,11.26,11.26,0,0,1,3.76-3,9.12,9.12,0,0,1,4.69-.89,8.87,8.87,0,0,1,4.29,1.59,10.57,10.57,0,0,1,3,3.17A15.23,15.23,0,0,1,221.78,39.78Zm0,0a12.26,12.26,0,0,0-2.67-7.71A9.33,9.33,0,0,0,216,29.62a7.15,7.15,0,0,0-3.69-.62,7.79,7.79,0,0,0-5.65,3.93,13.72,13.72,0,0,0,0,13.71,7.78,7.78,0,0,0,5.66,3.93A7,7,0,0,0,216,50a9.18,9.18,0,0,0,3.14-2.46A12.29,12.29,0,0,0,221.78,39.78Z"/><path class="cls-2" d="M551.18,349a51.66,51.66,0,1,1-87.32-37.39,41.78,41.78,0,1,0,71.31,0A51.55,51.55,0,0,1,551.18,349Z"/><circle class="cls-2" cx="499.52" cy="335.44" r="14.24"/><path class="cls-2" d="M353,386.12c-4.53-.41-7.88-3.39-8.09-8.1-.19-4.1,3.86-8.48,8.09-8.1a82.85,82.85,0,0,0,12.1.23,58.78,58.78,0,0,0,10.75-1.48,71.57,71.57,0,0,0,21.42-8.23h0c11.38-8,15.27-32.18,2.29-43.92-24.14-21.81-38.78,11.32-38.78,11.32S345.87,294.44,322,316.51a23.19,23.19,0,0,0-6.36,9.59,10.3,10.3,0,0,0,6.92,13.26l.09,0c2.58.73,5.2,1.33,7.83,1.81a59.77,59.77,0,0,0,6.29.89c11.92,1.17,23.93.46,35.86-.25,4.53-.27,7.91,3.92,8.1,8.09.2,4.56-3.88,7.85-8.1,8.1-12.88.77-26.1,1.33-38.94-.16A6.53,6.53,0,0,0,327.52,368a189.09,189.09,0,0,0,31,34.39,3.46,3.46,0,0,0,4.52,0c3-2.64,6.35-5.71,9.74-9.1a4.28,4.28,0,0,0-3.48-7.28A87.23,87.23,0,0,1,353,386.12Z"/><path class="cls-6" d="M81.59,190.43a10,10,0,0,1-20,0c0-6.1,3.94-14.55,15.15-13.22,10.41,1.23,13.56,15.06,3.56,26C71,213.46,52.76,221.44,44.41,214.32s-.28-20.27,8.08-24.52"/><path class="cls-6" d="M91.25,194.05s14.1,12.56,4.24,23-22.7-1-22.7-1-6.53,4.28-19.87,6.31C35.08,225,21.54,244.64,39.39,250.49c15,4.93,39.64,6.85,55,1.46,10.85-3.8,12.81-11.57,8-16.09C97.29,231,85,229.52,85,229.52"/><path class="cls-2" d="M115.52,486.71A48,48,0,0,1,20.36,496a48,48,0,0,0,86.84-36.35A47.83,47.83,0,0,1,115.52,486.71Z"/><circle class="cls-2" cx="67.94" cy="487.55" r="12.36"/><path class="cls-2" d="M229.88,461.86a33.61,33.61,0,0,1-66.59,6.53,33.61,33.61,0,0,0,61.4-18.92,34.16,34.16,0,0,0-.63-6.52A33.49,33.49,0,0,1,229.88,461.86Z"/><path class="cls-2" d="M192.7,532.56A33.61,33.61,0,0,1,259.29,526a33.61,33.61,0,0,0-60.77,25.43A33.41,33.41,0,0,1,192.7,532.56Z"/><circle class="cls-2" cx="196.58" cy="462.46" r="8.65"/><path class="cls-6" d="M232.55,176.54s9,10.09-.37,21.8c-7.18,9-15.37,4.52-15.37,4.52s1.44,15.45-20.7,18.53c-22.9,3.18-32.77,23.31-14.13,29.42,15.7,5.15,41.4,7.15,57.44,1.53,11.32-4,13.37-12.09,8.39-16.8-5.36-5.08-18.26-6.62-18.26-6.62"/><path class="cls-6" d="M196.44,189.38c-8.79,2.54-12.62,12.06-11.5,16.91,2.2,9.46,12.79,11.13,20.29,5.24,10.07-7.91,1.51-13.18,1.51-22.49,0-7.77,5.72-12.5,11.5-12.5A10.49,10.49,0,0,1,228.73,187c0,5.78-4.57,10.48-9,10.48-5.79,0-9.17-4.91-8-7.95"/><path class="cls-6" d="M387.2,190.15s15.47,9.68,4.21,20.3c-10.34,9.77-23.75-4.59-23.75-4.59s.67,12.45-21.47,15.53c-22.9,3.18-32.77,23.31-14.13,29.42,15.7,5.15,41.4,7.15,57.44,1.53,11.32-4,13.37-12.09,8.39-16.8-5.37-5.08-18.26-6.62-18.26-6.62"/><path class="cls-6" d="M346.52,189.38c-8.79,2.54-12.62,12.06-11.5,16.91,2.2,9.46,12.79,11.13,20.29,5.24,10.07-7.91,1.51-13.18,1.51-22.49,0-7.77,5.72-12.5,11.5-12.5A10.48,10.48,0,0,1,378.8,187c0,5.78-4.56,10.48-9,10.48-5.78,0-9.16-4.91-7.95-7.95"/><path class="cls-2" d="M409.7,465.53a50.11,50.11,0,1,1-96.67,0h20.91a37.62,37.62,0,1,0,54.85,0"/><line class="cls-2" x1="333.94" y1="465.53" x2="313.03" y2="465.54"/><circle class="cls-2" cx="361.37" cy="489.52" r="15.12"/><path class="cls-6" d="M527,233.33a29.85,29.85,0,1,1-47.81-23.84A29.84,29.84,0,0,0,519.88,214,29.73,29.73,0,0,1,527,233.33Z"/><path class="cls-6" d="M526.09,172.67a29.85,29.85,0,1,1-45.28-3.59"/><circle class="cls-6" cx="502.54" cy="186.34" r="12.27"/><path class="cls-2" d="M82.25,320.84a15,15,0,1,1-15-15A15,15,0,0,1,82.25,320.84Z"/><path class="cls-2" d="M88.2,406.29l-2.29,0c-.22,0-1,0-2.34,0-9.42,0-43.81-.47-52.07-7.12-2.85-2.3-4.87-7.24-3.15-11.25,1.13-2.63,4.83-6.83,16.92-5.22,10.11,1.34,18,7.31,25.64,13.08,5.11,3.86,9.93,7.51,15.17,9.61Z"/><path class="cls-2" d="M106.86,401.22c-1.24,2.67-3.2,4.11-5.58,4.11h-.36c-10.48-.65-29.7-13.1-34-17.79l-.85-.92,1.24.16a61.49,61.49,0,0,0,28-4.22c4.68-1.91,7.65-.23,9.31,1.52C108.57,388.17,109.05,396.51,106.86,401.22Z"/><path class="cls-2" d="M99.83,351.92A12.15,12.15,0,0,1,97.89,358l-.53,0a4.38,4.38,0,0,1-.5,0c-.52,0-1.07-.09-1.69-.16a94.76,94.76,0,0,1-20.72-4.47h0l-1.76-.62-.55-.2-.59-.23A69.49,69.49,0,0,0,84,343.78c3.48-2.94,7.38-3.67,10.69-2S100.11,347.38,99.83,351.92Z"/><path class="cls-2" d="M101.77,360.86l-1.2.82c-.1.08-7.09,4.71-22,5.64h0q-2.46.15-5.22.15a111.68,111.68,0,0,1-21.9-2.33c-4.78-1-10.09-2.56-13.16-6.31h0a11.64,11.64,0,0,1-2.6-6.91c-.28-4.54,1.68-8.42,5.13-10.15s7.2-.93,10.69,2a63.35,63.35,0,0,0,15.09,9.34c.56.25,1.12.5,1.69.73l.59.25a5.31,5.31,0,0,1,.55.23l1.79.69h0a96.45,96.45,0,0,0,20.9,5.13l2.18.27.65.06.63.07,1.88.16c1.77.12,2.81.14,2.86.14Z"/></svg>