<svg xmlns="http://www.w3.org/2000/svg" viewBox="0 0 332.22 326.11"><defs><style>.cls-1,.cls-2{fill:#eef4f3;stroke:#eef4f3;stroke-miterlimit:10;}.cls-1{stroke-width:8px;}.cls-2{stroke-width:3px;fill-rule:evenodd;}</style></defs><title>Artboard 13Web</title><g id="Info"><path class="cls-1" d="M166.11,25A138.09,138.09,0,1,1,68.47,65.45,137.43,137.43,0,0,1,166.11,25ZM256.19,73.1a127.48,127.48,0,1,0,37.23,90,127.22,127.22,0,0,0-37.23-90Z"/><path class="cls-2" d="M130.79,163.1a35.36,35.36,0,1,1,35.32,35.4,35.41,35.41,0,0,1-35.32-35.4Zm71.87-69.2h-73a32.81,32.81,0,0,0-32.73,32.72v73a32.86,32.86,0,0,0,32.73,32.72h73a32.81,32.81,0,0,0,32.73-32.72v-73A32.76,32.76,0,0,0,202.66,93.9Zm-73,8.18h73a24.57,24.57,0,0,1,24.55,24.54v73a24.57,24.57,0,0,1-24.55,24.54h-73a24.56,24.56,0,0,1-24.54-24.54v-73a24.56,24.56,0,0,1,24.54-24.54Zm80.29,10.32a7.19,7.19,0,1,0,7.18,7.19,7.18,7.18,0,0,0-7.18-7.19Zm.84,50.7a44.66,44.66,0,1,0-44.66,44.65,44.66,44.66,0,0,0,44.66-44.65Z"/></g></svg>