<svg xmlns="http://www.w3.org/2000/svg" viewBox="0 0 144 144"><defs><style>.cls-1{fill:none;stroke:#2c2e2e;stroke-linecap:round;stroke-linejoin:round;stroke-width:3px;}</style></defs><title>Artboard 33 copy 9scroll</title><g id="Information"><path class="cls-1" d="M76.8,118a4.61,4.61,0,0,1-9.22,0"/><path class="cls-1" d="M96.77,70A24.59,24.59,0,1,0,62.44,92.54v4.19H82.57V92.26A24.59,24.59,0,0,0,96.77,70Z"/><rect class="cls-1" x="58.6" y="96.73" width="27.81" height="7.11" rx="3.41" ry="3.41"/><rect class="cls-1" x="58.6" y="103.84" width="27.81" height="7.11" rx="3.41" ry="3.41"/><rect class="cls-1" x="58.6" y="110.95" width="27.81" height="7.11" rx="3.41" ry="3.41"/><path class="cls-1" d="M76.77,96.73V71.79c0-5.48,1.45-7.89,3.71-7.89s3.7,5.31,0,7.57a17.21,17.21,0,0,1-8,2.25,17.23,17.23,0,0,1-8-2.25c-3.7-2.26-2.25-7.57,0-7.57s3.71,2.41,3.71,7.89V96.73"/><line class="cls-1" x1="95.39" y1="46.7" x2="106.55" y2="35.53"/><line class="cls-1" x1="38.46" y1="35.53" x2="49.62" y2="46.7"/><line class="cls-1" x1="104.69" y1="69.58" x2="120.65" y2="69.58"/><line class="cls-1" x1="24.36" y1="69.58" x2="40.17" y2="69.58"/><line class="cls-1" x1="72.51" y1="21.43" x2="72.51" y2="37.22"/><line class="cls-1" x1="102.35" y1="57.06" x2="116.9" y2="50.95"/><line class="cls-1" x1="28.11" y1="88.21" x2="42.66" y2="82.1"/><line class="cls-1" x1="53.88" y1="25.18" x2="59.98" y2="39.73"/><line class="cls-1" x1="102.46" y1="81.83" x2="117.07" y2="87.8"/><line class="cls-1" x1="27.94" y1="51.36" x2="42.55" y2="57.33"/><line class="cls-1" x1="90.73" y1="25.01" x2="84.75" y2="39.62"/></g></svg>