<svg xmlns="http://www.w3.org/2000/svg" viewBox="0 0 495.47 288"><defs><style>.cls-1{fill:#2c2e2e;}</style></defs><title>Artboard 33 copy 2scroll</title><g id="Information"><path class="cls-1" d="M147.64,134.56a7.52,7.52,0,0,1-1.22-.34c-.38-.15-.73-.29-1-.43v-1h6.8v1a5.36,5.36,0,0,1-.84.43,6.58,6.58,0,0,1-1.09.34l-6.16,17-2.65.32-6.91-17.28a9.33,9.33,0,0,1-1.07-.33,5.5,5.5,0,0,1-.94-.44v-1h8.92v1c-.3.14-.64.28-1,.43a7.21,7.21,0,0,1-1.17.34L143,145.12l.61,2.51h.06l.58-2.57Z"/><path class="cls-1" d="M165.48,145.89h1.09c.07.29.14.63.2,1s.12.83.16,1.29.08.91.1,1.35,0,.85,0,1.21a6.5,6.5,0,0,1-2.35.83,17,17,0,0,1-2.88.24,13.73,13.73,0,0,1-4-.55,7.52,7.52,0,0,1-5.05-4.77,12.51,12.51,0,0,1-.69-4.4,11.33,11.33,0,0,1,.76-4.38,8.32,8.32,0,0,1,2.05-3,7.86,7.86,0,0,1,3-1.73,11.4,11.4,0,0,1,3.57-.55,18.31,18.31,0,0,1,3.2.25,9.1,9.1,0,0,1,2.34.69c0,.28,0,.65,0,1.09s-.07.92-.13,1.41-.13,1-.21,1.45-.16.87-.23,1.19h-1.13l-1.47-4.05a2.62,2.62,0,0,0-.78-.21,7.77,7.77,0,0,0-1.09-.08,5,5,0,0,0-2.07.44,4.72,4.72,0,0,0-1.71,1.41,7.25,7.25,0,0,0-1.18,2.48,13.55,13.55,0,0,0-.43,3.62A9.78,9.78,0,0,0,158,148a4.9,4.9,0,0,0,4.15,2.06,5.7,5.7,0,0,0,1.27-.12,1.27,1.27,0,0,0,.71-.34Z"/><path class="cls-1" d="M168.66,132.77h8.25v1a5.75,5.75,0,0,1-2,.77v10.32a6.92,6.92,0,0,0,.29,2.19,3.45,3.45,0,0,0,.86,1.43,3.16,3.16,0,0,0,1.35.79,5.8,5.8,0,0,0,1.78.25,4.91,4.91,0,0,0,1.62-.26,3.27,3.27,0,0,0,1.29-.82,3.74,3.74,0,0,0,.84-1.47,7.23,7.23,0,0,0,.29-2.25v-10a10,10,0,0,1-1.27-.38,4.94,4.94,0,0,1-1.08-.53v-1h6.64v1a4.35,4.35,0,0,1-1.07.56,11.47,11.47,0,0,1-1.15.35v10.07a7,7,0,0,1-1.81,5.21,7,7,0,0,1-5.1,1.78,8.54,8.54,0,0,1-5.55-1.61q-2-1.6-1.95-5.14V134.56a5.82,5.82,0,0,1-1.13-.28,5.53,5.53,0,0,1-1.07-.49Z"/><path class="cls-1" d="M195.39,132.77h8.78v1a7,7,0,0,1-1.24.49,7.53,7.53,0,0,1-1.33.28v15.22h5.17l1.8-4.8h1.09c.08.41.14.9.2,1.45s.12,1.13.15,1.74.06,1.21.08,1.79,0,1.11,0,1.56h-14.7v-1a9.46,9.46,0,0,1,1.17-.51,7.5,7.5,0,0,1,1-.27V134.56a5.82,5.82,0,0,1-2.2-.77Z"/><path class="cls-1" d="M218.69,151.52H211.3v-1a6.12,6.12,0,0,1,.83-.36c.28-.1.6-.2.94-.29V140l-1.77-.21v-1a9.21,9.21,0,0,1,1-.32c.4-.11.83-.2,1.27-.28l1.32-.22,1.12-.14h.91v12.05c.36.09.68.18,1,.28a5.27,5.27,0,0,1,.8.36Zm-6-17.78a1.85,1.85,0,0,1,.64-1.48,2.8,2.8,0,0,1,3.28,0,1.85,1.85,0,0,1,.64,1.48,1.81,1.81,0,0,1-.64,1.44,2.76,2.76,0,0,1-3.28,0A1.81,1.81,0,0,1,212.66,133.74Z"/><path class="cls-1" d="M221.15,133.57l-2-.21v-1a10.21,10.21,0,0,1,1.06-.32c.43-.11.89-.2,1.36-.28l1.39-.21q.69-.1,1.17-.15H225v9.26h.05a4.73,4.73,0,0,1,7.9-1.2,7.78,7.78,0,0,1,1.32,4.95,7.25,7.25,0,0,1-1.95,5.52,8,8,0,0,1-5.69,1.85,12.14,12.14,0,0,1-1.5-.1c-.55-.06-1.09-.13-1.6-.22s-1-.2-1.44-.32a4,4,0,0,1-.95-.38Zm6.4,6.38a2,2,0,0,0-1.63.73,4.88,4.88,0,0,0-.91,1.87v7.09a3.14,3.14,0,0,0,.92.43,4.36,4.36,0,0,0,1.25.16,2.34,2.34,0,0,0,2.23-1.36,9.66,9.66,0,0,0,.71-4.29,8.28,8.28,0,0,0-.57-3.37A2,2,0,0,0,227.55,140Z"/><path class="cls-1" d="M242.87,141.21a3.64,3.64,0,0,0-.75.53,3.44,3.44,0,0,0-.77,1.24v6.88a5.91,5.91,0,0,1,1.07.2,5,5,0,0,1,1.07.44v1h-7.77v-1a5,5,0,0,1,.91-.4l.86-.25V140l-1.77-.21v-1a6.92,6.92,0,0,1,1.06-.35c.42-.11.85-.2,1.3-.28s.88-.15,1.3-.2l1.06-.13h.91v3.56h.1a6.84,6.84,0,0,1,.63-1.23,6.54,6.54,0,0,1,1-1.18,4.8,4.8,0,0,1,1.23-.86,3,3,0,0,1,1.4-.29,3.43,3.43,0,0,1,.5,1.05,13.44,13.44,0,0,1,.35,1.3v1.05Z"/><path class="cls-1" d="M259.24,147.63c0,.4,0,.74,0,1s0,.59.07.91l1.84.27v.94a5.12,5.12,0,0,1-.87.32c-.36.11-.75.21-1.15.31s-.8.18-1.19.24l-1,.15H256a4.08,4.08,0,0,1-.33-1.24c0-.41-.06-.91-.08-1.5h-.13a3.53,3.53,0,0,1-.45,1,3.79,3.79,0,0,1-.82.88,4.08,4.08,0,0,1-1.17.63,4.37,4.37,0,0,1-1.5.24,4.76,4.76,0,0,1-1.63-.27,4.11,4.11,0,0,1-1.31-.75,3.5,3.5,0,0,1-.89-1.16,3.66,3.66,0,0,1-.32-1.54,3.83,3.83,0,0,1,.46-2,3.38,3.38,0,0,1,1.43-1.27,8.51,8.51,0,0,1,2.52-.73,35.55,35.55,0,0,1,3.73-.35,8.26,8.26,0,0,0-.18-3.38,1.67,1.67,0,0,0-1.74-1.07,4.17,4.17,0,0,0-1.53.27l-1.26,3.21h-1.18a6.13,6.13,0,0,1-.41-.73,9.16,9.16,0,0,1-.38-.89c-.11-.31-.21-.63-.29-.95a8.44,8.44,0,0,1-.18-.93,7.89,7.89,0,0,1,2.63-1.1,13.83,13.83,0,0,1,3.4-.4,7.81,7.81,0,0,1,2.49.33,3.72,3.72,0,0,1,1.51.91,3.26,3.26,0,0,1,.77,1.35,6.34,6.34,0,0,1,.21,1.66c0,1.08,0,2-.07,2.91S259.24,146.72,259.24,147.63Zm-6,2.07a1.89,1.89,0,0,0,1-.22,2.58,2.58,0,0,0,.69-.51,2.06,2.06,0,0,0,.43-.64c.09-.23.17-.44.22-.61V145a13.68,13.68,0,0,0-2.06.16,3.2,3.2,0,0,0-1.26.44,1.64,1.64,0,0,0-.63.78,3.4,3.4,0,0,0-.17,1.13,2.35,2.35,0,0,0,.48,1.58A1.66,1.66,0,0,0,253.21,149.7Z"/><path class="cls-1" d="M269.33,141.21a3.64,3.64,0,0,0-.75.53,3.44,3.44,0,0,0-.77,1.24v6.88a5.91,5.91,0,0,1,1.07.2,5,5,0,0,1,1.07.44v1h-7.77v-1a5,5,0,0,1,.91-.4l.86-.25V140l-1.77-.21v-1a6.92,6.92,0,0,1,1.06-.35c.42-.11.85-.2,1.3-.28s.88-.15,1.3-.2l1.06-.13h.91v3.56h.1a6.84,6.84,0,0,1,.63-1.23,6.54,6.54,0,0,1,1-1.18,4.8,4.8,0,0,1,1.23-.86,3,3,0,0,1,1.39-.29,3.21,3.21,0,0,1,.51,1.05,13.44,13.44,0,0,1,.35,1.3v1.05Z"/><path class="cls-1" d="M274.13,139.79a3.79,3.79,0,0,1-.74-.27,6.73,6.73,0,0,1-.68-.38v-1h7v1a5.85,5.85,0,0,1-1.53.67l2.71,6.74.45,1.72h.06l.43-1.75,2.09-6.71a3.71,3.71,0,0,1-1.48-.65v-1h5.17v1a5,5,0,0,1-1.53.65l-4.36,11.73a18.35,18.35,0,0,1-1.29,2.8,8.17,8.17,0,0,1-1.28,1.72,3.89,3.89,0,0,1-1.29.9,5.52,5.52,0,0,1-1.28.34,2.49,2.49,0,0,1-.48-.61,5,5,0,0,1-.38-.77,6.45,6.45,0,0,1-.27-.85,4.92,4.92,0,0,1-.13-.8l.35-.64H279a5.16,5.16,0,0,0,.42-.81,11.66,11.66,0,0,0,.41-1.28Z"/><path class="cls-1" d="M295,132.77h8.78v1a7,7,0,0,1-1.24.49,7.53,7.53,0,0,1-1.33.28v15.22h5.17l1.79-4.8h1.1c.07.41.14.9.2,1.45s.11,1.13.15,1.74.06,1.21.08,1.79,0,1.11,0,1.56H295v-1a10.07,10.07,0,0,1,1.16-.51,8.32,8.32,0,0,1,1-.27V134.56a5.83,5.83,0,0,1-2.19-.77Z"/><path class="cls-1" d="M322.68,147.63c0,.4,0,.74,0,1s0,.59.06.91l1.85.27v.94a5.47,5.47,0,0,1-.87.32c-.37.11-.75.21-1.15.31s-.8.18-1.19.24l-1,.15h-.91a4.06,4.06,0,0,1-.32-1.24c0-.41-.06-.91-.08-1.5h-.13a3.52,3.52,0,0,1-1.28,1.92,4.16,4.16,0,0,1-1.16.63,4.45,4.45,0,0,1-1.5.24,4.82,4.82,0,0,1-1.64-.27,4.34,4.34,0,0,1-1.31-.75,3.47,3.47,0,0,1-.88-1.16,3.51,3.51,0,0,1-.32-1.54,3.93,3.93,0,0,1,.45-2,3.41,3.41,0,0,1,1.44-1.27,8.53,8.53,0,0,1,2.51-.73,35.77,35.77,0,0,1,3.74-.35,8.22,8.22,0,0,0-.19-3.38,1.67,1.67,0,0,0-1.74-1.07,4.24,4.24,0,0,0-1.53.27l-1.25,3.21h-1.18a6.12,6.12,0,0,1-.42-.73,9.16,9.16,0,0,1-.37-.89,8,8,0,0,1-.3-.95,6.54,6.54,0,0,1-.17-.93,7.83,7.83,0,0,1,2.62-1.1,13.89,13.89,0,0,1,3.4-.4,7.81,7.81,0,0,1,2.49.33,3.76,3.76,0,0,1,1.52.91,3.24,3.24,0,0,1,.76,1.35,6.34,6.34,0,0,1,.22,1.66c0,1.08,0,2-.07,2.91S322.68,146.72,322.68,147.63Zm-6,2.07a2,2,0,0,0,1-.22,2.38,2.38,0,0,0,.68-.51,2.06,2.06,0,0,0,.43-.64,5.5,5.5,0,0,0,.23-.61V145a13.57,13.57,0,0,0-2.06.16,3.09,3.09,0,0,0-1.26.44,1.53,1.53,0,0,0-.63.78,3.15,3.15,0,0,0-.18,1.13,2.35,2.35,0,0,0,.49,1.58A1.65,1.65,0,0,0,316.66,149.7Z"/><path class="cls-1" d="M330.37,151.84l-4.21-12.05-.73-.28a3.83,3.83,0,0,1-.69-.37v-1h6.78v1l-.75.39a5.16,5.16,0,0,1-.78.28l1.85,6.87.35,2.07h.05l.48-2.14,2.84-8.3,1.32-.16,3.05,8.49.56,2.11h.06l.42-2.09,1.61-6.85a3.52,3.52,0,0,1-.68-.22,3.85,3.85,0,0,1-.79-.43v-1h5.17v1a5.24,5.24,0,0,1-1.53.65L341,151.52l-2.52.32-2.3-6.62L335.7,143h-.08l-.62,2.22-2.14,6.3Z"/><path class="cls-1" d="M362.93,151.52h-7.09v-1c.23-.13.46-.24.68-.34s.49-.2.79-.3v-6.31a6,6,0,0,0-.48-2.65,1.77,1.77,0,0,0-1.72-1,2.54,2.54,0,0,0-1.75.66,4,4,0,0,0-1.11,1.78v7.47a4.52,4.52,0,0,1,.76.25,5.73,5.73,0,0,1,.71.39v1h-7.1v-1a9.43,9.43,0,0,1,1.77-.65V140l-1.77-.21v-1a6,6,0,0,1,.91-.31c.38-.1.79-.19,1.22-.28s.89-.16,1.34-.23.87-.11,1.25-.14h.91v2.75h0a5.32,5.32,0,0,1,1.68-1.94,4.55,4.55,0,0,1,2.73-.81,6.43,6.43,0,0,1,1.88.25,3,3,0,0,1,1.4.9,4.35,4.35,0,0,1,.89,1.73,10.53,10.53,0,0,1,.31,2.75v6.42a4.62,4.62,0,0,1,1.76.64Z"/></g></svg>