<svg xmlns="http://www.w3.org/2000/svg" viewBox="0 0 495.47 288"><defs><style>.cls-1{fill:#2c2e2e;}.cls-2{fill:none;stroke:#2c2e2e;stroke-linecap:round;stroke-linejoin:round;stroke-width:3px;}</style></defs><title>Artboard 33scroll</title><g id="Information"><path class="cls-1" d="M153.13,171.19a9.1,9.1,0,0,1-1.22-.35c-.38-.14-.72-.28-1-.43v-1h6.8v1a4.06,4.06,0,0,1-.84.43,8,8,0,0,1-1.08.35l-6.16,16.95-2.65.32L140,171.19a9,9,0,0,1-1.08-.34,5.75,5.75,0,0,1-.93-.44v-1H147v1c-.31.15-.65.29-1,.43a9,9,0,0,1-1.18.35l3.75,10.55.62,2.52h0l.59-2.57Z"/><path class="cls-1" d="M171,182.52h1.1c.07.28.13.63.2,1s.11.83.16,1.28.07.91.09,1.36,0,.85,0,1.2a6.33,6.33,0,0,1-2.34.83,17.13,17.13,0,0,1-2.88.24,13.64,13.64,0,0,1-4-.55,7.48,7.48,0,0,1-3.08-1.74,7.82,7.82,0,0,1-2-3,12.33,12.33,0,0,1-.7-4.41,11.59,11.59,0,0,1,.76-4.38,8.54,8.54,0,0,1,2.05-3,8.21,8.21,0,0,1,3-1.73,11.71,11.71,0,0,1,3.58-.55,18.42,18.42,0,0,1,3.2.26,9.83,9.83,0,0,1,2.34.68c0,.29,0,.65,0,1.1s-.07.91-.14,1.41-.13,1-.21,1.44-.16.87-.23,1.19h-1.12l-1.48-4a2.28,2.28,0,0,0-.77-.21,6.71,6.71,0,0,0-1.1-.09,4.8,4.8,0,0,0-2.06.45,4.62,4.62,0,0,0-1.72,1.4,7.15,7.15,0,0,0-1.17,2.48,13.28,13.28,0,0,0-.43,3.63,9.82,9.82,0,0,0,1.52,5.89,4.88,4.88,0,0,0,4.15,2.06,5.86,5.86,0,0,0,1.28-.12,1.42,1.42,0,0,0,.71-.33Z"/><path class="cls-1" d="M174.16,169.4h8.24v1a5.44,5.44,0,0,1-2,.78V181.5a7.24,7.24,0,0,0,.29,2.2,3.62,3.62,0,0,0,.86,1.43,3.28,3.28,0,0,0,1.35.79,6.13,6.13,0,0,0,1.78.24,4.92,4.92,0,0,0,1.62-.25,3.31,3.31,0,0,0,1.29-.82,3.64,3.64,0,0,0,.84-1.47,7.3,7.3,0,0,0,.3-2.25V171.32a9.47,9.47,0,0,1-1.27-.37,4.81,4.81,0,0,1-1.09-.54v-1H193v1a4.38,4.38,0,0,1-1.07.57,10.63,10.63,0,0,1-1.15.34v10.07a6.27,6.27,0,0,1-6.91,7,8.51,8.51,0,0,1-5.54-1.6q-2-1.6-2-5.15V171.19a6.32,6.32,0,0,1-1.12-.28,5.28,5.28,0,0,1-1.07-.5Z"/><path class="cls-1" d="M200.88,169.4h8.79v1a7.08,7.08,0,0,1-1.25.5,8.2,8.2,0,0,1-1.32.28V186.4h5.17l1.79-4.79h1.1c.07.41.14.89.2,1.44s.11,1.14.15,1.74.06,1.21.08,1.8,0,1.11,0,1.55H200.88v-1a7.17,7.17,0,0,1,1.17-.51,5.62,5.62,0,0,1,1-.27V171.19a5.66,5.66,0,0,1-2.2-.78Z"/><path class="cls-1" d="M224.18,188.14h-7.39v-1a5.54,5.54,0,0,1,.83-.37c.29-.1.6-.19.94-.28v-9.85l-1.77-.22v-1c.27-.1.6-.21,1-.32s.82-.2,1.27-.28l1.31-.21c.43-.07.8-.11,1.12-.15h.92v12c.35.09.67.18,1,.28a4.48,4.48,0,0,1,.8.37Zm-6-17.78a1.81,1.81,0,0,1,.63-1.47,2.76,2.76,0,0,1,3.28,0,2,2,0,0,1,0,2.92,2.8,2.8,0,0,1-3.28,0A1.81,1.81,0,0,1,218.16,170.36Z"/><path class="cls-1" d="M226.65,170.2l-2-.22v-1a6.89,6.89,0,0,1,1.06-.32c.44-.11.89-.21,1.36-.29l1.4-.21,1.16-.15h.91v9.27h.06a4.44,4.44,0,0,1,1.63-2.09,4.92,4.92,0,0,1,6.27.88,7.86,7.86,0,0,1,1.31,5,7.32,7.32,0,0,1-1.94,5.52,8,8,0,0,1-5.69,1.84,13.94,13.94,0,0,1-1.5-.09c-.56-.06-1.09-.14-1.61-.23a12.19,12.19,0,0,1-1.43-.32,3.67,3.67,0,0,1-.95-.38Zm6.4,6.37a2,2,0,0,0-1.64.74,4.76,4.76,0,0,0-.91,1.86v7.1a3.08,3.08,0,0,0,.93.43,4.66,4.66,0,0,0,1.24.16,2.37,2.37,0,0,0,2.24-1.37,9.79,9.79,0,0,0,.71-4.28,8.15,8.15,0,0,0-.58-3.38A2,2,0,0,0,233.05,176.57Z"/><path class="cls-1" d="M248.37,177.83a3.6,3.6,0,0,0-.75.54,3.18,3.18,0,0,0-.78,1.23v6.88a6.71,6.71,0,0,1,1.07.2,4.89,4.89,0,0,1,1.07.45v1h-7.76v-1a4.76,4.76,0,0,1,.91-.41c.28-.09.57-.17.85-.24v-9.85l-1.76-.22v-1a6.5,6.5,0,0,1,1.05-.34c.42-.11.86-.2,1.3-.29s.88-.14,1.3-.2l1.06-.13h.91V178H247a6,6,0,0,1,.63-1.23,6.41,6.41,0,0,1,1-1.18,4.93,4.93,0,0,1,1.24-.86,2.92,2.92,0,0,1,1.39-.29,3.61,3.61,0,0,1,.51,1.06c.14.45.26.89.35,1.3v1Z"/><path class="cls-1" d="M264.73,184.26c0,.39,0,.73,0,1s0,.59.07.91l1.85.27v.93a4.92,4.92,0,0,1-.87.32c-.37.11-.75.21-1.15.31s-.8.18-1.2.24-.74.11-1,.15h-.91a3.73,3.73,0,0,1-.32-1.23c0-.41-.06-.91-.08-1.5H261a3.47,3.47,0,0,1-.45,1,3.79,3.79,0,0,1-.82.88,4.16,4.16,0,0,1-1.16.63,4.45,4.45,0,0,1-1.5.24,5.08,5.08,0,0,1-1.64-.26,4.23,4.23,0,0,1-1.31-.75,3.41,3.41,0,0,1-.88-1.17,3.48,3.48,0,0,1-.32-1.54,3.92,3.92,0,0,1,.45-2,3.32,3.32,0,0,1,1.43-1.27,8.58,8.58,0,0,1,2.52-.74,35.77,35.77,0,0,1,3.74-.35,8.17,8.17,0,0,0-.19-3.37,1.65,1.65,0,0,0-1.74-1.07,4.47,4.47,0,0,0-1.53.26l-1.26,3.22h-1.17a5.14,5.14,0,0,1-.42-.74c-.13-.27-.26-.57-.38-.88s-.21-.63-.29-.95a6.67,6.67,0,0,1-.17-.94,8.27,8.27,0,0,1,2.62-1.1,13.89,13.89,0,0,1,3.4-.4,7.81,7.81,0,0,1,2.49.33,3.77,3.77,0,0,1,1.52.92,3.12,3.12,0,0,1,.76,1.35,6.34,6.34,0,0,1,.21,1.66c0,1.07,0,2-.06,2.9S264.73,183.35,264.73,184.26Zm-6,2.06a2.07,2.07,0,0,0,1-.21,2.75,2.75,0,0,0,.68-.51,2.18,2.18,0,0,0,.43-.64c.1-.24.17-.44.23-.62v-2.68a15.31,15.31,0,0,0-2.07.16,3.25,3.25,0,0,0-1.25.44,1.57,1.57,0,0,0-.63.78,3.17,3.17,0,0,0-.18,1.14,2.32,2.32,0,0,0,.49,1.58A1.66,1.66,0,0,0,258.7,186.32Z"/><path class="cls-1" d="M274.83,177.83a3.6,3.6,0,0,0-.75.54,3.18,3.18,0,0,0-.78,1.23v6.88a6.71,6.71,0,0,1,1.07.2,4.69,4.69,0,0,1,1.07.45v1h-7.76v-1a4.76,4.76,0,0,1,.91-.41c.28-.09.57-.17.85-.24v-9.85l-1.76-.22v-1a6.5,6.5,0,0,1,1.05-.34c.42-.11.86-.2,1.3-.29s.88-.14,1.3-.2l1.06-.13h.91V178h.11a6,6,0,0,1,.63-1.23,6.41,6.41,0,0,1,1-1.18,4.93,4.93,0,0,1,1.24-.86,2.92,2.92,0,0,1,1.39-.29,3.61,3.61,0,0,1,.51,1.06c.14.45.26.89.35,1.3v1Z"/><path class="cls-1" d="M279.62,176.41a4,4,0,0,1-.74-.27,6.58,6.58,0,0,1-.68-.37v-1h7v1a5.59,5.59,0,0,1-1.52.67l2.7,6.75.46,1.72h.05l.43-1.75,2.09-6.72a3.59,3.59,0,0,1-1.47-.64v-1h5.17v1a5.54,5.54,0,0,1-1.53.64l-4.37,11.73a18,18,0,0,1-1.28,2.8,8.93,8.93,0,0,1-1.29,1.73,3.86,3.86,0,0,1-1.28.9,5.1,5.1,0,0,1-1.29.33,2.44,2.44,0,0,1-.48-.6,5.65,5.65,0,0,1-.38-.78c-.1-.28-.19-.56-.26-.84a4.31,4.31,0,0,1-.14-.81l.35-.64h3.27a4.64,4.64,0,0,0,.41-.8,12.32,12.32,0,0,0,.42-1.29Z"/><path class="cls-1" d="M300.51,169.4h8.78v1a7,7,0,0,1-1.24.5,8.55,8.55,0,0,1-1.33.28V186.4h5.17l1.8-4.79h1.09c.08.41.14.89.2,1.44s.12,1.14.15,1.74.06,1.21.08,1.8,0,1.11,0,1.55h-14.7v-1a7.17,7.17,0,0,1,1.17-.51,5.42,5.42,0,0,1,1-.27V171.19a5.66,5.66,0,0,1-2.2-.78Z"/><path class="cls-1" d="M328.17,184.26c0,.39,0,.73,0,1s0,.59.07.91l1.84.27v.93a4.38,4.38,0,0,1-.87.32c-.36.11-.75.21-1.15.31s-.8.18-1.19.24-.74.11-1,.15h-.92a4.3,4.3,0,0,1-.32-1.23c0-.41-.06-.91-.08-1.5h-.13a3.26,3.26,0,0,1-.46,1,3.54,3.54,0,0,1-.81.88,4.08,4.08,0,0,1-1.17.63,4.37,4.37,0,0,1-1.5.24,5,5,0,0,1-1.63-.26,4.11,4.11,0,0,1-1.31-.75,3.44,3.44,0,0,1-.89-1.17,3.62,3.62,0,0,1-.32-1.54,3.82,3.82,0,0,1,.46-2,3.32,3.32,0,0,1,1.43-1.27,8.49,8.49,0,0,1,2.52-.74,35.55,35.55,0,0,1,3.73-.35,8,8,0,0,0-.19-3.37,1.64,1.64,0,0,0-1.74-1.07,4.37,4.37,0,0,0-1.52.26l-1.26,3.22h-1.18a6.3,6.3,0,0,1-.41-.74,9,9,0,0,1-.38-.88,8,8,0,0,1-.29-.95,8.6,8.6,0,0,1-.18-.94,8.33,8.33,0,0,1,2.63-1.1,13.83,13.83,0,0,1,3.4-.4,7.81,7.81,0,0,1,2.49.33,3.73,3.73,0,0,1,1.51.92,3,3,0,0,1,.76,1.35,6,6,0,0,1,.22,1.66c0,1.07,0,2-.07,2.9S328.17,183.35,328.17,184.26Zm-6,2.06a2,2,0,0,0,1-.21,2.81,2.81,0,0,0,.69-.51,2.4,2.4,0,0,0,.43-.64c.09-.24.17-.44.22-.62v-2.68a15.14,15.14,0,0,0-2.06.16,3.24,3.24,0,0,0-1.26.44,1.69,1.69,0,0,0-.63.78,3.42,3.42,0,0,0-.17,1.14,2.37,2.37,0,0,0,.48,1.58A1.69,1.69,0,0,0,322.15,186.32Z"/><path class="cls-1" d="M335.86,188.46l-4.2-12.05-.74-.28a4,4,0,0,1-.68-.36v-1H337v1a6.72,6.72,0,0,1-.75.39,4.45,4.45,0,0,1-.77.28l1.84,6.88.35,2.07h.06l.48-2.15,2.84-8.3,1.31-.16,3.05,8.49.57,2.12H346l.43-2.1,1.6-6.85a3,3,0,0,1-.68-.21,4.76,4.76,0,0,1-.79-.43v-1h5.17v1a5.29,5.29,0,0,1-1.53.64l-3.72,11.73-2.52.32-2.3-6.61-.51-2.22h-.08l-.62,2.22-2.14,6.29Z"/><path class="cls-1" d="M368.43,188.14h-7.1v-1c.23-.13.46-.24.68-.34l.79-.31v-6.31a5.93,5.93,0,0,0-.48-2.64,1.74,1.74,0,0,0-1.71-1,2.55,2.55,0,0,0-1.76.66,4,4,0,0,0-1.11,1.79v7.46a4.21,4.21,0,0,1,.76.26,4,4,0,0,1,.72.39v1h-7.1v-1a8.44,8.44,0,0,1,1.76-.65v-9.85l-1.76-.22v-1a5.37,5.37,0,0,1,.91-.3c.37-.1.78-.2,1.22-.28s.88-.17,1.34-.23.87-.11,1.24-.15h.91v2.76h0a5.27,5.27,0,0,1,1.69-1.94,4.49,4.49,0,0,1,2.73-.82,6.35,6.35,0,0,1,1.87.26,3.12,3.12,0,0,1,1.41.89,4.32,4.32,0,0,1,.88,1.74,10.07,10.07,0,0,1,.31,2.75v6.41a4.74,4.74,0,0,1,1.77.65Z"/><path class="cls-2" d="M253.23,129V57.26s10.52-7.9,29.66-7.9S310.84,60.3,310.84,60.3V129a65.36,65.36,0,0,0-57.61,0Z"/><path class="cls-2" d="M253.23,129V57.26s-10.52-7.9-29.67-7.9S195.61,60.3,195.61,60.3V129a65.38,65.38,0,0,1,57.62,0Z"/><path class="cls-2" d="M310.84,129l-10.09,7.21s-23.06-9.58-47.52,1c-24.46-10.59-47.53-1-47.53-1L195.61,129"/><path class="cls-2" d="M305.09,133.08s-21.37-13.11-51.86,0c-31.95-13.51-51.82,0-51.82,0"/><line class="cls-2" x1="253.23" y1="137.19" x2="253.23" y2="128.97"/></g></svg>