<svg id="Layer_1" data-name="Layer 1" xmlns="http://www.w3.org/2000/svg" viewBox="0 0 236.06 202.83"><defs><style>.cls-1,.cls-2{fill:#eef4f3;}.cls-2{font-size:34.78px;font-family:Moon-Bold, Moon;font-weight:700;}</style></defs><title>Artboard 10 copyWeb</title><path class="cls-1" d="M132.38,70.65c-2.37.52-4.2.86-6.07,1.12h-.12c-4.45-.14-8.89-2.82-11.75-6.09-2.13-2.45-5.68,1.12-3.55,3.55a21.42,21.42,0,0,0,3.5,3.21c-2.52,0-5-.16-7.55-.38-4.73-.42-9.25,4.46-9,9,.23,5.28,4,8.61,9,9.06A96.54,96.54,0,0,0,125.07,90c4.49-.44,13.45-1.43,3.89,8.13-3.8,3.79-7.49,7.23-10.89,10.17a3.85,3.85,0,0,1-5,0C102.33,99.07,88.65,85,78.4,69.91a7.29,7.29,0,0,1,6.87-11.33c14.35,1.67,29.14,1,43.52.18,4.72-.28,9.28-4,9.05-9-.21-4.66-4-9.35-9.05-9.05-3.12.19-6.25.37-9.38.52a18.12,18.12,0,0,0,2.52-3.45c1.6-2.83-2.75-5.36-4.35-2.54a11.75,11.75,0,0,1-10.53,6.38,3.1,3.1,0,0,0-.45,0A161.92,161.92,0,0,1,88.71,41a69.51,69.51,0,0,1-7-1,88.39,88.39,0,0,1-8.77-2l-.1,0A11.54,11.54,0,0,1,65.1,23.07a25.86,25.86,0,0,1,7.11-10.71c26.71-24.68,43.24,9,43.24,9s16.47-33.36,43.44-9c14.52,13.12,10.17,40.12-2.55,49.07,0,0,0,0,0,0A80.5,80.5,0,0,1,132.38,70.65Z"/><text class="cls-2" transform="translate(1.11 158.91)">Love Myself <tspan x="45.01" y="41.74">Project</tspan></text></svg>