<svg id="Layer_1" data-name="Layer 1" xmlns="http://www.w3.org/2000/svg" viewBox="0 0 519.5 36.34"><defs><style>.cls-1{fill:#7be9c2;}</style></defs><title>Artboard 24 copy 4Web</title><path class="cls-1" d="M46.7,22.47c-.71.15-1.26.26-1.81.33h0A5.15,5.15,0,0,1,41.33,21c-.64-.73-1.7.34-1.07,1.07a6.41,6.41,0,0,0,1.05,1c-.75,0-1.5-.05-2.26-.11a2.71,2.71,0,0,0-2.71,2.71,2.78,2.78,0,0,0,2.71,2.71,29.29,29.29,0,0,0,5.46,0c1.35-.14,4-.43,1.17,2.43-1.14,1.14-2.24,2.17-3.26,3a1.16,1.16,0,0,1-1.52,0A63.54,63.54,0,0,1,30.53,22.24a2.18,2.18,0,0,1,2.06-3.39,74.72,74.72,0,0,0,13,0,2.71,2.71,0,1,0,0-5.42l-2.81.16a5.31,5.31,0,0,0,.75-1,.75.75,0,0,0-1.3-.76,3.51,3.51,0,0,1-3.15,1.91l-.14,0a50.44,50.44,0,0,1-5.36-.2c-.84-.09-1.2-.14-2.1-.3a25.74,25.74,0,0,1-2.63-.61h0a3.46,3.46,0,0,1-2.32-4.44A7.73,7.73,0,0,1,28.67,5c8-7.4,13,2.69,13,2.69s4.94-10,13-2.69C59,8.93,57.7,17,53.88,19.7h0A24.38,24.38,0,0,1,46.7,22.47Z"/><path class="cls-1" d="M5.12,2.33A2.46,2.46,0,0,1,7,3.11,2.49,2.49,0,0,1,7.74,5V29H19.51a2.61,2.61,0,0,1,2.62,2.63,2.51,2.51,0,0,1-.75,1.84,2.55,2.55,0,0,1-1.87.78H5.12a2.47,2.47,0,0,1-1.85-.78,2.46,2.46,0,0,1-.78-1.84V5a2.49,2.49,0,0,1,.78-1.85A2.47,2.47,0,0,1,5.12,2.33Z"/><path class="cls-1" d="M85.69,2.6a2.5,2.5,0,0,1,1.49,1.34,2.53,2.53,0,0,1,.11,2L78,32.47v0l-.16.33a.43.43,0,0,1,0,.07l-.18.29s0,0,0,.06l-.23.23,0,0a3.2,3.2,0,0,1-.27.22s0,0,0,0a1.59,1.59,0,0,1-.29.15l-.05,0-.26.11-.05,0a1.37,1.37,0,0,1-.29.07l-.11,0a2.12,2.12,0,0,1-.42,0,2,2,0,0,1-.42,0s0,0-.12,0a1.42,1.42,0,0,1-.28-.07l-.05,0L74.36,34l-.06,0a1.82,1.82,0,0,1-.27-.15l0,0,0,0a.84.84,0,0,1-.27-.22s0,0-.07,0-.14-.15-.2-.23,0,0,0-.06l-.18-.29,0-.07c-.05-.12-.11-.23-.15-.33v0L63.71,5.94a2.53,2.53,0,0,1,.11-2A2.5,2.5,0,0,1,65.31,2.6a2.62,2.62,0,0,1,3.34,1.6L75.5,23.71,82.35,4.2a2.51,2.51,0,0,1,1.33-1.49l1-.46Z"/><path class="cls-1" d="M112.91,29a2.47,2.47,0,0,1,1.85.78,2.55,2.55,0,0,1,.78,1.87,2.66,2.66,0,0,1-2.63,2.62H96.81a2.66,2.66,0,0,1-2.63-2.62V4.94A2.5,2.5,0,0,1,95,3.07a2.49,2.49,0,0,1,1.85-.78h0l16.08,0a2.55,2.55,0,0,1,1.87.78A2.57,2.57,0,0,1,115.54,5a2.49,2.49,0,0,1-.78,1.85,2.47,2.47,0,0,1-1.85.78h0L99.46,7.56v8.08h9.69a2.6,2.6,0,0,1,1.87.75,2.63,2.63,0,0,1,0,3.74,2.61,2.61,0,0,1-1.87.76H99.46V29Z"/><path class="cls-1" d="M161.94,2.33a2.68,2.68,0,0,1,1.38,1,2.49,2.49,0,0,1,.53,1.58V31.61a2.51,2.51,0,0,1-.75,1.84,2.63,2.63,0,0,1-4.5-1.84V14.3L150.31,28v0l0,0,0,0,0,0-.09.16-.06.09-.12.11-.09.09-.08.09-.14.11-.06.07-.16.08s0,0,0,0l0,0h0a.49.49,0,0,1-.15.09l-.07,0-.13.05a2.61,2.61,0,0,1-1.07.2h0s0,0-.09,0a2.29,2.29,0,0,1-.58-.11l-.09,0s0,0-.09,0l-.16-.07s0,0,0,0l-.18-.09h0l0,0,0,0a.53.53,0,0,1-.15-.11s0,0-.07,0l-.13-.11-.09-.09-.09-.09a.28.28,0,0,0-.11-.11.45.45,0,0,1-.05-.09,1,1,0,0,1-.11-.16l0,0a0,0,0,0,0,0,0v0s0,0,0,0l-8.28-13.7V31.61a2.46,2.46,0,0,1-.78,1.84,2.54,2.54,0,0,1-1.86.78,2.66,2.66,0,0,1-2.63-2.62V4.87a2.55,2.55,0,0,1,.53-1.58,2.68,2.68,0,0,1,1.41-1,2.77,2.77,0,0,1,1.66.09,2.7,2.7,0,0,1,1.29,1.09L148,21.6,159,3.51a2.61,2.61,0,0,1,1.27-1.09l.82-.31Z"/><path class="cls-1" d="M194.73,3a2.56,2.56,0,0,1,.4,3.67L185.5,18.73V31.61a2.56,2.56,0,0,1-.78,1.87,2.64,2.64,0,0,1-3.69,0,2.56,2.56,0,0,1-.78-1.87V18.73L170.62,6.67a2.46,2.46,0,0,1-.56-1.93A2.42,2.42,0,0,1,171,3,2.55,2.55,0,0,1,173,2.42a2.64,2.64,0,0,1,1.76,1l8.16,10.23L191.06,3.4a2.53,2.53,0,0,1,1.73-1A2.56,2.56,0,0,1,194.73,3Z"/><path class="cls-1" d="M221.85,24.73a9.4,9.4,0,0,1-3.18,6.74,10.34,10.34,0,0,1-7.21,2.76,13.51,13.51,0,0,1-6.5-1.55,8.44,8.44,0,0,1-4.38-5.43,2.54,2.54,0,0,1,.27-2,2.46,2.46,0,0,1,1.6-1.2,2.58,2.58,0,0,1,2,.26,2.55,2.55,0,0,1,1.2,1.61,3.68,3.68,0,0,0,2.18,2.33,8.65,8.65,0,0,0,3.65.73A5.21,5.21,0,0,0,215,27.69a4.31,4.31,0,0,0,1.6-3.2,2.76,2.76,0,0,0-.82-2.07q-1.38-1.47-4.63-1.51h-.11q-5.45-.09-8.34-3.14a7.78,7.78,0,0,1-2.23-5.89,9.46,9.46,0,0,1,3.18-6.77,10.34,10.34,0,0,1,7.21-2.75,13.4,13.4,0,0,1,6.5,1.55,8.44,8.44,0,0,1,4.38,5.43,2.51,2.51,0,0,1-.29,2,2.46,2.46,0,0,1-1.58,1.2,2.59,2.59,0,0,1-3.18-1.87,3.69,3.69,0,0,0-2.2-2.33,8.53,8.53,0,0,0-3.63-.74,5.3,5.3,0,0,0-3.6,1.32,4.37,4.37,0,0,0-1.58,3.2,2.81,2.81,0,0,0,.82,2.09q1.38,1.44,4.63,1.49h.11q5.44.09,8.34,3.16A7.74,7.74,0,0,1,221.85,24.73Z"/><path class="cls-1" d="M248.92,29a2.46,2.46,0,0,1,1.84.78,2.55,2.55,0,0,1,.78,1.87,2.66,2.66,0,0,1-2.62,2.62H232.81a2.66,2.66,0,0,1-2.62-2.62V4.94A2.5,2.5,0,0,1,231,3.07a2.46,2.46,0,0,1,1.84-.78h0l16.09,0a2.56,2.56,0,0,1,1.87.78A2.6,2.6,0,0,1,251.54,5a2.49,2.49,0,0,1-.78,1.85,2.46,2.46,0,0,1-1.84.78h0l-13.44-.05v8.08h9.7a2.61,2.61,0,0,1,1.87.75,2.63,2.63,0,0,1,0,3.74,2.62,2.62,0,0,1-1.87.76h-9.7V29Z"/><path class="cls-1" d="M261.15,2.33a2.49,2.49,0,0,1,1.85.78A2.49,2.49,0,0,1,263.78,5V29h11.76a2.55,2.55,0,0,1,1.87.78,2.62,2.62,0,0,1,0,3.69,2.55,2.55,0,0,1-1.87.78H261.15a2.66,2.66,0,0,1-2.62-2.62V5a2.49,2.49,0,0,1,.78-1.85A2.46,2.46,0,0,1,261.15,2.33Z"/><path class="cls-1" d="M302.71,2.33a2.54,2.54,0,0,1,1.86.78A2.57,2.57,0,0,1,305.33,5a2.49,2.49,0,0,1-.78,1.85,2.46,2.46,0,0,1-1.84.78h0l-13.43-.05v8.08H299a2.61,2.61,0,0,1,1.87.75,2.66,2.66,0,0,1,0,3.74,2.62,2.62,0,0,1-1.87.76h-9.7V31.61a2.46,2.46,0,0,1-.78,1.84,2.55,2.55,0,0,1-1.87.78A2.65,2.65,0,0,1,284,31.61V4.94a2.53,2.53,0,0,1,.77-1.87,2.49,2.49,0,0,1,1.85-.78h0Z"/><path class="cls-1" d="M332.62,2.27A9.93,9.93,0,0,1,339.67,5a8.69,8.69,0,0,1,2.94,6.59,8.69,8.69,0,0,1-2.82,6.49A10,10,0,0,1,333,20.91h-.09l-.27,0-.13,0H326v10.7a2.51,2.51,0,0,1-.75,1.84,2.56,2.56,0,0,1-1.87.78,2.66,2.66,0,0,1-2.63-2.62V4.89a2.46,2.46,0,0,1,.78-1.84,2.49,2.49,0,0,1,1.85-.78Zm.16,13.39A4.91,4.91,0,0,0,336,14.43,3.69,3.69,0,0,0,336,8.72a4.91,4.91,0,0,0-3.34-1.2H326v8.14Z"/><path class="cls-1" d="M371.31,11.57a8.49,8.49,0,0,1-1.83,5.31,9.57,9.57,0,0,1-4.62,3.36l5.05,10.23a2.67,2.67,0,0,1-1.2,3.5,2.8,2.8,0,0,1-1.16.26,2.43,2.43,0,0,1-2.34-1.47l-5.89-11.94H354.8V31.43a2.61,2.61,0,0,1-2.62,2.6,2.56,2.56,0,0,1-2.6-2.6V4.91a2.61,2.61,0,0,1,2.6-2.62h9.21a9.84,9.84,0,0,1,7,2.71A8.63,8.63,0,0,1,371.31,11.57Zm-9.74,4a5,5,0,0,0,3.2-1.22,3.66,3.66,0,0,0-.07-5.67,4.9,4.9,0,0,0-3.31-1.18H354.8v8.07Z"/><path class="cls-1" d="M392.86,34.23a15.34,15.34,0,0,1-11.28-4.69,15.37,15.37,0,0,1-4.69-11.28A15.44,15.44,0,0,1,381.58,7a16,16,0,0,1,22.58,0,15.43,15.43,0,0,1,4.67,11.3,15.35,15.35,0,0,1-4.67,11.28A15.39,15.39,0,0,1,392.86,34.23Zm0-26.69a10.27,10.27,0,0,0-7.56,3.14,10.31,10.31,0,0,0-3.16,7.58,10.25,10.25,0,0,0,3.16,7.56,10.66,10.66,0,0,0,15.15,0,10.31,10.31,0,0,0,3.14-7.56,10.37,10.37,0,0,0-3.14-7.58A10.37,10.37,0,0,0,392.86,7.54Z"/><path class="cls-1" d="M420.91,5a2.55,2.55,0,0,1,.78-1.87,2.55,2.55,0,0,1,1.87-.78,2.49,2.49,0,0,1,1.85.78A2.58,2.58,0,0,1,426.18,5V24.56a9.63,9.63,0,0,1-9.67,9.67,2.66,2.66,0,0,1-2.63-2.62,2.55,2.55,0,0,1,.78-1.87,2.49,2.49,0,0,1,1.85-.78,4.4,4.4,0,0,0,4.4-4.4Z"/><path class="cls-1" d="M454,29a2.45,2.45,0,0,1,1.84.78,2.55,2.55,0,0,1,.78,1.87A2.66,2.66,0,0,1,454,34.23H437.86a2.66,2.66,0,0,1-2.62-2.62V4.94A2.5,2.5,0,0,1,436,3.07a2.46,2.46,0,0,1,1.84-.78h0l16.08,0a2.55,2.55,0,0,1,1.87.78A2.6,2.6,0,0,1,456.59,5a2.49,2.49,0,0,1-.78,1.85,2.45,2.45,0,0,1-1.84.78h0l-13.44-.05v8.08h9.7a2.6,2.6,0,0,1,1.87.75,2.63,2.63,0,0,1,0,3.74,2.61,2.61,0,0,1-1.87.76h-9.7V29Z"/><path class="cls-1" d="M477.35,34.23a15.37,15.37,0,0,1-11.24-4.65,15.34,15.34,0,0,1-4.65-11.23,15.3,15.3,0,0,1,4.65-11.23,15.32,15.32,0,0,1,11.24-4.68,15.53,15.53,0,0,1,9.7,3.3,2.63,2.63,0,0,1,1,1.73,2.56,2.56,0,0,1-.54,2,2.48,2.48,0,0,1-1.73,1,2.63,2.63,0,0,1-2-.51,10.61,10.61,0,0,0-17.08,8.43,10.22,10.22,0,0,0,3.11,7.5,10.63,10.63,0,0,0,14.66.35,2.53,2.53,0,0,1,1.89-.69,2.5,2.5,0,0,1,1.83.87,2.63,2.63,0,0,1-.16,3.72A15.46,15.46,0,0,1,477.35,34.23Z"/><path class="cls-1" d="M502.53,7.54h-6.61a2.56,2.56,0,0,1-1.87-.78,2.52,2.52,0,0,1-.75-1.85,2.51,2.51,0,0,1,.75-1.84,2.56,2.56,0,0,1,1.87-.78h18.49a2.51,2.51,0,0,1,1.84.78A2.48,2.48,0,0,1,517,4.91a2.49,2.49,0,0,1-.76,1.85,2.51,2.51,0,0,1-1.84.78h-6.63V31.61a2.56,2.56,0,0,1-.78,1.87,2.64,2.64,0,0,1-3.69,0,2.56,2.56,0,0,1-.78-1.87Z"/></svg>