<svg id="Layer_1" data-name="Layer 1" xmlns="http://www.w3.org/2000/svg" viewBox="0 0 236.06 202.83"><defs><style>.cls-1{fill:#eef4f3;}</style></defs><title>Artboard 10 copylogo-vertical</title><path class="cls-1" d="M132.38,70.65c-2.37.52-4.2.86-6.07,1.12h-.12c-4.45-.14-8.89-2.82-11.75-6.09-2.13-2.45-5.68,1.12-3.55,3.55a21.42,21.42,0,0,0,3.5,3.21c-2.52,0-5-.16-7.55-.38-4.73-.42-9.25,4.46-9,9,.23,5.28,4,8.61,9,9.06A96.54,96.54,0,0,0,125.07,90c4.49-.44,13.45-1.43,3.89,8.13-3.8,3.79-7.49,7.23-10.89,10.17a3.85,3.85,0,0,1-5,0C102.33,99.07,88.65,85,78.4,69.91a7.29,7.29,0,0,1,6.87-11.33c14.35,1.67,29.14,1,43.52.18,4.72-.28,9.28-4,9.05-9-.21-4.66-4-9.35-9.05-9.05-3.12.19-6.25.37-9.38.52a18.12,18.12,0,0,0,2.52-3.45c1.6-2.83-2.75-5.36-4.35-2.54a11.75,11.75,0,0,1-10.53,6.38,3.1,3.1,0,0,0-.45,0A161.92,161.92,0,0,1,88.71,41a69.51,69.51,0,0,1-7-1,88.39,88.39,0,0,1-8.77-2l-.1,0A11.54,11.54,0,0,1,65.1,23.07a25.86,25.86,0,0,1,7.11-10.71c26.71-24.68,43.24,9,43.24,9s16.47-33.36,43.44-9c14.52,13.12,10.17,40.12-2.55,49.07,0,0,0,0,0,0A80.5,80.5,0,0,1,132.38,70.65Z"/><path class="cls-1" d="M5.12,134.55a1.9,1.9,0,0,1,1.41.6,1.89,1.89,0,0,1,.59,1.41V154.9h9a2,2,0,0,1,1.42.59,1.92,1.92,0,0,1,.58,1.41,1.89,1.89,0,0,1-.58,1.41,1.92,1.92,0,0,1-1.42.6h-11a1.87,1.87,0,0,1-1.41-.6,1.86,1.86,0,0,1-.59-1.41V136.56a1.86,1.86,0,0,1,.59-1.41A1.87,1.87,0,0,1,5.12,134.55Z"/><path class="cls-1" d="M33.17,158.91a12.2,12.2,0,0,1,0-24.39,12.2,12.2,0,0,1,0,24.39Zm0-20.38a8.19,8.19,0,1,0,5.79,14,8.18,8.18,0,0,0-5.79-14Z"/><path class="cls-1" d="M66.63,134.76a1.91,1.91,0,0,1,1.14,1,2,2,0,0,1,.08,1.52l-7.11,20.26v0l-.12.26,0,0c0,.08-.09.15-.13.22l0,0-.17.17,0,0a1.12,1.12,0,0,1-.2.17s0,0,0,0l-.22.12h0a1.89,1.89,0,0,1-.21.09s0,0,0,0a1,1,0,0,1-.22.06h-.09a1.3,1.3,0,0,1-.64,0h-.09a1,1,0,0,1-.22-.06h0a1.21,1.21,0,0,1-.2-.09h-.06l-.2-.12,0,0v0a.68.68,0,0,1-.21-.17l-.05,0a1.14,1.14,0,0,1-.15-.17l0,0c0-.07-.09-.14-.13-.22l0,0a2,2,0,0,1-.12-.26v0L49.85,137.3a1.91,1.91,0,0,1,.09-1.52,1.87,1.87,0,0,1,1.13-1,1.94,1.94,0,0,1,1.53.08,1.91,1.91,0,0,1,1,1.14l5.23,14.89L64.08,136a1.91,1.91,0,0,1,1-1.14l.75-.35Z"/><path class="cls-1" d="M87.42,154.88a1.9,1.9,0,0,1,1.41.6,2,2,0,0,1,.59,1.42,2,2,0,0,1-2,2H75.12a1.9,1.9,0,0,1-1.41-.6,1.86,1.86,0,0,1-.59-1.41V136.54a1.9,1.9,0,0,1,.59-1.43,1.93,1.93,0,0,1,1.41-.59h0l12.28,0a1.92,1.92,0,0,1,1.42.6,1.94,1.94,0,0,1,.58,1.42,2,2,0,0,1-2,2h0l-10.26,0v6.17h7.41a1.94,1.94,0,0,1,1.42.58,1.92,1.92,0,0,1,.6,1.42,1.94,1.94,0,0,1-.6,1.43,2,2,0,0,1-1.42.58H77.14v6.16Z"/><path class="cls-1" d="M124.84,134.55a2,2,0,0,1,1.06.73,1.94,1.94,0,0,1,.41,1.21V156.9a2,2,0,0,1-2,2,2,2,0,0,1-1.43-.6,1.92,1.92,0,0,1-.57-1.41V143.69L116,154.15v0h0l0,0a.54.54,0,0,1-.07.12l0,.07-.08.08-.07.07-.07.07-.1.08,0,0a.35.35,0,0,1-.12.07l0,0h0a.22.22,0,0,1-.12.07l0,0-.1,0a1.76,1.76,0,0,1-.82.15h-.1a1.72,1.72,0,0,1-.44-.09l-.07,0s0,0-.07,0l-.12-.05s0,0,0,0l-.14-.07h0l0,0-.12-.08,0,0-.1-.08-.07-.07-.06-.07a.38.38,0,0,0-.09-.08l0-.07a.46.46,0,0,1-.09-.12v0h0v0l0,0-6.32-10.46V156.9a1.86,1.86,0,0,1-.59,1.41,1.94,1.94,0,0,1-1.43.6,2,2,0,0,1-2-2V136.49a1.89,1.89,0,0,1,.41-1.21,2,2,0,0,1,1.07-.73,2,2,0,0,1,2.26.9l8.35,13.81,8.36-13.81a1.91,1.91,0,0,1,1-.83l.63-.24Z"/><path class="cls-1" d="M149.88,135.06a1.89,1.89,0,0,1,.74,1.33,2,2,0,0,1-.44,1.48l-7.35,9.2v9.83a2,2,0,0,1-2,2,1.92,1.92,0,0,1-1.4-.58,1.94,1.94,0,0,1-.6-1.43v-9.83l-7.35-9.2a2,2,0,0,1-.43-1.48,1.88,1.88,0,0,1,.73-1.33,2,2,0,0,1,1.48-.44,2,2,0,0,1,1.34.75l6.23,7.81,6.25-7.81a2,2,0,0,1,2.81-.31Z"/><path class="cls-1" d="M170.58,151.66a7.17,7.17,0,0,1-2.43,5.14,7.9,7.9,0,0,1-5.5,2.11,10.25,10.25,0,0,1-5-1.19,6.43,6.43,0,0,1-3.35-4.15,2,2,0,0,1,.21-1.51,1.91,1.91,0,0,1,1.22-.91,2,2,0,0,1,1.51.2,1.92,1.92,0,0,1,.92,1.22,2.84,2.84,0,0,0,1.66,1.79,6.71,6.71,0,0,0,2.79.56,4,4,0,0,0,2.73-1,3.27,3.27,0,0,0,1.22-2.44,2.07,2.07,0,0,0-.62-1.58,4.82,4.82,0,0,0-3.54-1.16h-.08a8.54,8.54,0,0,1-6.37-2.39,6,6,0,0,1-1.7-4.5,7.18,7.18,0,0,1,2.43-5.16,7.82,7.82,0,0,1,5.5-2.11,10.25,10.25,0,0,1,5,1.19,6.44,6.44,0,0,1,3.35,4.14,1.94,1.94,0,0,1-.22,1.51,1.87,1.87,0,0,1-1.21.92,2,2,0,0,1-2.43-1.42,2.8,2.8,0,0,0-1.68-1.79,6.55,6.55,0,0,0-2.77-.56,4.1,4.1,0,0,0-2.75,1,3.35,3.35,0,0,0-1.2,2.45,2.14,2.14,0,0,0,.62,1.6,4.86,4.86,0,0,0,3.54,1.13h.08a8.55,8.55,0,0,1,6.37,2.41A5.93,5.93,0,0,1,170.58,151.66Z"/><path class="cls-1" d="M191.25,154.88a1.86,1.86,0,0,1,1.4.6,1.92,1.92,0,0,1,.6,1.42,2.05,2.05,0,0,1-2,2H179a1.88,1.88,0,0,1-1.41-.6,1.86,1.86,0,0,1-.59-1.41V136.54a2,2,0,0,1,2-2h0l12.28,0a1.92,1.92,0,0,1,1.42.6,1.94,1.94,0,0,1,.58,1.42,2.05,2.05,0,0,1-2,2h0l-10.26,0v6.17h7.41a1.94,1.94,0,0,1,1.42.58,1.92,1.92,0,0,1,.6,1.42,1.94,1.94,0,0,1-.6,1.43,2,2,0,0,1-1.42.58H181v6.16Z"/><path class="cls-1" d="M200.59,134.55a2,2,0,0,1,2,2V154.9h9a2,2,0,0,1,2,2,2,2,0,0,1-2,2h-11a2,2,0,0,1-2-2V136.56a2,2,0,0,1,2-2Z"/><path class="cls-1" d="M232.31,134.55a2,2,0,0,1,2,2,2,2,0,0,1-2,2h0l-10.25,0v6.17h7.4a2,2,0,0,1,1.43.58,2,2,0,0,1,.59,1.42,2,2,0,0,1-.59,1.43,2,2,0,0,1-1.43.58H222v8.18a1.87,1.87,0,0,1-.6,1.41,1.94,1.94,0,0,1-1.43.6,2,2,0,0,1-2-2V136.54a2,2,0,0,1,2-2h0Z"/><path class="cls-1" d="M57.09,176.24a7.57,7.57,0,0,1,5.39,2.09,6.76,6.76,0,0,1,.08,10,7.64,7.64,0,0,1-5.2,2.16H57.3l-.21,0-.1,0H52v8.17a2,2,0,0,1-2,2,2,2,0,0,1-2-2v-20.4a2,2,0,0,1,2-2Zm.12,10.22a3.69,3.69,0,0,0,2.46-.93,2.82,2.82,0,0,0,0-4.37,3.74,3.74,0,0,0-2.55-.91H52v6.21Z"/><path class="cls-1" d="M86.63,183.34a6.54,6.54,0,0,1-1.4,4.06A7.26,7.26,0,0,1,81.7,190l3.86,7.81a2,2,0,0,1-.92,2.67,2.09,2.09,0,0,1-.88.2A1.85,1.85,0,0,1,82,199.52l-4.5-9.12H74v8.1a2,2,0,0,1-2,2,2,2,0,0,1-1.41-.58A2,2,0,0,1,70,198.5V178.26a2,2,0,0,1,2-2h7a7.53,7.53,0,0,1,5.35,2.08A6.61,6.61,0,0,1,86.63,183.34Zm-7.44,3.07a3.78,3.78,0,0,0,2.44-.93,2.8,2.8,0,0,0,0-4.33,3.75,3.75,0,0,0-2.53-.9H74v6.16Z"/><path class="cls-1" d="M103.08,200.64a12.19,12.19,0,1,1,8.63-3.58A11.7,11.7,0,0,1,103.08,200.64Zm0-20.38a8.19,8.19,0,1,0,5.79,2.4A7.85,7.85,0,0,0,103.08,180.26Z"/><path class="cls-1" d="M124.5,178.31a1.93,1.93,0,0,1,.59-1.43,2,2,0,0,1,1.43-.59,1.93,1.93,0,0,1,1.41.59,2,2,0,0,1,.59,1.43v14.94a7.37,7.37,0,0,1-7.39,7.39,2,2,0,0,1-2-2,2,2,0,0,1,.59-1.43,1.93,1.93,0,0,1,1.41-.59,3.38,3.38,0,0,0,3.37-3.37Z"/><path class="cls-1" d="M149.73,196.62a1.89,1.89,0,0,1,1.41.59,1.94,1.94,0,0,1,.6,1.43,2,2,0,0,1-2,2H137.44a2,2,0,0,1-2-2V178.28a1.89,1.89,0,0,1,.6-1.43,1.87,1.87,0,0,1,1.41-.6h0l12.28,0a2,2,0,0,1,1.43.59,2,2,0,0,1,.58,1.43,1.9,1.9,0,0,1-.6,1.41,1.86,1.86,0,0,1-1.41.59h0l-10.25,0v6.16h7.4a2,2,0,0,1,1.43.58,2,2,0,0,1,0,2.86,2,2,0,0,1-1.43.57h-7.4v6.17Z"/><path class="cls-1" d="M167.58,200.64a12.14,12.14,0,1,1,7.4-21.75,2,2,0,0,1,.36,2.82,1.92,1.92,0,0,1-1.32.76,2,2,0,0,1-1.5-.39,7.85,7.85,0,0,0-4.94-1.68,8.11,8.11,0,1,0,5.47,14.11,2,2,0,0,1,1.44-.53,2,2,0,0,1,1.28,3.5A11.79,11.79,0,0,1,167.58,200.64Z"/><path class="cls-1" d="M186.8,180.26h-5a2,2,0,0,1-1.43-.59,2,2,0,0,1-.57-1.41,1.92,1.92,0,0,1,.57-1.41,2,2,0,0,1,1.43-.6h14.11a2,2,0,0,1,2,2,2,2,0,0,1-2,2h-5.06v18.38a2,2,0,0,1-.59,1.42,1.92,1.92,0,0,1-1.41.58,1.89,1.89,0,0,1-1.41-.58,1.92,1.92,0,0,1-.6-1.42Z"/></svg>