<svg xmlns="http://www.w3.org/2000/svg" viewBox="0 0 495.47 288"><defs><style>.cls-1{fill:#2c2e2e;}</style></defs><title>Artboard 33scroll</title><g id="Information"><path class="cls-1" d="M170.71,153.9h-8v-1c.36-.18.71-.33,1-.46a10,10,0,0,1,1.09-.32V140.92l.14-3.12h-.22l-.88,2.86-5.16,13.24H157.5l-5.14-13.14-1-3.13h-.24l0,3.4v11a7.24,7.24,0,0,1,1.12.34,9.37,9.37,0,0,1,1.15.54v1h-6.53v-1l1.06-.51a4.9,4.9,0,0,1,1.19-.4V137a10.22,10.22,0,0,1-1.14-.3,3.9,3.9,0,0,1-1-.48v-1h7.25l4.09,10.89.77,2.57h0l.8-2.62,4.17-10.84h6.64v1a7.39,7.39,0,0,1-1,.47,6.74,6.74,0,0,1-1.06.31v15.16a5.7,5.7,0,0,1,1.09.32c.34.14.65.29.92.43Z"/><path class="cls-1" d="M183.84,150c0,.39,0,.73,0,1s0,.59.07.91l1.85.27v.94a7.28,7.28,0,0,1-.87.32l-1.15.31-1.19.24c-.39.06-.74.11-1.05.14h-.9a4,4,0,0,1-.33-1.23c0-.41-.06-.91-.08-1.49h-.13a3.42,3.42,0,0,1-.45,1,3.83,3.83,0,0,1-.82.89,4.16,4.16,0,0,1-1.16.63,4.45,4.45,0,0,1-1.5.24,4.76,4.76,0,0,1-1.63-.27,4.11,4.11,0,0,1-1.31-.75,3.5,3.5,0,0,1-.89-1.16,3.66,3.66,0,0,1-.32-1.54,3.82,3.82,0,0,1,.46-2,3.32,3.32,0,0,1,1.43-1.27,8.51,8.51,0,0,1,2.51-.74,36.11,36.11,0,0,1,3.73-.34,8.19,8.19,0,0,0-.18-3.37,1.65,1.65,0,0,0-1.74-1.07,4.47,4.47,0,0,0-1.53.26l-1.25,3.21h-1.18a6.13,6.13,0,0,1-.41-.73c-.14-.28-.26-.57-.38-.88s-.21-.63-.29-1a9.07,9.07,0,0,1-.18-.94,8.27,8.27,0,0,1,2.62-1.1,14.4,14.4,0,0,1,3.4-.4,7.51,7.51,0,0,1,2.49.34,3.68,3.68,0,0,1,1.51.91,3,3,0,0,1,.76,1.35,6.26,6.26,0,0,1,.22,1.65c0,1.07,0,2-.07,2.91S183.84,149.11,183.84,150Zm-6,2.06a2,2,0,0,0,1-.22,2.69,2.69,0,0,0,.68-.51,2.06,2.06,0,0,0,.43-.64c.09-.23.17-.43.22-.61v-2.68a15,15,0,0,0-2.05.16,3.24,3.24,0,0,0-1.26.44,1.57,1.57,0,0,0-.63.78,3.18,3.18,0,0,0-.17,1.14,2.37,2.37,0,0,0,.48,1.58A1.66,1.66,0,0,0,177.82,152.08Z"/><path class="cls-1" d="M186.38,141.19a6.86,6.86,0,0,1,2.14-.93v-2.17a5.27,5.27,0,0,1,1.06-.47,11.42,11.42,0,0,1,1.88-.49h.91v3.39h3.53v1.74h-3.53v6.89a4.46,4.46,0,0,0,.42,2.29,1.51,1.51,0,0,0,1.37.64c.33,0,.69,0,1.09-.07a4.74,4.74,0,0,0,1.11-.25l.19.88a3.86,3.86,0,0,1-.71.51,10.82,10.82,0,0,1-1.07.5,8,8,0,0,1-1.31.41,7.24,7.24,0,0,1-1.49.16,3.41,3.41,0,0,1-2.59-.91,4.17,4.17,0,0,1-.86-2.93v-8.12h-2.14Z"/><path class="cls-1" d="M197.05,141.19a6.86,6.86,0,0,1,2.14-.93v-2.17a5.27,5.27,0,0,1,1.06-.47,11.42,11.42,0,0,1,1.88-.49H203v3.39h3.53v1.74H203v6.89a4.46,4.46,0,0,0,.42,2.29,1.52,1.52,0,0,0,1.38.64c.32,0,.68,0,1.08-.07a4.74,4.74,0,0,0,1.11-.25l.19.88a3.54,3.54,0,0,1-.71.51,9.84,9.84,0,0,1-1.07.5,8,8,0,0,1-1.31.41,7.24,7.24,0,0,1-1.49.16,3.41,3.41,0,0,1-2.59-.91,4.17,4.17,0,0,1-.86-2.93v-8.12h-2.14Z"/><path class="cls-1" d="M224.31,153.9h-7.09v-1a7.06,7.06,0,0,1,.67-.35,5.65,5.65,0,0,1,.8-.29v-5.42a9.7,9.7,0,0,0-.44-3.39,1.69,1.69,0,0,0-1.73-1.09,2.51,2.51,0,0,0-1.82.74,4.42,4.42,0,0,0-1.07,1.7v7.46a5.86,5.86,0,0,1,.77.24,3.47,3.47,0,0,1,.71.4v1H208v-1a7.12,7.12,0,0,1,1.76-.64V136l-2-.22v-1a7.12,7.12,0,0,1,1-.32c.42-.11.86-.21,1.32-.29s.93-.15,1.4-.21l1.23-.15h.9v9.44h0a5.07,5.07,0,0,1,.72-1.16,5.84,5.84,0,0,1,1-1,5,5,0,0,1,1.25-.66,4.14,4.14,0,0,1,1.41-.24,6.65,6.65,0,0,1,1.92.26,3,3,0,0,1,1.4.89,4.32,4.32,0,0,1,.86,1.73,11.08,11.08,0,0,1,.29,2.75v6.41c.3.07.61.15.91.24a3.2,3.2,0,0,1,.86.4Z"/><path class="cls-1" d="M237.63,151.65a3.62,3.62,0,0,1-.69.92,4.66,4.66,0,0,1-1.15.83,6.94,6.94,0,0,1-1.58.59,7.85,7.85,0,0,1-1.93.23,8.18,8.18,0,0,1-2.95-.5,5.7,5.7,0,0,1-2.14-1.42,6,6,0,0,1-1.29-2.2,8.73,8.73,0,0,1-.44-2.89,7.07,7.07,0,0,1,1.79-5.22,6.73,6.73,0,0,1,5-1.79,8.52,8.52,0,0,1,2.56.38,4.5,4.5,0,0,1,2,1.23,4.76,4.76,0,0,1,1.09,2.24,8.87,8.87,0,0,1,0,3.4H229.6a5.21,5.21,0,0,0,1.08,3.37,3.86,3.86,0,0,0,3.12,1.26,6.65,6.65,0,0,0,1.83-.27,4.14,4.14,0,0,0,1.49-.7Zm-5.53-9.92a2.32,2.32,0,0,0-.94.18,1.69,1.69,0,0,0-.72.69,4.32,4.32,0,0,0-.49,1.33,14.21,14.21,0,0,0-.27,2.13H234a7.35,7.35,0,0,0-.24-3.21A1.59,1.59,0,0,0,232.1,141.73Z"/><path class="cls-1" d="M244.34,154.22l-4.2-12-.74-.28a4.42,4.42,0,0,1-.68-.36v-1h6.77v1a6.72,6.72,0,0,1-.75.39,4.26,4.26,0,0,1-.78.28l1.85,6.87.35,2.06h.05l.48-2.14,2.84-8.29,1.31-.16,3,8.48.56,2.11h.05l.43-2.09,1.6-6.84a3,3,0,0,1-.68-.21,4.76,4.76,0,0,1-.79-.43v-1h5.16v1a5.33,5.33,0,0,1-1.52.64L255,153.89l-2.51.33-2.3-6.61-.51-2.22h-.08l-.62,2.22-2.13,6.29Z"/><path class="cls-1" d="M267.71,135.17h8.77v1a6,6,0,0,1-1.24.49,8.5,8.5,0,0,1-1.32.29v15.19h5.16l1.79-4.79H282c.07.41.13.89.2,1.44s.11,1.14.14,1.74.07,1.21.08,1.79,0,1.11,0,1.56H267.71v-1a9.46,9.46,0,0,1,1.17-.51,7.5,7.5,0,0,1,1-.27V137a6,6,0,0,1-2.2-.78Z"/><path class="cls-1" d="M283.6,147.21a8.19,8.19,0,0,1,.49-2.93,6,6,0,0,1,3.65-3.6,8.65,8.65,0,0,1,3-.48,9.19,9.19,0,0,1,3.23.52,5.91,5.91,0,0,1,2.22,1.45,5.67,5.67,0,0,1,1.27,2.22,9.7,9.7,0,0,1,.4,2.82,8.41,8.41,0,0,1-.48,2.93,5.92,5.92,0,0,1-3.66,3.59,8.43,8.43,0,0,1-3,.49,8.81,8.81,0,0,1-3.15-.52,6,6,0,0,1-2.22-1.45A5.62,5.62,0,0,1,284,150,8.78,8.78,0,0,1,283.6,147.21Zm4.14,0a15.06,15.06,0,0,0,.15,2.21,5.17,5.17,0,0,0,.52,1.69,2.75,2.75,0,0,0,1,1.09,3.16,3.16,0,0,0,1.66.39,2.07,2.07,0,0,0,1.07-.29,2.32,2.32,0,0,0,.83-.91,5.35,5.35,0,0,0,.52-1.65,16.31,16.31,0,0,0,.17-2.53,14.91,14.91,0,0,0-.15-2.22,5.25,5.25,0,0,0-.5-1.69,2.77,2.77,0,0,0-1-1.08,2.85,2.85,0,0,0-1.55-.39,2.57,2.57,0,0,0-1.21.28,2.28,2.28,0,0,0-.85.91,5.24,5.24,0,0,0-.52,1.66A15,15,0,0,0,287.74,147.21Z"/><path class="cls-1" d="M305.15,154.22l-5.34-12a8,8,0,0,1-1.42-.64v-1h7v1c-.23.13-.47.25-.71.36a5.07,5.07,0,0,1-.81.31l2.48,6.87.51,1.8H307l.42-1.83,2.28-6.84a5.23,5.23,0,0,1-.79-.26,5,5,0,0,1-.68-.38v-1h5.16v1a4,4,0,0,1-.66.35,7.38,7.38,0,0,1-.87.29l-4.68,11.71Z"/><path class="cls-1" d="M321.28,153.9H313.9v-1a6.12,6.12,0,0,1,.83-.36c.28-.1.6-.2.93-.29V142.4l-1.76-.22v-1c.27-.1.6-.21,1-.32s.83-.2,1.27-.28l1.31-.21,1.13-.15h.91v12c.35.09.67.18,1,.28a5.27,5.27,0,0,1,.8.36Zm-6-17.76a1.81,1.81,0,0,1,.64-1.47,2.76,2.76,0,0,1,3.28,0,2,2,0,0,1,0,2.91,2.76,2.76,0,0,1-3.28,0A1.81,1.81,0,0,1,315.26,136.14Z"/><path class="cls-1" d="M329.65,151a1.66,1.66,0,0,0-.49-1.2,5.85,5.85,0,0,0-1.23-.94c-.49-.28-1-.57-1.61-.86a8.44,8.44,0,0,1-1.6-1,5.27,5.27,0,0,1-1.23-1.35,3.47,3.47,0,0,1-.5-1.9,2.92,2.92,0,0,1,.38-1.46,3.67,3.67,0,0,1,1-1.11,5.08,5.08,0,0,1,1.54-.7,7.05,7.05,0,0,1,1.94-.26,15.15,15.15,0,0,1,2.69.23,10.05,10.05,0,0,1,2.18.63,10,10,0,0,1-.43,1.83c-.21.65-.42,1.24-.62,1.78h-.9l-1.13-2.73a2.2,2.2,0,0,0-.67-.17,6.08,6.08,0,0,0-.77,0,1.49,1.49,0,0,0-1.63,1.52,1.57,1.57,0,0,0,.49,1.16,6.18,6.18,0,0,0,1.23.93c.49.28,1,.57,1.61.85a10.2,10.2,0,0,1,1.6,1,5.23,5.23,0,0,1,1.23,1.3,3.16,3.16,0,0,1,.5,1.79,3.35,3.35,0,0,1-1.5,2.9,6.88,6.88,0,0,1-4,1.06,13.62,13.62,0,0,1-2.65-.27,9.69,9.69,0,0,1-2.35-.75,5.86,5.86,0,0,1,.45-1.95,13.28,13.28,0,0,1,.86-1.77H325l1.31,2.92a1.36,1.36,0,0,0,.65.25,5.49,5.49,0,0,0,.68,0,2.42,2.42,0,0,0,1.42-.45A1.46,1.46,0,0,0,329.65,151Z"/><path class="cls-1" d="M346.61,150c0,.39,0,.73,0,1s0,.59.07.91l1.84.27v.94a6.16,6.16,0,0,1-.87.32c-.36.1-.74.21-1.15.31s-.79.17-1.19.24-.74.11-1,.14h-.91a4,4,0,0,1-.32-1.23c0-.41-.06-.91-.08-1.49h-.13a3.21,3.21,0,0,1-.46,1,3.58,3.58,0,0,1-.81.89,4.08,4.08,0,0,1-1.17.63,4.35,4.35,0,0,1-1.49.24,4.82,4.82,0,0,1-1.64-.27,4.23,4.23,0,0,1-1.31-.75,3.6,3.6,0,0,1-.88-1.16,3.66,3.66,0,0,1-.32-1.54,3.92,3.92,0,0,1,.45-2,3.35,3.35,0,0,1,1.44-1.27,8.42,8.42,0,0,1,2.51-.74,35.85,35.85,0,0,1,3.73-.34,8.15,8.15,0,0,0-.19-3.37,1.63,1.63,0,0,0-1.73-1.07,4.38,4.38,0,0,0-1.53.26l-1.26,3.21H337a6.12,6.12,0,0,1-.42-.73c-.13-.28-.26-.57-.37-.88a8.68,8.68,0,0,1-.3-1,8.94,8.94,0,0,1-.17-.94,8.27,8.27,0,0,1,2.62-1.1,14.33,14.33,0,0,1,3.4-.4,7.49,7.49,0,0,1,2.48.34,3.65,3.65,0,0,1,1.52.91,3.23,3.23,0,0,1,.76,1.35,6.27,6.27,0,0,1,.21,1.65c0,1.07,0,2-.07,2.91S346.61,149.11,346.61,150Zm-6,2.06a1.89,1.89,0,0,0,1-.22,2.58,2.58,0,0,0,.69-.51,2.22,2.22,0,0,0,.42-.64,4.84,4.84,0,0,0,.23-.61v-2.68a15.14,15.14,0,0,0-2.06.16,3.37,3.37,0,0,0-1.26.44,1.61,1.61,0,0,0-.62.78,3.17,3.17,0,0,0-.18,1.14,2.37,2.37,0,0,0,.48,1.58A1.69,1.69,0,0,0,340.59,152.08Z"/></g></svg>