<svg xmlns="http://www.w3.org/2000/svg" viewBox="0 0 495.47 288"><defs><style>.cls-1{fill:#2c2e2e;}.cls-2{fill:none;stroke:#2c2e2e;stroke-linecap:round;stroke-linejoin:round;stroke-width:3px;}</style></defs><title>Artboard 33scroll</title><g id="Information"><path class="cls-1" d="M176,189.3h-8v-1a8.38,8.38,0,0,1,1-.45,7.93,7.93,0,0,1,1.1-.32V176.33l.13-3.13h-.21l-.89,2.86L164,189.3h-1.23l-5.13-13.13-1-3.13h-.24l0,3.39v11a7,7,0,0,1,1.12.35,10.21,10.21,0,0,1,1.15.53v1h-6.52v-1l1.05-.51a5.38,5.38,0,0,1,1.19-.4v-15c-.35-.07-.73-.17-1.13-.29a4.32,4.32,0,0,1-1.06-.49v-1h7.25l4.09,10.88.78,2.57h0l.81-2.62,4.17-10.83H176v1a5.91,5.91,0,0,1-1,.47,5.72,5.72,0,0,1-1.05.31v15.16a6.7,6.7,0,0,1,1.08.32c.35.15.66.29.92.43Z"/><path class="cls-1" d="M189.14,185.42c0,.39,0,.73,0,1s0,.59.07.91l1.84.26v.94a5.12,5.12,0,0,1-.87.32c-.36.11-.75.21-1.15.31s-.8.18-1.19.24l-1,.15h-.91a3.73,3.73,0,0,1-.32-1.23c0-.41-.06-.91-.08-1.5h-.14a3.24,3.24,0,0,1-.45,1,3.58,3.58,0,0,1-.82.88,4,4,0,0,1-1.16.63,4.41,4.41,0,0,1-1.5.24,4.76,4.76,0,0,1-1.63-.27,4,4,0,0,1-1.31-.75,3.37,3.37,0,0,1-.88-1.16,3.48,3.48,0,0,1-.32-1.54,3.92,3.92,0,0,1,.45-2,3.44,3.44,0,0,1,1.43-1.27,8.51,8.51,0,0,1,2.52-.73,35.55,35.55,0,0,1,3.73-.35,8.17,8.17,0,0,0-.19-3.37,1.67,1.67,0,0,0-1.74-1.07,4.15,4.15,0,0,0-1.52.27l-1.26,3.21h-1.18a6.3,6.3,0,0,1-.41-.74,9,9,0,0,1-.37-.88,8,8,0,0,1-.3-1,6.42,6.42,0,0,1-.17-.94A8,8,0,0,1,180.9,176a13.81,13.81,0,0,1,3.39-.4,7.81,7.81,0,0,1,2.49.33,3.72,3.72,0,0,1,1.51.91,3.14,3.14,0,0,1,.77,1.35,6.34,6.34,0,0,1,.21,1.66c0,1.07,0,2-.07,2.9S189.14,184.51,189.14,185.42Zm-6,2.06a2.06,2.06,0,0,0,1-.21,2.58,2.58,0,0,0,.68-.51,2.18,2.18,0,0,0,.43-.64c.1-.24.17-.44.23-.62v-2.67a13.57,13.57,0,0,0-2.06.16,3.09,3.09,0,0,0-1.26.44,1.62,1.62,0,0,0-.63.77,3.51,3.51,0,0,0-.17,1.14,2.37,2.37,0,0,0,.48,1.58A1.69,1.69,0,0,0,183.12,187.48Z"/><path class="cls-1" d="M191.68,176.59a6.76,6.76,0,0,1,2.14-.93v-2.17a5.27,5.27,0,0,1,1.05-.46,10.38,10.38,0,0,1,1.89-.5h.91v3.4h3.53v1.73h-3.53v6.89a4.57,4.57,0,0,0,.41,2.29,1.52,1.52,0,0,0,1.38.64,8.71,8.71,0,0,0,1.08-.07,4.74,4.74,0,0,0,1.11-.25l.19.88a3.54,3.54,0,0,1-.71.51,8.24,8.24,0,0,1-1.07.51,9.17,9.17,0,0,1-1.31.4,6.52,6.52,0,0,1-1.48.16,3.4,3.4,0,0,1-2.6-.91,4.16,4.16,0,0,1-.85-2.92v-8.13h-2.14Z"/><path class="cls-1" d="M202.35,176.59a6.76,6.76,0,0,1,2.14-.93v-2.17a5.27,5.27,0,0,1,1-.46,10.38,10.38,0,0,1,1.89-.5h.91v3.4h3.53v1.73h-3.53v6.89a4.57,4.57,0,0,0,.41,2.29,1.52,1.52,0,0,0,1.38.64,8.71,8.71,0,0,0,1.08-.07,4.74,4.74,0,0,0,1.11-.25l.19.88a3.54,3.54,0,0,1-.71.51,8.24,8.24,0,0,1-1.07.51,9.17,9.17,0,0,1-1.31.4,6.52,6.52,0,0,1-1.48.16,3.4,3.4,0,0,1-2.6-.91,4.16,4.16,0,0,1-.85-2.92v-8.13h-2.14Z"/><path class="cls-1" d="M229.6,189.3h-7.09v-1c.22-.12.44-.24.67-.35a7.24,7.24,0,0,1,.8-.29v-5.42a9.54,9.54,0,0,0-.44-3.39,1.68,1.68,0,0,0-1.72-1.08,2.49,2.49,0,0,0-1.82.73,4.16,4.16,0,0,0-1.07,1.71v7.45a5.69,5.69,0,0,1,.76.24,3.47,3.47,0,0,1,.71.4v1h-7.09v-1a7.46,7.46,0,0,1,1.77-.64V171.38l-2-.21v-1a9.26,9.26,0,0,1,1-.32c.42-.11.86-.2,1.33-.28l1.39-.22c.46-.06.87-.11,1.23-.14h.91v9.44h0a4.51,4.51,0,0,1,.72-1.17,5.53,5.53,0,0,1,1-1,5.05,5.05,0,0,1,1.24-.65,4.19,4.19,0,0,1,1.42-.24,6.6,6.6,0,0,1,1.91.25,2.93,2.93,0,0,1,1.4.9,4.25,4.25,0,0,1,.86,1.73,10.54,10.54,0,0,1,.29,2.74v6.41c.31.07.61.15.91.24a3.06,3.06,0,0,1,.86.4Z"/><path class="cls-1" d="M242.92,187.05a3.38,3.38,0,0,1-.68.93,5,5,0,0,1-1.15.82,6.66,6.66,0,0,1-1.58.59,8,8,0,0,1-1.94.23,8.09,8.09,0,0,1-2.94-.49,5.66,5.66,0,0,1-2.14-1.42,6.25,6.25,0,0,1-1.3-2.21,9,9,0,0,1-.44-2.89,7.07,7.07,0,0,1,1.79-5.21,6.71,6.71,0,0,1,5-1.79,8.41,8.41,0,0,1,2.55.37,4.5,4.5,0,0,1,2,1.23,4.76,4.76,0,0,1,1.1,2.25,9,9,0,0,1,0,3.39H234.9a5.08,5.08,0,0,0,1.08,3.37,3.82,3.82,0,0,0,3.11,1.26,6.77,6.77,0,0,0,1.84-.27,4.34,4.34,0,0,0,1.48-.69Zm-5.53-9.92a2.19,2.19,0,0,0-.94.19,1.71,1.71,0,0,0-.72.68,4.56,4.56,0,0,0-.49,1.34,14.39,14.39,0,0,0-.26,2.12h4.27a7.53,7.53,0,0,0-.23-3.21A1.61,1.61,0,0,0,237.39,177.13Z"/><path class="cls-1" d="M249.63,189.62l-4.2-12-.73-.28a3.83,3.83,0,0,1-.69-.37v-1h6.77v1q-.37.21-.75.39a5.46,5.46,0,0,1-.77.28l1.84,6.86.35,2.07h.05l.48-2.14,2.84-8.29,1.31-.16,3.05,8.47.56,2.12h.05l.43-2.09,1.61-6.84a3.32,3.32,0,0,1-.68-.22,3.85,3.85,0,0,1-.79-.43v-1h5.16v1a5.4,5.4,0,0,1-1.53.65l-3.71,11.71-2.52.32-2.3-6.61-.51-2.22h-.08l-.61,2.22-2.14,6.29Z"/><path class="cls-1" d="M273,170.58h8.77v1a7.08,7.08,0,0,1-1.25.5,8.2,8.2,0,0,1-1.32.28v15.19h5.16l1.79-4.79h1.1c.07.41.14.9.2,1.45s.11,1.13.15,1.74.06,1.2.08,1.79,0,1.1,0,1.55H273v-1a9.36,9.36,0,0,1,1.16-.51,6.76,6.76,0,0,1,1-.26V172.37a5.55,5.55,0,0,1-2.19-.78Z"/><path class="cls-1" d="M288.89,182.61a8.22,8.22,0,0,1,.5-2.93,5.94,5.94,0,0,1,3.65-3.59,8.57,8.57,0,0,1,3-.48,8.91,8.91,0,0,1,3.22.52,6,6,0,0,1,2.22,1.44,5.69,5.69,0,0,1,1.27,2.22,9.47,9.47,0,0,1,.4,2.82,8.37,8.37,0,0,1-.48,2.93,6,6,0,0,1-1.4,2.21,6.29,6.29,0,0,1-2.25,1.39,8.71,8.71,0,0,1-3,.48,8.61,8.61,0,0,1-3.16-.52,6.08,6.08,0,0,1-2.22-1.45,5.74,5.74,0,0,1-1.31-2.22A8.78,8.78,0,0,1,288.89,182.61Zm4.15,0a16.55,16.55,0,0,0,.14,2.21,5.23,5.23,0,0,0,.53,1.7,2.77,2.77,0,0,0,1,1.08,3.16,3.16,0,0,0,1.66.39,2.06,2.06,0,0,0,1.07-.28,2.31,2.31,0,0,0,.83-.91,5.16,5.16,0,0,0,.52-1.66,17.2,17.2,0,0,0,0-4.75,5.36,5.36,0,0,0-.51-1.68,2.64,2.64,0,0,0-1-1.08,2.83,2.83,0,0,0-1.55-.39,2.42,2.42,0,0,0-1.2.28,2.23,2.23,0,0,0-.86.91,5.42,5.42,0,0,0-.52,1.66A16.08,16.08,0,0,0,293,182.61Z"/><path class="cls-1" d="M310.45,189.62l-5.35-12a8.05,8.05,0,0,1-1.42-.65v-1h7v1l-.71.36a6.41,6.41,0,0,1-.82.31l2.49,6.86.51,1.8h.05l.43-1.82,2.27-6.84a4.58,4.58,0,0,1-.79-.27,4.09,4.09,0,0,1-.68-.38v-1h5.16v1a3.27,3.27,0,0,1-.65.35,7.33,7.33,0,0,1-.87.3l-4.68,11.71Z"/><path class="cls-1" d="M326.58,189.3h-7.39v-1a6.71,6.71,0,0,1,.83-.36c.29-.1.6-.19.94-.28V177.8l-1.77-.21v-1a7.62,7.62,0,0,1,1-.32c.4-.11.82-.2,1.27-.28l1.31-.22c.43-.06.8-.11,1.12-.14h.91v12c.36.09.68.18,1,.28a5,5,0,0,1,.81.36Zm-6-17.76a1.84,1.84,0,0,1,.63-1.47,2.8,2.8,0,0,1,3.28,0,1.84,1.84,0,0,1,.63,1.47,1.77,1.77,0,0,1-.63,1.44,2.76,2.76,0,0,1-3.28,0A1.77,1.77,0,0,1,320.56,171.54Z"/><path class="cls-1" d="M335,186.38a1.67,1.67,0,0,0-.5-1.2,5.85,5.85,0,0,0-1.23-.94c-.49-.28-1-.57-1.6-.85a9.68,9.68,0,0,1-1.61-1,5.48,5.48,0,0,1-1.23-1.36,3.43,3.43,0,0,1-.49-1.89,2.88,2.88,0,0,1,.37-1.46,3.38,3.38,0,0,1,1-1.11,5.09,5.09,0,0,1,1.54-.71,7,7,0,0,1,1.93-.25,15.1,15.1,0,0,1,2.69.22,9.89,9.89,0,0,1,2.18.63,9.23,9.23,0,0,1-.43,1.83c-.21.65-.42,1.25-.61,1.78h-.91L335,177.34a3.14,3.14,0,0,0-.67-.17,6.14,6.14,0,0,0-.78,0,1.51,1.51,0,0,0-1.63,1.52,1.6,1.6,0,0,0,.5,1.17,5.33,5.33,0,0,0,1.23.92c.49.29,1,.57,1.6.86a10.16,10.16,0,0,1,1.6,1,5.1,5.1,0,0,1,1.24,1.3,3.26,3.26,0,0,1,.49,1.79,3.35,3.35,0,0,1-1.5,2.9,6.78,6.78,0,0,1-4,1.06,13.62,13.62,0,0,1-2.65-.27,9.28,9.28,0,0,1-2.35-.75,6.12,6.12,0,0,1,.45-1.95,13.77,13.77,0,0,1,.86-1.76h.91l1.31,2.91a1.41,1.41,0,0,0,.66.26c.24,0,.46,0,.68,0a2.4,2.4,0,0,0,1.41-.46A1.45,1.45,0,0,0,335,186.38Z"/><path class="cls-1" d="M351.9,185.42c0,.39,0,.73,0,1s0,.59.06.91l1.85.26v.94a5.87,5.87,0,0,1-.87.32c-.37.11-.75.21-1.15.31s-.8.18-1.19.24l-1.05.15h-.9a4,4,0,0,1-.33-1.23c0-.41-.06-.91-.07-1.5h-.14a3.47,3.47,0,0,1-.45,1,3.79,3.79,0,0,1-.82.88,4.16,4.16,0,0,1-1.16.63,4.45,4.45,0,0,1-1.5.24,4.76,4.76,0,0,1-1.63-.27,3.93,3.93,0,0,1-1.31-.75,3.4,3.4,0,0,1-.89-1.16,3.62,3.62,0,0,1-.32-1.54,3.82,3.82,0,0,1,.46-2,3.38,3.38,0,0,1,1.43-1.27,8.53,8.53,0,0,1,2.51-.73,35.82,35.82,0,0,1,3.73-.35,8,8,0,0,0-.18-3.37,1.67,1.67,0,0,0-1.74-1.07,4.24,4.24,0,0,0-1.53.27l-1.25,3.21H342.3a6.3,6.3,0,0,1-.41-.74,9,9,0,0,1-.38-.88c-.11-.31-.21-.63-.29-1a8.17,8.17,0,0,1-.18-.94,8,8,0,0,1,2.62-1.09,13.89,13.89,0,0,1,3.4-.4,7.81,7.81,0,0,1,2.49.33,3.79,3.79,0,0,1,1.51.91,3,3,0,0,1,.76,1.35,6.34,6.34,0,0,1,.22,1.66c0,1.07,0,2-.07,2.9S351.9,184.51,351.9,185.42Zm-6,2.06a2.07,2.07,0,0,0,1-.21,3,3,0,0,0,.68-.51,2.18,2.18,0,0,0,.43-.64c.09-.24.17-.44.22-.62v-2.67a13.53,13.53,0,0,0-2.05.16,3.09,3.09,0,0,0-1.26.44,1.56,1.56,0,0,0-.63.77,3.26,3.26,0,0,0-.17,1.14,2.37,2.37,0,0,0,.48,1.58A1.66,1.66,0,0,0,345.88,187.48Z"/><path class="cls-2" d="M210.35,91c0,13.73,10.73,12,42.68,12s34.67,29.17,34.67,29.17V49.85S285,79,253,79,210.35,77.3,210.35,91Z"/><line class="cls-2" x1="253.03" y1="103.05" x2="253.03" y2="79.02"/><path class="cls-2" d="M287.7,103.05a12,12,0,1,0,0-24"/><path class="cls-2" d="M224.43,103.05s2.19,20.39,3.07,26.52.54,11.65,9.13,10.64c7-.82,6.09-5.64,5.66-11.73-.7-9.87-2.54-25.37-2.54-25.37"/></g></svg>