<svg xmlns="http://www.w3.org/2000/svg" viewBox="0 0 495.47 288"><defs><style>.cls-1{fill:#2c2e2e;}</style></defs><title>Artboard 33 copy 3scroll</title><g id="Information"><path class="cls-1" d="M128.51,137.69h-6.78v-1a7,7,0,0,1,1-.48,5.73,5.73,0,0,1,1-.31l7.08-17.69h2l6.88,17.69a6.37,6.37,0,0,1,1.09.31,4.77,4.77,0,0,1,1,.48v1h-8.58v-1c.35-.16.72-.32,1.13-.47a8,8,0,0,1,1.15-.32l-1.59-4.36h-6.09l-1.62,4.36a6.61,6.61,0,0,1,2.39.79Zm-.11-8h4.85l-1.78-5.23-.52-2.36h-.06l-.6,2.41Z"/><path class="cls-1" d="M153.24,135.47a2.73,2.73,0,0,1-.63,1,4.87,4.87,0,0,1-1.05.81,5.45,5.45,0,0,1-1.4.55,6.74,6.74,0,0,1-1.63.19,8.57,8.57,0,0,1-3.12-.51,5.46,5.46,0,0,1-2.15-1.45,5.93,5.93,0,0,1-1.26-2.27,9.79,9.79,0,0,1-.41-2.95,7.12,7.12,0,0,1,1.9-5.34,7.48,7.48,0,0,1,5.42-1.85,10.08,10.08,0,0,1,2.47.29,9,9,0,0,1,1.86.67c0,.31-.08.66-.15,1s-.14.75-.22,1.13-.18.74-.29,1.09a6.59,6.59,0,0,1-.33.89h-1.34l-1.15-3.26a1.42,1.42,0,0,0-.41-.2,2.24,2.24,0,0,0-.66-.07,2.6,2.6,0,0,0-1.23.26,2.19,2.19,0,0,0-.9.89A5.2,5.2,0,0,0,146,128a15.52,15.52,0,0,0-.18,2.58,8.4,8.4,0,0,0,.24,2.07,4.86,4.86,0,0,0,.76,1.64,3.54,3.54,0,0,0,1.27,1.1,3.86,3.86,0,0,0,1.81.4,4.55,4.55,0,0,0,1.68-.28,4.85,4.85,0,0,0,1.2-.65Z"/><path class="cls-1" d="M166.9,133.72c0,.4,0,.75,0,1s0,.6.07.93l1.89.28v1a7.13,7.13,0,0,1-.89.32c-.37.11-.77.22-1.18.32s-.82.18-1.22.25l-1.07.15h-.93a4.2,4.2,0,0,1-.33-1.26c0-.42-.06-.94-.08-1.54H163a3.67,3.67,0,0,1-.46,1.06,3.75,3.75,0,0,1-.84.9,4.39,4.39,0,0,1-1.19.65A4.65,4.65,0,0,1,159,138a5,5,0,0,1-1.67-.27A4.28,4.28,0,0,1,156,137a3.55,3.55,0,0,1-1.23-2.77,4,4,0,0,1,.47-2,3.46,3.46,0,0,1,1.46-1.3,8.9,8.9,0,0,1,2.58-.76,37.51,37.51,0,0,1,3.83-.35,8.39,8.39,0,0,0-.2-3.46,1.69,1.69,0,0,0-1.78-1.09,4.33,4.33,0,0,0-1.56.27l-1.29,3.29h-1.21a6.47,6.47,0,0,1-.42-.75c-.14-.29-.27-.59-.39-.91a8.35,8.35,0,0,1-.3-1,8.93,8.93,0,0,1-.18-1,8.38,8.38,0,0,1,2.69-1.13,14.55,14.55,0,0,1,3.48-.41,7.79,7.79,0,0,1,2.55.35,3.73,3.73,0,0,1,1.55.93,3.07,3.07,0,0,1,.78,1.38A6.24,6.24,0,0,1,167,128c0,1.1,0,2.09-.06,3S166.9,132.78,166.9,133.72Zm-6.17,2.11a2,2,0,0,0,1-.22,2.72,2.72,0,0,0,.7-.52,2,2,0,0,0,.44-.66q.15-.36.24-.63v-2.74a16,16,0,0,0-2.12.16,3.24,3.24,0,0,0-1.28.45,1.62,1.62,0,0,0-.65.8,3.33,3.33,0,0,0-.18,1.16,2.4,2.4,0,0,0,.5,1.62A1.69,1.69,0,0,0,160.73,135.83Z"/><path class="cls-1" d="M179.48,135a3.51,3.51,0,0,1-.49,1.15,4.39,4.39,0,0,1-.85,1,3.86,3.86,0,0,1-1.12.68,3.8,3.8,0,0,1-1.35.24,5,5,0,0,1-4.12-1.71q-1.43-1.71-1.42-5.25a9.21,9.21,0,0,1,.5-3.17A6.46,6.46,0,0,1,172,125.6a5.69,5.69,0,0,1,2.15-1.4,8.06,8.06,0,0,1,2.8-.46c.33,0,.61,0,.84,0l.63.07a2.61,2.61,0,0,1,.55.14l.59.2v-4.85l-2.09-.22v-1a5.63,5.63,0,0,1,1.06-.3c.45-.09.92-.18,1.41-.26l1.45-.24c.48-.07.87-.13,1.18-.19h.93v18.68l1.81.22v1a6,6,0,0,1-1,.35q-.61.16-1.26.3l-1.28.24-1,.15h-.93l-.25-3Zm-2.49.85a2.32,2.32,0,0,0,1.62-.6,4,4,0,0,0,1-2.06v-7.38a3.51,3.51,0,0,0-.89-.35,5.15,5.15,0,0,0-1.34-.14,2.34,2.34,0,0,0-2.27,1.44,10,10,0,0,0-.69,4.18,8.63,8.63,0,0,0,.61,3.56A2.06,2.06,0,0,0,177,135.83Z"/><path class="cls-1" d="M199,135.39a3.55,3.55,0,0,1-.7,1,5.1,5.1,0,0,1-1.18.85,8.05,8.05,0,0,1-1.62.6,9,9,0,0,1-5-.28,5.76,5.76,0,0,1-2.19-1.45A6.29,6.29,0,0,1,187,133.8a9.15,9.15,0,0,1-.45-3,7.24,7.24,0,0,1,1.84-5.35,6.9,6.9,0,0,1,5.1-1.84,8.49,8.49,0,0,1,2.61.39,4.44,4.44,0,0,1,2,1.26,4.84,4.84,0,0,1,1.13,2.3,9.28,9.28,0,0,1,0,3.48h-8.42a5.33,5.33,0,0,0,1.11,3.46,3.93,3.93,0,0,0,3.19,1.29,6.65,6.65,0,0,0,1.88-.28,4.22,4.22,0,0,0,1.52-.71Zm-5.67-10.17a2.3,2.3,0,0,0-1,.19,1.73,1.73,0,0,0-.73.7,4.47,4.47,0,0,0-.51,1.37,16.32,16.32,0,0,0-.27,2.18h4.39a7.68,7.68,0,0,0-.25-3.29A1.63,1.63,0,0,0,193.37,125.22Z"/><path class="cls-1" d="M216.72,137.69h-6.85v-1l.61-.34a4.82,4.82,0,0,1,.76-.32v-5.47c0-.84,0-1.56-.07-2.14a5.21,5.21,0,0,0-.29-1.45,1.76,1.76,0,0,0-.6-.82,1.7,1.7,0,0,0-1-.26,2,2,0,0,0-1.52.67,4.07,4.07,0,0,0-1,1.77V136a4.82,4.82,0,0,1,1.37.66v1h-7.13v-1a7.49,7.49,0,0,1,.85-.36q.47-.16,1-.3V125.9l-1.81-.22v-1a7.32,7.32,0,0,1,1.09-.36c.43-.11.87-.2,1.33-.28s.9-.16,1.33-.21l1.08-.14h.93v3.1h0a4.73,4.73,0,0,1,1.55-2.19,4.06,4.06,0,0,1,2.67-.91,6.14,6.14,0,0,1,1.29.14,3.11,3.11,0,0,1,2.09,1.54A4.93,4.93,0,0,1,215,127a5.07,5.07,0,0,1,1.65-2.44,4.27,4.27,0,0,1,2.8-.94,5.77,5.77,0,0,1,1.79.26,2.91,2.91,0,0,1,1.32.93,4.46,4.46,0,0,1,.81,1.78,12.54,12.54,0,0,1,.27,2.86V136a5.65,5.65,0,0,1,1.81.66v1h-7.13v-1a6.42,6.42,0,0,1,1.37-.66v-6a9.52,9.52,0,0,0-.39-3.17,1.66,1.66,0,0,0-1.72-1,1.83,1.83,0,0,0-1.55.74,5,5,0,0,0-.83,2V136a6.09,6.09,0,0,1,.83.3,6.56,6.56,0,0,1,.7.36Z"/><path class="cls-1" d="M234.19,137.69h-7.57v-1a5.76,5.76,0,0,1,.85-.37c.29-.1.61-.2,1-.29V125.9l-1.81-.22v-1a9.77,9.77,0,0,1,1-.33c.41-.11.84-.2,1.3-.29l1.35-.22,1.15-.15h.93V136c.36.09.69.19,1,.29a4.67,4.67,0,0,1,.82.37ZM228,119.49a1.87,1.87,0,0,1,.65-1.51,2.84,2.84,0,0,1,3.36,0,1.87,1.87,0,0,1,.65,1.51A1.85,1.85,0,0,1,232,121a2.88,2.88,0,0,1-3.36,0A1.85,1.85,0,0,1,228,119.49Z"/><path class="cls-1" d="M247.38,135.47a2.73,2.73,0,0,1-.63,1,5.2,5.2,0,0,1-1.06.81,5.31,5.31,0,0,1-1.4.55,6.68,6.68,0,0,1-1.63.19,8.55,8.55,0,0,1-3.11-.51,5.39,5.39,0,0,1-2.15-1.45,5.93,5.93,0,0,1-1.26-2.27,9.78,9.78,0,0,1-.42-2.95,7.13,7.13,0,0,1,1.91-5.34,7.48,7.48,0,0,1,5.42-1.85,10,10,0,0,1,2.46.29,9.31,9.31,0,0,1,1.87.67c0,.31-.09.66-.15,1s-.14.75-.22,1.13-.18.74-.29,1.09a6.59,6.59,0,0,1-.33.89h-1.34l-1.15-3.26a1.35,1.35,0,0,0-.42-.2,2.12,2.12,0,0,0-.65-.07,2.67,2.67,0,0,0-1.24.26,2.23,2.23,0,0,0-.89.89,5,5,0,0,0-.55,1.67,15.52,15.52,0,0,0-.18,2.58,8.39,8.39,0,0,0,.25,2.07,4.86,4.86,0,0,0,.76,1.64,3.45,3.45,0,0,0,1.27,1.1,3.83,3.83,0,0,0,1.81.4,4.46,4.46,0,0,0,1.67-.28,4.75,4.75,0,0,0,1.21-.65Z"/><path class="cls-1" d="M256.1,118.5h9v1a7.31,7.31,0,0,1-1.27.51,8.9,8.9,0,0,1-1.36.28v15.58h5.29l1.84-4.91h1.12c.08.42.15.92.21,1.48s.11,1.16.15,1.79.06,1.23.08,1.83,0,1.14,0,1.59h-15v-1a9,9,0,0,1,1.19-.52,6.12,6.12,0,0,1,1.06-.27V120.33a5.86,5.86,0,0,1-2.25-.79Z"/><path class="cls-1" d="M284.86,135.39a3.35,3.35,0,0,1-.7,1,5,5,0,0,1-1.17.85,8.05,8.05,0,0,1-1.62.6,9,9,0,0,1-5-.28,5.61,5.61,0,0,1-2.19-1.45,6.15,6.15,0,0,1-1.33-2.26,9.15,9.15,0,0,1-.45-3,7.28,7.28,0,0,1,1.83-5.35,6.93,6.93,0,0,1,5.1-1.84,8.51,8.51,0,0,1,2.62.39,4.44,4.44,0,0,1,2,1.26,4.84,4.84,0,0,1,1.13,2.3,9.28,9.28,0,0,1,0,3.48h-8.42a5.22,5.22,0,0,0,1.11,3.46,3.92,3.92,0,0,0,3.19,1.29,6.65,6.65,0,0,0,1.88-.28,4.22,4.22,0,0,0,1.52-.71Zm-5.66-10.17a2.3,2.3,0,0,0-1,.19,1.68,1.68,0,0,0-.73.7,4.47,4.47,0,0,0-.51,1.37,13.57,13.57,0,0,0-.27,2.18h4.39a7.84,7.84,0,0,0-.25-3.29A1.63,1.63,0,0,0,279.2,125.22Z"/><path class="cls-1" d="M299.15,133.72c0,.4,0,.75,0,1s0,.6.07.93l1.89.28v1a6.58,6.58,0,0,1-.89.32c-.37.11-.77.22-1.18.32s-.82.18-1.22.25l-1.07.15h-.93a4.2,4.2,0,0,1-.33-1.26c0-.42-.06-.94-.08-1.54h-.14a3.42,3.42,0,0,1-.46,1.06,3.75,3.75,0,0,1-.84.9,4.39,4.39,0,0,1-1.19.65,4.65,4.65,0,0,1-1.54.24,5,5,0,0,1-1.67-.27,4.12,4.12,0,0,1-1.34-.77,3.54,3.54,0,0,1-.91-1.19,3.66,3.66,0,0,1-.33-1.58,4,4,0,0,1,.47-2,3.46,3.46,0,0,1,1.46-1.3,8.9,8.9,0,0,1,2.58-.76,37.51,37.51,0,0,1,3.83-.35,8.6,8.6,0,0,0-.19-3.46,1.71,1.71,0,0,0-1.79-1.09,4.41,4.41,0,0,0-1.56.27l-1.29,3.29H289.3a8.39,8.39,0,0,1-.42-.75,8.27,8.27,0,0,1-.38-.91c-.12-.32-.22-.64-.31-1a6.93,6.93,0,0,1-.17-1,8.32,8.32,0,0,1,2.68-1.13,14.57,14.57,0,0,1,3.49-.41,7.87,7.87,0,0,1,2.55.35,3.87,3.87,0,0,1,1.55.93,3.27,3.27,0,0,1,.78,1.38,6.65,6.65,0,0,1,.22,1.7c0,1.1,0,2.09-.07,3S299.15,132.78,299.15,133.72ZM293,135.83a2.07,2.07,0,0,0,1-.22,3.11,3.11,0,0,0,.7-.52,2.14,2.14,0,0,0,.43-.66q.15-.36.24-.63v-2.74a15.7,15.7,0,0,0-2.11.16,3.24,3.24,0,0,0-1.29.45,1.67,1.67,0,0,0-.65.8,3.34,3.34,0,0,0-.17,1.16,2.39,2.39,0,0,0,.49,1.62A1.69,1.69,0,0,0,293,135.83Z"/><path class="cls-1" d="M309.49,127.14a3.64,3.64,0,0,0-.77.55,3.3,3.3,0,0,0-.8,1.26v7a6.89,6.89,0,0,1,1.1.21,5.1,5.1,0,0,1,1.1.45v1h-7.95v-1a4.9,4.9,0,0,1,.93-.41c.29-.09.58-.18.88-.25V125.9l-1.81-.22v-1a6.8,6.8,0,0,1,1.08-.36c.43-.11.87-.2,1.33-.28s.9-.16,1.33-.21l1.08-.14h.93v3.65H308a6.32,6.32,0,0,1,.65-1.26,6.77,6.77,0,0,1,1-1.21,4.93,4.93,0,0,1,1.26-.88,3.23,3.23,0,0,1,1.43-.3,3.57,3.57,0,0,1,.52,1.09c.14.46.26.91.35,1.33v1.07Z"/><path class="cls-1" d="M330.68,137.69h-7.26v-1a7.48,7.48,0,0,1,.7-.34c.22-.1.49-.21.81-.32v-6.46a6.09,6.09,0,0,0-.5-2.71,1.79,1.79,0,0,0-1.75-1,2.59,2.59,0,0,0-1.8.67,4.21,4.21,0,0,0-1.14,1.83V136a4.45,4.45,0,0,1,.78.26,6,6,0,0,1,.73.4v1H314v-1a9,9,0,0,1,1.81-.66V125.9l-1.81-.22v-1a6.73,6.73,0,0,1,.94-.32c.38-.1.8-.19,1.24-.28s.91-.17,1.38-.24l1.27-.15h.93v2.83h0a5.44,5.44,0,0,1,1.73-2,4.61,4.61,0,0,1,2.79-.84,6.61,6.61,0,0,1,1.92.26,3.16,3.16,0,0,1,1.44.93,4.29,4.29,0,0,1,.91,1.77,10.54,10.54,0,0,1,.31,2.81V136a4.82,4.82,0,0,1,1.81.66Z"/><path class="cls-1" d="M339.43,137.69h-7.57v-1a5.76,5.76,0,0,1,.85-.37c.3-.1.62-.2,1-.29V125.9l-1.81-.22v-1a9.77,9.77,0,0,1,1-.33c.41-.11.85-.2,1.3-.29l1.35-.22,1.15-.15h.93V136c.37.09.7.19,1,.29a4.67,4.67,0,0,1,.82.37Zm-6.17-18.2a1.87,1.87,0,0,1,.65-1.51,2.52,2.52,0,0,1,1.68-.55,2.48,2.48,0,0,1,1.68.55,1.84,1.84,0,0,1,.65,1.51,1.82,1.82,0,0,1-.65,1.48,2.53,2.53,0,0,1-1.68.54,2.57,2.57,0,0,1-1.68-.54A1.85,1.85,0,0,1,333.26,119.49Z"/><path class="cls-1" d="M357.45,137.69h-7.27v-1c.24-.13.47-.24.7-.34s.5-.21.81-.32v-6.46a6.09,6.09,0,0,0-.5-2.71,1.78,1.78,0,0,0-1.75-1,2.61,2.61,0,0,0-1.8.67,4.11,4.11,0,0,0-1.13,1.83V136a4.75,4.75,0,0,1,.78.26,5.29,5.29,0,0,1,.72.4v1h-7.26v-1a8.75,8.75,0,0,1,1.81-.66V125.9l-1.81-.22v-1a6.54,6.54,0,0,1,.93-.32c.38-.1.8-.19,1.25-.28s.9-.17,1.37-.24l1.27-.15h.94v2.83h0a5.54,5.54,0,0,1,1.73-2,4.62,4.62,0,0,1,2.8-.84,6.7,6.7,0,0,1,1.92.26,3.27,3.27,0,0,1,1.44.93,4.4,4.4,0,0,1,.9,1.77,10.5,10.5,0,0,1,.32,2.81V136a4.88,4.88,0,0,1,1.81.66Z"/><path class="cls-1" d="M365,123.65a10.32,10.32,0,0,1,3,.37,4.91,4.91,0,0,1,1.78.92,7,7,0,0,1,3-2,1.83,1.83,0,0,1,.38.4,3.16,3.16,0,0,1,.33.56,4.1,4.1,0,0,1,.22.61,1.7,1.7,0,0,1,.08.49l-.35.66H370.5a4.4,4.4,0,0,1,.56,1,3.83,3.83,0,0,1,.26,1.47,4,4,0,0,1-.38,1.7,4.09,4.09,0,0,1-1.17,1.41,5.76,5.76,0,0,1-2,1,9.72,9.72,0,0,1-2.78.36h-.84a5.4,5.4,0,0,1-.65-.07,4.34,4.34,0,0,0-.23.4,1,1,0,0,0-.12.45c0,.31.22.56.66.74a9.21,9.21,0,0,0,1.67.49c.67.15,1.4.31,2.18.5a12.11,12.11,0,0,1,2.18.72,5.38,5.38,0,0,1,1.7,1.18,2.73,2.73,0,0,1,.71,1.88,3.21,3.21,0,0,1-.55,1.95,5,5,0,0,1-1.57,1.44,8.53,8.53,0,0,1-2.36.9,12.8,12.8,0,0,1-2.89.32,14.36,14.36,0,0,1-3.09-.29,6.69,6.69,0,0,1-2.07-.78,3.44,3.44,0,0,1-1.17-1.13,2.71,2.71,0,0,1-.06-2.63,2.87,2.87,0,0,1,.85-1,5.48,5.48,0,0,1,1.27-.69c.49-.18,1-.34,1.6-.49a5.66,5.66,0,0,1-.79-.27,3.56,3.56,0,0,1-.69-.4,2.13,2.13,0,0,1-.49-.55,1.35,1.35,0,0,1-.19-.73,1.22,1.22,0,0,1,.22-.69,2.82,2.82,0,0,1,.57-.64,6.92,6.92,0,0,1,.77-.52,8.64,8.64,0,0,1,.82-.39,5.14,5.14,0,0,1-2.74-1.5,4.08,4.08,0,0,1-1-2.84,3.66,3.66,0,0,1,1.7-3.21A8.17,8.17,0,0,1,365,123.65Zm3.45,16.13a1.64,1.64,0,0,0-.45-1.2,3.56,3.56,0,0,0-1.17-.74,11.25,11.25,0,0,0-1.6-.49q-.9-.21-1.77-.48a3.79,3.79,0,0,0-1,1.1,2.67,2.67,0,0,0-.3,1.31,2.37,2.37,0,0,0,.87,2,3.71,3.71,0,0,0,2.42.7,3.39,3.39,0,0,0,2.28-.64A2,2,0,0,0,368.47,139.78Zm-5.81-11.63a4,4,0,0,0,.48,2.17,2.69,2.69,0,0,0,3.73,0,3.91,3.91,0,0,0,.5-2.15,3.79,3.79,0,0,0-.52-2.21,2.75,2.75,0,0,0-3.7,0A4,4,0,0,0,362.66,128.15Z"/><path class="cls-1" d="M196.7,164.84h1.13c.07.29.14.64.2,1.06s.12.85.17,1.31.08.93.09,1.39,0,.87,0,1.23a6.52,6.52,0,0,1-2.4.85,16.86,16.86,0,0,1-2.95.25,14.3,14.3,0,0,1-4.12-.56,7.7,7.7,0,0,1-5.17-4.89A12.6,12.6,0,0,1,183,161a11.66,11.66,0,0,1,.78-4.48,8.61,8.61,0,0,1,2.09-3.08,8.09,8.09,0,0,1,3.06-1.77,11.68,11.68,0,0,1,3.66-.57,18.2,18.2,0,0,1,3.28.27,9.63,9.63,0,0,1,2.4.69c0,.3,0,.67,0,1.13s-.08.94-.14,1.44-.14,1-.22,1.48-.16.89-.23,1.22h-1.15L195,153.16a2.46,2.46,0,0,0-.8-.22,6.87,6.87,0,0,0-1.12-.08,5,5,0,0,0-2.11.45,4.68,4.68,0,0,0-1.76,1.44,7.32,7.32,0,0,0-1.2,2.54,13.43,13.43,0,0,0-.44,3.71,10,10,0,0,0,1.56,6,5,5,0,0,0,4.25,2.12,5.93,5.93,0,0,0,1.3-.13,1.34,1.34,0,0,0,.73-.34Z"/><path class="cls-1" d="M200.62,163.74a8.35,8.35,0,0,1,.51-3,6.13,6.13,0,0,1,1.46-2.26,6.36,6.36,0,0,1,2.28-1.43,8.79,8.79,0,0,1,3-.49,9.28,9.28,0,0,1,3.3.53,6.05,6.05,0,0,1,2.28,1.48,5.72,5.72,0,0,1,1.3,2.28,9.57,9.57,0,0,1,.41,2.89,8.6,8.6,0,0,1-.49,3,6,6,0,0,1-3.74,3.68,9.8,9.8,0,0,1-6.3,0,6.13,6.13,0,0,1-2.27-1.48,6,6,0,0,1-1.35-2.27A9.33,9.33,0,0,1,200.62,163.74Zm4.25,0A15.74,15.74,0,0,0,205,166a5.24,5.24,0,0,0,.53,1.74,2.93,2.93,0,0,0,1,1.11,3.31,3.31,0,0,0,1.7.4,2.18,2.18,0,0,0,1.1-.29,2.38,2.38,0,0,0,.85-.94,5,5,0,0,0,.53-1.7,18,18,0,0,0,0-4.86,5.42,5.42,0,0,0-.52-1.73,2.77,2.77,0,0,0-1-1.11,2.89,2.89,0,0,0-1.59-.4,2.55,2.55,0,0,0-1.24.29,2.25,2.25,0,0,0-.87.93,5.4,5.4,0,0,0-.54,1.7A15.82,15.82,0,0,0,204.87,163.74Z"/><path class="cls-1" d="M232.35,170.6H225.5v-1c.18-.11.38-.23.61-.35a4.82,4.82,0,0,1,.76-.31v-5.47c0-.85,0-1.56-.07-2.15a5.14,5.14,0,0,0-.29-1.44,1.52,1.52,0,0,0-1.59-1.09,2,2,0,0,0-1.52.68,4.07,4.07,0,0,0-1,1.77v7.7a4.34,4.34,0,0,1,1.37.66v1h-7.13v-1a7.49,7.49,0,0,1,.85-.36l1-.31V158.81l-1.81-.22v-1a7.32,7.32,0,0,1,1.09-.36c.43-.11.87-.21,1.33-.29s.9-.15,1.33-.2l1.08-.14h.93v3.1h0a4.81,4.81,0,0,1,1.55-2.2,4.11,4.11,0,0,1,2.67-.9,5.54,5.54,0,0,1,1.29.14,3.37,3.37,0,0,1,1.17.5,3.31,3.31,0,0,1,.92,1,5.08,5.08,0,0,1,.54,1.7,5.12,5.12,0,0,1,1.65-2.44,4.32,4.32,0,0,1,2.8-.93,5.77,5.77,0,0,1,1.79.26,2.82,2.82,0,0,1,1.32.92,4.72,4.72,0,0,1,.81,1.79,12.51,12.51,0,0,1,.27,2.85v6.52a5.65,5.65,0,0,1,1.81.66v1h-7.13v-1a5.59,5.59,0,0,1,1.37-.66v-6a9.15,9.15,0,0,0-.4-3.16,1.63,1.63,0,0,0-1.71-1,1.85,1.85,0,0,0-1.55.74,5.17,5.17,0,0,0-.83,2v7.43a6.09,6.09,0,0,1,.83.3,6.56,6.56,0,0,1,.7.36Z"/><path class="cls-1" d="M257.69,170.6h-6.86v-1l.62-.35a5.11,5.11,0,0,1,.75-.31v-5.47c0-.85,0-1.56-.06-2.15a5.52,5.52,0,0,0-.29-1.44,1.74,1.74,0,0,0-.61-.83,1.72,1.72,0,0,0-1-.26,2,2,0,0,0-1.52.68,4.07,4.07,0,0,0-1,1.77v7.7a4.45,4.45,0,0,1,1.37.66v1H242v-1a7.49,7.49,0,0,1,.85-.36l1-.31V158.81l-1.81-.22v-1a6.8,6.8,0,0,1,1.08-.36c.43-.11.88-.21,1.33-.29s.9-.15,1.33-.2l1.09-.14h.93v3.1h0a4.81,4.81,0,0,1,1.55-2.2,4.11,4.11,0,0,1,2.67-.9,5.54,5.54,0,0,1,1.29.14,3.25,3.25,0,0,1,1.16.5,3.08,3.08,0,0,1,.92,1,4.85,4.85,0,0,1,.55,1.7,5.12,5.12,0,0,1,1.65-2.44,4.29,4.29,0,0,1,2.79-.93,5.79,5.79,0,0,1,1.8.26,2.82,2.82,0,0,1,1.32.92,4.57,4.57,0,0,1,.8,1.79,11.9,11.9,0,0,1,.28,2.85v6.52a5.74,5.74,0,0,1,1.81.66v1h-7.13v-1a5.59,5.59,0,0,1,1.37-.66v-6a9.15,9.15,0,0,0-.4-3.16,1.63,1.63,0,0,0-1.71-1,1.84,1.84,0,0,0-1.55.74,5,5,0,0,0-.84,2v7.43a6.79,6.79,0,0,1,.84.3,6.56,6.56,0,0,1,.7.36Z"/><path class="cls-1" d="M267.59,163.74a8.58,8.58,0,0,1,.5-3,6.19,6.19,0,0,1,3.75-3.69,8.73,8.73,0,0,1,3-.49,9.38,9.38,0,0,1,3.31.53,6.09,6.09,0,0,1,2.27,1.48,5.6,5.6,0,0,1,1.3,2.28,9.57,9.57,0,0,1,.42,2.89,8.6,8.6,0,0,1-.5,3,6,6,0,0,1-3.74,3.68,8.93,8.93,0,0,1-3.06.5,8.77,8.77,0,0,1-3.23-.54,6.09,6.09,0,0,1-2.28-1.48,6,6,0,0,1-1.34-2.27A9,9,0,0,1,267.59,163.74Zm4.25,0A15.82,15.82,0,0,0,272,166a5.48,5.48,0,0,0,.53,1.74,3,3,0,0,0,1.05,1.11,3.26,3.26,0,0,0,1.7.4,2.14,2.14,0,0,0,1.09-.29,2.38,2.38,0,0,0,.85-.94,5.23,5.23,0,0,0,.54-1.7,15.65,15.65,0,0,0,.18-2.59,15.43,15.43,0,0,0-.16-2.27,5.42,5.42,0,0,0-.52-1.73,2.7,2.7,0,0,0-1-1.11,2.89,2.89,0,0,0-1.59-.4,2.54,2.54,0,0,0-1.23.29,2.27,2.27,0,0,0-.88.93,5.16,5.16,0,0,0-.53,1.7A15.82,15.82,0,0,0,271.84,163.74Z"/><path class="cls-1" d="M300.36,170.6h-7.27v-1c.24-.13.47-.25.7-.35s.5-.2.81-.31v-6.46a6.06,6.06,0,0,0-.5-2.71,1.79,1.79,0,0,0-1.75-1,2.6,2.6,0,0,0-1.8.68,4.18,4.18,0,0,0-1.14,1.82v7.65a4.57,4.57,0,0,1,.79.26,4.84,4.84,0,0,1,.72.4v1h-7.26v-1a9.31,9.31,0,0,1,1.81-.67V158.81l-1.81-.22v-1a5.19,5.19,0,0,1,.93-.32c.38-.1.8-.2,1.25-.29s.9-.17,1.37-.23l1.27-.15h.93v2.82h0a5.51,5.51,0,0,1,1.73-2,4.62,4.62,0,0,1,2.8-.84,6.7,6.7,0,0,1,1.92.26,3.16,3.16,0,0,1,1.44.92,4.47,4.47,0,0,1,.9,1.77,10.58,10.58,0,0,1,.32,2.82v6.57a4.88,4.88,0,0,1,1.81.66Z"/><path class="cls-1" d="M308.58,167.61a1.68,1.68,0,0,0-.51-1.23,5.35,5.35,0,0,0-1.26-1c-.5-.3-1.05-.59-1.64-.88a9.54,9.54,0,0,1-1.65-1,5.52,5.52,0,0,1-1.26-1.38,3.54,3.54,0,0,1-.51-1.95,2.94,2.94,0,0,1,.39-1.5,3.49,3.49,0,0,1,1-1.13,5,5,0,0,1,1.58-.73,7.35,7.35,0,0,1,2-.26,15.88,15.88,0,0,1,2.76.23,10.44,10.44,0,0,1,2.24.65,10.43,10.43,0,0,1-.44,1.87q-.33,1-.63,1.83h-.94l-1.15-2.8a2.73,2.73,0,0,0-.68-.18c-.24,0-.51,0-.8,0a1.54,1.54,0,0,0-1.67,1.56,1.64,1.64,0,0,0,.51,1.2,5.59,5.59,0,0,0,1.26.94c.5.3,1.05.59,1.64.88a10.8,10.8,0,0,1,1.65,1,5.48,5.48,0,0,1,1.26,1.33,3.26,3.26,0,0,1,.51,1.84,3.45,3.45,0,0,1-1.54,3,6.93,6.93,0,0,1-4.11,1.09,13.66,13.66,0,0,1-2.72-.28,9.76,9.76,0,0,1-2.41-.76,6.24,6.24,0,0,1,.47-2,13.9,13.9,0,0,1,.87-1.81h.94l1.34,3a1.26,1.26,0,0,0,.67.26,5.8,5.8,0,0,0,.7,0,2.45,2.45,0,0,0,1.45-.46A1.49,1.49,0,0,0,308.58,167.61Z"/></g></svg>