<svg xmlns="http://www.w3.org/2000/svg" viewBox="0 0 495.47 288"><defs><style>.cls-1{fill:#2c2e2e;}.cls-2{fill:none;stroke:#2c2e2e;stroke-linecap:round;stroke-linejoin:round;stroke-width:3px;}</style></defs><title>Artboard 33 copy 3scroll</title><g id="Information"><path class="cls-1" d="M134.54,188.52h-6.77v-1a4.89,4.89,0,0,1,.94-.48,5.78,5.78,0,0,1,1-.32L136.79,169h2l6.88,17.69a6.52,6.52,0,0,1,1.1.32,4.31,4.31,0,0,1,1,.48v1h-8.59v-1c.35-.17.73-.32,1.13-.47a7,7,0,0,1,1.15-.33l-1.59-4.36h-6.09l-1.62,4.36a6.63,6.63,0,0,1,2.39.8Zm-.11-8h4.85l-1.78-5.24-.52-2.36h0l-.61,2.42Z"/><path class="cls-1" d="M159.27,186.3a2.56,2.56,0,0,1-.63,1,4.87,4.87,0,0,1-1,.81,5.68,5.68,0,0,1-1.4.55,7.27,7.27,0,0,1-1.63.19,8.57,8.57,0,0,1-3.12-.51,5.64,5.64,0,0,1-2.15-1.45,6.17,6.17,0,0,1-1.26-2.28,10.11,10.11,0,0,1-.41-3,7.05,7.05,0,0,1,1.91-5.33,7.46,7.46,0,0,1,5.41-1.85,9.57,9.57,0,0,1,2.47.29,8.43,8.43,0,0,1,1.86.67c0,.31-.08.65-.15,1s-.13.75-.22,1.12-.18.74-.28,1.1a7.81,7.81,0,0,1-.33.89h-1.35l-1.15-3.26a1.33,1.33,0,0,0-.41-.21,2.24,2.24,0,0,0-.66-.07,2.75,2.75,0,0,0-1.23.26,2.17,2.17,0,0,0-.89.89,4.94,4.94,0,0,0-.55,1.68,15.39,15.39,0,0,0-.18,2.57,7.94,7.94,0,0,0,.25,2.07,4.8,4.8,0,0,0,.75,1.65,3.58,3.58,0,0,0,1.28,1.1,3.93,3.93,0,0,0,1.81.39,4.76,4.76,0,0,0,1.67-.27,4.41,4.41,0,0,0,1.2-.66Z"/><path class="cls-1" d="M172.93,184.54c0,.4,0,.75,0,1s0,.61.07.94l1.89.27v1a5.33,5.33,0,0,1-.89.33c-.37.11-.77.21-1.18.31a10.56,10.56,0,0,1-1.22.25c-.4.07-.76.12-1.07.15h-.93a4.2,4.2,0,0,1-.33-1.26c0-.42-.06-.93-.08-1.53h-.14a3.47,3.47,0,0,1-.46,1.05,3.79,3.79,0,0,1-.84.91,4.4,4.4,0,0,1-2.73.89,4.76,4.76,0,0,1-1.67-.28,4.29,4.29,0,0,1-1.34-.76,3.48,3.48,0,0,1-.91-1.2,3.62,3.62,0,0,1-.33-1.57,4,4,0,0,1,.47-2,3.48,3.48,0,0,1,1.46-1.31,8.92,8.92,0,0,1,2.58-.75c1.05-.16,2.33-.28,3.83-.36a8.55,8.55,0,0,0-.19-3.45,1.71,1.71,0,0,0-1.79-1.1,4.2,4.2,0,0,0-1.56.28l-1.29,3.29h-1.21a8.76,8.76,0,0,1-.8-1.66c-.12-.32-.22-.65-.31-1a6.68,6.68,0,0,1-.17-1,8.32,8.32,0,0,1,2.68-1.12,14.57,14.57,0,0,1,3.49-.41,7.9,7.9,0,0,1,2.55.34,4,4,0,0,1,1.55.93,3.36,3.36,0,0,1,.78,1.39,6.65,6.65,0,0,1,.22,1.7c0,1.1,0,2.09-.07,3S172.93,183.61,172.93,184.54Zm-6.17,2.11a2.07,2.07,0,0,0,1-.22,2.84,2.84,0,0,0,.7-.52,2.23,2.23,0,0,0,.43-.65,5.3,5.3,0,0,0,.24-.64v-2.74a15.47,15.47,0,0,0-2.11.17,3.24,3.24,0,0,0-1.29.45,1.65,1.65,0,0,0-.65.79,3.35,3.35,0,0,0-.18,1.17,2.43,2.43,0,0,0,.5,1.62A1.71,1.71,0,0,0,166.76,186.65Z"/><path class="cls-1" d="M185.52,185.8A3.56,3.56,0,0,1,185,187a4.44,4.44,0,0,1-.85,1,3.83,3.83,0,0,1-1.12.67,3.56,3.56,0,0,1-1.35.25,5,5,0,0,1-4.12-1.72,8.15,8.15,0,0,1-1.42-5.25,9.19,9.19,0,0,1,.5-3.16,6.46,6.46,0,0,1,1.38-2.29,5.54,5.54,0,0,1,2.16-1.4,8,8,0,0,1,2.79-.47q.49,0,.84,0l.63.07a2.59,2.59,0,0,1,.55.13l.59.21v-4.85l-2.09-.22v-1.05a5.63,5.63,0,0,1,1.06-.3c.45-.09.92-.18,1.41-.26l1.46-.23,1.17-.19h.94v18.67l1.81.22v1a5.52,5.52,0,0,1-1,.36q-.6.16-1.26.3c-.44.09-.87.17-1.28.23s-.75.12-1,.15h-.93l-.24-3Zm-2.5.85a2.32,2.32,0,0,0,1.62-.6,3.78,3.78,0,0,0,1-2.06v-7.37a3.18,3.18,0,0,0-.89-.36,5.53,5.53,0,0,0-1.33-.14,2.35,2.35,0,0,0-2.28,1.44,10,10,0,0,0-.68,4.19,8.85,8.85,0,0,0,.6,3.56A2,2,0,0,0,183,186.65Z"/><path class="cls-1" d="M205.07,186.21a3.4,3.4,0,0,1-.7.95,5.1,5.1,0,0,1-1.18.85,7,7,0,0,1-1.62.6,7.81,7.81,0,0,1-2,.24,8.26,8.26,0,0,1-3-.51,5.83,5.83,0,0,1-2.2-1.45,6.34,6.34,0,0,1-1.33-2.27,9.07,9.07,0,0,1-.45-3,7.2,7.2,0,0,1,1.84-5.34,6.86,6.86,0,0,1,5.1-1.84,8.92,8.92,0,0,1,2.62.38,4.67,4.67,0,0,1,2,1.26,5,5,0,0,1,1.12,2.31,9.08,9.08,0,0,1,0,3.48h-8.42a5.3,5.3,0,0,0,1.11,3.45,3.94,3.94,0,0,0,3.2,1.29,7,7,0,0,0,1.87-.27,4.36,4.36,0,0,0,1.53-.71ZM199.4,176a2.42,2.42,0,0,0-1,.19,1.7,1.7,0,0,0-.74.7,4.33,4.33,0,0,0-.5,1.37,15,15,0,0,0-.28,2.18h4.39a7.72,7.72,0,0,0-.24-3.29A1.66,1.66,0,0,0,199.4,176Z"/><path class="cls-1" d="M222.75,188.52H215.9v-1l.61-.35a4.82,4.82,0,0,1,.76-.31v-5.47c0-.85,0-1.56-.07-2.15a5.14,5.14,0,0,0-.29-1.44,1.66,1.66,0,0,0-.6-.83,1.78,1.78,0,0,0-1-.26,2,2,0,0,0-1.52.68,4.11,4.11,0,0,0-1,1.77v7.7a4.5,4.5,0,0,1,1.38.66v1H207.1v-1a6.21,6.21,0,0,1,.85-.36l1-.31V176.73l-1.81-.22v-1a6.8,6.8,0,0,1,1.08-.36c.43-.11.87-.21,1.33-.29s.9-.15,1.33-.2l1.08-.14h.93v3.1h0a4.81,4.81,0,0,1,1.55-2.2,4.11,4.11,0,0,1,2.67-.9,5.54,5.54,0,0,1,1.29.14,3.37,3.37,0,0,1,1.17.5,3.19,3.19,0,0,1,.92,1,5.07,5.07,0,0,1,.55,1.7,5.1,5.1,0,0,1,1.64-2.44,4.32,4.32,0,0,1,2.8-.93,5.77,5.77,0,0,1,1.79.26,2.77,2.77,0,0,1,1.32.92,4.44,4.44,0,0,1,.81,1.79,12.51,12.51,0,0,1,.27,2.85v6.52a5.65,5.65,0,0,1,1.81.66v1h-7.13v-1a5.59,5.59,0,0,1,1.37-.66v-6a9.45,9.45,0,0,0-.39-3.16,1.65,1.65,0,0,0-1.72-1,1.87,1.87,0,0,0-1.55.74,5.17,5.17,0,0,0-.83,2v7.43a6.09,6.09,0,0,1,.83.3,6.56,6.56,0,0,1,.7.36Z"/><path class="cls-1" d="M240.22,188.52h-7.57v-1a7.13,7.13,0,0,1,.85-.38l1-.29V176.73l-1.81-.22v-1a9.77,9.77,0,0,1,1-.33c.41-.11.85-.21,1.3-.29s.91-.16,1.35-.22.82-.11,1.15-.15h.93v12.34c.37.09.7.18,1,.28a5.58,5.58,0,0,1,.82.38Zm-6.17-18.21a1.89,1.89,0,0,1,.65-1.51,2.57,2.57,0,0,1,1.68-.55,2.53,2.53,0,0,1,1.68.55,1.86,1.86,0,0,1,.65,1.51,1.81,1.81,0,0,1-.65,1.48,2.48,2.48,0,0,1-1.68.55,2.52,2.52,0,0,1-1.68-.55A1.84,1.84,0,0,1,234.05,170.31Z"/><path class="cls-1" d="M253.41,186.3a2.81,2.81,0,0,1-.63,1,4.94,4.94,0,0,1-1.06.81,5.6,5.6,0,0,1-1.39.55,7.36,7.36,0,0,1-1.64.19,8.55,8.55,0,0,1-3.11-.51,5.57,5.57,0,0,1-2.15-1.45,5.89,5.89,0,0,1-1.26-2.28,9.79,9.79,0,0,1-.41-3,7.08,7.08,0,0,1,1.9-5.33,7.48,7.48,0,0,1,5.42-1.85,9.62,9.62,0,0,1,2.47.29,8.43,8.43,0,0,1,1.86.67c0,.31-.09.65-.15,1s-.14.75-.22,1.12-.18.74-.29,1.1a7.81,7.81,0,0,1-.33.89h-1.34l-1.15-3.26a1.45,1.45,0,0,0-.41-.21,2.24,2.24,0,0,0-.66-.07,2.8,2.8,0,0,0-1.24.26,2.3,2.3,0,0,0-.89.89,5.17,5.17,0,0,0-.55,1.68,16.69,16.69,0,0,0-.17,2.57,8.4,8.4,0,0,0,.24,2.07,5,5,0,0,0,.76,1.65,3.63,3.63,0,0,0,1.27,1.1,4,4,0,0,0,1.81.39,4.77,4.77,0,0,0,1.68-.27,4.56,4.56,0,0,0,1.2-.66Z"/><path class="cls-1" d="M262.13,169.32h9v1a6.35,6.35,0,0,1-1.27.51,7.89,7.89,0,0,1-1.36.29v15.58h5.29l1.84-4.91h1.13c.07.42.14.91.2,1.48s.12,1.16.15,1.78.07,1.23.08,1.84,0,1.13,0,1.59H262.13v-1a9.13,9.13,0,0,1,1.19-.53,8.7,8.7,0,0,1,1.06-.27V171.16a5.86,5.86,0,0,1-2.25-.8Z"/><path class="cls-1" d="M290.89,186.21a3.17,3.17,0,0,1-.69.95A5.1,5.1,0,0,1,289,188a7,7,0,0,1-1.62.6,7.86,7.86,0,0,1-2,.24,8.35,8.35,0,0,1-3-.51,5.87,5.87,0,0,1-2.19-1.45,6.19,6.19,0,0,1-1.33-2.27,9.07,9.07,0,0,1-.45-3,7.23,7.23,0,0,1,1.83-5.34,6.9,6.9,0,0,1,5.11-1.84,8.81,8.81,0,0,1,2.61.38,4.61,4.61,0,0,1,2,1.26,4.92,4.92,0,0,1,1.13,2.31,9.28,9.28,0,0,1,0,3.48h-8.42a5.3,5.3,0,0,0,1.11,3.45,3.93,3.93,0,0,0,3.19,1.29,7,7,0,0,0,1.88-.27,4.22,4.22,0,0,0,1.52-.71ZM285.23,176a2.47,2.47,0,0,0-1,.19,1.73,1.73,0,0,0-.73.7,4.58,4.58,0,0,0-.51,1.37,15.18,15.18,0,0,0-.27,2.18h4.39a7.69,7.69,0,0,0-.25-3.29A1.64,1.64,0,0,0,285.23,176Z"/><path class="cls-1" d="M305.18,184.54c0,.4,0,.75,0,1s0,.61.07.94l1.9.27v1a5.49,5.49,0,0,1-.9.33c-.37.11-.76.21-1.17.31a11.18,11.18,0,0,1-1.23.25c-.4.07-.75.12-1.06.15h-.94a4.2,4.2,0,0,1-.33-1.26c0-.42-.06-.93-.08-1.53h-.13a3.7,3.7,0,0,1-1.31,2,4.22,4.22,0,0,1-1.19.64,4.4,4.4,0,0,1-1.54.25,4.76,4.76,0,0,1-1.67-.28,4.29,4.29,0,0,1-1.34-.76,3.48,3.48,0,0,1-.91-1.2A3.62,3.62,0,0,1,293,185a4,4,0,0,1,.47-2A3.45,3.45,0,0,1,295,181.7a8.75,8.75,0,0,1,2.57-.75c1.06-.16,2.33-.28,3.83-.36a8.37,8.37,0,0,0-.19-3.45,1.71,1.71,0,0,0-1.78-1.1,4.21,4.21,0,0,0-1.57.28l-1.29,3.29h-1.2a5.88,5.88,0,0,1-.43-.76,9.36,9.36,0,0,1-.38-.9,8.51,8.51,0,0,1-.3-1,5.58,5.58,0,0,1-.18-1,8.28,8.28,0,0,1,2.69-1.12,14.43,14.43,0,0,1,3.48-.41,7.9,7.9,0,0,1,2.55.34,3.91,3.91,0,0,1,1.55.93,3.36,3.36,0,0,1,.78,1.39,6.65,6.65,0,0,1,.22,1.7c0,1.1,0,2.09-.07,3S305.18,183.61,305.18,184.54ZM299,186.65a2,2,0,0,0,1-.22,2.66,2.66,0,0,0,.7-.52,2.26,2.26,0,0,0,.44-.65,5.09,5.09,0,0,0,.23-.64v-2.74a15.61,15.61,0,0,0-2.11.17,3.24,3.24,0,0,0-1.29.45,1.57,1.57,0,0,0-.64.79,3.35,3.35,0,0,0-.18,1.17,2.43,2.43,0,0,0,.49,1.62A1.72,1.72,0,0,0,299,186.65Z"/><path class="cls-1" d="M315.52,178a3.64,3.64,0,0,0-.77.55,3.3,3.3,0,0,0-.79,1.27v7a6,6,0,0,1,1.09.2,4.69,4.69,0,0,1,1.1.46v1H308.2v-1a5.29,5.29,0,0,1,.93-.42l.88-.25V176.73l-1.81-.22v-1a6.8,6.8,0,0,1,1.08-.36c.43-.11.87-.21,1.33-.29s.9-.15,1.33-.2l1.08-.14H314v3.65h.11a6.05,6.05,0,0,1,.64-1.27,6.71,6.71,0,0,1,1-1.2,4.7,4.7,0,0,1,1.26-.88,3,3,0,0,1,1.43-.3,3.51,3.51,0,0,1,.52,1.08c.15.47.26.91.36,1.33V178Z"/><path class="cls-1" d="M336.72,188.52h-7.27v-1c.24-.13.47-.25.7-.35s.5-.2.81-.31v-6.46a6.06,6.06,0,0,0-.5-2.71,1.79,1.79,0,0,0-1.75-1,2.6,2.6,0,0,0-1.8.68,4.12,4.12,0,0,0-1.14,1.82v7.65a4.57,4.57,0,0,1,.79.26,4.84,4.84,0,0,1,.72.4v1H320v-1a9.31,9.31,0,0,1,1.81-.67V176.73l-1.81-.22v-1a5.19,5.19,0,0,1,.93-.32c.38-.1.8-.2,1.25-.29s.9-.17,1.37-.23.89-.11,1.27-.15h.93v2.82h0a5.54,5.54,0,0,1,1.73-2,4.69,4.69,0,0,1,2.8-.83,6.7,6.7,0,0,1,1.92.26,3.16,3.16,0,0,1,1.44.92,4.47,4.47,0,0,1,.9,1.77,10.53,10.53,0,0,1,.32,2.82v6.57a4.88,4.88,0,0,1,1.81.66Z"/><path class="cls-1" d="M345.46,188.52h-7.57v-1a6.6,6.6,0,0,1,.86-.38c.29-.1.61-.19.95-.29V176.73l-1.81-.22v-1a9.77,9.77,0,0,1,1-.33c.41-.11.85-.21,1.31-.29s.9-.16,1.34-.22.82-.11,1.15-.15h.93v12.34c.37.09.7.18,1,.28a5.14,5.14,0,0,1,.82.38Zm-6.17-18.21a1.89,1.89,0,0,1,.65-1.51,2.57,2.57,0,0,1,1.68-.55,2.53,2.53,0,0,1,1.68.55,1.86,1.86,0,0,1,.65,1.51,1.81,1.81,0,0,1-.65,1.48,2.48,2.48,0,0,1-1.68.55,2.52,2.52,0,0,1-1.68-.55A1.84,1.84,0,0,1,339.29,170.31Z"/><path class="cls-1" d="M363.48,188.52h-7.27v-1c.24-.13.47-.25.7-.35s.5-.2.81-.31v-6.46a6.08,6.08,0,0,0-.49-2.71,1.81,1.81,0,0,0-1.76-1,2.6,2.6,0,0,0-1.79.68,4,4,0,0,0-1.14,1.82v7.65a4.75,4.75,0,0,1,.78.26,4.91,4.91,0,0,1,.73.4v1h-7.27v-1a9.56,9.56,0,0,1,1.81-.67V176.73l-1.81-.22v-1a5.82,5.82,0,0,1,.93-.32c.38-.1.8-.2,1.25-.29s.9-.17,1.37-.23.89-.11,1.27-.15h.94v2.82h0a5.54,5.54,0,0,1,1.73-2,4.69,4.69,0,0,1,2.8-.83,6.7,6.7,0,0,1,1.92.26,3.16,3.16,0,0,1,1.44.92,4.47,4.47,0,0,1,.9,1.77,10.53,10.53,0,0,1,.32,2.82v6.57a4.88,4.88,0,0,1,1.81.66Z"/><path class="cls-1" d="M371.05,174.48a10,10,0,0,1,3,.37,4.76,4.76,0,0,1,1.78.92,6.94,6.94,0,0,1,3-2,1.66,1.66,0,0,1,.39.4,3.39,3.39,0,0,1,.32.56,2.91,2.91,0,0,1,.22.6,1.83,1.83,0,0,1,.09.5l-.36.65h-2.88a4.27,4.27,0,0,1,.56,1,3.63,3.63,0,0,1,.26,1.46,3.78,3.78,0,0,1-.38,1.7,4.22,4.22,0,0,1-1.17,1.42,6,6,0,0,1-2,1,9.69,9.69,0,0,1-2.78.35h-.84a3.68,3.68,0,0,1-.64-.07,3.52,3.52,0,0,0-.24.4,1,1,0,0,0-.12.45c0,.31.22.56.66.74a9.39,9.39,0,0,0,1.67.5c.68.14,1.4.31,2.18.49a12.13,12.13,0,0,1,2.18.73,5.12,5.12,0,0,1,1.7,1.18,2.7,2.7,0,0,1,.71,1.87,3.19,3.19,0,0,1-.55,1.95,4.66,4.66,0,0,1-1.57,1.44,8.54,8.54,0,0,1-2.36.91,12.8,12.8,0,0,1-2.89.31,13.75,13.75,0,0,1-3.09-.29,6.69,6.69,0,0,1-2.07-.78,3.29,3.29,0,0,1-1.16-1.12,2.54,2.54,0,0,1-.37-1.32,2.67,2.67,0,0,1,.3-1.31,2.87,2.87,0,0,1,.85-1,4.82,4.82,0,0,1,1.27-.69,14,14,0,0,1,1.61-.49,6.86,6.86,0,0,1-.8-.28,3,3,0,0,1-.68-.4,1.83,1.83,0,0,1-.5-.54,1.37,1.37,0,0,1-.19-.73,1.25,1.25,0,0,1,.22-.7,2.64,2.64,0,0,1,.58-.63,5.09,5.09,0,0,1,.76-.52,6.29,6.29,0,0,1,.83-.4,5.06,5.06,0,0,1-2.75-1.49,4.08,4.08,0,0,1-1-2.84,3.68,3.68,0,0,1,1.7-3.21A8.09,8.09,0,0,1,371.05,174.48Zm3.45,16.12a1.61,1.61,0,0,0-.45-1.19,3.4,3.4,0,0,0-1.17-.74,10.09,10.09,0,0,0-1.6-.49q-.88-.21-1.77-.48a3.72,3.72,0,0,0-1,1.09,2.74,2.74,0,0,0-.31,1.32,2.38,2.38,0,0,0,.87,2,3.72,3.72,0,0,0,2.43.7,3.38,3.38,0,0,0,2.27-.65A2,2,0,0,0,374.5,190.6ZM368.69,179a4,4,0,0,0,.48,2.16,2.06,2.06,0,0,0,1.88.74,2.08,2.08,0,0,0,1.85-.75,3.82,3.82,0,0,0,.5-2.15,3.77,3.77,0,0,0-.52-2.21,2.08,2.08,0,0,0-1.83-.73,2.14,2.14,0,0,0-1.87.71A4,4,0,0,0,368.69,179Z"/><path class="cls-1" d="M202.74,215.66h1.12c.07.3.14.65.21,1.06s.11.85.16,1.32.08.93.1,1.38,0,.87,0,1.24a6.71,6.71,0,0,1-2.4.85,17.85,17.85,0,0,1-2.94.24,14,14,0,0,1-4.13-.56,7.82,7.82,0,0,1-3.15-1.78,8.15,8.15,0,0,1-2-3.1,12.63,12.63,0,0,1-.71-4.51,11.62,11.62,0,0,1,.78-4.48,8.54,8.54,0,0,1,2.1-3.09,8.24,8.24,0,0,1,3.05-1.77,12,12,0,0,1,3.66-.56,19.22,19.22,0,0,1,3.28.26,9.6,9.6,0,0,1,2.4.7c0,.29,0,.67,0,1.12s-.07.94-.14,1.44-.13,1-.22,1.48-.16.9-.23,1.22h-1.15L201,204a2.65,2.65,0,0,0-.79-.22,8.47,8.47,0,0,0-1.13-.08,5,5,0,0,0-2.11.45,5,5,0,0,0-1.76,1.44,7.41,7.41,0,0,0-1.2,2.54,13.85,13.85,0,0,0-.44,3.72,10,10,0,0,0,1.56,6,5,5,0,0,0,4.25,2.11,6.16,6.16,0,0,0,1.31-.12,1.42,1.42,0,0,0,.72-.35Z"/><path class="cls-1" d="M206.66,214.57a8.28,8.28,0,0,1,.5-3,6.12,6.12,0,0,1,3.75-3.69,8.73,8.73,0,0,1,3-.5,9.15,9.15,0,0,1,3.31.54,6.09,6.09,0,0,1,2.27,1.48,5.72,5.72,0,0,1,1.3,2.28,9.52,9.52,0,0,1,.41,2.89,8.58,8.58,0,0,1-.49,3,6.09,6.09,0,0,1-1.44,2.26,6.23,6.23,0,0,1-2.3,1.43,8.93,8.93,0,0,1-3.06.49,9.09,9.09,0,0,1-3.24-.53,6.26,6.26,0,0,1-2.27-1.48,5.92,5.92,0,0,1-1.34-2.28A9,9,0,0,1,206.66,214.57Zm4.25,0a15.77,15.77,0,0,0,.15,2.26,5.33,5.33,0,0,0,.53,1.74,2.86,2.86,0,0,0,1,1.11,3.22,3.22,0,0,0,1.7.4,2.15,2.15,0,0,0,1.1-.29,2.35,2.35,0,0,0,.85-.93,5.4,5.4,0,0,0,.54-1.7,17.06,17.06,0,0,0,.17-2.59,15.76,15.76,0,0,0-.15-2.28,5.5,5.5,0,0,0-.52-1.73,2.83,2.83,0,0,0-1-1.11,3,3,0,0,0-1.59-.39,2.51,2.51,0,0,0-1.23.28,2.37,2.37,0,0,0-.88.94,5.09,5.09,0,0,0-.53,1.7A15.65,15.65,0,0,0,210.91,214.57Z"/><path class="cls-1" d="M238.38,221.42h-6.85v-1l.61-.34a4.82,4.82,0,0,1,.76-.32v-5.47c0-.84,0-1.56-.07-2.14a5.21,5.21,0,0,0-.29-1.45,1.69,1.69,0,0,0-.6-.82,1.78,1.78,0,0,0-1-.26,2,2,0,0,0-1.52.67,4.07,4.07,0,0,0-1,1.77v7.7a4.82,4.82,0,0,1,1.37.66v1h-7.13v-1a7,7,0,0,1,.86-.36q.46-.17,1-.3V209.63l-1.82-.22v-1a7.32,7.32,0,0,1,1.09-.36c.43-.1.87-.2,1.33-.28s.9-.15,1.33-.21l1.08-.14h.93v3.1h0a4.73,4.73,0,0,1,1.55-2.19,4.11,4.11,0,0,1,2.67-.91,6.14,6.14,0,0,1,1.29.14,3.11,3.11,0,0,1,2.09,1.54,5,5,0,0,1,.55,1.7,5,5,0,0,1,1.64-2.44,4.27,4.27,0,0,1,2.8-.94,5.48,5.48,0,0,1,1.79.27,2.82,2.82,0,0,1,1.32.92,4.39,4.39,0,0,1,.81,1.78,12.6,12.6,0,0,1,.27,2.86v6.51a5.65,5.65,0,0,1,1.81.66v1H240v-1a6.42,6.42,0,0,1,1.37-.66v-6a9.41,9.41,0,0,0-.39-3.16,1.65,1.65,0,0,0-1.72-1,1.87,1.87,0,0,0-1.55.74,5.1,5.1,0,0,0-.83,2v7.42a6.09,6.09,0,0,1,.83.3,6.56,6.56,0,0,1,.7.36Z"/><path class="cls-1" d="M263.72,221.42h-6.85v-1l.61-.34a4.82,4.82,0,0,1,.76-.32v-5.47c0-.84,0-1.56-.07-2.14a5.21,5.21,0,0,0-.29-1.45,1.52,1.52,0,0,0-1.59-1.08,2,2,0,0,0-1.52.67,4.07,4.07,0,0,0-1,1.77v7.7a5,5,0,0,1,1.37.66v1h-7.13v-1a7.49,7.49,0,0,1,.85-.36q.47-.17,1-.3V209.63l-1.81-.22v-1a7,7,0,0,1,1.09-.36c.43-.1.87-.2,1.33-.28s.9-.15,1.33-.21l1.08-.14h.93v3.1h0a4.73,4.73,0,0,1,1.55-2.19,4.11,4.11,0,0,1,2.67-.91,6.14,6.14,0,0,1,1.29.14,3.21,3.21,0,0,1,1.17.51,3.17,3.17,0,0,1,.91,1,4.79,4.79,0,0,1,.55,1.7,5.07,5.07,0,0,1,1.65-2.44,4.27,4.27,0,0,1,2.8-.94,5.48,5.48,0,0,1,1.79.27,2.82,2.82,0,0,1,1.32.92,4.67,4.67,0,0,1,.81,1.78,12.6,12.6,0,0,1,.27,2.86v6.51a5.65,5.65,0,0,1,1.81.66v1h-7.13v-1a6.42,6.42,0,0,1,1.37-.66v-6a9.11,9.11,0,0,0-.4-3.16,1.63,1.63,0,0,0-1.71-1,1.85,1.85,0,0,0-1.55.74,5.26,5.26,0,0,0-.84,2v7.42a6.25,6.25,0,0,1,.84.3,6.56,6.56,0,0,1,.7.36Z"/><path class="cls-1" d="M273.62,214.57a8.28,8.28,0,0,1,.51-3,6.15,6.15,0,0,1,1.45-2.27,6.3,6.3,0,0,1,2.29-1.42,8.73,8.73,0,0,1,3-.5,9.15,9.15,0,0,1,3.31.54,6.09,6.09,0,0,1,2.27,1.48,5.74,5.74,0,0,1,1.31,2.28,9.85,9.85,0,0,1,.41,2.89,8.58,8.58,0,0,1-.5,3,6,6,0,0,1-1.44,2.26,6.15,6.15,0,0,1-2.3,1.43,8.85,8.85,0,0,1-3.06.49,9,9,0,0,1-3.23-.53,6.3,6.3,0,0,1-2.28-1.48,5.92,5.92,0,0,1-1.34-2.28A9.26,9.26,0,0,1,273.62,214.57Zm4.25,0a15.77,15.77,0,0,0,.15,2.26,5.09,5.09,0,0,0,.54,1.74,2.72,2.72,0,0,0,1,1.11,3.19,3.19,0,0,0,1.7.4,2.11,2.11,0,0,0,1.09-.29,2.28,2.28,0,0,0,.85-.93,5.4,5.4,0,0,0,.54-1.7,18.08,18.08,0,0,0,0-4.87,5.5,5.5,0,0,0-.53-1.73,2.76,2.76,0,0,0-1-1.11,3,3,0,0,0-1.59-.39,2.54,2.54,0,0,0-1.23.28,2.37,2.37,0,0,0-.88.94,5.33,5.33,0,0,0-.53,1.7A15.65,15.65,0,0,0,277.87,214.57Z"/><path class="cls-1" d="M306.39,221.42h-7.27v-1c.24-.13.47-.24.7-.34s.5-.21.81-.32v-6.46a6.25,6.25,0,0,0-.49-2.71,1.8,1.8,0,0,0-1.76-1,2.63,2.63,0,0,0-1.8.67,4.11,4.11,0,0,0-1.13,1.83v7.64a5.93,5.93,0,0,1,.78.26,5.29,5.29,0,0,1,.72.4v1h-7.26v-1a8.75,8.75,0,0,1,1.81-.66V209.63l-1.81-.22v-1a5.91,5.91,0,0,1,.93-.31c.38-.1.8-.2,1.25-.29s.9-.17,1.37-.24l1.27-.15h.94v2.83h0a5.54,5.54,0,0,1,1.73-2,4.62,4.62,0,0,1,2.8-.84,6.36,6.36,0,0,1,1.92.27,3.16,3.16,0,0,1,1.44.92,4.47,4.47,0,0,1,.9,1.77,10.5,10.5,0,0,1,.32,2.81v6.57a4.88,4.88,0,0,1,1.81.66Z"/><path class="cls-1" d="M314.61,218.43a1.74,1.74,0,0,0-.5-1.23,5.8,5.8,0,0,0-1.26-1c-.51-.29-1.06-.58-1.65-.88a9.89,9.89,0,0,1-1.65-1,5.74,5.74,0,0,1-1.26-1.39,3.54,3.54,0,0,1-.5-1.95,2.93,2.93,0,0,1,.38-1.49,3.53,3.53,0,0,1,1-1.14,5.36,5.36,0,0,1,1.58-.73,7.37,7.37,0,0,1,2-.26,14.9,14.9,0,0,1,2.75.24,10.45,10.45,0,0,1,2.24.64,10.53,10.53,0,0,1-.44,1.88c-.22.67-.43,1.28-.63,1.82h-.93l-1.16-2.79a2.52,2.52,0,0,0-.68-.18,6.48,6.48,0,0,0-.8,0,1.56,1.56,0,0,0-1.67,1.56,1.62,1.62,0,0,0,.51,1.19,6.1,6.1,0,0,0,1.26,1c.5.29,1,.58,1.64.88a9.66,9.66,0,0,1,1.65,1,5.31,5.31,0,0,1,1.26,1.33,3.22,3.22,0,0,1,.51,1.83,3.43,3.43,0,0,1-1.54,3,7,7,0,0,1-4.11,1.08,14.22,14.22,0,0,1-2.71-.27,9.7,9.7,0,0,1-2.42-.77,6.18,6.18,0,0,1,.47-2,12.21,12.21,0,0,1,.88-1.81h.93l1.34,3a1.49,1.49,0,0,0,.67.26,5.8,5.8,0,0,0,.7,0,2.49,2.49,0,0,0,1.46-.47A1.48,1.48,0,0,0,314.61,218.43Z"/><polyline class="cls-2" points="288.79 81.47 308.94 73.02 253.77 49.84 198.59 73.02 253.77 96.19 276.37 86.7"/><polyline class="cls-2" points="277.2 103.74 253.77 114.72 214.24 96.19 214.24 86.99"/><polyline class="cls-2" points="293.3 86.99 293.3 96.19 288.79 98.34"/><ellipse class="cls-2" cx="255.03" cy="70.15" rx="4.41" ry="2.87"/><polyline class="cls-2" points="262.6 74.32 282.97 83.93 282.97 111.53"/><circle class="cls-2" cx="282.97" cy="116.07" r="3.73"/><path class="cls-2" d="M284.93,119.23,290.46,134a7.86,7.86,0,0,1-7.52,4.68h0a7.86,7.86,0,0,1-7.52-4.68L281,119.23"/></g></svg>