<svg xmlns="http://www.w3.org/2000/svg" viewBox="0 0 153.45 101.76"><defs><style>.cls-1{fill:#eef4f3;}</style></defs><title>Artboard 34scroll</title><g id="Information"><path class="cls-1" d="M77.51,33a1,1,0,0,1-1-1V19.85a1,1,0,0,1,2,0V32A1,1,0,0,1,77.51,33Z"/><path class="cls-1" d="M77.51,58.54a14.71,14.71,0,0,1-14.7-14.7V25.28a14.7,14.7,0,1,1,29.4,0V43.84A14.72,14.72,0,0,1,77.51,58.54Zm0-46a12.71,12.71,0,0,0-12.7,12.7V43.84a12.7,12.7,0,1,0,25.4,0V25.28A12.72,12.72,0,0,0,77.51,12.58Z"/><path class="cls-1" d="M22.48,87.63a3.53,3.53,0,0,1-1.18,2.52,3.88,3.88,0,0,1-2.69,1,5.13,5.13,0,0,1-2.43-.58,3.17,3.17,0,0,1-1.63-2,1,1,0,0,1,.1-.74,1,1,0,0,1,.6-.45,1,1,0,0,1,.74.1.93.93,0,0,1,.44.6,1.37,1.37,0,0,0,.82.87,3.12,3.12,0,0,0,1.36.28,2,2,0,0,0,1.33-.49,1.6,1.6,0,0,0,.6-1.2,1,1,0,0,0-.3-.77,2.37,2.37,0,0,0-1.73-.57h0A4.22,4.22,0,0,1,15.35,85a3,3,0,0,1-.83-2.2,3.55,3.55,0,0,1,1.19-2.53,3.88,3.88,0,0,1,2.69-1,5.06,5.06,0,0,1,2.42.58,3.15,3.15,0,0,1,1.64,2,.92.92,0,0,1-.11.74.93.93,0,0,1-.59.45A1,1,0,0,1,21,83a.93.93,0,0,1-.44-.6,1.39,1.39,0,0,0-.83-.87,3,3,0,0,0-1.35-.28,2,2,0,0,0-1.34.49,1.66,1.66,0,0,0-.59,1.2,1.07,1.07,0,0,0,.3.78,2.37,2.37,0,0,0,1.73.55h0a4.19,4.19,0,0,1,3.11,1.18A2.86,2.86,0,0,1,22.48,87.63Z"/><path class="cls-1" d="M30.45,91.18a5.93,5.93,0,1,1,0-11.86,5.81,5.81,0,0,1,3.61,1.22,1,1,0,0,1,.38.65,1,1,0,0,1-.2.73,1,1,0,0,1-.65.38,1,1,0,0,1-.73-.19,3.93,3.93,0,0,0-5.21.34,4,4,0,0,0,0,5.6,4,4,0,0,0,5.47.13,1,1,0,0,1,.7-.26,1,1,0,0,1,.94,1,.93.93,0,0,1-.31.68A5.78,5.78,0,0,1,30.45,91.18Z"/><path class="cls-1" d="M45.64,82.72a3.19,3.19,0,0,1-.68,2A3.6,3.6,0,0,1,43.23,86l1.88,3.82a.88.88,0,0,1,0,.73.9.9,0,0,1-.49.57,1,1,0,0,1-.43.1.9.9,0,0,1-.87-.55l-2.2-4.46H39.48v4a1,1,0,1,1-1.95,0V80.24a.94.94,0,0,1,.28-.69.91.91,0,0,1,.69-.29h3.43a3.71,3.71,0,0,1,2.62,1A3.25,3.25,0,0,1,45.64,82.72ZM42,84.22a2,2,0,0,0,1.2-.45,1.41,1.41,0,0,0,.49-1,1.37,1.37,0,0,0-.52-1.07,1.84,1.84,0,0,0-1.24-.44H39.48v3Z"/><path class="cls-1" d="M53.68,91.18a6,6,0,1,1,4.22-1.75A5.75,5.75,0,0,1,53.68,91.18Zm0-10a4,4,0,1,0,2.83,1.17A3.84,3.84,0,0,0,53.68,81.22Z"/><path class="cls-1" d="M63.57,79.27a.94.94,0,0,1,.69.29.91.91,0,0,1,.29.69v9h4.39a1,1,0,0,1,.7.29,1,1,0,0,1,0,1.38,1,1,0,0,1-.7.29H63.57a1,1,0,0,1-1-1v-10a1,1,0,0,1,1-1Z"/><path class="cls-1" d="M73.09,79.27a1,1,0,0,1,1,1v9h4.39a1,1,0,0,1,0,2H73.09a.94.94,0,0,1-.69-.29.91.91,0,0,1-.29-.69v-10a.91.91,0,0,1,.29-.69A.94.94,0,0,1,73.09,79.27Z"/><path class="cls-1" d="M86.21,91.18a1,1,0,0,1-1-1V80.26a1,1,0,0,1,1-1h2.52a5.93,5.93,0,1,1,0,11.86l-2.5,0Zm1-2,1.52,0a4,4,0,0,0,0-7.94H87.2Z"/><path class="cls-1" d="M102.88,91.18a6,6,0,1,1,4.21-1.75A5.74,5.74,0,0,1,102.88,91.18Zm0-10a4,4,0,1,0,2.83,1.17A3.84,3.84,0,0,0,102.88,81.22Z"/><path class="cls-1" d="M126.24,79.33a1,1,0,0,1,.56.51.93.93,0,0,1,0,.75l-3.49,9.93h0a.61.61,0,0,1,0,.12s0,0,0,0l-.07.11s0,0,0,0l-.07.09h0L123,91s0,0,0,0l-.1.06s0,0,0,0l-.11,0h0l-.11,0h0l-.15,0-.16,0h0l-.11,0h0l-.1,0h0l-.1-.06a0,0,0,0,0,0,0h0l-.1-.09s0,0,0,0a.39.39,0,0,1-.08-.1h0l-.07-.11,0,0-.06-.12h0l-2.56-7.3-2.56,7.3h0l-.06.12,0,0-.07.11s0,0,0,0l-.09.09h0L116,91h0l-.1.06h0l-.1,0h0l-.12,0h0l-.15,0-.15,0h0l-.11,0h0l-.11,0s0,0,0,0l-.1-.06h0l-.1-.09h0l-.08-.1h0l-.07-.11,0,0a.61.61,0,0,1,0-.12h0L111,80.59a.93.93,0,0,1,0-.75,1,1,0,0,1,.56-.51,1,1,0,0,1,.74,0,1,1,0,0,1,.51.57l2.56,7.3,2.57-7.3h0a.17.17,0,0,1,0-.05s0,0,0,0,0,0,0,0a1,1,0,0,1,.16-.24,1.14,1.14,0,0,1,.25-.18l0,0h0l0,0s0,0,0,0h.62s0,0,0,0h0l0,0h0l0,0a1,1,0,0,1,.24.17.94.94,0,0,1,.16.23l0,0,0,0a.39.39,0,0,1,0,.06h0l2.57,7.3,2.56-7.3a1,1,0,0,1,.5-.57l.36-.17Z"/><path class="cls-1" d="M137.19,90.8h0l-6-7.68V90.2a1,1,0,0,1-1.67.69.91.91,0,0,1-.29-.69v-10a.94.94,0,0,1,.18-.56,1,1,0,0,1,.48-.36.88.88,0,0,1,.6,0,.93.93,0,0,1,.49.34l6,7.68V80.25a.94.94,0,0,1,.28-.69,1,1,0,0,1,.7-.29,1,1,0,0,1,1,1v10s0,0,0,.05v0a.13.13,0,0,1,0,0,.09.09,0,0,1,0,0v0a.43.43,0,0,1,0,0l0,0s0,0,0,0v0l0,0,0,0,0,0s0,0,0,0l0,0,0,0,0,0,0,0a.05.05,0,0,1,0,0s0,0,0,0h0l-.13.08h0l-.13.06h0a.58.58,0,0,1-.14,0h-.29l-.08,0s0,0,0,0h-.07l0,0-.07,0,0,0-.06,0s0,0,0,0l-.06,0,0,0-.07-.06h0l0,0Z"/></g></svg>