<svg xmlns="http://www.w3.org/2000/svg" viewBox="0 0 1366.31 1586.48"><defs><style>.cls-1,.cls-2,.cls-3,.cls-4,.cls-5{opacity:0.3;}.cls-1,.cls-17,.cls-2,.cls-3,.cls-4,.cls-5{font-size:20px;font-family:Moon-Bold, Moon;font-weight:700;}.cls-1,.cls-10,.cls-6{fill:#7be9c2;}.cls-12,.cls-2{fill:#e6b3b6;}.cls-14,.cls-3{fill:#facc7a;}.cls-15,.cls-4{fill:#7aa8fa;}.cls-16,.cls-5{fill:#cba6e8;}.cls-7{fill:#2c2e2e;}.cls-13,.cls-8{fill:#eef4f3;}.cls-8{stroke:#eef4f3;}.cls-10,.cls-8{stroke-miterlimit:10;stroke-width:2px;}.cls-9{opacity:0.5;}.cls-10{stroke:#7be9c2;}.cls-11{opacity:0.6;}</style></defs><title>Artboard 52 copytimeline</title><g id="Information"><text class="cls-1" transform="translate(316.67 255.5)">My general badassery</text><text class="cls-1" transform="translate(840.28 255.5)">Good dancer</text><text class="cls-1" transform="translate(643.01 82.1)">my personality</text><text class="cls-1" transform="translate(1038.56 133.21)">everything</text><text class="cls-1" transform="translate(74.84 312.87)">my optimism</text><text class="cls-1" transform="translate(1047.78 330.43)">i love my empathy</text><text class="cls-1" transform="translate(294.02 352.69)">i like that i help myself and others minimize waste</text><text class="cls-2" transform="translate(361.62 450.76)">You are worth it</text><text class="cls-2" transform="translate(38.85 411.27)">you have a nice face</text><text class="cls-2" transform="translate(212.12 526.21)">I love your positive attitude</text><text class="cls-2" transform="translate(697.76 616.2)">you are so beautiful inside and out</text><text class="cls-3" transform="translate(1172.37 650.97)">Happiness</text><text class="cls-3" transform="translate(258.24 654.76)">tattoo artist</text><text class="cls-3" transform="translate(824.88 694.51)">to travel the world</text><text class="cls-3" transform="translate(1201.83 731.84)">NASA</text><text class="cls-3" transform="translate(813.93 819.34)">HELP PEOPLE THROUGH SOCIAL WORK</text><text class="cls-3" transform="translate(192.59 824.75)">My goal is to make a difference</text><text class="cls-3" transform="translate(35.05 719.24)">to get my own place with a dog</text><text class="cls-3" transform="translate(1003.25 911.07)">learn my family history</text><text class="cls-3" transform="translate(692.27 885.12)">get a career</text><text class="cls-3" transform="translate(486.82 695.2)">confident</text><text class="cls-3" transform="translate(64.63 894.38)">to love everyone as much as possible</text><text class="cls-4" transform="translate(857.84 978.93)">You have time</text><text class="cls-4" transform="translate(805.2 1122.59)">I’m proud of you</text><text class="cls-4" transform="translate(252.56 1013.86)">Get up to your 9am alarm</text><text class="cls-4" transform="translate(589.71 938.1)">smile</text><text class="cls-4" transform="translate(58.69 1178.13)">just keep trying your best</text><text class="cls-5" transform="translate(392.61 1289.51)">My tattoos</text><text class="cls-5" transform="translate(126.79 1257.29)">My clothes</text><text class="cls-5" transform="translate(1060.15 1245.61)">THE ART I MAKE</text><text class="cls-5" transform="translate(668.17 1203.22)">my music</text><text class="cls-5" transform="translate(175.21 1412.84)">my hair</text><text class="cls-5" transform="translate(392.79 1472.28)">The conversations I have</text><text class="cls-5" transform="translate(79.79 1536.18)">The topics i work on</text><text class="cls-5" transform="translate(842.3 1529.07)">I’m living my best version of me</text><text class="cls-5" transform="translate(811.15 1432.62)">the food I make</text><text class="cls-5" transform="translate(896.96 1314.64)">By doing whatever makes me happy</text><text class="cls-4" transform="translate(35.83 969.28)">you’re hardworking</text><text class="cls-4" transform="translate(1090.4 1160.84)">you’re worth more</text><text class="cls-4" transform="translate(1123.39 998.72)">i can pass algebra</text><text class="cls-4" transform="translate(277.6 1113.81)">no one can stop you</text><text class="cls-2" transform="translate(453.83 587.69)">you inspire me</text><text class="cls-2" transform="translate(782.24 420.05)">You have so much love to give</text><text class="cls-2" transform="translate(53.75 601.66)">You have a beautiful laugh</text><text class="cls-2" transform="translate(1069.76 548.84)">You still make me smile</text><text class="cls-1" transform="translate(954.08 63.31)">my hair</text><text class="cls-1" transform="translate(449.3 43.45)">my music taste</text><text class="cls-1" transform="translate(65.68 118.51)">I am a good friend and listener</text><text class="cls-1" transform="translate(1180.27 272.48)">determined</text><text class="cls-1" transform="translate(1175.32 52.23)">love my humor</text><text class="cls-1" transform="translate(48.01 43.45)">I’m strong</text><rect class="cls-6" x="753.92" y="187.97" width="612.39" height="8.85"/><path class="cls-7" d="M679.82,186.69a1.78,1.78,0,0,1-1.36-.06,1.76,1.76,0,0,1-.92-1,1.79,1.79,0,0,1,1.07-2.29l4.66-1.69a1.73,1.73,0,0,1,1.63.23,1.66,1.66,0,0,1,.76,1.45v18a1.68,1.68,0,0,1-.52,1.25,1.73,1.73,0,0,1-1.27.53,1.81,1.81,0,0,1-1.78-1.78v-15.5Z"/><path class="cls-8" d="M682.63,271.49a79.1,79.1,0,1,1,79.09-79.1A79.18,79.18,0,0,1,682.63,271.49Zm0-143.5a64.4,64.4,0,1,0,64.4,64.4A64.47,64.47,0,0,0,682.63,128Z"/><g class="cls-9"><path class="cls-10" d="M682.63,271.49a79.1,79.1,0,1,1,79.09-79.1A79.18,79.18,0,0,1,682.63,271.49Zm0-143.5a64.4,64.4,0,1,0,64.4,64.4A64.47,64.47,0,0,0,682.63,128Z"/></g><g class="cls-11"><path class="cls-6" d="M682.63,267.81a75.42,75.42,0,1,1,75.42-75.42A75.5,75.5,0,0,1,682.63,267.81Zm0-143.49a68.07,68.07,0,1,0,68.07,68.07A68.15,68.15,0,0,0,682.63,124.32Z"/></g><rect class="cls-12" x="0.2" y="474.81" width="610.62" height="8.85"/><path class="cls-13" d="M682.71,558.32a79.1,79.1,0,1,1,79.09-79.09A79.18,79.18,0,0,1,682.71,558.32Zm0-143.49a64.4,64.4,0,1,0,64.39,64.4A64.47,64.47,0,0,0,682.71,414.83Z"/><path class="cls-7" d="M689.52,487.87a1.81,1.81,0,0,1-1.79,1.79h-9.11a1.79,1.79,0,0,1-1.47-2.8l8.06-11.72a2.64,2.64,0,0,0-.61-2.84,2.68,2.68,0,0,0-3.76,0,2.55,2.55,0,0,0-.79,1.89,1.1,1.1,0,0,0,0,.18,1.81,1.81,0,0,1-1.68,1.89,1.74,1.74,0,0,1-1.29-.44,1.69,1.69,0,0,1-.6-1.22c0-.14,0-.28,0-.41a6.24,6.24,0,1,1,11.93,2.54,1.59,1.59,0,0,1-.15.29L682,486.09h5.71a1.71,1.71,0,0,1,1.26.51A1.75,1.75,0,0,1,689.52,487.87Z"/><g class="cls-9"><path class="cls-12" d="M682.71,558.32a79.1,79.1,0,1,1,79.09-79.09A79.18,79.18,0,0,1,682.71,558.32Zm0-143.49a64.4,64.4,0,1,0,64.39,64.4A64.47,64.47,0,0,0,682.71,414.83Z"/></g><g class="cls-11"><path class="cls-12" d="M682.71,554.65a75.42,75.42,0,1,1,75.42-75.42A75.5,75.5,0,0,1,682.71,554.65Zm0-143.49a68.07,68.07,0,1,0,68.07,68.07A68.15,68.15,0,0,0,682.71,411.16Z"/></g><rect class="cls-14" x="755.23" y="761.6" width="611.07" height="8.92"/><path class="cls-13" d="M683.32,845.85a79.79,79.79,0,1,1,79.78-79.78A79.87,79.87,0,0,1,683.32,845.85Zm0-144.74a65,65,0,1,0,65,65A65,65,0,0,0,683.32,701.11Z"/><path class="cls-7" d="M689.87,770.54a6.38,6.38,0,0,1-12.75,0,1.81,1.81,0,0,1,1.8-1.8,1.83,1.83,0,0,1,1.8,1.8,2.78,2.78,0,1,0,2.77-2.78,1.68,1.68,0,0,1-1.51-.82,1.71,1.71,0,0,1-.12-1.72l3-6.56h-6a1.83,1.83,0,0,1-1.8-1.8,1.75,1.75,0,0,1,.53-1.28,1.72,1.72,0,0,1,1.27-.52h8.77a1.7,1.7,0,0,1,1.51.82,1.73,1.73,0,0,1,.12,1.73l-3.27,7.09A6.34,6.34,0,0,1,688.8,767,6.21,6.21,0,0,1,689.87,770.54Z"/><g class="cls-9"><path class="cls-14" d="M683.32,845.85a79.79,79.79,0,1,1,79.78-79.78A79.87,79.87,0,0,1,683.32,845.85Zm0-144.74a65,65,0,1,0,65,65A65,65,0,0,0,683.32,701.11Z"/></g><g class="cls-11"><path class="cls-14" d="M683.32,842.14a76.08,76.08,0,1,1,76.08-76.07A76.16,76.16,0,0,1,683.32,842.14Zm0-144.74A68.67,68.67,0,1,0,752,766.07,68.74,68.74,0,0,0,683.32,697.4Z"/></g><rect class="cls-15" x="-2.12" y="1048.45" width="610.14" height="8.91"/><path class="cls-13" d="M680.45,1132.08a79.18,79.18,0,1,1,79.18-79.18A79.27,79.27,0,0,1,680.45,1132.08Zm0-143.65a64.47,64.47,0,1,0,64.47,64.47A64.54,64.54,0,0,0,680.45,988.43Z"/><path class="cls-7" d="M682.27,1057.72H675.4a1.67,1.67,0,0,1-1.59-1,1.7,1.7,0,0,1,.11-1.86l8.67-12.49a1.79,1.79,0,0,1,2-.68,1.7,1.7,0,0,1,.9.65,1.78,1.78,0,0,1,.35,1.07v18.23a1.72,1.72,0,0,1-.52,1.27,1.79,1.79,0,0,1-2.54,0,1.69,1.69,0,0,1-.53-1.27Zm0-3.59v-5l-3.43,5Z"/><g class="cls-9"><path class="cls-15" d="M680.45,1132.08a79.18,79.18,0,1,1,79.18-79.18A79.27,79.27,0,0,1,680.45,1132.08Zm0-143.65a64.47,64.47,0,1,0,64.47,64.47A64.54,64.54,0,0,0,680.45,988.43Z"/></g><g class="cls-11"><path class="cls-15" d="M680.45,1128.41A75.51,75.51,0,1,1,756,1052.9,75.6,75.6,0,0,1,680.45,1128.41Zm0-143.66a68.15,68.15,0,1,0,68.15,68.15A68.23,68.23,0,0,0,680.45,984.75Z"/></g><rect class="cls-16" x="755.07" y="1335.35" width="611.24" height="8.79"/><path class="cls-13" d="M684.27,1418.62a78.88,78.88,0,1,1,78.88-78.88A79,79,0,0,1,684.27,1418.62Zm0-143.11a64.23,64.23,0,1,0,64.22,64.23A64.3,64.3,0,0,0,684.27,1275.51Z"/><path class="cls-7" d="M690.93,1343.77a6.28,6.28,0,0,1-12.56,0,1.79,1.79,0,0,1,1.78-1.77,1.65,1.65,0,0,1,1.24.52,1.69,1.69,0,0,1,.53,1.25,2.74,2.74,0,1,0,2.73-2.73h-4a1.69,1.69,0,0,1-1.25-.53,1.66,1.66,0,0,1-.53-1.24v-8.94a1.66,1.66,0,0,1,.53-1.24,1.69,1.69,0,0,1,1.25-.53h8.43a1.81,1.81,0,0,1,1.78,1.77,1.72,1.72,0,0,1-.53,1.26,1.69,1.69,0,0,1-1.25.51h-6.66v5.39h2.19a6.32,6.32,0,0,1,6.28,6.28Z"/><g class="cls-9"><path class="cls-16" d="M684.27,1418.62a78.88,78.88,0,1,1,78.88-78.88A79,79,0,0,1,684.27,1418.62Zm0-143.11a64.23,64.23,0,1,0,64.22,64.23A64.3,64.3,0,0,0,684.27,1275.51Z"/></g><g class="cls-11"><path class="cls-16" d="M684.27,1415a75.22,75.22,0,1,1,75.22-75.22A75.31,75.31,0,0,1,684.27,1415Zm0-143.11a67.89,67.89,0,1,0,67.89,67.89A68,68,0,0,0,684.27,1271.85Z"/></g><text class="cls-17" transform="translate(69.1 197.55)">Write something you like about yourself.</text><text class="cls-17" transform="translate(78.69 771.2)">Write out one of your goals or dreams.</text><text class="cls-17" transform="translate(68.65 1345.03)">Write one way that you express yourself.</text><text class="cls-17" transform="translate(820.52 1056.87)">Write something to encourage yourself.</text><text class="cls-17" transform="translate(836.77 472.87)">Write a compliment you wish you told<tspan x="103.94" y="24">someone but didn’t.</tspan></text></g></svg>