<svg xmlns="http://www.w3.org/2000/svg" viewBox="0 0 495.47 288"><defs><style>.cls-1{fill:#2c2e2e;}</style></defs><title>Artboard 33 copy 4scroll</title><g id="Information"><path class="cls-1" d="M158.19,155H149v-1c.36-.14.76-.28,1.22-.44a8.28,8.28,0,0,1,1.37-.33V138.1h-3.09l-1.71,4.56h-1.09c-.07-.36-.14-.81-.21-1.36s-.14-1.12-.19-1.71-.1-1.17-.13-1.74-.06-1.07-.06-1.48h17c0,.42,0,.92-.06,1.49s-.08,1.15-.13,1.73-.12,1.15-.19,1.69-.14,1-.21,1.38H160.4l-1.71-4.56H155.6v15.13c.47.09.92.2,1.37.32a7.81,7.81,0,0,1,1.22.45Z"/><path class="cls-1" d="M170.2,144.76a3.74,3.74,0,0,0-.74.53,3.18,3.18,0,0,0-.78,1.23v6.84a6.71,6.71,0,0,1,1.07.2,5.3,5.3,0,0,1,1.06.44v1h-7.72v-1a5.68,5.68,0,0,1,.9-.4c.29-.09.57-.17.86-.24v-9.8l-1.76-.21v-1a6.42,6.42,0,0,1,1-.35c.42-.11.85-.2,1.29-.28s.88-.15,1.3-.2l1.05-.13h.9v3.54h.11a6,6,0,0,1,.63-1.23,6.28,6.28,0,0,1,1-1.17,4.79,4.79,0,0,1,1.22-.85,3,3,0,0,1,1.39-.29,3.43,3.43,0,0,1,.5,1.05,12.55,12.55,0,0,1,.35,1.29v1Z"/><path class="cls-1" d="M182.14,155h-7.36v-1a6.71,6.71,0,0,1,.83-.36c.28-.1.59-.19.93-.28v-9.8l-1.76-.21v-1a7.43,7.43,0,0,1,1-.32c.4-.11.82-.2,1.27-.28l1.3-.22,1.12-.14h.91v12c.35.09.67.19,1,.28a5.27,5.27,0,0,1,.8.36Zm-6-17.69a1.84,1.84,0,0,1,.63-1.47,2.79,2.79,0,0,1,3.27,0,1.84,1.84,0,0,1,.63,1.47,1.8,1.8,0,0,1-.63,1.44,2.79,2.79,0,0,1-3.27,0A1.8,1.8,0,0,1,176.14,137.33Z"/><path class="cls-1" d="M190.47,152.11a1.66,1.66,0,0,0-.49-1.2,6.4,6.4,0,0,0-1.22-.93c-.49-.28-1-.57-1.6-.85a9.59,9.59,0,0,1-1.6-1,5.27,5.27,0,0,1-1.23-1.35,3.41,3.41,0,0,1-.49-1.89,2.87,2.87,0,0,1,.37-1.45,3.44,3.44,0,0,1,1-1.1,4.71,4.71,0,0,1,1.53-.71,7,7,0,0,1,1.93-.25,15.07,15.07,0,0,1,2.68.22,10,10,0,0,1,2.17.63,9.71,9.71,0,0,1-.43,1.82c-.21.65-.42,1.24-.61,1.78h-.91l-1.12-2.72a2.14,2.14,0,0,0-.66-.17,6,6,0,0,0-.78-.05,1.54,1.54,0,0,0-1.21.47,1.59,1.59,0,0,0,.08,2.21,5.8,5.8,0,0,0,1.23.92c.49.29,1,.57,1.6.85a10.69,10.69,0,0,1,1.6,1,5.16,5.16,0,0,1,1.22,1.29,3.15,3.15,0,0,1,.49,1.78,3.33,3.33,0,0,1-1.49,2.89,6.74,6.74,0,0,1-4,1.06,13.44,13.44,0,0,1-2.64-.27,9.69,9.69,0,0,1-2.35-.75,6.08,6.08,0,0,1,.46-1.94,13.14,13.14,0,0,1,.85-1.76h.91l1.3,2.9a1.32,1.32,0,0,0,.65.26c.24,0,.47,0,.68,0a2.31,2.31,0,0,0,1.41-.46A1.43,1.43,0,0,0,190.47,152.11Z"/><path class="cls-1" d="M211.57,155h-7.06v-1c.22-.12.44-.24.67-.34a5.61,5.61,0,0,1,.8-.3V148a9.67,9.67,0,0,0-.44-3.38,1.68,1.68,0,0,0-1.72-1.08,2.48,2.48,0,0,0-1.81.73,4.3,4.3,0,0,0-1.07,1.7v7.42a5.26,5.26,0,0,1,.76.24,4,4,0,0,1,.71.4v1h-7.06v-1a7.39,7.39,0,0,1,1.76-.64V137.17l-2-.22v-1c.27-.1.61-.21,1-.32s.85-.2,1.32-.28.92-.15,1.38-.21L200,135h.9v9.41h0a4.87,4.87,0,0,1,.72-1.16,5.15,5.15,0,0,1,1-1,5.07,5.07,0,0,1,1.24-.65,4.19,4.19,0,0,1,1.42-.24,6.53,6.53,0,0,1,1.9.25,3,3,0,0,1,1.4.89,4.45,4.45,0,0,1,.85,1.73,10.46,10.46,0,0,1,.29,2.73v6.38c.31.07.61.15.91.24a3.31,3.31,0,0,1,.85.4Z"/><path class="cls-1" d="M224.41,151.15c0,.39,0,.73,0,1s0,.58.07.9l1.84.27v.93a5.12,5.12,0,0,1-.87.32c-.36.11-.74.21-1.14.31l-1.19.24c-.39.06-.73.11-1,.14h-.9a3.68,3.68,0,0,1-.32-1.22c0-.41-.06-.91-.08-1.49h-.13a3.32,3.32,0,0,1-.46,1,3.54,3.54,0,0,1-.81.88,4,4,0,0,1-1.16.63,4.35,4.35,0,0,1-1.49.24,4.76,4.76,0,0,1-1.63-.27,4.18,4.18,0,0,1-1.3-.75,3.37,3.37,0,0,1-.88-1.16,3.58,3.58,0,0,1-.32-1.53,3.88,3.88,0,0,1,.45-2,3.36,3.36,0,0,1,1.43-1.26,8.44,8.44,0,0,1,2.5-.74,35.63,35.63,0,0,1,3.72-.34,8.12,8.12,0,0,0-.19-3.36,1.65,1.65,0,0,0-1.73-1.07,4.15,4.15,0,0,0-1.52.27l-1.25,3.2h-1.17a7,7,0,0,1-.41-.73c-.14-.28-.26-.57-.38-.88s-.21-.63-.29-.95a6.54,6.54,0,0,1-.17-.93,7.89,7.89,0,0,1,2.61-1.09,13.67,13.67,0,0,1,3.38-.4,7.79,7.79,0,0,1,2.48.33,3.57,3.57,0,0,1,1.5.91,3,3,0,0,1,.76,1.34,6.32,6.32,0,0,1,.22,1.65c0,1.07,0,2-.07,2.89S224.41,150.25,224.41,151.15Zm-6,2a2.06,2.06,0,0,0,1-.21,2.92,2.92,0,0,0,.68-.5,2.36,2.36,0,0,0,.42-.64,5.57,5.57,0,0,0,.23-.62v-2.66a14.84,14.84,0,0,0-2.05.16,3.09,3.09,0,0,0-1.25.44,1.51,1.51,0,0,0-.63.77,3.16,3.16,0,0,0-.17,1.13,2.37,2.37,0,0,0,.48,1.58A1.66,1.66,0,0,0,218.42,153.2Z"/><path class="cls-1" d="M238.1,152.8a2.91,2.91,0,0,0,.83.55,3.33,3.33,0,0,0,1.41.25,3.82,3.82,0,0,0,2.44-.76,2.51,2.51,0,0,0,1-2.11,2.33,2.33,0,0,0-.62-1.65,6.83,6.83,0,0,0-1.59-1.23c-.64-.37-1.32-.74-2-1.11a11.78,11.78,0,0,1-2.05-1.29,6.55,6.55,0,0,1-1.59-1.77,4.85,4.85,0,0,1-.62-2.54,5,5,0,0,1,.48-2.27,4.32,4.32,0,0,1,1.32-1.58,5.58,5.58,0,0,1,2-.93,9.31,9.31,0,0,1,2.48-.31,17.9,17.9,0,0,1,3,.23,10.78,10.78,0,0,1,2.52.7c0,.36-.05.76-.09,1.23s-.11.92-.18,1.37-.14.88-.22,1.28-.16.73-.23,1h-1.09L244,138.21a4.11,4.11,0,0,0-1-.3,6.23,6.23,0,0,0-1.3-.13,3.07,3.07,0,0,0-1.9.59,2,2,0,0,0-.78,1.7,2.49,2.49,0,0,0,.64,1.72,7.35,7.35,0,0,0,1.61,1.29c.64.39,1.34.78,2.1,1.16a12.74,12.74,0,0,1,2.09,1.32,7.18,7.18,0,0,1,1.61,1.74,4.56,4.56,0,0,1,.64,2.47,5,5,0,0,1-1.8,4.11,8.26,8.26,0,0,1-5.29,1.46,14.32,14.32,0,0,1-1.72-.11,16,16,0,0,1-1.64-.29c-.51-.13-1-.26-1.37-.4a3.29,3.29,0,0,1-.89-.46c0-.4.06-.84.13-1.32s.15-.94.23-1.41.16-.92.25-1.34.18-.8.27-1.12H237Z"/><path class="cls-1" d="M261.31,151.15c0,.39,0,.73,0,1s0,.58.07.9l1.83.27v.93a5.3,5.3,0,0,1-.86.32c-.37.11-.75.21-1.15.31l-1.18.24c-.39.06-.74.11-1,.14h-.91a4.24,4.24,0,0,1-.32-1.22c0-.41-.06-.91-.08-1.49h-.13a3.54,3.54,0,0,1-.45,1,4,4,0,0,1-.81.88,4.16,4.16,0,0,1-1.16.63,4.41,4.41,0,0,1-1.5.24,4.75,4.75,0,0,1-1.62-.27,4.23,4.23,0,0,1-1.31-.75,3.35,3.35,0,0,1-.87-1.16,3.44,3.44,0,0,1-.32-1.53,3.88,3.88,0,0,1,.45-2,3.33,3.33,0,0,1,1.42-1.26,8.51,8.51,0,0,1,2.51-.74,35.67,35.67,0,0,1,3.71-.34,8.15,8.15,0,0,0-.18-3.36,1.66,1.66,0,0,0-1.73-1.07,4.15,4.15,0,0,0-1.52.27l-1.25,3.2h-1.18a7,7,0,0,1-.41-.73c-.13-.28-.26-.57-.37-.88a8,8,0,0,1-.3-.95,8.34,8.34,0,0,1-.17-.93,8.08,8.08,0,0,1,2.61-1.09,13.81,13.81,0,0,1,3.39-.4,7.72,7.72,0,0,1,2.47.33,3.68,3.68,0,0,1,1.51.91,3.14,3.14,0,0,1,.76,1.34,6.32,6.32,0,0,1,.21,1.65c0,1.07,0,2-.07,2.89S261.31,150.25,261.31,151.15Zm-6,2a2,2,0,0,0,1-.21,2.55,2.55,0,0,0,.68-.5,2.18,2.18,0,0,0,.43-.64,5.3,5.3,0,0,0,.22-.62v-2.66a15.11,15.11,0,0,0-2.05.16,3.09,3.09,0,0,0-1.25.44,1.62,1.62,0,0,0-.63.77,3.4,3.4,0,0,0-.17,1.13,2.37,2.37,0,0,0,.48,1.58A1.66,1.66,0,0,0,255.31,153.2Z"/><path class="cls-1" d="M265.52,149.73c0-1.12,0-2.16.08-3.12s.08-2,.08-3.05l-1.76-.21v-1A7.92,7.92,0,0,1,265,142c.42-.11.85-.2,1.29-.28l1.29-.22,1.06-.14h.9c0,1.33,0,2.64-.08,3.93s-.08,2.55-.08,3.79a8.22,8.22,0,0,0,.44,3.15,1.64,1.64,0,0,0,1.64.95,2.24,2.24,0,0,0,1.53-.62,4.52,4.52,0,0,0,1.16-2v-7l-1.73-.21v-1a7.43,7.43,0,0,1,1-.32c.4-.11.81-.2,1.25-.28l1.29-.22,1.12-.14H278v11.74l1.75.22v.93a7,7,0,0,1-.93.32c-.37.11-.76.21-1.17.31l-1.21.24c-.4.06-.76.11-1.08.14h-.91l-.18-3.17h-.11a3.92,3.92,0,0,1-.48,1.13,4.17,4.17,0,0,1-.89,1,4.58,4.58,0,0,1-1.29.76,4.42,4.42,0,0,1-1.66.3,5.77,5.77,0,0,1-1.79-.26,3,3,0,0,1-1.35-.89,4.27,4.27,0,0,1-.85-1.72A10.59,10.59,0,0,1,265.52,149.73Z"/><path class="cls-1" d="M297,155H290v-1l.68-.33c.22-.1.48-.2.79-.31v-6.27a5.91,5.91,0,0,0-.48-2.63,1.74,1.74,0,0,0-1.71-1,2.54,2.54,0,0,0-1.74.65,4,4,0,0,0-1.11,1.78v7.42a4.21,4.21,0,0,1,.76.26,4.54,4.54,0,0,1,.71.38v1h-7.06v-1a9.24,9.24,0,0,1,1.75-.64v-9.8l-1.75-.21v-1a5.44,5.44,0,0,1,.9-.31c.38-.1.78-.19,1.21-.28s.88-.16,1.34-.23.86-.11,1.23-.14h.91v2.74h0a5.22,5.22,0,0,1,1.68-1.93,4.49,4.49,0,0,1,2.71-.81,6.32,6.32,0,0,1,1.87.25,3.15,3.15,0,0,1,1.4.89,4.47,4.47,0,0,1,.88,1.73,10.41,10.41,0,0,1,.3,2.73v6.38A4.79,4.79,0,0,1,297,154Z"/><path class="cls-1" d="M307.26,152.38a3.55,3.55,0,0,1-.48,1.12,4.38,4.38,0,0,1-.83.94,3.65,3.65,0,0,1-1.09.66,3.53,3.53,0,0,1-1.3.24,4.89,4.89,0,0,1-4-1.67,7.89,7.89,0,0,1-1.37-5.1,9.28,9.28,0,0,1,.47-3.08,6.18,6.18,0,0,1,1.35-2.22,5.38,5.38,0,0,1,2.09-1.36,7.84,7.84,0,0,1,2.72-.45l.81,0,.61.07a3,3,0,0,1,.54.13c.16.07.36.13.57.2v-4.71l-2-.22v-1a6.16,6.16,0,0,1,1-.29c.43-.09.89-.17,1.37-.25l1.41-.23c.47-.07.85-.13,1.15-.19h.91v18.14l1.75.22v.93a6,6,0,0,1-1,.35c-.39.1-.79.2-1.22.29s-.84.16-1.24.23l-1,.14h-.9l-.24-2.9Zm-2.42.82a2.24,2.24,0,0,0,1.57-.58,3.77,3.77,0,0,0,.93-2v-7.17a3.22,3.22,0,0,0-.87-.34,5.13,5.13,0,0,0-1.29-.14,2.28,2.28,0,0,0-2.21,1.4,9.86,9.86,0,0,0-.67,4.07,8.58,8.58,0,0,0,.59,3.46A2,2,0,0,0,304.84,153.2Z"/><path class="cls-1" d="M326.25,152.78a3.34,3.34,0,0,1-.68.92,4.76,4.76,0,0,1-1.14.82,7.23,7.23,0,0,1-1.57.59,7.91,7.91,0,0,1-1.93.23,8,8,0,0,1-2.93-.5,5.64,5.64,0,0,1-2.14-1.41,6,6,0,0,1-1.29-2.2,8.87,8.87,0,0,1-.44-2.87,7,7,0,0,1,1.79-5.2,6.69,6.69,0,0,1,4.95-1.78,8.41,8.41,0,0,1,2.55.37,4.54,4.54,0,0,1,2,1.22,4.86,4.86,0,0,1,1.09,2.24,9,9,0,0,1,0,3.39h-8.18a5.15,5.15,0,0,0,1.08,3.35,3.81,3.81,0,0,0,3.1,1.25,6.63,6.63,0,0,0,1.83-.26,4.34,4.34,0,0,0,1.48-.69Zm-5.5-9.89a2.32,2.32,0,0,0-.94.19,1.7,1.7,0,0,0-.71.68,4.08,4.08,0,0,0-.49,1.33,13,13,0,0,0-.27,2.12h4.26a7.5,7.5,0,0,0-.23-3.2A1.62,1.62,0,0,0,320.75,142.89Z"/><path class="cls-1" d="M335.34,144.76a3.5,3.5,0,0,0-.75.53,3.3,3.3,0,0,0-.77,1.23v6.84a6.59,6.59,0,0,1,1.06.2A5.37,5.37,0,0,1,336,154v1h-7.73v-1a5.76,5.76,0,0,1,.91-.4c.28-.09.57-.17.85-.24v-9.8l-1.76-.21v-1a6.92,6.92,0,0,1,1.06-.35c.41-.11.84-.2,1.29-.28s.87-.15,1.29-.2l1.05-.13h.91v3.54h.11a6.45,6.45,0,0,1,.62-1.23,7.18,7.18,0,0,1,1-1.17,4.84,4.84,0,0,1,1.23-.85,2.88,2.88,0,0,1,1.38-.29,3.21,3.21,0,0,1,.51,1.05c.14.45.26.88.35,1.29v1Z"/><path class="cls-1" d="M346.77,152.11a1.67,1.67,0,0,0-.5-1.2,6.4,6.4,0,0,0-1.22-.93c-.49-.28-1-.57-1.6-.85a9.59,9.59,0,0,1-1.6-1,5.27,5.27,0,0,1-1.23-1.35,3.49,3.49,0,0,1-.49-1.89,3,3,0,0,1,.37-1.45,3.44,3.44,0,0,1,1-1.1,4.71,4.71,0,0,1,1.53-.71,7,7,0,0,1,1.93-.25,15.07,15.07,0,0,1,2.68.22,10,10,0,0,1,2.17.63,9.71,9.71,0,0,1-.43,1.82c-.21.65-.41,1.24-.61,1.78h-.91l-1.11-2.72a2.28,2.28,0,0,0-.67-.17,6,6,0,0,0-.77-.05,1.51,1.51,0,0,0-1.63,1.52,1.61,1.61,0,0,0,.49,1.16,5.8,5.8,0,0,0,1.23.92c.49.29,1,.57,1.6.85a10.69,10.69,0,0,1,1.6,1,5,5,0,0,1,1.22,1.29,3.15,3.15,0,0,1,.49,1.78,3.33,3.33,0,0,1-1.49,2.89,6.71,6.71,0,0,1-4,1.06,13.52,13.52,0,0,1-2.64-.27,9.47,9.47,0,0,1-2.34-.75,5.8,5.8,0,0,1,.45-1.94,14.48,14.48,0,0,1,.85-1.76h.91l1.3,2.9a1.32,1.32,0,0,0,.65.26c.24,0,.47,0,.68,0a2.36,2.36,0,0,0,1.42-.46A1.45,1.45,0,0,0,346.77,152.11Z"/></g></svg>