<svg xmlns="http://www.w3.org/2000/svg" viewBox="0 0 495.47 288"><defs><style>.cls-1{fill:#2c2e2e;}.cls-2{fill:none;stroke:#2c2e2e;stroke-linecap:round;stroke-linejoin:round;stroke-width:3px;}</style></defs><title>Artboard 33 copy 3scroll</title><g id="Information"><path class="cls-1" d="M155.7,188.12h-9.16v-1c.35-.15.76-.29,1.21-.44a9.45,9.45,0,0,1,1.37-.34V171.2H146l-1.7,4.56h-1.09c-.08-.36-.15-.81-.22-1.36s-.13-1.12-.18-1.71-.1-1.16-.14-1.74,0-1.07,0-1.48h16.94c0,.43,0,.92-.05,1.49s-.08,1.15-.13,1.73-.12,1.15-.19,1.7-.14,1-.21,1.37h-1.1l-1.7-4.56h-3.09v15.13c.46.09.92.2,1.37.32a6.79,6.79,0,0,1,1.21.46Z"/><path class="cls-1" d="M167.72,177.86a3.6,3.6,0,0,0-.75.54,3.3,3.3,0,0,0-.77,1.23v6.84a5.65,5.65,0,0,1,1.06.2,4.4,4.4,0,0,1,1.07.44v1H160.6v-1a4.36,4.36,0,0,1,.91-.4l.85-.25v-9.79l-1.76-.22v-1a6.92,6.92,0,0,1,1.06-.35c.41-.1.84-.2,1.29-.28s.87-.14,1.29-.2l1-.13h.91V178h.1a6.77,6.77,0,0,1,.63-1.22,6.42,6.42,0,0,1,1-1.17,4.88,4.88,0,0,1,1.23-.86,2.88,2.88,0,0,1,1.38-.29,3.21,3.21,0,0,1,.51,1.05c.14.45.26.89.35,1.29v1Z"/><path class="cls-1" d="M179.65,188.12H172.3v-1a4.54,4.54,0,0,1,.82-.36c.29-.1.6-.2.94-.29v-9.79l-1.76-.22v-1a9.21,9.21,0,0,1,1-.32c.4-.11.82-.2,1.26-.28l1.31-.21c.42-.07.8-.11,1.12-.15h.9v12c.36.09.68.18,1,.28a3.62,3.62,0,0,1,.8.36Zm-6-17.69a1.8,1.8,0,0,1,.63-1.46,2.73,2.73,0,0,1,3.26,0,2,2,0,0,1,0,2.9,2.77,2.77,0,0,1-3.26,0A1.8,1.8,0,0,1,173.66,170.43Z"/><path class="cls-1" d="M188,185.21a1.66,1.66,0,0,0-.49-1.19,5.85,5.85,0,0,0-1.23-.94c-.49-.28-1-.56-1.6-.85a9.35,9.35,0,0,1-1.6-1,5.36,5.36,0,0,1-1.22-1.34,3.45,3.45,0,0,1-.49-1.89,2.88,2.88,0,0,1,.37-1.46,3.41,3.41,0,0,1,1-1.1,5.15,5.15,0,0,1,1.53-.71,7,7,0,0,1,1.93-.25,15,15,0,0,1,2.68.23,10.38,10.38,0,0,1,2.17.62,9.92,9.92,0,0,1-.42,1.83c-.22.65-.42,1.24-.62,1.77h-.9L188,176.21a2.2,2.2,0,0,0-.67-.17,6.08,6.08,0,0,0-.77,0,1.53,1.53,0,0,0-1.21.46,1.57,1.57,0,0,0-.42,1.06,1.6,1.6,0,0,0,.5,1.16,6.05,6.05,0,0,0,1.22.91c.49.29,1,.57,1.6.86a10.16,10.16,0,0,1,1.6,1,5,5,0,0,1,1.23,1.29,3.24,3.24,0,0,1,.49,1.79,3.37,3.37,0,0,1-1.49,2.89,6.84,6.84,0,0,1-4,1.05,13.6,13.6,0,0,1-2.64-.27,9.76,9.76,0,0,1-2.34-.74,6.12,6.12,0,0,1,.45-2,14.48,14.48,0,0,1,.85-1.76h.91l1.31,2.91a1.36,1.36,0,0,0,.65.25,5.38,5.38,0,0,0,.68,0,2.41,2.41,0,0,0,1.41-.45A1.45,1.45,0,0,0,188,185.21Z"/><path class="cls-1" d="M209.09,188.12H202v-1a6.88,6.88,0,0,1,.66-.35,4.63,4.63,0,0,1,.8-.29v-5.4a9.44,9.44,0,0,0-.44-3.38,1.67,1.67,0,0,0-1.71-1.08,2.5,2.5,0,0,0-1.82.74,4.25,4.25,0,0,0-1.06,1.69v7.43a5.69,5.69,0,0,1,.76.24,3.42,3.42,0,0,1,.7.4v1h-7.06v-1a7.57,7.57,0,0,1,1.76-.65V170.27l-2-.21v-1a6.94,6.94,0,0,1,1-.32c.42-.11.86-.2,1.32-.28s.92-.16,1.39-.22.87-.11,1.22-.14h.91v9.4h0a4.7,4.7,0,0,1,.71-1.16,6.24,6.24,0,0,1,1-1,5.05,5.05,0,0,1,1.24-.65,4.09,4.09,0,0,1,1.41-.24,6.48,6.48,0,0,1,1.9.25,2.93,2.93,0,0,1,1.4.9,4.21,4.21,0,0,1,.86,1.72,10.94,10.94,0,0,1,.29,2.74v6.38q.45.1.9.24a3.06,3.06,0,0,1,.86.4Z"/><path class="cls-1" d="M221.93,184.26c0,.39,0,.72,0,1s0,.58.07.9l1.84.27v.93a4.92,4.92,0,0,1-.87.32c-.36.11-.75.21-1.15.31s-.79.18-1.18.24l-1,.15h-.91a4.3,4.3,0,0,1-.32-1.23c0-.41-.06-.91-.08-1.49h-.13a3.42,3.42,0,0,1-.45,1,3.55,3.55,0,0,1-.81.88,4.16,4.16,0,0,1-1.16.63,4.39,4.39,0,0,1-1.49.24,4.76,4.76,0,0,1-1.63-.27,4.2,4.2,0,0,1-1.31-.74,3.44,3.44,0,0,1-.87-1.16,3.5,3.5,0,0,1-.32-1.53,3.92,3.92,0,0,1,.45-2A3.39,3.39,0,0,1,212,181.5a8.53,8.53,0,0,1,2.51-.73,35.38,35.38,0,0,1,3.71-.35,8.15,8.15,0,0,0-.18-3.36,1.65,1.65,0,0,0-1.73-1.06,4.37,4.37,0,0,0-1.52.26l-1.25,3.2h-1.18a6.13,6.13,0,0,1-.41-.73c-.13-.28-.26-.57-.37-.88s-.21-.63-.3-.95-.13-.63-.17-.93a8.3,8.3,0,0,1,2.61-1.09,13.81,13.81,0,0,1,3.39-.4,7.72,7.72,0,0,1,2.47.33,3.79,3.79,0,0,1,1.51.91,3.25,3.25,0,0,1,.76,1.34,6.34,6.34,0,0,1,.21,1.66c0,1.06,0,2-.07,2.89S221.93,183.35,221.93,184.26Zm-6,2.05a1.89,1.89,0,0,0,1-.22,2.72,2.72,0,0,0,.68-.5A2.18,2.18,0,0,0,218,185a5.22,5.22,0,0,0,.22-.61v-2.67a15.11,15.11,0,0,0-2.05.16,3.25,3.25,0,0,0-1.25.44,1.58,1.58,0,0,0-.62.77,3.17,3.17,0,0,0-.18,1.14,2.36,2.36,0,0,0,.48,1.57A1.66,1.66,0,0,0,215.93,186.31Z"/><path class="cls-1" d="M235.62,185.91a2.91,2.91,0,0,0,.83.54,3.26,3.26,0,0,0,1.41.26,3.85,3.85,0,0,0,2.43-.76,2.54,2.54,0,0,0,1-2.12,2.3,2.3,0,0,0-.63-1.65,7,7,0,0,0-1.58-1.23c-.64-.37-1.33-.74-2.06-1.1a13.59,13.59,0,0,1-2.05-1.29,6.55,6.55,0,0,1-1.58-1.78,4.76,4.76,0,0,1-.63-2.54,5,5,0,0,1,.48-2.26,4.44,4.44,0,0,1,1.32-1.59,5.63,5.63,0,0,1,2-.93,9.23,9.23,0,0,1,2.47-.31,19.13,19.13,0,0,1,3,.23,10.56,10.56,0,0,1,2.51.7q0,.54-.09,1.23c0,.46-.1.92-.17,1.37s-.15.88-.23,1.28-.15.73-.23,1h-1.09l-1.23-3.65a4,4,0,0,0-.95-.29,6.16,6.16,0,0,0-1.3-.14,3.09,3.09,0,0,0-1.9.59,2,2,0,0,0-.77,1.7,2.45,2.45,0,0,0,.64,1.72,7.28,7.28,0,0,0,1.6,1.29c.64.4,1.34.78,2.1,1.16a13.09,13.09,0,0,1,2.1,1.32,7,7,0,0,1,1.6,1.75,4.41,4.41,0,0,1,.64,2.46,5,5,0,0,1-1.8,4.12,8.29,8.29,0,0,1-5.28,1.45,14.32,14.32,0,0,1-1.72-.11,15.49,15.49,0,0,1-1.64-.29c-.51-.13-1-.26-1.37-.4a2.91,2.91,0,0,1-.89-.45,10.89,10.89,0,0,1,.13-1.32c.07-.47.15-.94.23-1.41s.16-.92.25-1.35.18-.8.26-1.12h1.1Z"/><path class="cls-1" d="M258.82,184.26c0,.39,0,.72,0,1s0,.58.06.9l1.84.27v.93a4.38,4.38,0,0,1-.87.32c-.36.11-.74.21-1.14.31s-.8.18-1.19.24l-1,.15h-.9a3.73,3.73,0,0,1-.32-1.23c0-.41-.06-.91-.08-1.49h-.13a3.21,3.21,0,0,1-.46,1,3.37,3.37,0,0,1-.81.88,4,4,0,0,1-1.16.63,4.35,4.35,0,0,1-1.49.24,4.76,4.76,0,0,1-1.63-.27,4.15,4.15,0,0,1-1.3-.74,3.47,3.47,0,0,1-.88-1.16,3.64,3.64,0,0,1-.32-1.53,3.92,3.92,0,0,1,.45-2,3.42,3.42,0,0,1,1.43-1.26,8.46,8.46,0,0,1,2.5-.73,35.33,35.33,0,0,1,3.72-.35,8.12,8.12,0,0,0-.19-3.36A1.64,1.64,0,0,0,253.2,176a4.37,4.37,0,0,0-1.52.26l-1.25,3.2h-1.17a6.13,6.13,0,0,1-.41-.73c-.14-.28-.26-.57-.38-.88s-.21-.63-.29-.95A6.54,6.54,0,0,1,248,176a8.11,8.11,0,0,1,2.61-1.09,13.67,13.67,0,0,1,3.38-.4,7.79,7.79,0,0,1,2.48.33,3.68,3.68,0,0,1,1.5.91,3,3,0,0,1,.76,1.34,6.34,6.34,0,0,1,.22,1.66c0,1.06,0,2-.07,2.89S258.82,183.35,258.82,184.26Zm-6,2.05a2,2,0,0,0,1-.22,2.92,2.92,0,0,0,.68-.5,2.36,2.36,0,0,0,.42-.64,5.5,5.5,0,0,0,.23-.61v-2.67a14.84,14.84,0,0,0-2.05.16,3.19,3.19,0,0,0-1.25.44,1.61,1.61,0,0,0-.63.77,3.18,3.18,0,0,0-.17,1.14,2.36,2.36,0,0,0,.48,1.57A1.66,1.66,0,0,0,252.83,186.31Z"/><path class="cls-1" d="M263,182.83c0-1.12,0-2.16.08-3.12s.08-2,.08-3.05l-1.76-.21v-1c.29-.11.64-.21,1.05-.32s.85-.2,1.3-.28l1.29-.21,1.05-.15H267c0,1.33,0,2.64-.08,3.93s-.08,2.55-.08,3.8a8,8,0,0,0,.44,3.14,1.64,1.64,0,0,0,1.64,1,2.25,2.25,0,0,0,1.53-.63,4.62,4.62,0,0,0,1.16-2v-7l-1.74-.21v-1a9.21,9.21,0,0,1,1-.32c.4-.11.82-.2,1.26-.28s.86-.15,1.29-.21.8-.11,1.12-.15h.9v11.75l1.76.21v.93a6.61,6.61,0,0,1-.93.32c-.38.11-.77.21-1.18.31s-.81.18-1.21.24l-1.08.15h-.9l-.19-3.18h-.1a4,4,0,0,1-.48,1.14,4.4,4.4,0,0,1-.9,1,4.53,4.53,0,0,1-1.29.76,4.61,4.61,0,0,1-1.65.29,6.16,6.16,0,0,1-1.8-.25,3,3,0,0,1-1.34-.9,4.27,4.27,0,0,1-.86-1.72A10.94,10.94,0,0,1,263,182.83Z"/><path class="cls-1" d="M294.55,188.12h-7.06v-1c.23-.13.45-.24.67-.34s.49-.2.79-.3v-6.28a5.91,5.91,0,0,0-.48-2.63,1.75,1.75,0,0,0-1.7-.95,2.56,2.56,0,0,0-1.75.65,4,4,0,0,0-1.1,1.78v7.43a4.39,4.39,0,0,1,.75.25,5.09,5.09,0,0,1,.71.39v1h-7.06v-1a8.66,8.66,0,0,1,1.76-.65v-9.79l-1.76-.22v-1a5.28,5.28,0,0,1,.91-.31c.37-.1.77-.19,1.21-.28s.88-.16,1.33-.22.87-.11,1.24-.15h.91v2.74h0a5.49,5.49,0,0,1,1.68-1.93,4.52,4.52,0,0,1,2.72-.81,6.3,6.3,0,0,1,1.86.25,3,3,0,0,1,1.4.9,4.23,4.23,0,0,1,.88,1.72,10.39,10.39,0,0,1,.31,2.74v6.38a4.52,4.52,0,0,1,1.76.64Z"/><path class="cls-1" d="M304.77,185.48a3.23,3.23,0,0,1-.47,1.12,4.72,4.72,0,0,1-.83,1,3.84,3.84,0,0,1-1.09.65,3.58,3.58,0,0,1-1.31.24,4.9,4.9,0,0,1-4-1.67,7.94,7.94,0,0,1-1.37-5.1,8.92,8.92,0,0,1,.48-3.07,6.23,6.23,0,0,1,1.35-2.23,5.42,5.42,0,0,1,2.09-1.36,7.78,7.78,0,0,1,2.71-.45c.32,0,.59,0,.82,0s.42,0,.61.06a2.3,2.3,0,0,1,.53.14l.57.2v-4.72l-2-.21v-1a5.24,5.24,0,0,1,1-.3c.43-.09.89-.17,1.37-.25l1.41-.23,1.15-.18h.9v18.14l1.76.21v.93a5.18,5.18,0,0,1-1,.35c-.39.11-.8.2-1.23.29s-.84.17-1.23.23l-1,.15h-.91l-.24-2.91Zm-2.42.83a2.23,2.23,0,0,0,1.57-.59,3.63,3.63,0,0,0,.93-2v-7.16a3.28,3.28,0,0,0-.86-.35,5.29,5.29,0,0,0-1.29-.13,2.26,2.26,0,0,0-2.21,1.4,9.62,9.62,0,0,0-.67,4.06,8.38,8.38,0,0,0,.59,3.46A2,2,0,0,0,302.35,186.31Z"/><path class="cls-1" d="M323.77,185.88a3.34,3.34,0,0,1-.68.92,4.66,4.66,0,0,1-1.15.83,6.85,6.85,0,0,1-1.57.58,7.85,7.85,0,0,1-1.93.23,8.29,8.29,0,0,1-2.93-.49,5.58,5.58,0,0,1-2.13-1.42,6,6,0,0,1-1.29-2.19,8.71,8.71,0,0,1-.44-2.88,7.05,7.05,0,0,1,1.78-5.2,6.7,6.7,0,0,1,5-1.78,8.39,8.39,0,0,1,2.54.37,4.41,4.41,0,0,1,2,1.23,4.73,4.73,0,0,1,1.1,2.24,8.79,8.79,0,0,1-.05,3.38h-8.17a5.09,5.09,0,0,0,1.08,3.36,3.83,3.83,0,0,0,3.1,1.25,6.64,6.64,0,0,0,1.82-.27,4.25,4.25,0,0,0,1.48-.69Zm-5.5-9.88a2.28,2.28,0,0,0-.94.18,1.72,1.72,0,0,0-.72.68,4.39,4.39,0,0,0-.49,1.34,14.24,14.24,0,0,0-.26,2.11h4.26a7.57,7.57,0,0,0-.24-3.19A1.58,1.58,0,0,0,318.27,176Z"/><path class="cls-1" d="M332.85,177.86a3.86,3.86,0,0,0-.74.54,3.18,3.18,0,0,0-.78,1.23v6.84a5.75,5.75,0,0,1,1.07.2,4.34,4.34,0,0,1,1.06.44v1h-7.72v-1a4.3,4.3,0,0,1,.9-.4l.86-.25v-9.79l-1.76-.22v-1a6.42,6.42,0,0,1,1.05-.35c.42-.1.85-.2,1.29-.28s.88-.14,1.3-.2l1.05-.13h.9V178h.11a5.69,5.69,0,0,1,.63-1.22,6,6,0,0,1,1-1.17,4.83,4.83,0,0,1,1.22-.86,3,3,0,0,1,1.39-.29,3.43,3.43,0,0,1,.5,1.05,13.28,13.28,0,0,1,.35,1.29v1Z"/><path class="cls-1" d="M344.28,185.21a1.62,1.62,0,0,0-.49-1.19,5.85,5.85,0,0,0-1.23-.94c-.49-.28-1-.56-1.6-.85a9.35,9.35,0,0,1-1.6-1,5.55,5.55,0,0,1-1.22-1.34,3.45,3.45,0,0,1-.49-1.89,2.88,2.88,0,0,1,.37-1.46,3.53,3.53,0,0,1,1-1.1,5.15,5.15,0,0,1,1.53-.71,7.06,7.06,0,0,1,1.94-.25,14.92,14.92,0,0,1,2.67.23,10.38,10.38,0,0,1,2.17.62,9.92,9.92,0,0,1-.42,1.83c-.22.65-.42,1.24-.62,1.77h-.9l-1.12-2.72a2.2,2.2,0,0,0-.67-.17,6,6,0,0,0-.77,0,1.54,1.54,0,0,0-1.21.46,1.56,1.56,0,0,0-.41,1.06,1.59,1.59,0,0,0,.49,1.16,6.14,6.14,0,0,0,1.23.91c.48.29,1,.57,1.59.86a10.16,10.16,0,0,1,1.6,1,5,5,0,0,1,1.23,1.29,3.16,3.16,0,0,1,.49,1.79,3.37,3.37,0,0,1-1.49,2.89,6.84,6.84,0,0,1-4,1.05,13.42,13.42,0,0,1-2.63-.27,9.7,9.7,0,0,1-2.35-.74,6.4,6.4,0,0,1,.45-2,13.13,13.13,0,0,1,.86-1.76h.9l1.31,2.91a1.36,1.36,0,0,0,.65.25,5.49,5.49,0,0,0,.68,0,2.41,2.41,0,0,0,1.41-.45A1.45,1.45,0,0,0,344.28,185.21Z"/><path class="cls-2" d="M245.3,132.09s12.41,9.8,28,6.17c25.57-6,38.57-32,38.57-32C304.8,101.24,288,98.78,288,98.78"/><path class="cls-2" d="M227.47,81.77s-19.95-9.84-32.29-10.5c0,0,3.08,28.64,18.73,46.27s31.29,14.55,31.29,14.55-19.39-5.81-19.39-35.63S245.2,51,245.2,51h.1s19.39,15.65,19.39,45.47-19.39,35.63-19.39,35.63,15.64,3.08,31.29-14.55,18.73-46.27,18.73-46.27C283,71.93,263,81.77,263,81.77"/><path class="cls-2" d="M245.2,132.09s-12.41,9.8-28,6.17c-25.57-6-38.57-32-38.57-32,7-5.06,23.89-7.52,23.89-7.52"/></g></svg>