<svg xmlns="http://www.w3.org/2000/svg" viewBox="0 0 144 144"><defs><style>.cls-1{fill:#2c2e2e;}</style></defs><title>Artboard 33 copy 6scroll</title><g id="Information"><path class="cls-1" d="M124,61.94a42.77,42.77,0,0,1-2.56,8.93,52.51,52.51,0,0,1-3,6.15,3,3,0,0,0-.32-2.34,6.74,6.74,0,0,0,2.12-2.28,16,16,0,0,0,2-7.27,3.29,3.29,0,0,0-.39-1.8,3.12,3.12,0,0,0,.63-1.09,10.58,10.58,0,0,1,1.08-.23l.43-.07M112.31,63.3c-.15.1-.29.21-.43.32a9.46,9.46,0,0,0-3.52,5.95,5.14,5.14,0,0,0,2.1,5.22,9.55,9.55,0,0,1-1.06.06,9.36,9.36,0,0,1-1.9-.2c-.34-.08-.49-.11-.61-.68a3.4,3.4,0,0,1-.08-.78,23.19,23.19,0,0,1,.32-4.47A6.52,6.52,0,0,1,109,65.1,7.06,7.06,0,0,1,110.74,64a13.6,13.6,0,0,1,1.57-.69m4.25,16.83-.21.32c-1.11,1.76-2.32,3.48-3.63,5.18v0a3,3,0,0,0-.06-2.2,3.27,3.27,0,0,0,2.45-1.33l.54-.72q.45-.58.9-1.2m-18.7,1.14h1a6.28,6.28,0,0,0-3.62,3.29c0,.11-.11.21-.15.32a16.1,16.1,0,0,0-1.48,6.88,7.89,7.89,0,0,0,.61,3.14,4.32,4.32,0,0,0,3.94,2.65,4.78,4.78,0,0,0,1.86-.39,13.6,13.6,0,0,0,2.71-1.51,51.2,51.2,0,0,0,4.3-3.47l-.65.66-.15.16a28.08,28.08,0,0,1-2.88,2.66,15.41,15.41,0,0,1-5,2.65,10.64,10.64,0,0,1-3,.45,8.53,8.53,0,0,1-1.43-.11,5.67,5.67,0,0,1-2.07-.73,4.21,4.21,0,0,1-1.81-2.43,6.23,6.23,0,0,1-.34-1.86,26.46,26.46,0,0,1,.6-6.85,17.42,17.42,0,0,1,1-3.26,5.55,5.55,0,0,1,.43-.79,2.24,2.24,0,0,1,1.58-1.07,23.22,23.22,0,0,1,4.49-.4m28.83-22.54a20.31,20.31,0,0,0-3.65.33,10,10,0,0,0-2.13.56,1.91,1.91,0,0,0-1.15,1.28c-.05.14-.09.29-.13.43a.83.83,0,0,1-.37-.16,9.34,9.34,0,0,0-4.66-1.23,10.64,10.64,0,0,0-2.23.24,11.84,11.84,0,0,0-3,1.14A9.93,9.93,0,0,0,107,62.93a9.39,9.39,0,0,0-2.77,5.24,26.66,26.66,0,0,0-.37,5,6.59,6.59,0,0,0,.15,1.4,3.58,3.58,0,0,0,2.91,3,12,12,0,0,0,2.53.27,12.66,12.66,0,0,0,2.36-.23A15.22,15.22,0,0,0,115,76.48l.54-.25a.69.69,0,0,1-.06.18c-.83,1.35-1.81,2.58-2.75,3.85a.23.23,0,0,1-.2.12l-.16,0a4.84,4.84,0,0,0-.54-.17c-1.69-.48-3.4-.84-5.13-1.15a41.75,41.75,0,0,0-4.15-.56c-1-.07-2-.12-3-.16-.56,0-1.13,0-1.69,0a26.19,26.19,0,0,0-5.07.45,5.22,5.22,0,0,0-3.52,2.39,7.72,7.72,0,0,0-.65,1.2,20.31,20.31,0,0,0-1.23,3.8,30,30,0,0,0-.67,7.62,9.29,9.29,0,0,0,.51,2.76,7.24,7.24,0,0,0,3.1,4,8.89,8.89,0,0,0,3.14,1.12,12.24,12.24,0,0,0,1.9.14,13.69,13.69,0,0,0,3.84-.57,18.69,18.69,0,0,0,5.93-3.14A30.78,30.78,0,0,0,108.5,95a77.27,77.27,0,0,0,10.39-12.9,65.31,65.31,0,0,0,5.33-10,45.07,45.07,0,0,0,3-11.35c.06-.43.12-.86.15-1.29s-.12-.64-.61-.64ZM114,72.78H114a4.26,4.26,0,0,1-.87-.07,2.18,2.18,0,0,1-1.79-2.59,6.52,6.52,0,0,1,2.4-4.12A7.31,7.31,0,0,1,117,64.49a5.55,5.55,0,0,1,.82-.07,3.92,3.92,0,0,1,1.21.19.29.29,0,0,1,.26.34,13,13,0,0,1-1.62,5.94,3.45,3.45,0,0,1-2.14,1.71,5.49,5.49,0,0,1-1.45.18ZM98.14,94.56a1.33,1.33,0,0,1-1.21-.91,4.71,4.71,0,0,1-.34-1.93,13.14,13.14,0,0,1,1.22-5.62c0-.09.09-.18.14-.27a3.24,3.24,0,0,1,2.67-1.9,23.53,23.53,0,0,1,3.24-.23,22.34,22.34,0,0,1,2.31.12,21.17,21.17,0,0,1,3.36.63l.38.12a2.87,2.87,0,0,1-.66,1c-.83.9-1.68,1.8-2.52,2.7a40.52,40.52,0,0,1-5.8,5,10,10,0,0,1-2.1,1.16,1.68,1.68,0,0,1-.69.16Z"/><path class="cls-1" d="M101.46,27.38a25.24,25.24,0,0,1,4.09.77c-.33.89-.75,1.86-1.29,3-.78,1.64-1.61,3.39-2.31,5.27a12.63,12.63,0,0,0-.76,3.19,5.55,5.55,0,0,0,.86,3.65l-.56-.27c-.07,0-.21-.11-.41-.52a7.48,7.48,0,0,1-.58-2.08,9.86,9.86,0,0,1,.19-3.55,40.45,40.45,0,0,0,.8-7.78c0-.5,0-1.05,0-1.65m13.87,6.16a21.29,21.29,0,0,1,2.12,2.13l0,0c-.11.68-.25,1.39-.41,2.08a60.2,60.2,0,0,1-1.66,6,22.31,22.31,0,0,1-1.33,2.92c-.34.64-.68,1.28-1,1.92l-.13.24-.16.35,0,.06a3,3,0,0,0,0,2.57,3,3,0,0,0,2,1.6,3.69,3.69,0,0,0,.87.1,4.25,4.25,0,0,0,1.13-.16,7,7,0,0,0,2.3-1.13,12.65,12.65,0,0,0,2.76-2.66,19.67,19.67,0,0,0,1.57-2.39c.22,1,.41,1.94.56,3s.3,2.21.4,3.28a13.77,13.77,0,0,1-1.54.53,15.39,15.39,0,0,1-3.27.5l-.37,0c-.83,0-1.62.09-2.39.09h-.15a14.46,14.46,0,0,1-4.18-.57l-.11,0a4.67,4.67,0,0,0-1.62-.32h-.13a4.59,4.59,0,0,0-1.74.43l-.11,0a17.47,17.47,0,0,1-2.33.7,2.9,2.9,0,0,0,.32-1.26,3.29,3.29,0,0,0,2.84-1.73l.09-.14a16.11,16.11,0,0,0,2.16-4.55,3.61,3.61,0,0,0,.12-.61v-.06a2.94,2.94,0,0,0-.23-1.46,3.1,3.1,0,0,0-.3-.57,5.87,5.87,0,0,0,2.09-2.62,24.32,24.32,0,0,0,1.4-5c.19-1.13.3-2.24.4-3.3M92.64,46.89a4,4,0,0,1,1.48.32l.39.16A3.95,3.95,0,0,0,92,50.93a5.06,5.06,0,0,1-1.08-2.16,1.44,1.44,0,0,1,.2-1.16,1.63,1.63,0,0,1,1.06-.68,2.59,2.59,0,0,1,.48,0m6.89-22.61-1.52,0c0,.22.1.41.14.61a20.15,20.15,0,0,1,.34,4.1,37.13,37.13,0,0,1-.75,7.2,13,13,0,0,0-.2,4.62,10.19,10.19,0,0,0,.84,2.92,3.89,3.89,0,0,0,1.77,1.88A10.62,10.62,0,0,0,104.86,47h.28a7.74,7.74,0,0,0,3.19-.56c.2-.1.42-.18.63-.26a.41.41,0,0,1,0,.08.83.83,0,0,1,0,.15,13,13,0,0,1-1.77,3.69c-.24.37-.29.51-.44.51a2.61,2.61,0,0,1-.59-.21,16.8,16.8,0,0,1-3.32-1.77c-1.94-1.26-4-2.4-6-3.48a15,15,0,0,0-1.62-.76,7.19,7.19,0,0,0-2.57-.52,5.48,5.48,0,0,0-1,.1A4.5,4.5,0,0,0,88,49.41a9,9,0,0,0,2.89,4.7.15.15,0,0,0,.06,0A24.21,24.21,0,0,0,93.58,56a12.76,12.76,0,0,0,3.75,1.57,25.47,25.47,0,0,0,4.07.61q.84.06,1.68.06a19.8,19.8,0,0,0,2.43-.14A19.33,19.33,0,0,0,109.82,57a3.18,3.18,0,0,1,.9-.3h0a3.54,3.54,0,0,1,.89.23,17.74,17.74,0,0,0,5,.69h.18c1,0,1.93-.07,2.89-.12a18.4,18.4,0,0,0,3.91-.6,13.33,13.33,0,0,0,3.6-1.53.48.48,0,0,0,.25-.49c-.1-1.72-.29-3.42-.54-5.12a33.67,33.67,0,0,0-2.09-7.83,19.68,19.68,0,0,0-1.29-2.75,1,1,0,0,0-.36-.45c0,.12-.07.21-.09.31-.29,1-.58,2-.85,3.05a16.28,16.28,0,0,1-2.8,5.71,9.68,9.68,0,0,1-2.11,2,4,4,0,0,1-1.35.68,1.43,1.43,0,0,1-.35.06.55.55,0,0,1-.18,0l.12-.27,1.13-2.16a25.48,25.48,0,0,0,1.52-3.32A63.41,63.41,0,0,0,120,38.49c.25-1.05.43-2.1.59-3.15a1,1,0,0,0-.25-.91c-.21-.23-.4-.47-.6-.7A28.23,28.23,0,0,0,112.79,28a2.78,2.78,0,0,0-.12.71c0,1.16-.12,2.31-.23,3.47-.14,1.37-.23,2.76-.47,4.12a21.32,21.32,0,0,1-1.22,4.44,2.76,2.76,0,0,1-1.47,1.53,4.67,4.67,0,0,1-2,.46,4.76,4.76,0,0,1-.91-.09,2.42,2.42,0,0,1-2.16-2.78,9.75,9.75,0,0,1,.58-2.44c.64-1.72,1.41-3.37,2.21-5A31.4,31.4,0,0,0,109,27.14a3.82,3.82,0,0,0,.15-.67.32.32,0,0,0-.24-.37c-.4-.14-.79-.3-1.18-.43a28.77,28.77,0,0,0-7.17-1.37c-.35,0-.7,0-1.06,0Zm2.34,29.64a11.54,11.54,0,0,1-2.1-.23,12.66,12.66,0,0,1-3.59-1.25,2.85,2.85,0,0,1-.89-.69,1,1,0,0,1,.51-1.65,2.35,2.35,0,0,1,.69-.1,2.33,2.33,0,0,1,.73.12,5.25,5.25,0,0,1,.77.33c.84.42,1.68.85,2.48,1.35,1,.59,2,1.08,3,1.58l.34.16a3.65,3.65,0,0,1-1.53.37Z"/><path class="cls-1" d="M46,56h0m-3.64,3.42c.35,1.66.72,3.31,1.08,4.92l.15.67c.1.44.21.87.32,1.29a26.07,26.07,0,0,0-3.3,3.21,13.15,13.15,0,0,0-3.14,7.94,15.57,15.57,0,0,0,1.82,8.26,9.83,9.83,0,0,0,2,2.6,6.28,6.28,0,0,0,3.16,1.54,12.85,12.85,0,0,0,2.64.29,10.88,10.88,0,0,0,4.05-.77,9.51,9.51,0,0,0,1.83-.94c.68-.45,1.26-.87,1.78-1.28a25,25,0,0,1,1.17,4.56c.18,1.14.3,2.29.42,3.48a19.38,19.38,0,0,1-1.87.67,26.55,26.55,0,0,1-2.9.78,16.73,16.73,0,0,1-2.4.21A16.49,16.49,0,0,1,41,94.52,24.79,24.79,0,0,1,36.69,91,23.76,23.76,0,0,1,31.6,83.9,21.25,21.25,0,0,1,30,78.13a11.77,11.77,0,0,1,.83-5.95,21.61,21.61,0,0,1,2.32-4.07,20.9,20.9,0,0,1,4-4.21l1.3-1.11c1.29-1.09,2.6-2.21,3.89-3.36m15.06,25h0M44,53.78a.24.24,0,0,0-.14.06l-.19.19c-.45.45-.88.91-1.35,1.34-2.32,2.16-4.75,4.19-7.16,6.25A24.51,24.51,0,0,0,28,71.13a14.88,14.88,0,0,0-1,7.44,24.61,24.61,0,0,0,1.89,6.57,26.84,26.84,0,0,0,5.71,8,29.16,29.16,0,0,0,4.84,3.89,19.78,19.78,0,0,0,9.7,2.8,22,22,0,0,0,3-.27,29.56,29.56,0,0,0,3.23-.87,19.11,19.11,0,0,0,2.92-1.12,3.74,3.74,0,0,0,.95-.63.78.78,0,0,0,.24-.65c-.17-1.7-.33-3.39-.59-5.07A27.69,27.69,0,0,0,57,84.68a8.35,8.35,0,0,0-1.27-2c-.13-.16-.24-.23-.36-.23a.52.52,0,0,0-.36.24l-.11.15a5.73,5.73,0,0,1-1,1.2A22.56,22.56,0,0,1,51.26,86a6.79,6.79,0,0,1-1.26.64,7.8,7.8,0,0,1-3,.56,10.09,10.09,0,0,1-2-.22,3.5,3.5,0,0,1-1.71-.79,7.24,7.24,0,0,1-1.43-1.83,12.63,12.63,0,0,1-1.46-6.69,10.12,10.12,0,0,1,2.43-6.16,22.91,22.91,0,0,1,3-2.94,8.2,8.2,0,0,0,1.05-1,.67.67,0,0,0,.16-.66c-.22-.84-.45-1.67-.64-2.51-.62-2.76-1.25-5.51-1.76-8.28-.1-.54-.2-1.07-.31-1.61a1.71,1.71,0,0,0-.21-.57.24.24,0,0,0-.18-.12Z"/><path class="cls-1" d="M39.9,32.64A3,3,0,0,0,42.43,36c-.09.52-.17,1-.25,1.52l-.93,0h-.58A3.21,3.21,0,0,0,37.52,40c0,.16-.07.33-.11.49-.07.36-.15.72-.21,1.09-.11.6-.2,1.2-.29,1.8l-.11.68a3,3,0,0,0,1,2.77,3.29,3.29,0,0,0,2.13.77h.9c0,.69,0,1.36-.07,2l-.8.09-1.06.12A3.22,3.22,0,0,0,36,53.12c0,.6,0,1.2,0,1.79l-.85.66v0l0-.74v-.31a3,3,0,0,0-1.28-2.33,3.16,3.16,0,0,0-3-.35l-.85.31-1.37.49A3.33,3.33,0,0,0,26.37,56c.06,1.06.14,2.3.29,3.58.12,1,.25,1.87.41,2.71-.45.67-.92,1.37-1.4,2.1a43.62,43.62,0,0,1-.57-5,3.48,3.48,0,0,0-.1-.62,3,3,0,0,0-1.81-2.12,3.09,3.09,0,0,0-1.12-.21,3,3,0,0,0-1.21.25c-.05-1.45,0-2.91.06-4.36,0-.49.08-1,.13-1.52l.44-.22a18.53,18.53,0,0,1,2.07-.83,3.32,3.32,0,0,0,2.29-2.6c.25-1.4.56-2.8.92-4.16a3.13,3.13,0,0,0-.71-2.94,3.07,3.07,0,0,0-1.2-.82c.49-.84,1-1.73,1.63-2.69l.61-.08a3.61,3.61,0,0,0,2.89-2c.25-.49.5-.94.76-1.37a3,3,0,0,0,.5,1.42,3,3,0,0,0,2.49,1.32h.59l.66,0c.43,0,.87,0,1.3,0a3.37,3.37,0,0,0,3.2-2.16l.41-1m-9.74,15.6.33,0,.68-.08c.52-.06,1-.11,1.52-.15a3.27,3.27,0,0,0,3.06-2.85,25.59,25.59,0,0,1,.79-3.39,3.14,3.14,0,0,0-.68-3.18,3,3,0,0,0-2.2-1h-.13c-.58,0-1.14.08-1.68.14l-.74.07a3.32,3.32,0,0,0-3,2.68c-.06.28-.13.55-.2.82s-.16.66-.23,1l-.06.28c-.15.69-.3,1.41-.42,2.22a3,3,0,0,0,3,3.41m-3.09-12.6h0m13.19,12h0m4.6-23.57a25.85,25.85,0,0,0-4.29.41.58.58,0,0,0-.45.39q-1.82,3.75-3.4,7.62a.4.4,0,0,1-.44.3c-.67,0-1.35,0-2,0h-.52a59.64,59.64,0,0,1,3.47-7.32,5.49,5.49,0,0,0-1,.27A27.59,27.59,0,0,0,30.05,29a2.19,2.19,0,0,0-.49.47,25.17,25.17,0,0,0-2.23,3.64.63.63,0,0,1-.54.39c-.62.06-1.23.19-1.85.27a.47.47,0,0,0-.38.25c-1.22,1.88-2.38,3.79-3.42,5.78a19.67,19.67,0,0,0-1.28,2.89,1,1,0,0,0-.08.4c1.36-.4,2.71-.75,4-1a.17.17,0,0,1,0,.18c-.38,1.45-.7,2.91-1,4.39,0,.19-.14.24-.29.29a19.72,19.72,0,0,0-2.44,1,10.07,10.07,0,0,0-1.73,1,.51.51,0,0,0-.23.37c-.12.95-.22,1.9-.28,2.85a48.11,48.11,0,0,0,.3,9.29,2.24,2.24,0,0,0,.17.78,38.33,38.33,0,0,1,3.67-2.77.87.87,0,0,1,0,.13,45.08,45.08,0,0,0,1,7.32,31.75,31.75,0,0,0,1.37,4.68c0,.12.05.26.19.34a16.13,16.13,0,0,1,1.15-2.13c1.35-2.23,2.79-4.4,4.24-6.56a.67.67,0,0,0,.14-.56c-.25-1.13-.42-2.28-.56-3.43s-.21-2.25-.27-3.38c0-.21,0-.32.24-.39l2.29-.83a.28.28,0,0,1,.13,0,.17.17,0,0,1,.11,0c0,.32,0,.66,0,1a34.35,34.35,0,0,0,.33,3.92,5.14,5.14,0,0,0,.31,1.33c.06.15.11.22.19.22a.43.43,0,0,0,.22-.12c1.85-1.52,3.74-3,5.63-4.46a.53.53,0,0,0,.22-.51c0-1-.08-1.9-.08-2.86,0-.19.06-.27.25-.29l2-.23c.75-.09,1.5-.12,2.25-.14.17,0,.25,0,.24-.23s0-.49,0-.73c.06-2.16.14-4.32.27-6.48,0-.39.05-.36-.32-.36l-3.55,0H40a.3.3,0,0,1-.21-.07c.13-.81.25-1.63.39-2.44.09-.5.21-1,.31-1.49,0-.14.07-.23.21-.23H41c1.13,0,2.26.1,3.39.2h.15c.15,0,.15,0,.19-.27a.37.37,0,0,0,0-.11c.26-1.76.54-3.52.9-5.26.1-.53.23-1.06.35-1.61-1.05-.2-2.1-.26-3.15-.39.57-1.53,1.16-3,1.78-4.46s1.27-2.92,1.92-4.39l-.16,0c-.52-.05-1-.07-1.56-.07ZM30.16,45.24c.12-.8.29-1.54.44-2.28s.3-1.21.43-1.82a.33.33,0,0,1,.34-.32c.77-.07,1.54-.17,2.29-.2.08.08,0,.15,0,.22a28.26,28.26,0,0,0-.89,3.85c0,.21-.11.29-.34.31-.75,0-1.49.15-2.29.24Zm7.05-19.73Z"/><path class="cls-1" d="M87.77,78.47h0m-3.61,3.06c-.07.4-.15.81-.23,1.21-.3,1.53-.6,3.11-.85,4.69s-.44,3.32-.6,4.86c-.18,1.8-.3,3.6-.43,5.34l-.11,1.63a51.55,51.55,0,0,1-.63,5.39l-.18,1a20.11,20.11,0,0,1-.64,2.9,7.86,7.86,0,0,1-5.07,5.38,7.2,7.2,0,0,1-2.45.41c-.21,0-.42,0-.64,0a11.13,11.13,0,0,1-2.43-.39,4.54,4.54,0,0,1-1.47-.86,6.08,6.08,0,0,1-2.1-3.47c-.28-1.17-.46-2.43-.63-3.65l-.12-.88q-.15-1-.27-2c-.07-.51-.12-1-.18-1.51s-.12-1.09-.19-1.64-.13-1.35-.18-2.08l-.12-1.54c0-.48-.11-1-.17-1.42s-.11-.89-.15-1.33a63.54,63.54,0,0,0-1-6.55l-.13-.68c-.09-.47-.2-.93-.31-1.37l.3-.09.43-.13c1.46-.43,2.85-.84,4.25-1.16,0,.86-.07,1.74-.16,2.59-.12,1.25-.27,2.53-.4,3.61,0,.44-.11.89-.17,1.33-.23,1.81-.46,3.68-.52,5.61,0,.35,0,.71,0,1.06,0,.69-.07,1.41-.06,2.17a23.11,23.11,0,0,0,1,6.38,7.06,7.06,0,0,0,1.83,3.1,5.5,5.5,0,0,0,3.85,1.57,6,6,0,0,0,1.44-.18,5,5,0,0,0,2.92-2.07,8.51,8.51,0,0,0,1.4-3.32,24.77,24.77,0,0,0,.53-4.9A62.94,62.94,0,0,0,79.1,94L79,93c-.07-.88-.15-1.77-.24-2.65s-.2-1.94-.31-2.9l-.12-1.07-.4-3.68-.06-.57a38.88,38.88,0,0,1,5.56-.52l.73,0m2-3.06H84.77v0c-.47,0-.94.06-1.41.07a41.67,41.67,0,0,0-6.41.63,10.62,10.62,0,0,0-1.85.45c-.47.17-.5.22-.44.72v0c.1.86.19,1.72.29,2.58.13,1.22.27,2.45.4,3.67s.29,2.63.43,3.95.22,2.45.33,3.68a59.28,59.28,0,0,1,.28,6.25,21.54,21.54,0,0,1-.46,4.31,5.87,5.87,0,0,1-.9,2.21,2.12,2.12,0,0,1-1.2.9,3.13,3.13,0,0,1-.73.1,2.49,2.49,0,0,1-1.77-.74,3.92,3.92,0,0,1-1-1.8,20.5,20.5,0,0,1-.83-5.56c0-1,.08-2.06.11-3.09.06-2.24.4-4.45.67-6.67.15-1.23.29-2.45.41-3.68s.17-2.66.19-4a16.69,16.69,0,0,0,0-1.87c0-.35-.14-.47-.5-.48h-.09a2.1,2.1,0,0,0-.36,0c-.76.13-1.51.25-2.25.41-1.81.38-3.57.92-5.33,1.45-.93.27-1.86.52-2.77.84-.34.11-.34.12-.27.45a6.28,6.28,0,0,0,.23.85A26.06,26.06,0,0,1,60.22,87a67.78,67.78,0,0,1,1.11,6.92c.08.93.23,1.84.32,2.77.11,1.24.15,2.48.31,3.72.14,1,.24,2.1.37,3.14s.27,1.92.4,2.87c.19,1.32.37,2.64.69,3.94a9,9,0,0,0,3.13,5.11A7.66,7.66,0,0,0,69,116.8a13.58,13.58,0,0,0,3.11.52q.44,0,.87,0a10.41,10.41,0,0,0,3.45-.58,10.84,10.84,0,0,0,6.91-7.26,31.63,31.63,0,0,0,.93-4.32,52.28,52.28,0,0,0,.67-5.71c.17-2.3.31-4.59.54-6.88.16-1.57.32-3.14.57-4.7.36-2.24.82-4.47,1.24-6.71a18.53,18.53,0,0,0,.38-2.25c0-.4-.06-.47-.45-.47Z"/><path class="cls-1" d="M51.67,25.14h0m-.38,2.68c.41.1.81.2,1.19.33a33.51,33.51,0,0,1,3.4,1.29c-.18.32-.36.65-.54,1-.1.2-.2.4-.31.59a30.58,30.58,0,0,0-3.33,9.83c-.14.83-.22,1.63-.29,2.4l0,.45,0,.26c-.13,1.32-.27,2.7-.31,4.11s0,2.79.07,4A4,4,0,0,0,51.69,54,3,3,0,0,0,54,55.39h.26a3,3,0,0,0,2.23-1l.11-.12a18.41,18.41,0,0,0-.09,2.4v.18c0,.93,0,1.89.1,2.87-1.92.77-3.78,1.61-5.53,2.43a21.81,21.81,0,0,1-.59-2.23,47.69,47.69,0,0,1-.85-4.89c0-.37-.07-.74-.11-1.11s-.08-.91-.13-1.36A35.58,35.58,0,0,1,49.17,47c.08-1.87.19-3.59.34-5.28.17-1.87.41-3.87.78-6.48.1-.71.22-1.41.33-2.11l.21-1.27c.16-1,.26-2.06.36-3v-.12l.09-.83m13.49,2.26h0m-1,4.59c.54.48,1.05,1,1.54,1.47s.69.71,1,1.06l-.15.17-.47.54c-.46.55-.93,1.1-1.4,1.64-.75.86-1.52,1.76-2.27,2.68a26.47,26.47,0,0,0-2.3,3.31c.66-1.83,1.32-3.5,2-5.09a49.6,49.6,0,0,0,2.07-5.78M49,24.27c-.15,0-.19.1-.24.38-.21,1.23-.37,2.46-.49,3.7-.1,1-.2,2-.35,3-.18,1.15-.39,2.29-.55,3.43-.31,2.2-.59,4.41-.8,6.63-.16,1.81-.27,3.62-.34,5.44a38.68,38.68,0,0,0,.22,6.09c.1.82.15,1.65.24,2.47a50.53,50.53,0,0,0,.9,5.18,19.59,19.59,0,0,0,1.37,4.28,3.68,3.68,0,0,0,.47.78c.2.26.36.37.57.37a1.12,1.12,0,0,0,.45-.12,3.37,3.37,0,0,0,.38-.19c.27-.15.54-.33.83-.47,2.19-1,4.39-2.05,6.66-2.93a8,8,0,0,0,1-.5.71.71,0,0,0,.4-.71c0-.51-.07-1-.1-1.52-.06-1-.08-2-.1-2.94a13.39,13.39,0,0,1,.38-3.78,23.22,23.22,0,0,1,4.46-8.73c1.18-1.45,2.43-2.84,3.64-4.27a21.75,21.75,0,0,0,1.65-2.05c.48-.72.49-.72-.06-1.4a31.3,31.3,0,0,0-2.11-2.35c-1.22-1.26-2.56-2.37-3.88-3.5a11.47,11.47,0,0,0-1.46-1.05.41.41,0,0,0-.19-.08c-.06,0-.09.07-.11.23-.09.63-.2,1.26-.34,1.88a44.65,44.65,0,0,1-2.54,7.74A127.21,127.21,0,0,0,54.42,52a.86.86,0,0,1-.18.41,1.28,1.28,0,0,1-.15-.57C54,50.61,54,49.39,54,48.17c0-1.39.18-2.77.32-4.15.09-.88.16-1.77.31-2.65a27.68,27.68,0,0,1,3-8.88l.37-.71a10.44,10.44,0,0,1,1.54-2.4,2.83,2.83,0,0,0,.48-.69c.14-.28.14-.31-.12-.49a7.38,7.38,0,0,0-1-.63,34.17,34.17,0,0,0-5.49-2.28c-1.39-.45-2.84-.67-4.26-1l-.19,0Z"/><path class="cls-1" d="M92.09,28.6a1.57,1.57,0,0,1,1.38.74,4.3,4.3,0,0,1,.93,2.46,4.57,4.57,0,0,1-1.56,3.78c.06-.29.12-.58.16-.89a5.75,5.75,0,0,0,0-1.81,4.37,4.37,0,0,0-3.52-3.6,11.17,11.17,0,0,1,2-.62,3.38,3.38,0,0,1,.6-.06M81.77,34.12a4.35,4.35,0,0,0-.12,2.7c.5,1.86.88,3.75,1.15,5.19.22,1.14.35,2.35.45,3.39s.21,2.08.3,3.12h-.16a13.55,13.55,0,0,0-1.89.13c0-.15-.06-.29-.08-.43l-.1-.48a77.87,77.87,0,0,0-1.81-7.59c-.3-1-.64-2-1-3l.68-.68c1-.9,1.8-1.68,2.61-2.36M92.09,25.6a6.8,6.8,0,0,0-1.17.11,17.11,17.11,0,0,0-4.08,1.45,7.55,7.55,0,0,0-3.79,4.05c0,.05,0,.1-.13.11A.7.7,0,0,1,82.8,31a2.84,2.84,0,0,0-.48-.82.26.26,0,0,0-.2-.11.29.29,0,0,0-.16.06c-.2.14-.4.26-.59.41a52.55,52.55,0,0,0-4.28,3.74,25.76,25.76,0,0,0-1.84,1.93.62.62,0,0,0-.1.75,29.85,29.85,0,0,1,1.48,4c.7,2.41,1.29,4.84,1.75,7.3a18.58,18.58,0,0,1,.41,2.79,1.52,1.52,0,0,0,.12.59.51.51,0,0,0,.49.35h0l.38,0,1.35-.25a12.63,12.63,0,0,1,2.21-.21,10,10,0,0,1,2.36.28,2.15,2.15,0,0,0,.45.06c.4,0,.55-.23.55-.83s0-.94-.08-1.4c-.14-1.51-.28-3-.43-4.52-.12-1.23-.26-2.45-.49-3.67-.35-1.8-.72-3.61-1.2-5.39a1.37,1.37,0,0,1,.37-1.4,12.53,12.53,0,0,1,2.3-1.93,3.24,3.24,0,0,1,1-.46,2,2,0,0,1,.41,0A1.36,1.36,0,0,1,90,33.41a2.82,2.82,0,0,1,0,.87c-.12.86-.41,1.68-.61,2.52a4.53,4.53,0,0,0-.19,1.09,1.32,1.32,0,0,0,1.07,1.38,1.54,1.54,0,0,0,.42.07H91a5.46,5.46,0,0,0,3.87-1.55,7.52,7.52,0,0,0,2.54-6.2,7.32,7.32,0,0,0-1.55-4.11,4.58,4.58,0,0,0-3.75-1.89Z"/><path class="cls-1" d="M89.78,59.71h0m.76.53a3.27,3.27,0,0,0,.55.87l.08.08a3.86,3.86,0,0,0-1.94,3c0,.24-.07.49-.1.74s-.09.68-.13,1a30.74,30.74,0,0,0-.12,5.14c0,.2,0,.46,0,.76,0,.54,0,1.22.06,1.91a.38.38,0,0,0,0,.1l-.57,0a16.62,16.62,0,0,1-.11-4.35c.06-.78.13-1.56.19-2.34l.07-.83a31.35,31.35,0,0,1,1-5.92,4.65,4.65,0,0,1,1-.2m8.65,2a4.89,4.89,0,0,1,.61.3c.22.12.36.22.42.68s.07.66.08,1a46.16,46.16,0,0,1-.12,4.76,34.39,34.39,0,0,1-.64,4l-.14.68-1.36,0a32.45,32.45,0,0,1,1-3.47,19.19,19.19,0,0,0,.92-3.64,9.14,9.14,0,0,0,.07-1.84,4.39,4.39,0,0,0-.89-2.43m-8.12-5a8.27,8.27,0,0,0-3.43.76,1.25,1.25,0,0,0-.72.85,33.59,33.59,0,0,0-1.36,7.29c-.09,1.06-.17,2.11-.26,3.16a18.67,18.67,0,0,0,.35,6.1,7.93,7.93,0,0,0,.36,1.2.53.53,0,0,0,.51.38h.88c1-.06,2-.12,3-.15a8.94,8.94,0,0,0,1.37-.11c.29-.06.37-.14.37-.43a3.63,3.63,0,0,0,0-.57C92.08,75,92,74.26,92,73.55c-.06-1,0-2-.07-2.62a26.91,26.91,0,0,1,.1-4.66c.07-.58.16-1.16.23-1.74a.86.86,0,0,1,.63-.81,7.53,7.53,0,0,1,1.39-.38l.49,0a3.54,3.54,0,0,1,1.52.34,1.32,1.32,0,0,1,.84,1.21,5.52,5.52,0,0,1,0,1.22,16,16,0,0,1-.77,3.06A36.5,36.5,0,0,0,94.68,75a7,7,0,0,0-.14,1c0,.33.06.41.39.49a2.75,2.75,0,0,0,.57,0l2.18,0,3.54.11h.15c.26,0,.28,0,.41-.37a5.11,5.11,0,0,0,.34-1.09l.36-1.68a35.63,35.63,0,0,0,.69-4.36,47.68,47.68,0,0,0,.13-5.07c0-.45,0-.89-.1-1.33a3.66,3.66,0,0,0-2-2.92,7.73,7.73,0,0,0-1.32-.59,11.11,11.11,0,0,0-3.7-.55H95.6a4.85,4.85,0,0,0-1.31.21,4.8,4.8,0,0,1-.63.15h-.14c-.21,0-.28-.12-.25-.39s.07-.4.1-.6a.62.62,0,0,0-.41-.73l-.33-.1a4.6,4.6,0,0,0-.83-.11l-.73,0Z"/><path class="cls-1" d="M57.85,67.12h0m-2,.7c.26,2,.56,4,.92,6a36.28,36.28,0,0,0,1.09,4.64,8.57,8.57,0,0,1-1-.51,3.87,3.87,0,0,0-.37-.24,4.25,4.25,0,0,0-.64-.29,10,10,0,0,0,.48-2.66,1.92,1.92,0,0,0,0-.24A12.18,12.18,0,0,0,56,71.7a7.5,7.5,0,0,0-.68-1.82,2.4,2.4,0,0,0-.16-.27l.17-.23a3,3,0,0,0,.51-1.55h0M45.55,76.75c0,.43.1.9.19,1.38a7.36,7.36,0,0,0,.93,2.67,4.55,4.55,0,0,0,1.16,1.3,5.48,5.48,0,0,1-1.06.19,6.69,6.69,0,0,1-.86-1.94,10.13,10.13,0,0,1-.37-3,.19.19,0,0,0,0-.08,4.1,4.1,0,0,1,0-.5m12.2-12.63-.38,0a10.55,10.55,0,0,0-4.06,1.66,1.29,1.29,0,0,0-.57,1.11,1.91,1.91,0,0,0,0,.53c.06.33,0,.27-.24.33-.45.1-.89.21-1.33.34a14.87,14.87,0,0,0-5.35,2.67,8,8,0,0,0-3.31,6.54,13.09,13.09,0,0,0,.5,3.88,9.26,9.26,0,0,0,1.38,3,2.54,2.54,0,0,0,2.15,1.15h.2a9.22,9.22,0,0,0,3.57-1,8.75,8.75,0,0,0,4.13-3.82s0,0,0,0,.18-.23.28-.23a.58.58,0,0,1,.25.09c.11.06.21.14.32.21a7.26,7.26,0,0,0,2.85,1.11,4.44,4.44,0,0,0,.63,0,9.14,9.14,0,0,0,1.94-.26,2.67,2.67,0,0,0,.87-.36.44.44,0,0,0,.2-.62c-.09-.24-.2-.47-.31-.7a27.28,27.28,0,0,1-1.83-6.43c-.48-2.76-.86-5.53-1.21-8.3-.09-.66-.24-.9-.72-.9ZM50.18,79.87a1.12,1.12,0,0,1-1-.62,4.83,4.83,0,0,1-.54-1.66,15.09,15.09,0,0,1-.22-2.12,7.35,7.35,0,0,1,.17-1.93,3.49,3.49,0,0,1,1.15-1.89,5.59,5.59,0,0,1,1.35-.85,1.36,1.36,0,0,1,.58-.14,1,1,0,0,1,.92.66,5.52,5.52,0,0,1,.41,1.14,9.51,9.51,0,0,1,.28,2.17,7.54,7.54,0,0,1-1.56,4.24,3,3,0,0,1-.94.82,1.42,1.42,0,0,1-.65.18Z"/><path class="cls-1" d="M73.77,62.38h0a4.19,4.19,0,0,1,.5,0,3.6,3.6,0,0,1,.2,1.37.49.49,0,0,0,0,.12,7.37,7.37,0,0,1-.26,1.64,6,6,0,0,0-.38-1.46,4.77,4.77,0,0,0-1.06-1.58,4.19,4.19,0,0,1,1-.12m-9.19,1.31a3.31,3.31,0,0,0,1.14.78,7.36,7.36,0,0,0-.47,2.58,16.43,16.43,0,0,0,2.55,9.32l-1.55.34-.31.07v0l-.1-.22a18.86,18.86,0,0,1-1.15-3.65l-.07-.28c-.46-2-.94-4.07-1.35-6.1A16.17,16.17,0,0,1,63,64.38a9.27,9.27,0,0,1,1.56-.69m9.19-4.31a7.26,7.26,0,0,0-1.79.23,19.08,19.08,0,0,0-4.54,1.85,3.55,3.55,0,0,1-.44.21.2.2,0,0,1-.1,0c-.1,0-.16-.07-.19-.18a1.93,1.93,0,0,1,0-.42c0-.36-.07-.46-.42-.56a1.67,1.67,0,0,0-.44-.06l-.51,0A10.14,10.14,0,0,0,61.18,62a3.74,3.74,0,0,0-.55.41A1.69,1.69,0,0,0,60,63.82a22.09,22.09,0,0,0,.33,3.26c.43,2.17.93,4.32,1.43,6.47a21.61,21.61,0,0,0,1.36,4.24A7.51,7.51,0,0,0,64,79.46a1.37,1.37,0,0,0,1.11.63,2,2,0,0,0,.6-.1c.39-.12.77-.26,1.17-.35,1.45-.32,2.9-.64,4.38-.83a4.86,4.86,0,0,0,1-.24c.3-.11.33-.18.18-.48a3,3,0,0,0-.3-.48c-.62-.89-1.21-1.79-1.76-2.72a15.53,15.53,0,0,1-1.74-4,14.86,14.86,0,0,1-.41-3.82,4.4,4.4,0,0,1,.29-1.56,1.66,1.66,0,0,1,.66-.86,1.42,1.42,0,0,1,.79-.26,1.18,1.18,0,0,1,1.07.83,4.12,4.12,0,0,1,.18,2c-.08.68-.25,1.35-.39,2-.18.95.23,1.5,1.16,1.5h.11a6.42,6.42,0,0,0,3-.89,3.39,3.39,0,0,0,1.62-2.13c.09-.38.19-.76.28-1.14a10.94,10.94,0,0,0,.41-2.78A6.31,6.31,0,0,0,76.91,61,2.42,2.42,0,0,0,75,59.49a7.3,7.3,0,0,0-1.23-.11Z"/><path class="cls-1" d="M66.49,48.94c0,.13.08.26.12.38a3.62,3.62,0,0,0-.86,1.26l0,.06v0a15.76,15.76,0,0,1,.77-1.72m-1,2.29-.06.21a13.84,13.84,0,0,0-.33,2.23,5.34,5.34,0,0,0,0,.79,4.66,4.66,0,0,0,.3,1.25,4.65,4.65,0,0,1-.58-.1l-.17-.07a1.31,1.31,0,0,1,0-.28A8.44,8.44,0,0,1,65,53.19a16.53,16.53,0,0,1,.55-2m10.12,1.09h0m.69.84h0M73,39.11a2.36,2.36,0,0,0-.37,0,4.35,4.35,0,0,0-1.21.33,9,9,0,0,0-2.65,1.76,22,22,0,0,0-1.62,1.72,26.73,26.73,0,0,0-2.43,3.18A19.4,19.4,0,0,0,62,52.54a10.76,10.76,0,0,0-.37,2.82,4.42,4.42,0,0,0,.16,1.09,3,3,0,0,0,2.23,2,7.13,7.13,0,0,0,2,.25h.23a23,23,0,0,0,4-.44A26.25,26.25,0,0,0,74.4,57a6,6,0,0,0,.95-.47,3.72,3.72,0,0,0,1.77-2.38,8.35,8.35,0,0,0,.17-2.54,2.18,2.18,0,0,0-.15-.67,1,1,0,0,0-1-.77h-.18a7.25,7.25,0,0,0-2.77,1,1.08,1.08,0,0,0-.51.89,7.22,7.22,0,0,0,0,.8,1.9,1.9,0,0,1-1,1.75,4.56,4.56,0,0,1-1.65.57,2.83,2.83,0,0,1-.5.05l-.33,0a1.1,1.1,0,0,1-1-1.06,2,2,0,0,1,0-.35,10.18,10.18,0,0,1,.26-1.73,3,3,0,0,1,.14-.39.46.46,0,0,1,.39-.33c.22,0,.44-.1.67-.14a20.41,20.41,0,0,0,4.06-1,6.48,6.48,0,0,0,1.75-.91,2.92,2.92,0,0,0,1.08-1.61,6.3,6.3,0,0,0,.22-1.55,12.11,12.11,0,0,0-1-4.75,5,5,0,0,0-.82-1.37,2.47,2.47,0,0,0-2-.94Zm-3.38,9.2c-.12,0-.18-.07-.19-.19a1.54,1.54,0,0,1,.06-.64c.3-.91.56-1.84.94-2.73.1-.22.22-.43.34-.64a1.57,1.57,0,0,1,.3-.38.7.7,0,0,1,.44-.23.59.59,0,0,1,.45.3,2.69,2.69,0,0,1,.51,1.33c0,.39.06.79.08,1,.06,1.16-.25,1.6-1.21,1.91a8,8,0,0,1-1.68.26Z"/><path class="cls-1" d="M81.75,60h0m0,0v0h0v0m-.35,2.51.19,0c-.06.32-.11.63-.17,1a42.07,42.07,0,0,0-.65,6.71v.42c0,1.18,0,2.4.12,3.67l0,.27-1,.08c0-.27,0-.53,0-.79,0-.95.15-1.9.26-2.92l.08-.68c.16-1.54.41-3.06.67-4.67.13-.87.27-1.74.4-2.6,0-.16,0-.31.07-.46M79,59.18c-.13,0-.15.07-.2.3l0,.15c-.13,1-.27,2-.41,2.95C78,65,77.54,67.49,77.28,70c-.14,1.25-.29,2.5-.36,3.75,0,1.08-.09,2.16-.13,3.24,0,.28,0,.55,0,.87.42,0,.83-.07,1.25-.08,1.54,0,3.07-.14,4.6-.32a7.82,7.82,0,0,0,1.53-.3c.24-.09.25-.1.17-.36A14.83,14.83,0,0,1,83.88,74c-.12-1.27-.11-2.54-.11-3.81A38.1,38.1,0,0,1,84.38,64c.16-1,.37-1.89.54-2.84.07-.38.12-.76.18-1.13,0-.14,0-.22-.17-.22h-.16a45.37,45.37,0,0,1-5.57-.6l-.2,0Z"/><path class="cls-1" d="M58.17,102.43h0M58,103.69s0,.07,0,.11a4.53,4.53,0,0,1,.29,1.78,7.6,7.6,0,0,1-.37,2.14h0a7,7,0,0,1-3-1.45,3.58,3.58,0,0,1-.47-.49,2.77,2.77,0,0,0,.6.06A3.09,3.09,0,0,0,58,103.69m-.54-3.82a2.12,2.12,0,0,0-2,1.41,4.07,4.07,0,0,0-.27,1.3c0,.18,0,.26-.12.26a.71.71,0,0,1-.21-.07,4.23,4.23,0,0,0-1.14-.42,3.27,3.27,0,0,0-.53,0A2.09,2.09,0,0,0,51,104.08a2.9,2.9,0,0,0,0,1.21,5.46,5.46,0,0,0,1.92,3.25,9.92,9.92,0,0,0,4.26,2.1,6.67,6.67,0,0,0,1.47.2l.5,0a1.08,1.08,0,0,0,.74-.42,3.83,3.83,0,0,0,.54-.91,10.31,10.31,0,0,0,.84-3.87,7.6,7.6,0,0,0-.53-3,5.16,5.16,0,0,0-1.69-2.17,2.86,2.86,0,0,0-1.37-.56Z"/><path class="cls-1" d="M89.13,104.58h0m-.38,1.8a3.2,3.2,0,0,0,1.19.57l-.34.18a5.57,5.57,0,0,1-.63.29,6.36,6.36,0,0,1-.22-1m-.09-4.66a2,2,0,0,0-.42,0,2.76,2.76,0,0,0-1.64,1.17,5,5,0,0,0-.88,3,8.34,8.34,0,0,0,1,3.74c.4.72.62.94,1.22.94a6.09,6.09,0,0,0,.65,0,7.33,7.33,0,0,0,2.4-.81A6.1,6.1,0,0,0,93.23,108a3.8,3.8,0,0,0,.8-2.72,1.8,1.8,0,0,0-1.82-1.71,2,2,0,0,0-.48.06,3.2,3.2,0,0,0-.94.38.34.34,0,0,1-.14,0c-.07,0-.1-.06-.12-.18a1.23,1.23,0,0,1,0-.19,2.72,2.72,0,0,0-.49-1.22,1.69,1.69,0,0,0-1.36-.72Z"/><path class="cls-1" d="M82.77,53a9.41,9.41,0,0,0-1.39.11,4.08,4.08,0,0,0-1.8.68,2.2,2.2,0,0,0-.93,2.13,2.87,2.87,0,0,0,2.09,2.56,6.83,6.83,0,0,0,2.19.32h.15a5.19,5.19,0,0,0,1-.09A3.81,3.81,0,0,0,85.77,58a2.16,2.16,0,0,0,.85-1.52,3.08,3.08,0,0,0-2.43-3.38A7.5,7.5,0,0,0,82.77,53Z"/></g></svg>